%FSLAX45Y45*%
G04 Gerber Fmt 4.5, Leading zero omitted, Abs format (unit mm)*
G04 Created by KiCad (PCBNEW (6.0.4)) date 2022-05-24 10:55:21*
%MOMM*%
%LPD*%
G01*
G04 APERTURE LIST*
%TA.AperFunction,Profile*%
%ADD10C,0.100000*%
%TD*%
%ADD11C,0.200000*%
G04 APERTURE END LIST*
D10*
X13716000Y-13462000D02*
X7366000Y-13462000D01*
X7366000Y-4826000D01*
X13716000Y-4826000D01*
X13716000Y-13462000D01*
D11*
X7618619Y-13777476D02*
X7618619Y-13577476D01*
X7666238Y-13577476D01*
X7694809Y-13587000D01*
X7713857Y-13606048D01*
X7723381Y-13625095D01*
X7732905Y-13663190D01*
X7732905Y-13691762D01*
X7723381Y-13729857D01*
X7713857Y-13748905D01*
X7694809Y-13767952D01*
X7666238Y-13777476D01*
X7618619Y-13777476D01*
X7818619Y-13777476D02*
X7818619Y-13644143D01*
X7818619Y-13682238D02*
X7828143Y-13663190D01*
X7837667Y-13653667D01*
X7856714Y-13644143D01*
X7875762Y-13644143D01*
X7942428Y-13777476D02*
X7942428Y-13644143D01*
X7942428Y-13577476D02*
X7932905Y-13587000D01*
X7942428Y-13596524D01*
X7951952Y-13587000D01*
X7942428Y-13577476D01*
X7942428Y-13596524D01*
X8066238Y-13777476D02*
X8047190Y-13767952D01*
X8037667Y-13748905D01*
X8037667Y-13577476D01*
X8171000Y-13777476D02*
X8151952Y-13767952D01*
X8142428Y-13748905D01*
X8142428Y-13577476D01*
X8399571Y-13777476D02*
X8399571Y-13577476D01*
X8466238Y-13720333D01*
X8532905Y-13577476D01*
X8532905Y-13777476D01*
X8713857Y-13777476D02*
X8713857Y-13672714D01*
X8704333Y-13653667D01*
X8685286Y-13644143D01*
X8647190Y-13644143D01*
X8628143Y-13653667D01*
X8713857Y-13767952D02*
X8694810Y-13777476D01*
X8647190Y-13777476D01*
X8628143Y-13767952D01*
X8618619Y-13748905D01*
X8618619Y-13729857D01*
X8628143Y-13710809D01*
X8647190Y-13701286D01*
X8694810Y-13701286D01*
X8713857Y-13691762D01*
X8809095Y-13644143D02*
X8809095Y-13844143D01*
X8809095Y-13653667D02*
X8828143Y-13644143D01*
X8866238Y-13644143D01*
X8885286Y-13653667D01*
X8894810Y-13663190D01*
X8904333Y-13682238D01*
X8904333Y-13739381D01*
X8894810Y-13758428D01*
X8885286Y-13767952D01*
X8866238Y-13777476D01*
X8828143Y-13777476D01*
X8809095Y-13767952D01*
X8990048Y-13758428D02*
X8999571Y-13767952D01*
X8990048Y-13777476D01*
X8980524Y-13767952D01*
X8990048Y-13758428D01*
X8990048Y-13777476D01*
X8990048Y-13653667D02*
X8999571Y-13663190D01*
X8990048Y-13672714D01*
X8980524Y-13663190D01*
X8990048Y-13653667D01*
X8990048Y-13672714D01*
M02*
