M48
; DRILL file {KiCad (6.0.4)} date Thu Apr 20 13:50:45 2023
; FORMAT={-:-/ absolute / metric / decimal}
; #@! TF.CreationDate,2023-04-20T13:50:45+02:00
; #@! TF.GenerationSoftware,Kicad,Pcbnew,(6.0.4)
; #@! TF.FileFunction,Plated,1,2,PTH
FMAT,2
METRIC
; #@! TA.AperFunction,Plated,PTH,ViaDrill
T1C0.400
; #@! TA.AperFunction,Plated,PTH,ComponentDrill
T2C0.400
; #@! TA.AperFunction,Plated,PTH,ComponentDrill
T3C0.600
; #@! TA.AperFunction,Plated,PTH,ComponentDrill
T4C0.700
; #@! TA.AperFunction,Plated,PTH,ComponentDrill
T5C0.800
; #@! TA.AperFunction,Plated,PTH,ComponentDrill
T6C0.950
; #@! TA.AperFunction,Plated,PTH,ComponentDrill
T7C1.000
; #@! TA.AperFunction,Plated,PTH,ComponentDrill
T8C1.300
%
G90
G05
T1
X78.105Y-73.66
X81.28Y-83.82
X83.82Y-101.6
X84.328Y-72.644
X86.36Y-78.74
X86.36Y-121.92
X88.9Y-73.66
X93.98Y-83.82
X94.488Y-69.088
X96.012Y-65.532
X97.028Y-72.644
X99.06Y-78.74
X104.14Y-86.36
X104.648Y-69.596
X110.236Y-69.596
X113.792Y-72.644
X115.824Y-69.596
X116.84Y-65.024
X124.46Y-78.74
X124.968Y-65.532
X124.968Y-116.84
X128.905Y-78.74
X129.54Y-68.58
X129.54Y-114.808
X129.54Y-118.872
X129.54Y-121.92
X132.08Y-58.42
X132.08Y-86.36
X132.08Y-124.46
X134.62Y-99.06
T2
X79.93Y-71.12
X79.93Y-71.97
X79.93Y-72.82
X79.93Y-73.67
X79.93Y-74.52
X79.93Y-75.37
X79.93Y-76.22
X79.93Y-77.07
X81.28Y-71.12
X81.28Y-71.97
X81.28Y-72.82
X81.28Y-73.67
X81.28Y-74.52
X81.28Y-75.37
X81.28Y-76.22
X81.28Y-77.07
T4
X76.2Y-66.04
X76.2Y-81.28
X81.28Y-66.04
X81.28Y-81.28
X93.98Y-67.056
X101.6Y-67.056
X114.808Y-67.056
X122.428Y-67.056
X132.08Y-106.68
X132.08Y-114.3
X134.62Y-106.68
X134.62Y-114.3
X134.62Y-116.84
X134.62Y-124.46
T5
X88.9Y-81.28
X88.9Y-83.82
X88.9Y-86.36
X88.9Y-88.9
X88.9Y-91.44
X88.9Y-93.98
X88.9Y-96.52
X88.9Y-99.06
X88.9Y-109.22
X88.9Y-111.76
X88.9Y-114.3
X88.9Y-116.84
X88.9Y-119.38
X88.9Y-121.92
X88.9Y-124.46
X88.9Y-127.0
X91.44Y-66.548
X91.44Y-69.048
X91.44Y-76.2
X91.44Y-104.14
X93.94Y-76.2
X93.94Y-104.14
X93.98Y-61.468
X93.98Y-64.008
X96.52Y-81.28
X96.52Y-83.82
X96.52Y-86.36
X96.52Y-88.9
X96.52Y-91.44
X96.52Y-93.98
X96.52Y-96.52
X96.52Y-99.06
X96.52Y-109.22
X96.52Y-111.76
X96.52Y-114.3
X96.52Y-116.84
X96.52Y-119.38
X96.52Y-121.92
X96.52Y-124.46
X96.52Y-127.0
X101.6Y-61.468
X101.6Y-64.008
X112.268Y-66.588
X112.268Y-69.088
X114.808Y-61.468
X114.808Y-64.008
X122.428Y-61.468
X122.428Y-64.008
X127.0Y-73.7
X127.0Y-76.2
T6
X81.28Y-91.44
X81.28Y-93.94
X81.28Y-96.44
X81.28Y-98.94
X81.28Y-101.44
X81.28Y-111.76
X81.28Y-114.26
X81.28Y-116.76
X81.28Y-119.26
X81.28Y-121.76
T7
X101.6Y-81.28
X101.6Y-83.82
X101.6Y-86.36
X101.6Y-88.9
X101.6Y-91.44
X101.6Y-93.98
X101.6Y-96.52
X101.6Y-99.06
X101.6Y-101.6
X101.6Y-104.14
X101.6Y-106.68
X101.6Y-109.22
X101.6Y-111.76
X101.6Y-114.3
X101.6Y-116.84
X101.6Y-119.38
X101.6Y-121.92
X101.6Y-124.46
X101.6Y-127.0
X127.0Y-81.28
X127.0Y-83.82
X127.0Y-86.36
X127.0Y-88.9
X127.0Y-91.44
X127.0Y-93.98
X127.0Y-96.52
X127.0Y-99.06
X127.0Y-101.6
X127.0Y-104.14
X127.0Y-106.68
X127.0Y-109.22
X127.0Y-111.76
X127.0Y-114.3
X127.0Y-116.84
X127.0Y-119.38
X127.0Y-121.92
X127.0Y-124.46
X127.0Y-127.0
X129.54Y-53.34
X132.08Y-53.34
X132.08Y-60.96
X132.08Y-63.5
X132.08Y-66.04
X132.08Y-71.12
X132.08Y-73.66
X132.08Y-76.2
X132.08Y-119.38
X132.08Y-121.92
X134.62Y-53.34
T8
X83.82Y-53.34
X88.9Y-53.34
X93.98Y-53.34
X99.06Y-53.34
X109.22Y-53.34
X114.3Y-53.34
X119.38Y-53.34
X124.46Y-53.34
X134.62Y-83.82
X134.62Y-88.9
X134.62Y-96.52
X134.62Y-101.6
T3
X77.32Y-69.77G85X76.52Y-69.77
G05
X77.32Y-78.42G85X76.52Y-78.42
G05
X81.05Y-69.77G85X79.55Y-69.77
G05
X81.05Y-78.42G85X79.55Y-78.42
G05
T0
M30
