G04 #@! TF.GenerationSoftware,KiCad,Pcbnew,(6.0.4)*
G04 #@! TF.CreationDate,2023-04-20T13:50:41+02:00*
G04 #@! TF.ProjectId,XRTL_opto,5852544c-5f6f-4707-946f-2e6b69636164,1.0*
G04 #@! TF.SameCoordinates,Original*
G04 #@! TF.FileFunction,Legend,Top*
G04 #@! TF.FilePolarity,Positive*
%FSLAX46Y46*%
G04 Gerber Fmt 4.6, Leading zero omitted, Abs format (unit mm)*
G04 Created by KiCad (PCBNEW (6.0.4)) date 2023-04-20 13:50:41*
%MOMM*%
%LPD*%
G01*
G04 APERTURE LIST*
G04 Aperture macros list*
%AMRoundRect*
0 Rectangle with rounded corners*
0 $1 Rounding radius*
0 $2 $3 $4 $5 $6 $7 $8 $9 X,Y pos of 4 corners*
0 Add a 4 corners polygon primitive as box body*
4,1,4,$2,$3,$4,$5,$6,$7,$8,$9,$2,$3,0*
0 Add four circle primitives for the rounded corners*
1,1,$1+$1,$2,$3*
1,1,$1+$1,$4,$5*
1,1,$1+$1,$6,$7*
1,1,$1+$1,$8,$9*
0 Add four rect primitives between the rounded corners*
20,1,$1+$1,$2,$3,$4,$5,0*
20,1,$1+$1,$4,$5,$6,$7,0*
20,1,$1+$1,$6,$7,$8,$9,0*
20,1,$1+$1,$8,$9,$2,$3,0*%
%AMHorizOval*
0 Thick line with rounded ends*
0 $1 width*
0 $2 $3 position (X,Y) of the first rounded end (center of the circle)*
0 $4 $5 position (X,Y) of the second rounded end (center of the circle)*
0 Add line between two ends*
20,1,$1,$2,$3,$4,$5,0*
0 Add two circle primitives to create the rounded ends*
1,1,$1,$2,$3*
1,1,$1,$4,$5*%
G04 Aperture macros list end*
%ADD10C,0.150000*%
%ADD11C,0.125000*%
%ADD12C,0.120000*%
%ADD13R,2.600000X2.600000*%
%ADD14C,2.600000*%
%ADD15C,1.400000*%
%ADD16O,1.400000X1.400000*%
%ADD17R,1.700000X1.700000*%
%ADD18C,1.600000*%
%ADD19R,1.600000X1.600000*%
%ADD20O,1.600000X1.600000*%
%ADD21HorizOval,1.600000X0.000000X0.000000X0.000000X0.000000X0*%
%ADD22O,1.700000X1.700000*%
%ADD23HorizOval,1.700000X0.000000X0.000000X0.000000X0.000000X0*%
%ADD24RoundRect,0.250000X-0.725000X0.600000X-0.725000X-0.600000X0.725000X-0.600000X0.725000X0.600000X0*%
%ADD25O,1.950000X1.700000*%
%ADD26O,2.600000X2.600000*%
%ADD27C,0.700000*%
%ADD28O,1.700000X0.900000*%
%ADD29O,2.400000X0.900000*%
G04 APERTURE END LIST*
D10*
X122886309Y-117292380D02*
X122886309Y-116292380D01*
X122886309Y-117244761D02*
X122791071Y-117292380D01*
X122600595Y-117292380D01*
X122505357Y-117244761D01*
X122457738Y-117197142D01*
X122410119Y-117101904D01*
X122410119Y-116816190D01*
X122457738Y-116720952D01*
X122505357Y-116673333D01*
X122600595Y-116625714D01*
X122791071Y-116625714D01*
X122886309Y-116673333D01*
X123362500Y-117292380D02*
X123362500Y-116625714D01*
X123362500Y-116292380D02*
X123314880Y-116340000D01*
X123362500Y-116387619D01*
X123410119Y-116340000D01*
X123362500Y-116292380D01*
X123362500Y-116387619D01*
X123743452Y-116625714D02*
X123981547Y-117292380D01*
X124219642Y-116625714D01*
X122076785Y-93480000D02*
X121981547Y-93432380D01*
X121838690Y-93432380D01*
X121695833Y-93480000D01*
X121600595Y-93575238D01*
X121552976Y-93670476D01*
X121505357Y-93860952D01*
X121505357Y-94003809D01*
X121552976Y-94194285D01*
X121600595Y-94289523D01*
X121695833Y-94384761D01*
X121838690Y-94432380D01*
X121933928Y-94432380D01*
X122076785Y-94384761D01*
X122124404Y-94337142D01*
X122124404Y-94003809D01*
X121933928Y-94003809D01*
X122552976Y-94432380D02*
X122552976Y-93432380D01*
X123124404Y-94432380D01*
X123124404Y-93432380D01*
X123600595Y-94432380D02*
X123600595Y-93432380D01*
X123838690Y-93432380D01*
X123981547Y-93480000D01*
X124076785Y-93575238D01*
X124124404Y-93670476D01*
X124172023Y-93860952D01*
X124172023Y-94003809D01*
X124124404Y-94194285D01*
X124076785Y-94289523D01*
X123981547Y-94384761D01*
X123838690Y-94432380D01*
X123600595Y-94432380D01*
X122362500Y-112212380D02*
X121886309Y-112212380D01*
X121886309Y-111212380D01*
X122695833Y-111688571D02*
X123029166Y-111688571D01*
X123172023Y-112212380D02*
X122695833Y-112212380D01*
X122695833Y-111212380D01*
X123172023Y-111212380D01*
X123600595Y-112212380D02*
X123600595Y-111212380D01*
X123838690Y-111212380D01*
X123981547Y-111260000D01*
X124076785Y-111355238D01*
X124124404Y-111450476D01*
X124172023Y-111640952D01*
X124172023Y-111783809D01*
X124124404Y-111974285D01*
X124076785Y-112069523D01*
X123981547Y-112164761D01*
X123838690Y-112212380D01*
X123600595Y-112212380D01*
X129667047Y-63571428D02*
X130428952Y-63571428D01*
X130048000Y-63952380D02*
X130048000Y-63190476D01*
X119648214Y-107084761D02*
X119743452Y-107132380D01*
X119933928Y-107132380D01*
X120029166Y-107084761D01*
X120076785Y-106989523D01*
X120076785Y-106941904D01*
X120029166Y-106846666D01*
X119933928Y-106799047D01*
X119791071Y-106799047D01*
X119695833Y-106751428D01*
X119648214Y-106656190D01*
X119648214Y-106608571D01*
X119695833Y-106513333D01*
X119791071Y-106465714D01*
X119933928Y-106465714D01*
X120029166Y-106513333D01*
X120886309Y-107084761D02*
X120791071Y-107132380D01*
X120600595Y-107132380D01*
X120505357Y-107084761D01*
X120457738Y-106989523D01*
X120457738Y-106608571D01*
X120505357Y-106513333D01*
X120600595Y-106465714D01*
X120791071Y-106465714D01*
X120886309Y-106513333D01*
X120933928Y-106608571D01*
X120933928Y-106703809D01*
X120457738Y-106799047D01*
X121362500Y-107132380D02*
X121362500Y-106465714D01*
X121362500Y-106656190D02*
X121410119Y-106560952D01*
X121457738Y-106513333D01*
X121552976Y-106465714D01*
X121648214Y-106465714D01*
X121886309Y-106465714D02*
X122124404Y-107132380D01*
X122362500Y-106465714D01*
X122886309Y-107132380D02*
X122791071Y-107084761D01*
X122743452Y-107037142D01*
X122695833Y-106941904D01*
X122695833Y-106656190D01*
X122743452Y-106560952D01*
X122791071Y-106513333D01*
X122886309Y-106465714D01*
X123029166Y-106465714D01*
X123124404Y-106513333D01*
X123172023Y-106560952D01*
X123219642Y-106656190D01*
X123219642Y-106941904D01*
X123172023Y-107037142D01*
X123124404Y-107084761D01*
X123029166Y-107132380D01*
X122886309Y-107132380D01*
X123600595Y-106227619D02*
X123648214Y-106180000D01*
X123743452Y-106132380D01*
X123981547Y-106132380D01*
X124076785Y-106180000D01*
X124124404Y-106227619D01*
X124172023Y-106322857D01*
X124172023Y-106418095D01*
X124124404Y-106560952D01*
X123552976Y-107132380D01*
X124172023Y-107132380D01*
X121743452Y-126452380D02*
X122362500Y-126452380D01*
X122029166Y-126833333D01*
X122172023Y-126833333D01*
X122267261Y-126880952D01*
X122314880Y-126928571D01*
X122362500Y-127023809D01*
X122362500Y-127261904D01*
X122314880Y-127357142D01*
X122267261Y-127404761D01*
X122172023Y-127452380D01*
X121886309Y-127452380D01*
X121791071Y-127404761D01*
X121743452Y-127357142D01*
X122648214Y-126452380D02*
X122981547Y-127452380D01*
X123314880Y-126452380D01*
X123552976Y-126452380D02*
X124172023Y-126452380D01*
X123838690Y-126833333D01*
X123981547Y-126833333D01*
X124076785Y-126880952D01*
X124124404Y-126928571D01*
X124172023Y-127023809D01*
X124172023Y-127261904D01*
X124124404Y-127357142D01*
X124076785Y-127404761D01*
X123981547Y-127452380D01*
X123695833Y-127452380D01*
X123600595Y-127404761D01*
X123552976Y-127357142D01*
X129667047Y-73731428D02*
X130428952Y-73731428D01*
X130048000Y-74112380D02*
X130048000Y-73350476D01*
X129667047Y-61031428D02*
X130428952Y-61031428D01*
X76652380Y-76404523D02*
X75652380Y-76404523D01*
X75652380Y-76023571D01*
X75700000Y-75928333D01*
X75747619Y-75880714D01*
X75842857Y-75833095D01*
X75985714Y-75833095D01*
X76080952Y-75880714D01*
X76128571Y-75928333D01*
X76176190Y-76023571D01*
X76176190Y-76404523D01*
X75652380Y-75214047D02*
X75652380Y-75023571D01*
X75700000Y-74928333D01*
X75795238Y-74833095D01*
X75985714Y-74785476D01*
X76319047Y-74785476D01*
X76509523Y-74833095D01*
X76604761Y-74928333D01*
X76652380Y-75023571D01*
X76652380Y-75214047D01*
X76604761Y-75309285D01*
X76509523Y-75404523D01*
X76319047Y-75452142D01*
X75985714Y-75452142D01*
X75795238Y-75404523D01*
X75700000Y-75309285D01*
X75652380Y-75214047D01*
X75652380Y-74452142D02*
X76652380Y-74214047D01*
X75938095Y-74023571D01*
X76652380Y-73833095D01*
X75652380Y-73595000D01*
X76128571Y-73214047D02*
X76128571Y-72880714D01*
X76652380Y-72737857D02*
X76652380Y-73214047D01*
X75652380Y-73214047D01*
X75652380Y-72737857D01*
X76652380Y-71737857D02*
X76176190Y-72071190D01*
X76652380Y-72309285D02*
X75652380Y-72309285D01*
X75652380Y-71928333D01*
X75700000Y-71833095D01*
X75747619Y-71785476D01*
X75842857Y-71737857D01*
X75985714Y-71737857D01*
X76080952Y-71785476D01*
X76128571Y-71833095D01*
X76176190Y-71928333D01*
X76176190Y-72309285D01*
X129159047Y-55443428D02*
X129920952Y-55443428D01*
X119648214Y-109624761D02*
X119743452Y-109672380D01*
X119933928Y-109672380D01*
X120029166Y-109624761D01*
X120076785Y-109529523D01*
X120076785Y-109481904D01*
X120029166Y-109386666D01*
X119933928Y-109339047D01*
X119791071Y-109339047D01*
X119695833Y-109291428D01*
X119648214Y-109196190D01*
X119648214Y-109148571D01*
X119695833Y-109053333D01*
X119791071Y-109005714D01*
X119933928Y-109005714D01*
X120029166Y-109053333D01*
X120886309Y-109624761D02*
X120791071Y-109672380D01*
X120600595Y-109672380D01*
X120505357Y-109624761D01*
X120457738Y-109529523D01*
X120457738Y-109148571D01*
X120505357Y-109053333D01*
X120600595Y-109005714D01*
X120791071Y-109005714D01*
X120886309Y-109053333D01*
X120933928Y-109148571D01*
X120933928Y-109243809D01*
X120457738Y-109339047D01*
X121362500Y-109672380D02*
X121362500Y-109005714D01*
X121362500Y-109196190D02*
X121410119Y-109100952D01*
X121457738Y-109053333D01*
X121552976Y-109005714D01*
X121648214Y-109005714D01*
X121886309Y-109005714D02*
X122124404Y-109672380D01*
X122362500Y-109005714D01*
X122886309Y-109672380D02*
X122791071Y-109624761D01*
X122743452Y-109577142D01*
X122695833Y-109481904D01*
X122695833Y-109196190D01*
X122743452Y-109100952D01*
X122791071Y-109053333D01*
X122886309Y-109005714D01*
X123029166Y-109005714D01*
X123124404Y-109053333D01*
X123172023Y-109100952D01*
X123219642Y-109196190D01*
X123219642Y-109481904D01*
X123172023Y-109577142D01*
X123124404Y-109624761D01*
X123029166Y-109672380D01*
X122886309Y-109672380D01*
X124172023Y-109672380D02*
X123600595Y-109672380D01*
X123886309Y-109672380D02*
X123886309Y-108672380D01*
X123791071Y-108815238D01*
X123695833Y-108910476D01*
X123600595Y-108958095D01*
X104427976Y-106227619D02*
X104475595Y-106180000D01*
X104570833Y-106132380D01*
X104808928Y-106132380D01*
X104904166Y-106180000D01*
X104951785Y-106227619D01*
X104999404Y-106322857D01*
X104999404Y-106418095D01*
X104951785Y-106560952D01*
X104380357Y-107132380D01*
X104999404Y-107132380D01*
X105427976Y-107132380D02*
X105427976Y-106132380D01*
X105666071Y-106132380D01*
X105808928Y-106180000D01*
X105904166Y-106275238D01*
X105951785Y-106370476D01*
X105999404Y-106560952D01*
X105999404Y-106703809D01*
X105951785Y-106894285D01*
X105904166Y-106989523D01*
X105808928Y-107084761D01*
X105666071Y-107132380D01*
X105427976Y-107132380D01*
X129667047Y-71191428D02*
X130428952Y-71191428D01*
X78232380Y-107084761D02*
X78327619Y-107132380D01*
X78518095Y-107132380D01*
X78613333Y-107084761D01*
X78660952Y-106989523D01*
X78660952Y-106941904D01*
X78613333Y-106846666D01*
X78518095Y-106799047D01*
X78375238Y-106799047D01*
X78280000Y-106751428D01*
X78232380Y-106656190D01*
X78232380Y-106608571D01*
X78280000Y-106513333D01*
X78375238Y-106465714D01*
X78518095Y-106465714D01*
X78613333Y-106513333D01*
X78946666Y-106465714D02*
X79327619Y-106465714D01*
X79089523Y-106132380D02*
X79089523Y-106989523D01*
X79137142Y-107084761D01*
X79232380Y-107132380D01*
X79327619Y-107132380D01*
X80041904Y-107084761D02*
X79946666Y-107132380D01*
X79756190Y-107132380D01*
X79660952Y-107084761D01*
X79613333Y-106989523D01*
X79613333Y-106608571D01*
X79660952Y-106513333D01*
X79756190Y-106465714D01*
X79946666Y-106465714D01*
X80041904Y-106513333D01*
X80089523Y-106608571D01*
X80089523Y-106703809D01*
X79613333Y-106799047D01*
X80518095Y-106465714D02*
X80518095Y-107465714D01*
X80518095Y-106513333D02*
X80613333Y-106465714D01*
X80803809Y-106465714D01*
X80899047Y-106513333D01*
X80946666Y-106560952D01*
X80994285Y-106656190D01*
X80994285Y-106941904D01*
X80946666Y-107037142D01*
X80899047Y-107084761D01*
X80803809Y-107132380D01*
X80613333Y-107132380D01*
X80518095Y-107084761D01*
X81422857Y-106465714D02*
X81422857Y-107465714D01*
X81422857Y-106513333D02*
X81518095Y-106465714D01*
X81708571Y-106465714D01*
X81803809Y-106513333D01*
X81851428Y-106560952D01*
X81899047Y-106656190D01*
X81899047Y-106941904D01*
X81851428Y-107037142D01*
X81803809Y-107084761D01*
X81708571Y-107132380D01*
X81518095Y-107132380D01*
X81422857Y-107084761D01*
X82708571Y-107084761D02*
X82613333Y-107132380D01*
X82422857Y-107132380D01*
X82327619Y-107084761D01*
X82280000Y-106989523D01*
X82280000Y-106608571D01*
X82327619Y-106513333D01*
X82422857Y-106465714D01*
X82613333Y-106465714D01*
X82708571Y-106513333D01*
X82756190Y-106608571D01*
X82756190Y-106703809D01*
X82280000Y-106799047D01*
X83184761Y-107132380D02*
X83184761Y-106465714D01*
X83184761Y-106656190D02*
X83232380Y-106560952D01*
X83280000Y-106513333D01*
X83375238Y-106465714D01*
X83470476Y-106465714D01*
X83756190Y-106227619D02*
X83803809Y-106180000D01*
X83899047Y-106132380D01*
X84137142Y-106132380D01*
X84232380Y-106180000D01*
X84280000Y-106227619D01*
X84327619Y-106322857D01*
X84327619Y-106418095D01*
X84280000Y-106560952D01*
X83708571Y-107132380D01*
X84327619Y-107132380D01*
X104999404Y-122372380D02*
X104427976Y-122372380D01*
X104713690Y-122372380D02*
X104713690Y-121372380D01*
X104618452Y-121515238D01*
X104523214Y-121610476D01*
X104427976Y-121658095D01*
X105999404Y-122277142D02*
X105951785Y-122324761D01*
X105808928Y-122372380D01*
X105713690Y-122372380D01*
X105570833Y-122324761D01*
X105475595Y-122229523D01*
X105427976Y-122134285D01*
X105380357Y-121943809D01*
X105380357Y-121800952D01*
X105427976Y-121610476D01*
X105475595Y-121515238D01*
X105570833Y-121420000D01*
X105713690Y-121372380D01*
X105808928Y-121372380D01*
X105951785Y-121420000D01*
X105999404Y-121467619D01*
X104999404Y-124912380D02*
X104427976Y-124912380D01*
X104713690Y-124912380D02*
X104713690Y-123912380D01*
X104618452Y-124055238D01*
X104523214Y-124150476D01*
X104427976Y-124198095D01*
X105427976Y-124912380D02*
X105427976Y-123912380D01*
X105666071Y-123912380D01*
X105808928Y-123960000D01*
X105904166Y-124055238D01*
X105951785Y-124150476D01*
X105999404Y-124340952D01*
X105999404Y-124483809D01*
X105951785Y-124674285D01*
X105904166Y-124769523D01*
X105808928Y-124864761D01*
X105666071Y-124912380D01*
X105427976Y-124912380D01*
X119981547Y-102052380D02*
X119981547Y-101385714D01*
X119981547Y-101576190D02*
X120029166Y-101480952D01*
X120076785Y-101433333D01*
X120172023Y-101385714D01*
X120267261Y-101385714D01*
X120981547Y-102004761D02*
X120886309Y-102052380D01*
X120695833Y-102052380D01*
X120600595Y-102004761D01*
X120552976Y-101909523D01*
X120552976Y-101528571D01*
X120600595Y-101433333D01*
X120695833Y-101385714D01*
X120886309Y-101385714D01*
X120981547Y-101433333D01*
X121029166Y-101528571D01*
X121029166Y-101623809D01*
X120552976Y-101719047D01*
X121600595Y-102052380D02*
X121505357Y-102004761D01*
X121457738Y-101909523D01*
X121457738Y-101052380D01*
X122410119Y-102052380D02*
X122410119Y-101528571D01*
X122362500Y-101433333D01*
X122267261Y-101385714D01*
X122076785Y-101385714D01*
X121981547Y-101433333D01*
X122410119Y-102004761D02*
X122314880Y-102052380D01*
X122076785Y-102052380D01*
X121981547Y-102004761D01*
X121933928Y-101909523D01*
X121933928Y-101814285D01*
X121981547Y-101719047D01*
X122076785Y-101671428D01*
X122314880Y-101671428D01*
X122410119Y-101623809D01*
X122791071Y-101385714D02*
X123029166Y-102052380D01*
X123267261Y-101385714D02*
X123029166Y-102052380D01*
X122933928Y-102290476D01*
X122886309Y-102338095D01*
X122791071Y-102385714D01*
X124172023Y-102052380D02*
X123600595Y-102052380D01*
X123886309Y-102052380D02*
X123886309Y-101052380D01*
X123791071Y-101195238D01*
X123695833Y-101290476D01*
X123600595Y-101338095D01*
X131258095Y-68984761D02*
X131353333Y-69032380D01*
X131543809Y-69032380D01*
X131639047Y-68984761D01*
X131686666Y-68889523D01*
X131686666Y-68841904D01*
X131639047Y-68746666D01*
X131543809Y-68699047D01*
X131400952Y-68699047D01*
X131305714Y-68651428D01*
X131258095Y-68556190D01*
X131258095Y-68508571D01*
X131305714Y-68413333D01*
X131400952Y-68365714D01*
X131543809Y-68365714D01*
X131639047Y-68413333D01*
X132496190Y-68984761D02*
X132400952Y-69032380D01*
X132210476Y-69032380D01*
X132115238Y-68984761D01*
X132067619Y-68889523D01*
X132067619Y-68508571D01*
X132115238Y-68413333D01*
X132210476Y-68365714D01*
X132400952Y-68365714D01*
X132496190Y-68413333D01*
X132543809Y-68508571D01*
X132543809Y-68603809D01*
X132067619Y-68699047D01*
X132972380Y-69032380D02*
X132972380Y-68365714D01*
X132972380Y-68556190D02*
X133020000Y-68460952D01*
X133067619Y-68413333D01*
X133162857Y-68365714D01*
X133258095Y-68365714D01*
X133496190Y-68365714D02*
X133734285Y-69032380D01*
X133972380Y-68365714D01*
X134496190Y-69032380D02*
X134400952Y-68984761D01*
X134353333Y-68937142D01*
X134305714Y-68841904D01*
X134305714Y-68556190D01*
X134353333Y-68460952D01*
X134400952Y-68413333D01*
X134496190Y-68365714D01*
X134639047Y-68365714D01*
X134734285Y-68413333D01*
X134781904Y-68460952D01*
X134829523Y-68556190D01*
X134829523Y-68841904D01*
X134781904Y-68937142D01*
X134734285Y-68984761D01*
X134639047Y-69032380D01*
X134496190Y-69032380D01*
X135781904Y-69032380D02*
X135210476Y-69032380D01*
X135496190Y-69032380D02*
X135496190Y-68032380D01*
X135400952Y-68175238D01*
X135305714Y-68270476D01*
X135210476Y-68318095D01*
X120838690Y-114752380D02*
X120838690Y-114085714D01*
X120838690Y-113752380D02*
X120791071Y-113800000D01*
X120838690Y-113847619D01*
X120886309Y-113800000D01*
X120838690Y-113752380D01*
X120838690Y-113847619D01*
X121314880Y-114085714D02*
X121314880Y-114752380D01*
X121314880Y-114180952D02*
X121362500Y-114133333D01*
X121457738Y-114085714D01*
X121600595Y-114085714D01*
X121695833Y-114133333D01*
X121743452Y-114228571D01*
X121743452Y-114752380D01*
X122219642Y-114085714D02*
X122219642Y-115085714D01*
X122219642Y-114133333D02*
X122314880Y-114085714D01*
X122505357Y-114085714D01*
X122600595Y-114133333D01*
X122648214Y-114180952D01*
X122695833Y-114276190D01*
X122695833Y-114561904D01*
X122648214Y-114657142D01*
X122600595Y-114704761D01*
X122505357Y-114752380D01*
X122314880Y-114752380D01*
X122219642Y-114704761D01*
X123552976Y-114085714D02*
X123552976Y-114752380D01*
X123124404Y-114085714D02*
X123124404Y-114609523D01*
X123172023Y-114704761D01*
X123267261Y-114752380D01*
X123410119Y-114752380D01*
X123505357Y-114704761D01*
X123552976Y-114657142D01*
X123886309Y-114085714D02*
X124267261Y-114085714D01*
X124029166Y-113752380D02*
X124029166Y-114609523D01*
X124076785Y-114704761D01*
X124172023Y-114752380D01*
X124267261Y-114752380D01*
X119981547Y-104592380D02*
X119981547Y-103925714D01*
X119981547Y-104116190D02*
X120029166Y-104020952D01*
X120076785Y-103973333D01*
X120172023Y-103925714D01*
X120267261Y-103925714D01*
X120981547Y-104544761D02*
X120886309Y-104592380D01*
X120695833Y-104592380D01*
X120600595Y-104544761D01*
X120552976Y-104449523D01*
X120552976Y-104068571D01*
X120600595Y-103973333D01*
X120695833Y-103925714D01*
X120886309Y-103925714D01*
X120981547Y-103973333D01*
X121029166Y-104068571D01*
X121029166Y-104163809D01*
X120552976Y-104259047D01*
X121600595Y-104592380D02*
X121505357Y-104544761D01*
X121457738Y-104449523D01*
X121457738Y-103592380D01*
X122410119Y-104592380D02*
X122410119Y-104068571D01*
X122362500Y-103973333D01*
X122267261Y-103925714D01*
X122076785Y-103925714D01*
X121981547Y-103973333D01*
X122410119Y-104544761D02*
X122314880Y-104592380D01*
X122076785Y-104592380D01*
X121981547Y-104544761D01*
X121933928Y-104449523D01*
X121933928Y-104354285D01*
X121981547Y-104259047D01*
X122076785Y-104211428D01*
X122314880Y-104211428D01*
X122410119Y-104163809D01*
X122791071Y-103925714D02*
X123029166Y-104592380D01*
X123267261Y-103925714D02*
X123029166Y-104592380D01*
X122933928Y-104830476D01*
X122886309Y-104878095D01*
X122791071Y-104925714D01*
X123600595Y-103687619D02*
X123648214Y-103640000D01*
X123743452Y-103592380D01*
X123981547Y-103592380D01*
X124076785Y-103640000D01*
X124124404Y-103687619D01*
X124172023Y-103782857D01*
X124172023Y-103878095D01*
X124124404Y-104020952D01*
X123552976Y-104592380D01*
X124172023Y-104592380D01*
X104999404Y-111260000D02*
X104904166Y-111212380D01*
X104761309Y-111212380D01*
X104618452Y-111260000D01*
X104523214Y-111355238D01*
X104475595Y-111450476D01*
X104427976Y-111640952D01*
X104427976Y-111783809D01*
X104475595Y-111974285D01*
X104523214Y-112069523D01*
X104618452Y-112164761D01*
X104761309Y-112212380D01*
X104856547Y-112212380D01*
X104999404Y-112164761D01*
X105047023Y-112117142D01*
X105047023Y-111783809D01*
X104856547Y-111783809D01*
X105475595Y-112212380D02*
X105475595Y-111212380D01*
X106047023Y-112212380D01*
X106047023Y-111212380D01*
X106523214Y-112212380D02*
X106523214Y-111212380D01*
X106761309Y-111212380D01*
X106904166Y-111260000D01*
X106999404Y-111355238D01*
X107047023Y-111450476D01*
X107094642Y-111640952D01*
X107094642Y-111783809D01*
X107047023Y-111974285D01*
X106999404Y-112069523D01*
X106904166Y-112164761D01*
X106761309Y-112212380D01*
X106523214Y-112212380D01*
X78232380Y-127404761D02*
X78327619Y-127452380D01*
X78518095Y-127452380D01*
X78613333Y-127404761D01*
X78660952Y-127309523D01*
X78660952Y-127261904D01*
X78613333Y-127166666D01*
X78518095Y-127119047D01*
X78375238Y-127119047D01*
X78280000Y-127071428D01*
X78232380Y-126976190D01*
X78232380Y-126928571D01*
X78280000Y-126833333D01*
X78375238Y-126785714D01*
X78518095Y-126785714D01*
X78613333Y-126833333D01*
X78946666Y-126785714D02*
X79327619Y-126785714D01*
X79089523Y-126452380D02*
X79089523Y-127309523D01*
X79137142Y-127404761D01*
X79232380Y-127452380D01*
X79327619Y-127452380D01*
X80041904Y-127404761D02*
X79946666Y-127452380D01*
X79756190Y-127452380D01*
X79660952Y-127404761D01*
X79613333Y-127309523D01*
X79613333Y-126928571D01*
X79660952Y-126833333D01*
X79756190Y-126785714D01*
X79946666Y-126785714D01*
X80041904Y-126833333D01*
X80089523Y-126928571D01*
X80089523Y-127023809D01*
X79613333Y-127119047D01*
X80518095Y-126785714D02*
X80518095Y-127785714D01*
X80518095Y-126833333D02*
X80613333Y-126785714D01*
X80803809Y-126785714D01*
X80899047Y-126833333D01*
X80946666Y-126880952D01*
X80994285Y-126976190D01*
X80994285Y-127261904D01*
X80946666Y-127357142D01*
X80899047Y-127404761D01*
X80803809Y-127452380D01*
X80613333Y-127452380D01*
X80518095Y-127404761D01*
X81422857Y-126785714D02*
X81422857Y-127785714D01*
X81422857Y-126833333D02*
X81518095Y-126785714D01*
X81708571Y-126785714D01*
X81803809Y-126833333D01*
X81851428Y-126880952D01*
X81899047Y-126976190D01*
X81899047Y-127261904D01*
X81851428Y-127357142D01*
X81803809Y-127404761D01*
X81708571Y-127452380D01*
X81518095Y-127452380D01*
X81422857Y-127404761D01*
X82708571Y-127404761D02*
X82613333Y-127452380D01*
X82422857Y-127452380D01*
X82327619Y-127404761D01*
X82280000Y-127309523D01*
X82280000Y-126928571D01*
X82327619Y-126833333D01*
X82422857Y-126785714D01*
X82613333Y-126785714D01*
X82708571Y-126833333D01*
X82756190Y-126928571D01*
X82756190Y-127023809D01*
X82280000Y-127119047D01*
X83184761Y-127452380D02*
X83184761Y-126785714D01*
X83184761Y-126976190D02*
X83232380Y-126880952D01*
X83280000Y-126833333D01*
X83375238Y-126785714D01*
X83470476Y-126785714D01*
X84327619Y-127452380D02*
X83756190Y-127452380D01*
X84041904Y-127452380D02*
X84041904Y-126452380D01*
X83946666Y-126595238D01*
X83851428Y-126690476D01*
X83756190Y-126738095D01*
X104999404Y-126500000D02*
X104904166Y-126452380D01*
X104761309Y-126452380D01*
X104618452Y-126500000D01*
X104523214Y-126595238D01*
X104475595Y-126690476D01*
X104427976Y-126880952D01*
X104427976Y-127023809D01*
X104475595Y-127214285D01*
X104523214Y-127309523D01*
X104618452Y-127404761D01*
X104761309Y-127452380D01*
X104856547Y-127452380D01*
X104999404Y-127404761D01*
X105047023Y-127357142D01*
X105047023Y-127023809D01*
X104856547Y-127023809D01*
X105475595Y-127452380D02*
X105475595Y-126452380D01*
X106047023Y-127452380D01*
X106047023Y-126452380D01*
X106523214Y-127452380D02*
X106523214Y-126452380D01*
X106761309Y-126452380D01*
X106904166Y-126500000D01*
X106999404Y-126595238D01*
X107047023Y-126690476D01*
X107094642Y-126880952D01*
X107094642Y-127023809D01*
X107047023Y-127214285D01*
X106999404Y-127309523D01*
X106904166Y-127404761D01*
X106761309Y-127452380D01*
X106523214Y-127452380D01*
X104427976Y-101147619D02*
X104475595Y-101100000D01*
X104570833Y-101052380D01*
X104808928Y-101052380D01*
X104904166Y-101100000D01*
X104951785Y-101147619D01*
X104999404Y-101242857D01*
X104999404Y-101338095D01*
X104951785Y-101480952D01*
X104380357Y-102052380D01*
X104999404Y-102052380D01*
X105999404Y-101957142D02*
X105951785Y-102004761D01*
X105808928Y-102052380D01*
X105713690Y-102052380D01*
X105570833Y-102004761D01*
X105475595Y-101909523D01*
X105427976Y-101814285D01*
X105380357Y-101623809D01*
X105380357Y-101480952D01*
X105427976Y-101290476D01*
X105475595Y-101195238D01*
X105570833Y-101100000D01*
X105713690Y-101052380D01*
X105808928Y-101052380D01*
X105951785Y-101100000D01*
X105999404Y-101147619D01*
X131258095Y-79144761D02*
X131353333Y-79192380D01*
X131543809Y-79192380D01*
X131639047Y-79144761D01*
X131686666Y-79049523D01*
X131686666Y-79001904D01*
X131639047Y-78906666D01*
X131543809Y-78859047D01*
X131400952Y-78859047D01*
X131305714Y-78811428D01*
X131258095Y-78716190D01*
X131258095Y-78668571D01*
X131305714Y-78573333D01*
X131400952Y-78525714D01*
X131543809Y-78525714D01*
X131639047Y-78573333D01*
X132496190Y-79144761D02*
X132400952Y-79192380D01*
X132210476Y-79192380D01*
X132115238Y-79144761D01*
X132067619Y-79049523D01*
X132067619Y-78668571D01*
X132115238Y-78573333D01*
X132210476Y-78525714D01*
X132400952Y-78525714D01*
X132496190Y-78573333D01*
X132543809Y-78668571D01*
X132543809Y-78763809D01*
X132067619Y-78859047D01*
X132972380Y-79192380D02*
X132972380Y-78525714D01*
X132972380Y-78716190D02*
X133020000Y-78620952D01*
X133067619Y-78573333D01*
X133162857Y-78525714D01*
X133258095Y-78525714D01*
X133496190Y-78525714D02*
X133734285Y-79192380D01*
X133972380Y-78525714D01*
X134496190Y-79192380D02*
X134400952Y-79144761D01*
X134353333Y-79097142D01*
X134305714Y-79001904D01*
X134305714Y-78716190D01*
X134353333Y-78620952D01*
X134400952Y-78573333D01*
X134496190Y-78525714D01*
X134639047Y-78525714D01*
X134734285Y-78573333D01*
X134781904Y-78620952D01*
X134829523Y-78716190D01*
X134829523Y-79001904D01*
X134781904Y-79097142D01*
X134734285Y-79144761D01*
X134639047Y-79192380D01*
X134496190Y-79192380D01*
X135210476Y-78287619D02*
X135258095Y-78240000D01*
X135353333Y-78192380D01*
X135591428Y-78192380D01*
X135686666Y-78240000D01*
X135734285Y-78287619D01*
X135781904Y-78382857D01*
X135781904Y-78478095D01*
X135734285Y-78620952D01*
X135162857Y-79192380D01*
X135781904Y-79192380D01*
X104999404Y-109672380D02*
X104427976Y-109672380D01*
X104713690Y-109672380D02*
X104713690Y-108672380D01*
X104618452Y-108815238D01*
X104523214Y-108910476D01*
X104427976Y-108958095D01*
X105380357Y-109386666D02*
X105856547Y-109386666D01*
X105285119Y-109672380D02*
X105618452Y-108672380D01*
X105951785Y-109672380D01*
X104999404Y-114752380D02*
X104427976Y-114752380D01*
X104713690Y-114752380D02*
X104713690Y-113752380D01*
X104618452Y-113895238D01*
X104523214Y-113990476D01*
X104427976Y-114038095D01*
X105761309Y-114228571D02*
X105904166Y-114276190D01*
X105951785Y-114323809D01*
X105999404Y-114419047D01*
X105999404Y-114561904D01*
X105951785Y-114657142D01*
X105904166Y-114704761D01*
X105808928Y-114752380D01*
X105427976Y-114752380D01*
X105427976Y-113752380D01*
X105761309Y-113752380D01*
X105856547Y-113800000D01*
X105904166Y-113847619D01*
X105951785Y-113942857D01*
X105951785Y-114038095D01*
X105904166Y-114133333D01*
X105856547Y-114180952D01*
X105761309Y-114228571D01*
X105427976Y-114228571D01*
X104427976Y-98607619D02*
X104475595Y-98560000D01*
X104570833Y-98512380D01*
X104808928Y-98512380D01*
X104904166Y-98560000D01*
X104951785Y-98607619D01*
X104999404Y-98702857D01*
X104999404Y-98798095D01*
X104951785Y-98940952D01*
X104380357Y-99512380D01*
X104999404Y-99512380D01*
X105761309Y-98988571D02*
X105904166Y-99036190D01*
X105951785Y-99083809D01*
X105999404Y-99179047D01*
X105999404Y-99321904D01*
X105951785Y-99417142D01*
X105904166Y-99464761D01*
X105808928Y-99512380D01*
X105427976Y-99512380D01*
X105427976Y-98512380D01*
X105761309Y-98512380D01*
X105856547Y-98560000D01*
X105904166Y-98607619D01*
X105951785Y-98702857D01*
X105951785Y-98798095D01*
X105904166Y-98893333D01*
X105856547Y-98940952D01*
X105761309Y-98988571D01*
X105427976Y-98988571D01*
X131699047Y-55443428D02*
X132460952Y-55443428D01*
X132080000Y-55824380D02*
X132080000Y-55062476D01*
X123267261Y-80732380D02*
X122791071Y-80732380D01*
X122743452Y-81208571D01*
X122791071Y-81160952D01*
X122886309Y-81113333D01*
X123124404Y-81113333D01*
X123219642Y-81160952D01*
X123267261Y-81208571D01*
X123314880Y-81303809D01*
X123314880Y-81541904D01*
X123267261Y-81637142D01*
X123219642Y-81684761D01*
X123124404Y-81732380D01*
X122886309Y-81732380D01*
X122791071Y-81684761D01*
X122743452Y-81637142D01*
X123600595Y-80732380D02*
X123933928Y-81732380D01*
X124267261Y-80732380D01*
X104427976Y-96067619D02*
X104475595Y-96020000D01*
X104570833Y-95972380D01*
X104808928Y-95972380D01*
X104904166Y-96020000D01*
X104951785Y-96067619D01*
X104999404Y-96162857D01*
X104999404Y-96258095D01*
X104951785Y-96400952D01*
X104380357Y-96972380D01*
X104999404Y-96972380D01*
X105380357Y-96686666D02*
X105856547Y-96686666D01*
X105285119Y-96972380D02*
X105618452Y-95972380D01*
X105951785Y-96972380D01*
X116506666Y-56856380D02*
X116506666Y-57570666D01*
X116459047Y-57713523D01*
X116363809Y-57808761D01*
X116220952Y-57856380D01*
X116125714Y-57856380D01*
X116887619Y-56856380D02*
X117554285Y-56856380D01*
X117125714Y-57856380D01*
X78573333Y-83652380D02*
X78240000Y-83176190D01*
X78001904Y-83652380D02*
X78001904Y-82652380D01*
X78382857Y-82652380D01*
X78478095Y-82700000D01*
X78525714Y-82747619D01*
X78573333Y-82842857D01*
X78573333Y-82985714D01*
X78525714Y-83080952D01*
X78478095Y-83128571D01*
X78382857Y-83176190D01*
X78001904Y-83176190D01*
X79525714Y-83652380D02*
X78954285Y-83652380D01*
X79240000Y-83652380D02*
X79240000Y-82652380D01*
X79144761Y-82795238D01*
X79049523Y-82890476D01*
X78954285Y-82938095D01*
X130841904Y-123404380D02*
X131460952Y-123404380D01*
X131127619Y-123785333D01*
X131270476Y-123785333D01*
X131365714Y-123832952D01*
X131413333Y-123880571D01*
X131460952Y-123975809D01*
X131460952Y-124213904D01*
X131413333Y-124309142D01*
X131365714Y-124356761D01*
X131270476Y-124404380D01*
X130984761Y-124404380D01*
X130889523Y-124356761D01*
X130841904Y-124309142D01*
X131746666Y-123404380D02*
X132080000Y-124404380D01*
X132413333Y-123404380D01*
X132651428Y-123404380D02*
X133270476Y-123404380D01*
X132937142Y-123785333D01*
X133080000Y-123785333D01*
X133175238Y-123832952D01*
X133222857Y-123880571D01*
X133270476Y-123975809D01*
X133270476Y-124213904D01*
X133222857Y-124309142D01*
X133175238Y-124356761D01*
X133080000Y-124404380D01*
X132794285Y-124404380D01*
X132699047Y-124356761D01*
X132651428Y-124309142D01*
X128277142Y-71286666D02*
X128324761Y-71334285D01*
X128372380Y-71477142D01*
X128372380Y-71572380D01*
X128324761Y-71715238D01*
X128229523Y-71810476D01*
X128134285Y-71858095D01*
X127943809Y-71905714D01*
X127800952Y-71905714D01*
X127610476Y-71858095D01*
X127515238Y-71810476D01*
X127420000Y-71715238D01*
X127372380Y-71572380D01*
X127372380Y-71477142D01*
X127420000Y-71334285D01*
X127467619Y-71286666D01*
X127372380Y-70953333D02*
X127372380Y-70334285D01*
X127753333Y-70667619D01*
X127753333Y-70524761D01*
X127800952Y-70429523D01*
X127848571Y-70381904D01*
X127943809Y-70334285D01*
X128181904Y-70334285D01*
X128277142Y-70381904D01*
X128324761Y-70429523D01*
X128372380Y-70524761D01*
X128372380Y-70810476D01*
X128324761Y-70905714D01*
X128277142Y-70953333D01*
X91948095Y-100842380D02*
X91948095Y-101651904D01*
X91995714Y-101747142D01*
X92043333Y-101794761D01*
X92138571Y-101842380D01*
X92329047Y-101842380D01*
X92424285Y-101794761D01*
X92471904Y-101747142D01*
X92519523Y-101651904D01*
X92519523Y-100842380D01*
X92948095Y-100937619D02*
X92995714Y-100890000D01*
X93090952Y-100842380D01*
X93329047Y-100842380D01*
X93424285Y-100890000D01*
X93471904Y-100937619D01*
X93519523Y-101032857D01*
X93519523Y-101128095D01*
X93471904Y-101270952D01*
X92900476Y-101842380D01*
X93519523Y-101842380D01*
X132532380Y-111204285D02*
X132056190Y-111537619D01*
X132532380Y-111775714D02*
X131532380Y-111775714D01*
X131532380Y-111394761D01*
X131580000Y-111299523D01*
X131627619Y-111251904D01*
X131722857Y-111204285D01*
X131865714Y-111204285D01*
X131960952Y-111251904D01*
X132008571Y-111299523D01*
X132056190Y-111394761D01*
X132056190Y-111775714D01*
X132532380Y-110775714D02*
X131865714Y-110775714D01*
X132056190Y-110775714D02*
X131960952Y-110728095D01*
X131913333Y-110680476D01*
X131865714Y-110585238D01*
X131865714Y-110490000D01*
X132484761Y-109775714D02*
X132532380Y-109870952D01*
X132532380Y-110061428D01*
X132484761Y-110156666D01*
X132389523Y-110204285D01*
X132008571Y-110204285D01*
X131913333Y-110156666D01*
X131865714Y-110061428D01*
X131865714Y-109870952D01*
X131913333Y-109775714D01*
X132008571Y-109728095D01*
X132103809Y-109728095D01*
X132199047Y-110204285D01*
X131865714Y-109442380D02*
X131865714Y-109061428D01*
X132532380Y-109299523D02*
X131675238Y-109299523D01*
X131580000Y-109251904D01*
X131532380Y-109156666D01*
X131532380Y-109061428D01*
X89257142Y-76366666D02*
X89304761Y-76414285D01*
X89352380Y-76557142D01*
X89352380Y-76652380D01*
X89304761Y-76795238D01*
X89209523Y-76890476D01*
X89114285Y-76938095D01*
X88923809Y-76985714D01*
X88780952Y-76985714D01*
X88590476Y-76938095D01*
X88495238Y-76890476D01*
X88400000Y-76795238D01*
X88352380Y-76652380D01*
X88352380Y-76557142D01*
X88400000Y-76414285D01*
X88447619Y-76366666D01*
X88447619Y-75985714D02*
X88400000Y-75938095D01*
X88352380Y-75842857D01*
X88352380Y-75604761D01*
X88400000Y-75509523D01*
X88447619Y-75461904D01*
X88542857Y-75414285D01*
X88638095Y-75414285D01*
X88780952Y-75461904D01*
X89352380Y-76033333D01*
X89352380Y-75414285D01*
X97623333Y-67508380D02*
X97290000Y-67032190D01*
X97051904Y-67508380D02*
X97051904Y-66508380D01*
X97432857Y-66508380D01*
X97528095Y-66556000D01*
X97575714Y-66603619D01*
X97623333Y-66698857D01*
X97623333Y-66841714D01*
X97575714Y-66936952D01*
X97528095Y-66984571D01*
X97432857Y-67032190D01*
X97051904Y-67032190D01*
X98480476Y-66508380D02*
X98290000Y-66508380D01*
X98194761Y-66556000D01*
X98147142Y-66603619D01*
X98051904Y-66746476D01*
X98004285Y-66936952D01*
X98004285Y-67317904D01*
X98051904Y-67413142D01*
X98099523Y-67460761D01*
X98194761Y-67508380D01*
X98385238Y-67508380D01*
X98480476Y-67460761D01*
X98528095Y-67413142D01*
X98575714Y-67317904D01*
X98575714Y-67079809D01*
X98528095Y-66984571D01*
X98480476Y-66936952D01*
X98385238Y-66889333D01*
X98194761Y-66889333D01*
X98099523Y-66936952D01*
X98051904Y-66984571D01*
X98004285Y-67079809D01*
X78573333Y-68412380D02*
X78240000Y-67936190D01*
X78001904Y-68412380D02*
X78001904Y-67412380D01*
X78382857Y-67412380D01*
X78478095Y-67460000D01*
X78525714Y-67507619D01*
X78573333Y-67602857D01*
X78573333Y-67745714D01*
X78525714Y-67840952D01*
X78478095Y-67888571D01*
X78382857Y-67936190D01*
X78001904Y-67936190D01*
X78954285Y-67507619D02*
X79001904Y-67460000D01*
X79097142Y-67412380D01*
X79335238Y-67412380D01*
X79430476Y-67460000D01*
X79478095Y-67507619D01*
X79525714Y-67602857D01*
X79525714Y-67698095D01*
X79478095Y-67840952D01*
X78906666Y-68412380D01*
X79525714Y-68412380D01*
X118451333Y-67508380D02*
X118118000Y-67032190D01*
X117879904Y-67508380D02*
X117879904Y-66508380D01*
X118260857Y-66508380D01*
X118356095Y-66556000D01*
X118403714Y-66603619D01*
X118451333Y-66698857D01*
X118451333Y-66841714D01*
X118403714Y-66936952D01*
X118356095Y-66984571D01*
X118260857Y-67032190D01*
X117879904Y-67032190D01*
X118784666Y-66508380D02*
X119451333Y-66508380D01*
X119022761Y-67508380D01*
X110575142Y-68004666D02*
X110622761Y-68052285D01*
X110670380Y-68195142D01*
X110670380Y-68290380D01*
X110622761Y-68433238D01*
X110527523Y-68528476D01*
X110432285Y-68576095D01*
X110241809Y-68623714D01*
X110098952Y-68623714D01*
X109908476Y-68576095D01*
X109813238Y-68528476D01*
X109718000Y-68433238D01*
X109670380Y-68290380D01*
X109670380Y-68195142D01*
X109718000Y-68052285D01*
X109765619Y-68004666D01*
X109670380Y-67099904D02*
X109670380Y-67576095D01*
X110146571Y-67623714D01*
X110098952Y-67576095D01*
X110051333Y-67480857D01*
X110051333Y-67242761D01*
X110098952Y-67147523D01*
X110146571Y-67099904D01*
X110241809Y-67052285D01*
X110479904Y-67052285D01*
X110575142Y-67099904D01*
X110622761Y-67147523D01*
X110670380Y-67242761D01*
X110670380Y-67480857D01*
X110622761Y-67576095D01*
X110575142Y-67623714D01*
X118618095Y-60920380D02*
X118618095Y-61729904D01*
X118665714Y-61825142D01*
X118713333Y-61872761D01*
X118808571Y-61920380D01*
X118999047Y-61920380D01*
X119094285Y-61872761D01*
X119141904Y-61825142D01*
X119189523Y-61729904D01*
X119189523Y-60920380D01*
X120094285Y-61253714D02*
X120094285Y-61920380D01*
X119856190Y-60872761D02*
X119618095Y-61587047D01*
X120237142Y-61587047D01*
X91948095Y-128782380D02*
X91948095Y-129591904D01*
X91995714Y-129687142D01*
X92043333Y-129734761D01*
X92138571Y-129782380D01*
X92329047Y-129782380D01*
X92424285Y-129734761D01*
X92471904Y-129687142D01*
X92519523Y-129591904D01*
X92519523Y-128782380D01*
X93519523Y-129782380D02*
X92948095Y-129782380D01*
X93233809Y-129782380D02*
X93233809Y-128782380D01*
X93138571Y-128925238D01*
X93043333Y-129020476D01*
X92948095Y-129068095D01*
D11*
X134846190Y-121269047D02*
X134608095Y-121435714D01*
X134846190Y-121554761D02*
X134346190Y-121554761D01*
X134346190Y-121364285D01*
X134370000Y-121316666D01*
X134393809Y-121292857D01*
X134441428Y-121269047D01*
X134512857Y-121269047D01*
X134560476Y-121292857D01*
X134584285Y-121316666D01*
X134608095Y-121364285D01*
X134608095Y-121554761D01*
X134846190Y-120840476D02*
X134346190Y-120840476D01*
X134822380Y-120840476D02*
X134846190Y-120888095D01*
X134846190Y-120983333D01*
X134822380Y-121030952D01*
X134798571Y-121054761D01*
X134750952Y-121078571D01*
X134608095Y-121078571D01*
X134560476Y-121054761D01*
X134536666Y-121030952D01*
X134512857Y-120983333D01*
X134512857Y-120888095D01*
X134536666Y-120840476D01*
X134846190Y-120602380D02*
X134512857Y-120602380D01*
X134346190Y-120602380D02*
X134370000Y-120626190D01*
X134393809Y-120602380D01*
X134370000Y-120578571D01*
X134346190Y-120602380D01*
X134393809Y-120602380D01*
X134512857Y-120411904D02*
X134846190Y-120292857D01*
X134512857Y-120173809D01*
X134846190Y-119721428D02*
X134846190Y-120007142D01*
X134846190Y-119864285D02*
X134346190Y-119864285D01*
X134417619Y-119911904D01*
X134465238Y-119959523D01*
X134489047Y-120007142D01*
D10*
X130770476Y-116800380D02*
X130770476Y-117609904D01*
X130818095Y-117705142D01*
X130865714Y-117752761D01*
X130960952Y-117800380D01*
X131151428Y-117800380D01*
X131246666Y-117752761D01*
X131294285Y-117705142D01*
X131341904Y-117609904D01*
X131341904Y-116800380D01*
X131818095Y-117800380D02*
X131818095Y-117133714D01*
X131818095Y-117324190D02*
X131865714Y-117228952D01*
X131913333Y-117181333D01*
X132008571Y-117133714D01*
X132103809Y-117133714D01*
X132818095Y-117752761D02*
X132722857Y-117800380D01*
X132532380Y-117800380D01*
X132437142Y-117752761D01*
X132389523Y-117657523D01*
X132389523Y-117276571D01*
X132437142Y-117181333D01*
X132532380Y-117133714D01*
X132722857Y-117133714D01*
X132818095Y-117181333D01*
X132865714Y-117276571D01*
X132865714Y-117371809D01*
X132389523Y-117467047D01*
X133151428Y-117133714D02*
X133532380Y-117133714D01*
X133294285Y-117800380D02*
X133294285Y-116943238D01*
X133341904Y-116848000D01*
X133437142Y-116800380D01*
X133532380Y-116800380D01*
X92523333Y-107037142D02*
X92475714Y-107084761D01*
X92332857Y-107132380D01*
X92237619Y-107132380D01*
X92094761Y-107084761D01*
X91999523Y-106989523D01*
X91951904Y-106894285D01*
X91904285Y-106703809D01*
X91904285Y-106560952D01*
X91951904Y-106370476D01*
X91999523Y-106275238D01*
X92094761Y-106180000D01*
X92237619Y-106132380D01*
X92332857Y-106132380D01*
X92475714Y-106180000D01*
X92523333Y-106227619D01*
X93475714Y-107132380D02*
X92904285Y-107132380D01*
X93190000Y-107132380D02*
X93190000Y-106132380D01*
X93094761Y-106275238D01*
X92999523Y-106370476D01*
X92904285Y-106418095D01*
X133810476Y-91908380D02*
X133810476Y-92622666D01*
X133762857Y-92765523D01*
X133667619Y-92860761D01*
X133524761Y-92908380D01*
X133429523Y-92908380D01*
X134810476Y-92908380D02*
X134239047Y-92908380D01*
X134524761Y-92908380D02*
X134524761Y-91908380D01*
X134429523Y-92051238D01*
X134334285Y-92146476D01*
X134239047Y-92194095D01*
X135715238Y-91908380D02*
X135239047Y-91908380D01*
X135191428Y-92384571D01*
X135239047Y-92336952D01*
X135334285Y-92289333D01*
X135572380Y-92289333D01*
X135667619Y-92336952D01*
X135715238Y-92384571D01*
X135762857Y-92479809D01*
X135762857Y-92717904D01*
X135715238Y-92813142D01*
X135667619Y-92860761D01*
X135572380Y-92908380D01*
X135334285Y-92908380D01*
X135239047Y-92860761D01*
X135191428Y-92813142D01*
X89747142Y-67964666D02*
X89794761Y-68012285D01*
X89842380Y-68155142D01*
X89842380Y-68250380D01*
X89794761Y-68393238D01*
X89699523Y-68488476D01*
X89604285Y-68536095D01*
X89413809Y-68583714D01*
X89270952Y-68583714D01*
X89080476Y-68536095D01*
X88985238Y-68488476D01*
X88890000Y-68393238D01*
X88842380Y-68250380D01*
X88842380Y-68155142D01*
X88890000Y-68012285D01*
X88937619Y-67964666D01*
X89175714Y-67107523D02*
X89842380Y-67107523D01*
X88794761Y-67345619D02*
X89509047Y-67583714D01*
X89509047Y-66964666D01*
X133810476Y-104608380D02*
X133810476Y-105322666D01*
X133762857Y-105465523D01*
X133667619Y-105560761D01*
X133524761Y-105608380D01*
X133429523Y-105608380D01*
X134810476Y-105608380D02*
X134239047Y-105608380D01*
X134524761Y-105608380D02*
X134524761Y-104608380D01*
X134429523Y-104751238D01*
X134334285Y-104846476D01*
X134239047Y-104894095D01*
X135381904Y-105036952D02*
X135286666Y-104989333D01*
X135239047Y-104941714D01*
X135191428Y-104846476D01*
X135191428Y-104798857D01*
X135239047Y-104703619D01*
X135286666Y-104656000D01*
X135381904Y-104608380D01*
X135572380Y-104608380D01*
X135667619Y-104656000D01*
X135715238Y-104703619D01*
X135762857Y-104798857D01*
X135762857Y-104846476D01*
X135715238Y-104941714D01*
X135667619Y-104989333D01*
X135572380Y-105036952D01*
X135381904Y-105036952D01*
X135286666Y-105084571D01*
X135239047Y-105132190D01*
X135191428Y-105227428D01*
X135191428Y-105417904D01*
X135239047Y-105513142D01*
X135286666Y-105560761D01*
X135381904Y-105608380D01*
X135572380Y-105608380D01*
X135667619Y-105560761D01*
X135715238Y-105513142D01*
X135762857Y-105417904D01*
X135762857Y-105227428D01*
X135715238Y-105132190D01*
X135667619Y-105084571D01*
X135572380Y-105036952D01*
X97790095Y-60920380D02*
X97790095Y-61729904D01*
X97837714Y-61825142D01*
X97885333Y-61872761D01*
X97980571Y-61920380D01*
X98171047Y-61920380D01*
X98266285Y-61872761D01*
X98313904Y-61825142D01*
X98361523Y-61729904D01*
X98361523Y-60920380D01*
X98742476Y-60920380D02*
X99361523Y-60920380D01*
X99028190Y-61301333D01*
X99171047Y-61301333D01*
X99266285Y-61348952D01*
X99313904Y-61396571D01*
X99361523Y-61491809D01*
X99361523Y-61729904D01*
X99313904Y-61825142D01*
X99266285Y-61872761D01*
X99171047Y-61920380D01*
X98885333Y-61920380D01*
X98790095Y-61872761D01*
X98742476Y-61825142D01*
X91106666Y-56856380D02*
X91106666Y-57570666D01*
X91059047Y-57713523D01*
X90963809Y-57808761D01*
X90820952Y-57856380D01*
X90725714Y-57856380D01*
X92011428Y-56856380D02*
X91820952Y-56856380D01*
X91725714Y-56904000D01*
X91678095Y-56951619D01*
X91582857Y-57094476D01*
X91535238Y-57284952D01*
X91535238Y-57665904D01*
X91582857Y-57761142D01*
X91630476Y-57808761D01*
X91725714Y-57856380D01*
X91916190Y-57856380D01*
X92011428Y-57808761D01*
X92059047Y-57761142D01*
X92106666Y-57665904D01*
X92106666Y-57427809D01*
X92059047Y-57332571D01*
X92011428Y-57284952D01*
X91916190Y-57237333D01*
X91725714Y-57237333D01*
X91630476Y-57284952D01*
X91582857Y-57332571D01*
X91535238Y-57427809D01*
X82532380Y-74904523D02*
X83246666Y-74904523D01*
X83389523Y-74952142D01*
X83484761Y-75047380D01*
X83532380Y-75190238D01*
X83532380Y-75285476D01*
X83532380Y-73904523D02*
X83532380Y-74475952D01*
X83532380Y-74190238D02*
X82532380Y-74190238D01*
X82675238Y-74285476D01*
X82770476Y-74380714D01*
X82818095Y-74475952D01*
X82532380Y-73571190D02*
X82532380Y-72952142D01*
X82913333Y-73285476D01*
X82913333Y-73142619D01*
X82960952Y-73047380D01*
X83008571Y-72999761D01*
X83103809Y-72952142D01*
X83341904Y-72952142D01*
X83437142Y-72999761D01*
X83484761Y-73047380D01*
X83532380Y-73142619D01*
X83532380Y-73428333D01*
X83484761Y-73523571D01*
X83437142Y-73571190D01*
D11*
X134846190Y-111109047D02*
X134608095Y-111275714D01*
X134846190Y-111394761D02*
X134346190Y-111394761D01*
X134346190Y-111204285D01*
X134370000Y-111156666D01*
X134393809Y-111132857D01*
X134441428Y-111109047D01*
X134512857Y-111109047D01*
X134560476Y-111132857D01*
X134584285Y-111156666D01*
X134608095Y-111204285D01*
X134608095Y-111394761D01*
X134846190Y-110680476D02*
X134346190Y-110680476D01*
X134822380Y-110680476D02*
X134846190Y-110728095D01*
X134846190Y-110823333D01*
X134822380Y-110870952D01*
X134798571Y-110894761D01*
X134750952Y-110918571D01*
X134608095Y-110918571D01*
X134560476Y-110894761D01*
X134536666Y-110870952D01*
X134512857Y-110823333D01*
X134512857Y-110728095D01*
X134536666Y-110680476D01*
X134846190Y-110442380D02*
X134512857Y-110442380D01*
X134346190Y-110442380D02*
X134370000Y-110466190D01*
X134393809Y-110442380D01*
X134370000Y-110418571D01*
X134346190Y-110442380D01*
X134393809Y-110442380D01*
X134512857Y-110251904D02*
X134846190Y-110132857D01*
X134512857Y-110013809D01*
X134393809Y-109847142D02*
X134370000Y-109823333D01*
X134346190Y-109775714D01*
X134346190Y-109656666D01*
X134370000Y-109609047D01*
X134393809Y-109585238D01*
X134441428Y-109561428D01*
X134489047Y-109561428D01*
X134560476Y-109585238D01*
X134846190Y-109870952D01*
X134846190Y-109561428D01*
D12*
X120607000Y-52317000D02*
X120654000Y-52271000D01*
X107945000Y-54409000D02*
X107992000Y-54363000D01*
X127060000Y-50740000D02*
X106620000Y-50740000D01*
X108150000Y-54615000D02*
X108185000Y-54579000D01*
X127060000Y-55641000D02*
X106620000Y-55641000D01*
X120414000Y-52101000D02*
X120449000Y-52066000D01*
X127060000Y-48680000D02*
X106620000Y-48680000D01*
X127060000Y-49240000D02*
X106620000Y-49240000D01*
X115527000Y-52317000D02*
X115574000Y-52271000D01*
X110254000Y-52101000D02*
X110289000Y-52066000D01*
X113025000Y-54409000D02*
X113072000Y-54363000D01*
X127060000Y-58601000D02*
X106620000Y-58601000D01*
X127060000Y-58601000D02*
X127060000Y-48680000D01*
X106620000Y-58601000D02*
X106620000Y-48680000D01*
X118105000Y-54409000D02*
X118152000Y-54363000D01*
X118310000Y-54615000D02*
X118345000Y-54579000D01*
X110447000Y-52317000D02*
X110494000Y-52271000D01*
X127300000Y-49180000D02*
X127300000Y-48440000D01*
X115334000Y-52101000D02*
X115369000Y-52066000D01*
X127300000Y-48440000D02*
X126800000Y-48440000D01*
X113230000Y-54615000D02*
X113265000Y-54579000D01*
X123776000Y-54875000D02*
G75*
G03*
X125143042Y-54875427I684001J1534993D01*
G01*
X125995000Y-54024000D02*
G75*
G03*
X125995427Y-52656958I-1534993J684001D01*
G01*
X122924999Y-52656000D02*
G75*
G03*
X122924573Y-54023042I1535001J-684000D01*
G01*
X124460000Y-51660000D02*
G75*
G03*
X123776682Y-51805244I0J-1680000D01*
G01*
X125144000Y-51805000D02*
G75*
G03*
X124431195Y-51659747I-683999J-1535001D01*
G01*
X110900000Y-53340000D02*
G75*
G03*
X110900000Y-53340000I-1680000J0D01*
G01*
X115980000Y-53340000D02*
G75*
G03*
X115980000Y-53340000I-1680000J0D01*
G01*
X121060000Y-53340000D02*
G75*
G03*
X121060000Y-53340000I-1680000J0D01*
G01*
X80660000Y-80360000D02*
X76820000Y-80360000D01*
X80660000Y-82200000D02*
X76820000Y-82200000D01*
X127920000Y-75579000D02*
X127920000Y-74321000D01*
X126080000Y-75579000D02*
X126080000Y-74321000D01*
X95360000Y-100390000D02*
X95360000Y-79950000D01*
X93710000Y-100390000D02*
X95360000Y-100390000D01*
X95360000Y-79950000D02*
X90060000Y-79950000D01*
X90060000Y-100390000D02*
X91710000Y-100390000D01*
X90060000Y-79950000D02*
X90060000Y-100390000D01*
X93710000Y-100390000D02*
G75*
G03*
X91710000Y-100390000I-1000000J0D01*
G01*
X125670000Y-125730000D02*
X125670000Y-79950000D01*
X125670000Y-128330000D02*
X125670000Y-127000000D01*
X128330000Y-79950000D02*
X125670000Y-79950000D01*
X128330000Y-125730000D02*
X125670000Y-125730000D01*
X127000000Y-128330000D02*
X125670000Y-128330000D01*
X128330000Y-125730000D02*
X128330000Y-79950000D01*
X131160000Y-112410000D02*
X133000000Y-112410000D01*
X132080000Y-113360000D02*
X132080000Y-112410000D01*
X131160000Y-108570000D02*
X131160000Y-112410000D01*
X133000000Y-112410000D02*
X133000000Y-108570000D01*
X133000000Y-108570000D02*
X131160000Y-108570000D01*
X132080000Y-107620000D02*
X132080000Y-108570000D01*
X92061000Y-77120000D02*
X93319000Y-77120000D01*
X92061000Y-75280000D02*
X93319000Y-75280000D01*
X99710000Y-67976000D02*
X99710000Y-66136000D01*
X95870000Y-66136000D02*
X95870000Y-67976000D01*
X100660000Y-67056000D02*
X99710000Y-67056000D01*
X94920000Y-67056000D02*
X95870000Y-67056000D01*
X95870000Y-67976000D02*
X99710000Y-67976000D01*
X99710000Y-66136000D02*
X95870000Y-66136000D01*
X80660000Y-65120000D02*
X76820000Y-65120000D01*
X80660000Y-66960000D02*
X76820000Y-66960000D01*
X120538000Y-66136000D02*
X116698000Y-66136000D01*
X121488000Y-67056000D02*
X120538000Y-67056000D01*
X120538000Y-67976000D02*
X120538000Y-66136000D01*
X115748000Y-67056000D02*
X116698000Y-67056000D01*
X116698000Y-66136000D02*
X116698000Y-67976000D01*
X116698000Y-67976000D02*
X120538000Y-67976000D01*
X111348000Y-68467000D02*
X111348000Y-67209000D01*
X113188000Y-68467000D02*
X113188000Y-67209000D01*
X119618000Y-65338000D02*
X121268000Y-65338000D01*
X115968000Y-65338000D02*
X117618000Y-65338000D01*
X115968000Y-60138000D02*
X115968000Y-65338000D01*
X121268000Y-65338000D02*
X121268000Y-60138000D01*
X121268000Y-60138000D02*
X115968000Y-60138000D01*
X119618000Y-65338000D02*
G75*
G03*
X117618000Y-65338000I-1000000J0D01*
G01*
X90060000Y-128330000D02*
X91710000Y-128330000D01*
X90060000Y-107890000D02*
X90060000Y-128330000D01*
X95360000Y-107890000D02*
X90060000Y-107890000D01*
X95360000Y-128330000D02*
X95360000Y-107890000D01*
X93710000Y-128330000D02*
X95360000Y-128330000D01*
X93710000Y-128330000D02*
G75*
G03*
X91710000Y-128330000I-1000000J0D01*
G01*
X79680000Y-121510000D02*
X74180000Y-121510000D01*
X74180000Y-111510000D02*
X74180000Y-112010000D01*
X74180000Y-119010000D02*
X74180000Y-119510000D01*
X83380000Y-112060000D02*
X82780000Y-111760000D01*
X74180000Y-119510000D02*
X79680000Y-119510000D01*
X74180000Y-114510000D02*
X79680000Y-114510000D01*
X79680000Y-114510000D02*
X79680000Y-114010000D01*
X74180000Y-109200000D02*
X85290000Y-109200000D01*
X85290000Y-122900000D02*
X80790000Y-122900000D01*
X79680000Y-119510000D02*
X79680000Y-119010000D01*
X85290000Y-109200000D02*
X85290000Y-110620000D01*
X82780000Y-111760000D02*
X83380000Y-111460000D01*
X85290000Y-124320000D02*
X85290000Y-122900000D01*
X83380000Y-111460000D02*
X83380000Y-112060000D01*
X74180000Y-116760000D02*
X74180000Y-109200000D01*
X74180000Y-122010000D02*
X79680000Y-122010000D01*
X74180000Y-116760000D02*
X74180000Y-124320000D01*
X74180000Y-124320000D02*
X85290000Y-124320000D01*
X79680000Y-117010000D02*
X79680000Y-116510000D01*
X79680000Y-122010000D02*
X79680000Y-121510000D01*
X79680000Y-119010000D02*
X74180000Y-119010000D01*
X74180000Y-114010000D02*
X74180000Y-114510000D01*
X74180000Y-112010000D02*
X79680000Y-112010000D01*
X74180000Y-116510000D02*
X74180000Y-117010000D01*
X79680000Y-111510000D02*
X74180000Y-111510000D01*
X74180000Y-121510000D02*
X74180000Y-122010000D01*
X79680000Y-114010000D02*
X74180000Y-114010000D01*
X85290000Y-110620000D02*
X80790000Y-110620000D01*
X79680000Y-116510000D02*
X74180000Y-116510000D01*
X74180000Y-117010000D02*
X79680000Y-117010000D01*
X79680000Y-112010000D02*
X79680000Y-111510000D01*
X133700000Y-118730000D02*
X133700000Y-122570000D01*
X134620000Y-123520000D02*
X134620000Y-122570000D01*
X133700000Y-122570000D02*
X135540000Y-122570000D01*
X135540000Y-118730000D02*
X133700000Y-118730000D01*
X135540000Y-122570000D02*
X135540000Y-118730000D01*
X134620000Y-117780000D02*
X134620000Y-118730000D01*
X102930000Y-79950000D02*
X100270000Y-79950000D01*
X102930000Y-125730000D02*
X100270000Y-125730000D01*
X101600000Y-128330000D02*
X100270000Y-128330000D01*
X102930000Y-125730000D02*
X102930000Y-79950000D01*
X100270000Y-125730000D02*
X100270000Y-79950000D01*
X100270000Y-128330000D02*
X100270000Y-127000000D01*
X130810000Y-59690000D02*
X132080000Y-59690000D01*
X133122929Y-65660000D02*
X133520000Y-65660000D01*
X136180000Y-67370000D02*
X136180000Y-59630000D01*
X133122929Y-66420000D02*
X133520000Y-66420000D01*
X133122929Y-63120000D02*
X133520000Y-63120000D01*
X136180000Y-59630000D02*
X133520000Y-59630000D01*
X133520000Y-64770000D02*
X136180000Y-64770000D01*
X133190000Y-60580000D02*
X133520000Y-60580000D01*
X133520000Y-67370000D02*
X136180000Y-67370000D01*
X133122929Y-63880000D02*
X133520000Y-63880000D01*
X133520000Y-62230000D02*
X136180000Y-62230000D01*
X133520000Y-59630000D02*
X133520000Y-67370000D01*
X133190000Y-61340000D02*
X133520000Y-61340000D01*
X130810000Y-60960000D02*
X130810000Y-59690000D01*
X74180000Y-101190000D02*
X74180000Y-101690000D01*
X74180000Y-101690000D02*
X79680000Y-101690000D01*
X74180000Y-96440000D02*
X74180000Y-88880000D01*
X79680000Y-98690000D02*
X74180000Y-98690000D01*
X74180000Y-104000000D02*
X85290000Y-104000000D01*
X79680000Y-93690000D02*
X74180000Y-93690000D01*
X74180000Y-96440000D02*
X74180000Y-104000000D01*
X79680000Y-99190000D02*
X79680000Y-98690000D01*
X74180000Y-99190000D02*
X79680000Y-99190000D01*
X83380000Y-91140000D02*
X83380000Y-91740000D01*
X79680000Y-101190000D02*
X74180000Y-101190000D01*
X74180000Y-98690000D02*
X74180000Y-99190000D01*
X74180000Y-93690000D02*
X74180000Y-94190000D01*
X79680000Y-91190000D02*
X74180000Y-91190000D01*
X74180000Y-91690000D02*
X79680000Y-91690000D01*
X82780000Y-91440000D02*
X83380000Y-91140000D01*
X83380000Y-91740000D02*
X82780000Y-91440000D01*
X85290000Y-90300000D02*
X80790000Y-90300000D01*
X74180000Y-94190000D02*
X79680000Y-94190000D01*
X74180000Y-96690000D02*
X79680000Y-96690000D01*
X79680000Y-91690000D02*
X79680000Y-91190000D01*
X74180000Y-88880000D02*
X85290000Y-88880000D01*
X79680000Y-94190000D02*
X79680000Y-93690000D01*
X79680000Y-101690000D02*
X79680000Y-101190000D01*
X85290000Y-104000000D02*
X85290000Y-102580000D01*
X85290000Y-88880000D02*
X85290000Y-90300000D01*
X74180000Y-96190000D02*
X74180000Y-96690000D01*
X74180000Y-91190000D02*
X74180000Y-91690000D01*
X79680000Y-96690000D02*
X79680000Y-96190000D01*
X79680000Y-96190000D02*
X74180000Y-96190000D01*
X85290000Y-102580000D02*
X80790000Y-102580000D01*
X92061000Y-103220000D02*
X93319000Y-103220000D01*
X92061000Y-105060000D02*
X93319000Y-105060000D01*
X136620000Y-91500000D02*
X136620000Y-81220000D01*
X132319000Y-91500000D02*
X132319000Y-81220000D01*
X135859000Y-84854000D02*
X135894000Y-84889000D01*
X135643000Y-85047000D02*
X135689000Y-85094000D01*
X129359000Y-81220000D02*
X136620000Y-81220000D01*
X129359000Y-91500000D02*
X136620000Y-91500000D01*
X129359000Y-91500000D02*
X129359000Y-81220000D01*
X133551000Y-82545000D02*
X133597000Y-82592000D01*
X133345000Y-82750000D02*
X133381000Y-82785000D01*
X133936000Y-90435000D02*
G75*
G03*
X135303042Y-90435427I684001J1534993D01*
G01*
X136155000Y-89584000D02*
G75*
G03*
X136300253Y-88871195I-1535001J683999D01*
G01*
X135304000Y-87364999D02*
G75*
G03*
X133936958Y-87364573I-684000J-1535001D01*
G01*
X136300000Y-88900000D02*
G75*
G03*
X136154756Y-88216682I-1680000J0D01*
G01*
X133085000Y-88216000D02*
G75*
G03*
X133084573Y-89583042I1534993J-684001D01*
G01*
X136300000Y-83820000D02*
G75*
G03*
X136300000Y-83820000I-1680000J0D01*
G01*
X92360000Y-68427000D02*
X92360000Y-67169000D01*
X90520000Y-68427000D02*
X90520000Y-67169000D01*
X129359000Y-104200000D02*
X129359000Y-93920000D01*
X136620000Y-104200000D02*
X136620000Y-93920000D01*
X129359000Y-104200000D02*
X136620000Y-104200000D01*
X133551000Y-95245000D02*
X133597000Y-95292000D01*
X135859000Y-97554000D02*
X135894000Y-97589000D01*
X129359000Y-93920000D02*
X136620000Y-93920000D01*
X132319000Y-104200000D02*
X132319000Y-93920000D01*
X133345000Y-95450000D02*
X133381000Y-95485000D01*
X135643000Y-97747000D02*
X135689000Y-97794000D01*
X133085000Y-100916000D02*
G75*
G03*
X133084573Y-102283042I1534993J-684001D01*
G01*
X133936000Y-103135000D02*
G75*
G03*
X135303042Y-103135427I684001J1534993D01*
G01*
X135304000Y-100064999D02*
G75*
G03*
X133936958Y-100064573I-684000J-1535001D01*
G01*
X136155000Y-102284000D02*
G75*
G03*
X136300253Y-101571195I-1535001J683999D01*
G01*
X136300000Y-101600000D02*
G75*
G03*
X136154756Y-100916682I-1680000J0D01*
G01*
X136300000Y-96520000D02*
G75*
G03*
X136300000Y-96520000I-1680000J0D01*
G01*
X100440000Y-60138000D02*
X95140000Y-60138000D01*
X100440000Y-65338000D02*
X100440000Y-60138000D01*
X98790000Y-65338000D02*
X100440000Y-65338000D01*
X95140000Y-60138000D02*
X95140000Y-65338000D01*
X95140000Y-65338000D02*
X96790000Y-65338000D01*
X98790000Y-65338000D02*
G75*
G03*
X96790000Y-65338000I-1000000J0D01*
G01*
X133520000Y-69790000D02*
X133520000Y-77530000D01*
X133122929Y-76580000D02*
X133520000Y-76580000D01*
X130810000Y-71120000D02*
X130810000Y-69850000D01*
X133122929Y-73280000D02*
X133520000Y-73280000D01*
X133520000Y-74930000D02*
X136180000Y-74930000D01*
X130810000Y-69850000D02*
X132080000Y-69850000D01*
X133190000Y-70740000D02*
X133520000Y-70740000D01*
X136180000Y-77530000D02*
X136180000Y-69790000D01*
X133520000Y-77530000D02*
X136180000Y-77530000D01*
X133122929Y-74040000D02*
X133520000Y-74040000D01*
X136180000Y-69790000D02*
X133520000Y-69790000D01*
X133520000Y-72390000D02*
X136180000Y-72390000D01*
X133190000Y-71500000D02*
X133520000Y-71500000D01*
X133122929Y-75820000D02*
X133520000Y-75820000D01*
X129920000Y-52230000D02*
X129920000Y-51900000D01*
X133350000Y-51900000D02*
X133350000Y-49240000D01*
X129540000Y-54610000D02*
X128270000Y-54610000D01*
X128210000Y-49240000D02*
X128210000Y-51900000D01*
X135950000Y-49240000D02*
X128210000Y-49240000D01*
X134240000Y-52297071D02*
X134240000Y-51900000D01*
X135950000Y-51900000D02*
X135950000Y-49240000D01*
X132460000Y-52297071D02*
X132460000Y-51900000D01*
X130810000Y-51900000D02*
X130810000Y-49240000D01*
X129160000Y-52230000D02*
X129160000Y-51900000D01*
X128270000Y-54610000D02*
X128270000Y-53340000D01*
X135000000Y-52297071D02*
X135000000Y-51900000D01*
X128210000Y-51900000D02*
X135950000Y-51900000D01*
X131700000Y-52297071D02*
X131700000Y-51900000D01*
X101660000Y-49240000D02*
X81220000Y-49240000D01*
X101660000Y-50740000D02*
X81220000Y-50740000D01*
X95014000Y-52101000D02*
X95049000Y-52066000D01*
X101660000Y-58601000D02*
X81220000Y-58601000D01*
X87625000Y-54409000D02*
X87672000Y-54363000D01*
X89934000Y-52101000D02*
X89969000Y-52066000D01*
X101660000Y-48680000D02*
X81220000Y-48680000D01*
X90127000Y-52317000D02*
X90174000Y-52271000D01*
X84854000Y-52101000D02*
X84889000Y-52066000D01*
X87830000Y-54615000D02*
X87865000Y-54579000D01*
X101660000Y-55641000D02*
X81220000Y-55641000D01*
X92705000Y-54409000D02*
X92752000Y-54363000D01*
X95207000Y-52317000D02*
X95254000Y-52271000D01*
X101900000Y-48440000D02*
X101400000Y-48440000D01*
X82750000Y-54615000D02*
X82785000Y-54579000D01*
X101900000Y-49180000D02*
X101900000Y-48440000D01*
X92910000Y-54615000D02*
X92945000Y-54579000D01*
X81220000Y-58601000D02*
X81220000Y-48680000D01*
X85047000Y-52317000D02*
X85094000Y-52271000D01*
X82545000Y-54409000D02*
X82592000Y-54363000D01*
X101660000Y-58601000D02*
X101660000Y-48680000D01*
X99744000Y-51805000D02*
G75*
G03*
X99031195Y-51659747I-683999J-1535001D01*
G01*
X97524999Y-52656000D02*
G75*
G03*
X97524573Y-54023042I1535001J-684000D01*
G01*
X98376000Y-54875000D02*
G75*
G03*
X99743042Y-54875427I684001J1534993D01*
G01*
X100595000Y-54024000D02*
G75*
G03*
X100595427Y-52656958I-1534993J684001D01*
G01*
X99060000Y-51660000D02*
G75*
G03*
X98376682Y-51805244I0J-1680000D01*
G01*
X85500000Y-53340000D02*
G75*
G03*
X85500000Y-53340000I-1680000J0D01*
G01*
X90580000Y-53340000D02*
G75*
G03*
X90580000Y-53340000I-1680000J0D01*
G01*
X95660000Y-53340000D02*
G75*
G03*
X95660000Y-53340000I-1680000J0D01*
G01*
X78880000Y-69500000D02*
X77980000Y-69500000D01*
X78880000Y-78690000D02*
X77980000Y-78690000D01*
X75280000Y-69500000D02*
X74280000Y-69500000D01*
X74280000Y-69500000D02*
X74280000Y-78690000D01*
X75280000Y-78690000D02*
X74280000Y-78690000D01*
X81960000Y-69620000D02*
X81960000Y-78570000D01*
X135540000Y-112410000D02*
X135540000Y-108570000D01*
X134620000Y-107620000D02*
X134620000Y-108570000D01*
X134620000Y-113360000D02*
X134620000Y-112410000D01*
X133700000Y-108570000D02*
X133700000Y-112410000D01*
X133700000Y-112410000D02*
X135540000Y-112410000D01*
X135540000Y-108570000D02*
X133700000Y-108570000D01*
%LPC*%
D13*
X124460000Y-53340000D03*
D14*
X119380000Y-53340000D03*
X114300000Y-53340000D03*
X109220000Y-53340000D03*
D15*
X81280000Y-81280000D03*
D16*
X76200000Y-81280000D03*
D17*
X132080000Y-121920000D03*
D18*
X127000000Y-76200000D03*
X127000000Y-73700000D03*
D19*
X96520000Y-99060000D03*
D20*
X96520000Y-96520000D03*
X96520000Y-93980000D03*
X96520000Y-91440000D03*
X96520000Y-88900000D03*
X96520000Y-86360000D03*
X96520000Y-83820000D03*
D21*
X96520000Y-81280000D03*
D20*
X88900000Y-81280000D03*
X88900000Y-83820000D03*
X88900000Y-86360000D03*
X88900000Y-88900000D03*
X88900000Y-91440000D03*
X88900000Y-93980000D03*
X88900000Y-96520000D03*
X88900000Y-99060000D03*
D17*
X127000000Y-127000000D03*
D22*
X127000000Y-124460000D03*
X127000000Y-121920000D03*
X127000000Y-119380000D03*
X127000000Y-116840000D03*
X127000000Y-114300000D03*
X127000000Y-111760000D03*
X127000000Y-109220000D03*
X127000000Y-106680000D03*
X127000000Y-104140000D03*
X127000000Y-101600000D03*
X127000000Y-99060000D03*
X127000000Y-96520000D03*
D23*
X127000000Y-93980000D03*
D22*
X127000000Y-91440000D03*
X127000000Y-88900000D03*
X127000000Y-86360000D03*
X127000000Y-83820000D03*
X127000000Y-81280000D03*
D15*
X132080000Y-106680000D03*
D16*
X132080000Y-114300000D03*
D18*
X91440000Y-76200000D03*
X93940000Y-76200000D03*
D15*
X93980000Y-67056000D03*
D16*
X101600000Y-67056000D03*
D15*
X81280000Y-66040000D03*
D16*
X76200000Y-66040000D03*
D15*
X114808000Y-67056000D03*
D16*
X122428000Y-67056000D03*
D18*
X112268000Y-69088000D03*
X112268000Y-66588000D03*
D19*
X122428000Y-64008000D03*
D20*
X122428000Y-61468000D03*
X114808000Y-61468000D03*
X114808000Y-64008000D03*
D19*
X96520000Y-127000000D03*
D20*
X96520000Y-124460000D03*
X96520000Y-121920000D03*
X96520000Y-119380000D03*
X96520000Y-116840000D03*
X96520000Y-114300000D03*
X96520000Y-111760000D03*
D21*
X96520000Y-109220000D03*
D20*
X88900000Y-109220000D03*
X88900000Y-111760000D03*
X88900000Y-114300000D03*
X88900000Y-116840000D03*
X88900000Y-119380000D03*
X88900000Y-121920000D03*
X88900000Y-124460000D03*
X88900000Y-127000000D03*
D24*
X81280000Y-111760000D03*
D25*
X81280000Y-114260000D03*
X81280000Y-116760000D03*
X81280000Y-119260000D03*
X81280000Y-121760000D03*
D15*
X134620000Y-124460000D03*
D16*
X134620000Y-116840000D03*
D17*
X101600000Y-127000000D03*
D22*
X101600000Y-124460000D03*
X101600000Y-121920000D03*
X101600000Y-119380000D03*
X101600000Y-116840000D03*
X101600000Y-114300000D03*
D23*
X101600000Y-111760000D03*
D22*
X101600000Y-109220000D03*
X101600000Y-106680000D03*
X101600000Y-104140000D03*
X101600000Y-101600000D03*
X101600000Y-99060000D03*
X101600000Y-96520000D03*
X101600000Y-93980000D03*
X101600000Y-91440000D03*
X101600000Y-88900000D03*
X101600000Y-86360000D03*
X101600000Y-83820000D03*
X101600000Y-81280000D03*
D17*
X132080000Y-60960000D03*
D22*
X132080000Y-63500000D03*
X132080000Y-66040000D03*
D24*
X81280000Y-91440000D03*
D25*
X81280000Y-93940000D03*
X81280000Y-96440000D03*
X81280000Y-98940000D03*
X81280000Y-101440000D03*
D17*
X132080000Y-119380000D03*
D18*
X91440000Y-104140000D03*
X93940000Y-104140000D03*
D26*
X134620000Y-88900000D03*
D14*
X134620000Y-83820000D03*
D18*
X91440000Y-69048000D03*
X91440000Y-66548000D03*
D13*
X134620000Y-101600000D03*
D14*
X134620000Y-96520000D03*
D19*
X101600000Y-64008000D03*
D20*
X101600000Y-61468000D03*
X93980000Y-61468000D03*
X93980000Y-64008000D03*
D17*
X132080000Y-71120000D03*
D22*
X132080000Y-73660000D03*
X132080000Y-76200000D03*
D17*
X129540000Y-53340000D03*
D22*
X132080000Y-53340000D03*
X134620000Y-53340000D03*
D13*
X99060000Y-53340000D03*
D14*
X93980000Y-53340000D03*
X88900000Y-53340000D03*
X83820000Y-53340000D03*
D27*
X81280000Y-71120000D03*
X81280000Y-71970000D03*
X81280000Y-72820000D03*
X81280000Y-73670000D03*
X81280000Y-74520000D03*
X81280000Y-75370000D03*
X81280000Y-76220000D03*
X81280000Y-77070000D03*
X79930000Y-77070000D03*
X79930000Y-76220000D03*
X79930000Y-75370000D03*
X79930000Y-74520000D03*
X79930000Y-73670000D03*
X79930000Y-72820000D03*
X79930000Y-71970000D03*
X79930000Y-71120000D03*
D28*
X76920000Y-78420000D03*
D29*
X80300000Y-78420000D03*
X80300000Y-69770000D03*
D28*
X76920000Y-69770000D03*
D15*
X134620000Y-114300000D03*
D16*
X134620000Y-106680000D03*
M02*
