<?xml version="1.0" encoding="UTF-8" standalone="no"?>
<svg
   xmlns:dc="http://purl.org/dc/elements/1.1/"
   xmlns:cc="http://creativecommons.org/ns#"
   xmlns:rdf="http://www.w3.org/1999/02/22-rdf-syntax-ns#"
   xmlns:svg="http://www.w3.org/2000/svg"
   xmlns="http://www.w3.org/2000/svg"
   xmlns:sodipodi="http://sodipodi.sourceforge.net/DTD/sodipodi-0.dtd"
   xmlns:inkscape="http://www.inkscape.org/namespaces/inkscape"
   width="346.87079mm"
   height="224.15511mm"
   viewBox="0 0 346.87079 224.1551"
   version="1.1"
   id="svg889"
   sodipodi:docname="ESP-Cam Holder WOOD.svg"
   inkscape:version="1.0.2-2 (e86c870879, 2021-01-15)">
  <metadata
     id="metadata895">
    <rdf:RDF>
      <cc:Work
         rdf:about="">
        <dc:format>image/svg+xml</dc:format>
        <dc:type
           rdf:resource="http://purl.org/dc/dcmitype/StillImage" />
        <dc:title />
      </cc:Work>
    </rdf:RDF>
  </metadata>
  <defs
     id="defs893" />
  <sodipodi:namedview
     pagecolor="#ffffff"
     bordercolor="#666666"
     borderopacity="1"
     objecttolerance="10"
     gridtolerance="10"
     guidetolerance="10"
     inkscape:pageopacity="0"
     inkscape:pageshadow="2"
     inkscape:window-width="1920"
     inkscape:window-height="1137"
     id="namedview891"
     showgrid="false"
     inkscape:zoom="0.69725726"
     inkscape:cx="592.03209"
     inkscape:cy="488.41394"
     inkscape:window-x="-8"
     inkscape:window-y="-8"
     inkscape:window-maximized="1"
     inkscape:current-layer="svg889"
     fit-margin-top="1"
     fit-margin-left="1"
     fit-margin-bottom="1"
     fit-margin-right="1"
     inkscape:document-rotation="0" />
  <circle
     cx="284.561"
     cy="-31.1"
     r="30"
     stroke="#000000"
     stroke-width="0.35 px"
     style="fill:none;stroke:#0000ff;stroke-width:0.01;stroke-miterlimit:4;stroke-dasharray:none;stroke-opacity:1"
     id="circle833-6"
     transform="scale(1,-1)" />
  <circle
     cx="284.561"
     cy="-31.1"
     r="26"
     stroke="#000000"
     stroke-width="0.35 px"
     style="fill:none;stroke:#0000ff;stroke-width:0.01;stroke-miterlimit:4;stroke-dasharray:none;stroke-opacity:1"
     id="circle838-8"
     transform="scale(1,-1)" />
  <path
     stroke="#000000"
     stroke-width="0.35 px"
     style="fill:none;stroke:#0000ff;stroke-width:0.01;stroke-miterlimit:4;stroke-dasharray:none;stroke-opacity:1"
     id="circle838-4"
     sodipodi:type="arc"
     sodipodi:cx="160.07748"
     sodipodi:cy="-138.87143"
     sodipodi:rx="24.255915"
     sodipodi:ry="24.064011"
     sodipodi:start="0.31356755"
     sodipodi:end="2.8269802"
     sodipodi:arc-type="chord"
     sodipodi:open="true"
     transform="scale(1,-1)"
     d="m 183.15066,-131.44878 a 24.255915,24.064011 0 0 1 -23.0605,16.64136 24.255915,24.064011 0 0 1 -23.07802,-16.61745 z" />
  <path
     stroke="#000000"
     stroke-width="0.35 px"
     style="fill:none;stroke:#0000ff;stroke-width:0.01;stroke-miterlimit:4;stroke-dasharray:none;stroke-opacity:1"
     id="circle838-4-8"
     sodipodi:type="arc"
     sodipodi:cx="160.07365"
     sodipodi:cy="138.87143"
     sodipodi:rx="24.255915"
     sodipodi:ry="24.064011"
     sodipodi:start="0.31356755"
     sodipodi:end="2.8269802"
     sodipodi:arc-type="chord"
     sodipodi:open="true"
     d="m 183.14683,146.29407 a 24.255915,24.064011 0 0 1 -23.0605,16.64137 24.255915,24.064011 0 0 1 -23.07802,-16.61745 z" />
  <path
     id="circle833"
     style="fill:none;stroke:#0000ff;stroke-width:0.01;stroke-miterlimit:4;stroke-dasharray:none;stroke-opacity:1"
     d="m 160.64188,108.85605 c -9.23362,-0.11981 -18.52282,4.07859 -24.17216,11.49646 -2.71929,3.36892 -4.57476,7.33491 -5.55315,11.51144 h -6.83886 c -4.16354,-0.13389 -7.71228,4.0424 -6.9081,8.12974 0.49967,3.61352 4.11891,6.26542 7.70805,5.87044 2.00325,-0.0734 4.02135,0.0339 6.03064,0.0295 0.75593,3.22214 2.0429,6.31877 3.88038,9.11004 6.53952,10.57383 20.0746,16.0747 32.13654,13.06845 9.86322,-2.16301 18.08703,-9.79351 21.45864,-19.20813 h 9.69322 v -7.4998 h -8.10624 c 0.0696,-0.83156 0.10646,-1.66565 0.10645,-2.50011 0.0121,-0.83666 -0.0176,-1.67045 -0.0822,-2.5001 h 8.08199 v -7.4998 h -9.71083 c -3.06123,-8.49074 -9.97237,-15.60273 -18.64589,-18.40818 -2.92863,-1.04018 -6.00064,-1.55997 -9.07852,-1.5999 z m -36.33421,26.75651 c 2.34973,0.0773 3.89842,3.07211 2.49597,5.0214 -1.24906,2.14202 -4.79492,1.86326 -5.69474,-0.447 -0.98322,-2.08035 0.66363,-4.62415 2.96881,-4.57285 0.0774,-0.004 0.15416,-0.004 0.22996,-0.002 z"
     sodipodi:nodetypes="ccccccccccccccccccccccccccc" />
  <path
     id="Sketch002_w0000-1"
     style="fill:none;fill-opacity:1;fill-rule:evenodd;stroke:#0000ff;stroke-width:0.01;stroke-miterlimit:4;stroke-dasharray:none;stroke-opacity:1"
     d="m 34.806701,142.37864 a -3.5,-3.5 0 0 0 3.500046,-3.50005 -3.5,-3.5 0 0 0 -3.500046,-3.50004 l -16.000054,1.50017 a -2,-2 0 0 0 -1.99988,1.99987 -2,-2 0 0 0 1.99988,1.99988 z" />
  <path
     id="circle833-3"
     style="fill:none;stroke:#0000ff;stroke-width:0.01;stroke-miterlimit:4;stroke-dasharray:none;stroke-opacity:1"
     d="m 34.242318,168.88627 c 9.233619,0.11982 18.522821,-4.07804 24.172167,-11.49594 2.719272,-3.36889 4.574755,-7.33493 5.553149,-11.51144 h 6.838859 c 4.163544,0.13389 7.712797,-4.04291 6.908622,-8.13025 -0.49967,-3.61353 -4.119435,-6.2649 -7.708573,-5.86993 -2.003253,0.0734 -4.021344,-0.0339 -6.03064,-0.0295 -0.755915,-3.22225 -2.042846,-6.31868 -3.880383,-9.11003 -6.539516,-10.57384 -20.074593,-16.07471 -32.136539,-13.06846 -12.250374,2.68651 -21.977502,13.80502 -23.011513,26.30382 -0.0939,0.96491 -0.14057,1.93475 -0.140559,2.90422 -0.180671,12.54019 8.424084,24.54841 20.356895,28.40808 2.92863,1.04018 6.000641,1.55945 9.078515,1.59939 z m 36.334215,-26.75598 c -2.349732,-0.0773 -3.898417,-3.07211 -2.495972,-5.0214 1.249059,-2.14202 4.794925,-1.86379 5.694743,0.44648 0.983226,2.08034 -0.663631,4.62468 -2.968811,4.57337 -0.07739,0.004 -0.154163,0.004 -0.22996,0.002 z" />
  <path
     stroke="#000000"
     stroke-width="0.35 px"
     style="fill:none;stroke:#0000ff;stroke-width:0.01;stroke-miterlimit:4;stroke-dasharray:none;stroke-opacity:1"
     id="circle838-4-2"
     sodipodi:type="arc"
     sodipodi:cx="-34.807232"
     sodipodi:cy="138.87115"
     sodipodi:rx="24.255915"
     sodipodi:ry="24.064011"
     sodipodi:start="0.31356755"
     sodipodi:end="2.8269802"
     sodipodi:arc-type="chord"
     sodipodi:open="true"
     transform="scale(-1,1)"
     d="m -11.734055,146.2938 a 24.255915,24.064011 0 0 1 -23.060504,16.64136 24.255915,24.064011 0 0 1 -23.078019,-16.61745 z" />
  <path
     stroke="#000000"
     stroke-width="0.35 px"
     style="fill:none;stroke:#0000ff;stroke-width:0.01;stroke-miterlimit:4;stroke-dasharray:none;stroke-opacity:1"
     id="circle838-4-8-73"
     sodipodi:type="arc"
     sodipodi:cx="-34.811054"
     sodipodi:cy="-138.87115"
     sodipodi:rx="24.255915"
     sodipodi:ry="24.064011"
     sodipodi:start="0.31356755"
     sodipodi:end="2.8269802"
     sodipodi:arc-type="chord"
     sodipodi:open="true"
     d="m -11.737877,-131.44851 a 24.255915,24.064011 0 0 1 -23.060505,16.64136 24.255915,24.064011 0 0 1 -23.078019,-16.61745 z"
     transform="scale(-1)" />
  <path
     id="rect1228"
     style="opacity:1;fill:none;fill-opacity:1;stroke:#0000ff;stroke-width:0.01;stroke-linecap:round;stroke-linejoin:round;stroke-miterlimit:4;stroke-dasharray:none;stroke-opacity:1;stop-color:#000000"
     d="m 284.78288,108.85355 c -16.56855,-1.3e-4 -30.0001,13.4312 -30.00026,29.99972 -1.3e-4,16.56872 13.43151,30.00036 30.00026,30.00023 12.71847,-2e-5 24.05468,-8.01978 28.28876,-20.01273 h 9.74826 v -7.49463 h -8.14112 c 0.0692,-0.82916 0.10383,-1.66083 0.10387,-2.49287 -10e-6,-0.83861 -0.0352,-1.67685 -0.10542,-2.51251 h 8.14267 v -7.49463 h -9.75549 c -4.23999,-11.9825 -15.57094,-19.99251 -28.28153,-19.99258 z m -0.0382,3.99976 h 0.0382 c 14.35942,2e-5 25.99999,11.64059 26.00001,25.99996 -2e-5,14.35937 -11.64059,25.99994 -26.00001,25.99996 -14.3594,-2e-5 -25.99997,-11.64059 -25.99999,-25.99996 10e-6,-14.34445 11.61728,-25.97884 25.96175,-25.99996 z"
     sodipodi:nodetypes="sscccccsccccscsssssc" />
  <path
     id="rect1284"
     style="opacity:1;fill:none;fill-opacity:1;stroke:#0000ff;stroke-width:0.01;stroke-linecap:round;stroke-linejoin:round;stroke-miterlimit:4;stroke-dasharray:none;stroke-opacity:1;stop-color:#000000"
     d="m 87.119927,46.28201 h 7.4843 v 3.99716 h 5.02657 v -3.99716 h 7.483783 v -4.00029 h -7.483783 v -3.97597 h -5.02657 v 3.97597 h -7.4843 z" />
  <circle
     cx="159.68257"
     cy="-31.1"
     r="30"
     stroke="#000000"
     stroke-width="0.35 px"
     style="fill:none;stroke:#0000ff;stroke-width:0.01;stroke-miterlimit:4;stroke-dasharray:none;stroke-opacity:1"
     id="circle833-6-1"
     transform="scale(1,-1)" />
  <circle
     cx="159.68257"
     cy="-31.1"
     r="26"
     stroke="#000000"
     stroke-width="0.35 px"
     style="fill:none;stroke:#0000ff;stroke-width:0.01;stroke-miterlimit:4;stroke-dasharray:none;stroke-opacity:1"
     id="circle838-8-3"
     transform="scale(1,-1)" />
  <circle
     cx="222.1218"
     cy="-31.1"
     r="30"
     stroke="#000000"
     stroke-width="0.35 px"
     style="fill:none;stroke:#0000ff;stroke-width:0.01;stroke-miterlimit:4;stroke-dasharray:none;stroke-opacity:1"
     id="circle833-6-1-2"
     transform="scale(1,-1)" />
  <circle
     cx="222.1218"
     cy="-31.1"
     r="26"
     stroke="#000000"
     stroke-width="0.35 px"
     style="fill:none;stroke:#0000ff;stroke-width:0.01;stroke-miterlimit:4;stroke-dasharray:none;stroke-opacity:1"
     id="circle838-8-3-4"
     transform="scale(1,-1)" />
  <circle
     cx="97.243347"
     cy="-31.1"
     r="30"
     stroke="#000000"
     stroke-width="0.35 px"
     style="fill:none;stroke:#0000ff;stroke-width:0.01;stroke-miterlimit:4;stroke-dasharray:none;stroke-opacity:1"
     id="circle833-6-1-4"
     transform="scale(1,-1)" />
  <circle
     cx="97.243347"
     cy="-31.1"
     r="26"
     stroke="#000000"
     stroke-width="0.35 px"
     style="fill:none;stroke:#0000ff;stroke-width:0.01;stroke-miterlimit:4;stroke-dasharray:none;stroke-opacity:1"
     id="circle838-8-3-9"
     transform="scale(1,-1)" />
  <circle
     cx="34.804115"
     cy="-31.1"
     r="30"
     stroke="#000000"
     stroke-width="0.35 px"
     style="fill:none;stroke:#0000ff;stroke-width:0.01;stroke-miterlimit:4;stroke-dasharray:none;stroke-opacity:1"
     id="circle833-6-1-6"
     transform="scale(1,-1)" />
  <circle
     cx="34.804115"
     cy="-31.1"
     r="26"
     stroke="#000000"
     stroke-width="0.35 px"
     style="fill:none;stroke:#0000ff;stroke-width:0.01;stroke-miterlimit:4;stroke-dasharray:none;stroke-opacity:1"
     id="circle838-8-3-99"
     transform="scale(1,-1)" />
  <path
     id="rect1519-6"
     style="fill:none;fill-opacity:1;stroke:#0000ff;stroke-width:0.01;stroke-linecap:round;stroke-linejoin:round;stroke-miterlimit:4;stroke-dasharray:none;stroke-opacity:1;stop-color:#000000"
     d="m 211.95301,34.33463 v 5.50044 h 4.00027 v 5.99963 h -4.00027 v 5.49992 h 20.00032 V 45.8347 h -4.00027 v -5.99963 h 4.00027 v -5.50044 z" />
  <path
     id="rect1495-9-4"
     style="fill:none;fill-opacity:1;stroke:#0000ff;stroke-width:0.01;stroke-linecap:round;stroke-linejoin:round;stroke-miterlimit:4;stroke-dasharray:none;stroke-opacity:1;stop-color:#000000"
     d="m 85.588409,12.02839 v 5.50044 h -4.00027 v 5.99963 h 4.00027 v 5.49992 h 5.49992 v 4.00027 h 11.999791 v -4.00027 h 5.49992 v -5.49992 h 4.00027 v -5.99963 h -4.00027 v -5.50044 h -5.49992 -11.999791 z" />
  <path
     id="rect1495-9-4-9"
     style="fill:none;fill-opacity:1;stroke:#0000ff;stroke-width:0.01;stroke-linecap:round;stroke-linejoin:round;stroke-miterlimit:4;stroke-dasharray:none;stroke-opacity:1;stop-color:#000000"
     d="m 210.68643,10.68852 v 5.50044 h -4.00027 v 5.99963 h 4.00027 v 5.49992 h 5.49992 v 4.00027 h 11.99979 v -4.00027 h 5.49992 v -5.49992 h 4.00027 v -5.99963 h -4.00027 v -5.50044 h -5.49992 -11.99979 z" />
  <path
     id="rect1519-6-4"
     style="fill:none;fill-opacity:1;stroke:#0000ff;stroke-width:0.01;stroke-linecap:round;stroke-linejoin:round;stroke-miterlimit:4;stroke-dasharray:none;stroke-opacity:1;stop-color:#000000"
     d="m 148.44125,12.52851 v 5.50044 h 4.00027 v 5.99963 h -4.00027 v 5.49992 h 20.00033 v -5.49992 h -4.00028 v -5.99963 h 4.00028 v -5.50044 h -7.5091 v 12.0003 h -5.00022 v -12.0003 z" />
  <circle
     cx="97.302048"
     cy="-169.78542"
     r="30"
     stroke="#000000"
     stroke-width="0.35 px"
     style="fill:none;stroke:#0000ff;stroke-width:0.01;stroke-miterlimit:4;stroke-dasharray:none;stroke-opacity:1"
     id="circle833-6-1-5"
     transform="scale(1,-1)" />
  <path
     id="Sketch008_w0000"
     style="fill:none;fill-opacity:1;fill-rule:evenodd;stroke:#0000ff;stroke-width:0.01;stroke-miterlimit:4;stroke-dasharray:none;stroke-opacity:1"
     d="m 115.30205,174.28542 c 0.0335,1.13829 -1.0578,2.13148 -2.18791,1.99115 -1.06571,-0.0726 -1.90952,-1.1043 -1.81209,-2.15964 0.002,-2.98344 -0.005,-5.96701 0.004,-8.95036 0.0342,-1.13827 1.1826,-2.06485 2.30237,-1.85762 1.01635,0.1322 1.78449,1.13232 1.6941,2.14496 0,2.94384 0,5.88767 0,8.83151 z" />
  <rect
     style="fill:none;fill-opacity:1;stroke:#0000ff;stroke-width:0.01;stroke-linecap:round;stroke-linejoin:round;stroke-miterlimit:4;stroke-dasharray:none;stroke-opacity:1;stop-color:#000000"
     id="rect1785"
     width="11.99979"
     height="4.0002718"
     x="85.802162"
     y="159.53514" />
  <rect
     style="fill:none;fill-opacity:1;stroke:#0000ff;stroke-width:0.01;stroke-linecap:round;stroke-linejoin:round;stroke-miterlimit:4;stroke-dasharray:none;stroke-opacity:1;stop-color:#000000"
     id="rect1785-8"
     width="11.99979"
     height="4.0002718"
     x="86.016197"
     y="175.53542" />
  <rect
     style="fill:none;fill-opacity:1;stroke:#0000ff;stroke-width:0.01;stroke-linecap:round;stroke-linejoin:round;stroke-miterlimit:4;stroke-dasharray:none;stroke-opacity:1;stop-color:#000000"
     id="rect1823"
     width="11.799999"
     height="7.7999997"
     x="91.903297"
     y="145.99316" />
  <path
     id="rect1843"
     style="fill:none;fill-opacity:1;stroke:#0000ff;stroke-width:0.01;stroke-linecap:round;stroke-linejoin:round;stroke-miterlimit:4;stroke-dasharray:none;stroke-opacity:1;stop-color:#000000"
     d="m 202.64924,163.87649 h 40.00014 v -4.1 h 3.79977 v -11.7998 h -3.79977 v -4.10001 h -40.00014 z" />
  <path
     id="Sketch002_w0000-1-7"
     style="fill:none;fill-opacity:1;fill-rule:evenodd;stroke:#0000ff;stroke-width:0.01;stroke-miterlimit:4;stroke-dasharray:none;stroke-opacity:1"
     d="m 209.31958,150.37653 a 3.5,3.5 0 0 0 -3.50004,3.50006 3.5,3.5 0 0 0 3.50004,3.50004 l 16.00006,-1.50017 a 2,2 0 0 0 1.99988,-1.99987 2,2 0 0 0 -1.99988,-1.99989 z" />
  <path
     id="rect1843-2"
     style="fill:none;fill-opacity:1;stroke:#0000ff;stroke-width:0.01;stroke-linecap:round;stroke-linejoin:round;stroke-miterlimit:4;stroke-dasharray:none;stroke-opacity:1;stop-color:#000000"
     d="m 202.59509,185.47423 h 40.00014 v -4.1 h 3.79977 v -11.79981 h -3.79977 v -4.10001 h -40.00014 z" />
  <rect
     style="opacity:1;fill:none;fill-opacity:1;stroke:#0000ff;stroke-width:0.01;stroke-linecap:round;stroke-linejoin:round;stroke-miterlimit:4;stroke-dasharray:none;stroke-opacity:1;stop-color:#000000"
     id="rect1901"
     width="20"
     height="7.9999995"
     x="148.29953"
     y="37.212814" />
  <path
     id="Sketch021_w0000"
     style="fill:none;fill-opacity:1;fill-rule:evenodd;stroke:#0000ff;stroke-width:0.01;stroke-miterlimit:4;stroke-dasharray:none;stroke-opacity:1"
     d="m 154.84413,171.7259 a 16.499999,16.499999 0 0 0 -10.76987,3.99976 h 2.76986 v 4.00027 h -3.00034 v -3.79822 a 16.499999,16.499999 0 0 0 11.00035,28.79824 h 15.99954 a 16.500026,16.500026 0 0 0 0,-33.00005 z m 14.9996,0.99994 h 4.00029 v 6.99957 h -4.00029 z m -26.99989,9.9999 h 4.00028 v 13.00024 h -4.00028 z m 26.99989,0 h 4.00029 v 8.00003 h -4.00029 z" />
  <path
     id="Sketch025_w0001"
     style="fill:none;fill-opacity:1;fill-rule:evenodd;stroke:#0000ff;stroke-width:0.01;stroke-miterlimit:4;stroke-dasharray:none;stroke-opacity:1"
     d="m 31.344579,79.52337 a 0.99999999,0.99999999 0 0 0 -0.99994,-1.01338 H 27.094709 8.09432 4.84439 a 0.99999999,0.99999999 0 0 0 0,1.99988 h 1.836063 a 1.5,1.5 0 0 0 1.413867,0.99994 h 19.000389 a 1.5,1.5 0 0 0 1.413867,-0.99994 h 1.836063 a 0.99999999,0.99999999 0 0 0 0.99994,-0.9865 z" />
  <path
     id="Sketch021_w0000-2"
     d="m 34.10001,77.00998 a 16.500002,16.500002 0 0 0 -33.000005,0 v 16 a 16.500003,16.500003 0 1 0 33.000005,0 v -16"
     stroke="#000000"
     stroke-width="0.35 px"
     style="fill:none;fill-opacity:1;fill-rule:evenodd;stroke:#0000ff;stroke-width:0.01;stroke-miterlimit:4;stroke-dasharray:none;stroke-opacity:1" />
  <rect
     style="fill:none;fill-opacity:1;stroke:#0000ff;stroke-width:0.01;stroke-linecap:round;stroke-linejoin:round;stroke-miterlimit:4;stroke-dasharray:none;stroke-opacity:1;stop-color:#000000"
     id="rect2033"
     width="3.9999998"
     height="17"
     x="70.184982"
     y="-26.100008"
     ry="0"
     transform="rotate(90)" />
  <path
     id="rect2067"
     style="opacity:1;fill:none;fill-opacity:1;stroke:#0000ff;stroke-width:0.01;stroke-linecap:round;stroke-linejoin:round;stroke-miterlimit:4;stroke-dasharray:none;stroke-opacity:1;stop-color:#000000"
     d="m 202.92934,141.95743 h 39.99961 v -5.24981 h 4.00027 v -16.99998 h -4.00027 v -5.25034 h -39.99961 z m 5.74951,-13.40278 a 4.25,4.25 0 0 1 4.24987,-4.24987 4.25,4.25 0 0 1 4.25039,4.24987 4.25,4.25 0 0 1 -4.25039,4.24987 4.25,4.25 0 0 1 -4.24987,-4.24987 z" />
  <path
     id="Sketch021_w0000-2-0"
     d="m 277.0709,171.72594 a 16.500002,16.500002 0 0 0 0,33 h 16 a 16.500003,16.500003 0 1 0 0,-33 h -16"
     stroke="#000000"
     stroke-width="0.35 px"
     style="fill:none;fill-opacity:1;fill-rule:evenodd;stroke:#0000ff;stroke-width:0.01;stroke-miterlimit:4;stroke-dasharray:none;stroke-opacity:1" />
  <path
     id="Sketch023_w0000-9"
     style="fill:none;fill-opacity:1;fill-rule:evenodd;stroke:#0000ff;stroke-width:0.01;stroke-miterlimit:4;stroke-dasharray:none;stroke-opacity:1"
     d="m 315.5895,157.20111 c -0.52595,0.31974 -2.09579,0.0706 -1.82979,0.82193 2.39298,6.9099 9.80376,11.57945 17.06947,10.75894 7.29951,-0.57266 13.68842,-6.57821 14.72231,-13.82427 0.37923,-3.42829 0.13548,-6.89061 0.20483,-10.33527 -0.0535,-3.44775 0.12596,-6.90562 -0.13071,-10.34485 -0.79629,-7.20836 -6.88078,-13.37375 -14.07935,-14.26201 -2.71593,-0.38553 -5.52598,-0.0728 -8.09242,0.89493 0.33922,0.70269 0.0687,2.52401 1.28798,1.59575 7.04968,-2.36991 15.5953,1.55383 18.09934,8.6261 1.36621,3.5441 0.79099,7.38132 0.91516,11.08365 -0.046,3.92425 0.10096,7.85577 -0.0916,11.77458 -0.62791,6.59901 -6.32052,12.23496 -12.92759,12.79062 -6.49028,0.76443 -13.05649,-3.38508 -15.14765,-9.5801" />
  <path
     id="Sketch023_w0000-9-3"
     style="fill:none;fill-opacity:1;fill-rule:evenodd;stroke:#0000ff;stroke-width:0.01;stroke-miterlimit:4;stroke-dasharray:none;stroke-opacity:1"
     d="m 31.28127,185.70897 c 0.52595,-0.31974 2.09579,-0.0706 1.82979,-0.82193 -2.39298,-6.9099 -9.80376,-11.57945 -17.06947,-10.75894 -7.2995097,0.57266 -13.6884197,6.57821 -14.7223097,13.82427 -0.37922996,3.4283 -0.13548,6.89062 -0.20483,10.33528 0.0535,3.44774 -0.12595996,6.90561 0.13071,10.34484 0.79629,7.20836 6.88078,13.37375 14.0793497,14.26201 2.71593,0.38553 5.52598,0.0728 8.09242,-0.89493 -0.33922,-0.70269 -0.0687,-2.52401 -1.28798,-1.59575 -7.04968,2.36991 -15.5952997,-1.55383 -18.0993397,-8.6261 -1.36621,-3.5441 -0.79099,-7.38132 -0.91516,-11.08365 0.046,-3.92424 -0.10096,-7.85576 0.0916,-11.77458 0.62791,-6.59901 6.32052,-12.23496 12.9275897,-12.79062 6.49028,-0.76443 13.05649,3.38508 15.14765,9.5801" />
  <path
     id="Sketch023_w0000-9-7"
     style="fill:none;fill-opacity:1;fill-rule:evenodd;stroke:#0000ff;stroke-width:0.01;stroke-miterlimit:4;stroke-dasharray:none;stroke-opacity:1"
     d="m 22.16664,184.38432 c -0.31974,-0.52594 -0.0706,-2.09578 -0.82193,-1.82978 -6.9099,2.39297 -11.5794497,9.80375 -10.75894,17.06946 0.57266,7.29951 6.57821,13.68842 13.82427,14.72231 3.42829,0.37923 6.89061,0.13548 10.33527,0.20483 3.447753,-0.0535 6.905623,0.12596 10.344853,-0.13071 7.20836,-0.79629 13.37375,-6.88078 14.26201,-14.07935 0.38553,-2.71593 0.0728,-5.52598 -0.89493,-8.09242 -0.70269,0.33922 -2.52401,0.0687 -1.59575,1.28798 2.36991,7.04968 -1.55383,15.5953 -8.6261,18.09934 -3.5441,1.36621 -7.38132,0.79099 -11.08365,0.91516 -3.924253,-0.046 -7.855773,0.10096 -11.774583,-0.0916 -6.59901,-0.62791 -12.23496,-6.32052 -12.79062,-12.92759 -0.76443,-6.49028 3.38508,-13.05649 9.5801,-15.14765" />
  <path
     id="Sketch023_w0000-9-4"
     style="fill:none;fill-opacity:1;fill-rule:evenodd;stroke:#0000ff;stroke-width:0.01;stroke-miterlimit:4;stroke-dasharray:none;stroke-opacity:1"
     d="m 315.58949,183.47843 c -0.52595,-0.31974 -2.09579,-0.0706 -1.82979,-0.82193 2.39298,-6.9099 9.80377,-11.57945 17.06948,-10.75894 7.29951,0.57266 13.68842,6.57821 14.72231,13.82427 0.37923,3.42829 0.13548,6.89061 0.20483,10.33527 -0.0535,3.44775 0.12596,6.90562 -0.13071,10.34485 -0.79629,7.20836 -6.88078,13.37375 -14.07935,14.26201 -2.71593,0.38553 -5.52598,0.0728 -8.09242,-0.89493 0.33922,-0.70269 0.0687,-2.52401 1.28798,-1.59575 7.04968,2.36991 15.5953,-1.55383 18.09934,-8.6261 1.36621,-3.5441 0.79099,-7.38132 0.91516,-11.08365 -0.046,-3.92425 0.10096,-7.85577 -0.0916,-11.77458 -0.62791,-6.59901 -6.32052,-12.23496 -12.92759,-12.79062 -6.49028,-0.76443 -13.0565,3.38508 -15.14766,9.5801" />
  <path
     id="Sketch023_w0000-5"
     style="fill:none;fill-opacity:1;fill-rule:evenodd;stroke:#0000fe;stroke-width:0.01;stroke-miterlimit:4;stroke-dasharray:none;stroke-opacity:1"
     d="m 234.3054,214.72299 c -3.08914,5.353 -9.39013,8.51768 -15.52159,8.05732 -5.56232,-0.057 -11.13364,0.13214 -16.69005,-0.11176 -7.49386,-0.82063 -13.89689,-7.37774 -14.40511,-14.92521 -0.21717,-2.45452 0.11884,-4.95831 0.99067,-7.26387 1.1409,0.23005 2.44714,0.31578 1.45468,1.71789 -2.08984,7.03486 1.93574,15.38177 8.9656,17.75651 3.96039,1.34016 8.18901,0.66316 12.28316,0.82719 3.68372,-0.0515 7.38659,0.15539 11.05651,-0.18004 3.80221,-0.60672 7.32745,-2.79985 9.53421,-5.95757 0.77731,0.0265 1.55461,0.053 2.33192,0.0795 z" />
  <path
     id="Sketch023_w0000-6"
     style="fill:none;fill-opacity:1;fill-rule:evenodd;stroke:#0000fe;stroke-width:0.01;stroke-miterlimit:4;stroke-dasharray:none;stroke-opacity:1"
     d="m 193.4772,200.37603 c 0.15527,-0.65178 0.31053,-1.30356 0.4658,-1.95534 6.83981,2.19959 11.64637,9.28524 11.1698,16.4526 -0.31341,1.15733 0.27994,3.82146 -1.57417,3.36255 -1.61185,0.42573 -0.60249,-1.09725 -0.56339,-2.06116 1.09873,-6.68961 -3.0707,-13.62982 -9.49804,-15.79863" />
  <path
     id="Sketch023_w0000-5-0"
     style="fill:none;fill-opacity:1;fill-rule:evenodd;stroke:#0000fe;stroke-width:0.01;stroke-miterlimit:4;stroke-dasharray:none;stroke-opacity:1"
     d="m 282.61011,212.72297 c -3.08914,5.35301 -9.39013,8.51768 -15.52159,8.05732 -5.56232,-0.057 -11.13365,0.13215 -16.69005,-0.11175 -7.49386,-0.82063 -13.89689,-7.37775 -14.40511,-14.92521 -0.21717,-2.45453 0.11884,-4.95832 0.99067,-7.26388 1.1409,0.23005 2.44714,0.31578 1.45468,1.7179 -2.08984,7.03485 1.93574,15.38177 8.9656,17.75651 3.96039,1.34015 8.18901,0.66315 12.28316,0.82719 3.68372,-0.0515 7.38659,0.15539 11.05651,-0.18005 3.80221,-0.60672 7.32745,-2.79985 9.53421,-5.95757 0.77731,0.0265 1.55461,0.053 2.33192,0.0795 z" />
  <path
     id="Sketch023_w0000-6-8"
     style="fill:none;fill-opacity:1;fill-rule:evenodd;stroke:#0000fe;stroke-width:0.01;stroke-miterlimit:4;stroke-dasharray:none;stroke-opacity:1"
     d="m 241.7819,198.37601 c 0.15527,-0.65178 0.31054,-1.30356 0.4658,-1.95534 6.83981,2.1996 11.64637,9.28524 11.1698,16.4526 -0.3134,1.15733 0.27995,3.82146 -1.57416,3.36255 -1.61185,0.42573 -0.60249,-1.09725 -0.5634,-2.06116 1.09873,-6.68961 -3.0707,-13.62981 -9.49804,-15.79863" />
  <path
     id="Sketch023_w0000-5-0-3"
     style="fill:none;fill-opacity:1;fill-rule:evenodd;stroke:#0000fe;stroke-width:0.01;stroke-miterlimit:4;stroke-dasharray:none;stroke-opacity:1"
     d="m 256.73358,199.17888 c -3.08914,-5.35301 -9.39013,-8.51768 -15.52159,-8.05732 -5.56232,0.057 -11.13365,-0.13215 -16.69005,0.11175 -7.49386,0.82063 -13.89689,7.37775 -14.40511,14.92521 -0.21717,2.45453 0.11884,4.95832 0.99067,7.26388 1.1409,-0.23005 2.44714,-0.31579 1.45468,-1.7179 -2.08984,-7.03485 1.93574,-15.38177 8.9656,-17.75651 3.96039,-1.34015 8.18901,-0.66315 12.28316,-0.82719 3.68372,0.0515 7.38659,-0.15539 11.05651,0.18005 3.80221,0.60672 7.32745,2.79985 9.53421,5.95757 0.77731,-0.0265 1.55461,-0.053 2.33192,-0.0795 z" />
  <path
     id="Sketch023_w0000-6-8-1"
     style="fill:none;fill-opacity:1;fill-rule:evenodd;stroke:#0000fe;stroke-width:0.01;stroke-miterlimit:4;stroke-dasharray:none;stroke-opacity:1"
     d="m 215.90537,213.52583 c 0.15527,0.65178 0.31054,1.30356 0.4658,1.95534 6.83981,-2.19959 11.64637,-9.28523 11.1698,-16.45259 -0.3134,-1.15734 0.27995,-3.82146 -1.57416,-3.36255 -1.61185,-0.42573 -0.60249,1.09725 -0.5634,2.06116 1.09873,6.68961 -3.0707,13.62981 -9.49804,15.79862" />
  <rect
     style="fill:none;fill-opacity:1;stroke:#0000ff;stroke-width:0.01;stroke-linecap:round;stroke-linejoin:round;stroke-miterlimit:4;stroke-dasharray:none;stroke-opacity:1;stop-color:#000000"
     id="rect2303-7"
     width="15.999999"
     height="2.8"
     x="275.94055"
     y="9.693162" />
  <rect
     style="fill:none;fill-opacity:1;stroke:#0000ff;stroke-width:0.01;stroke-linecap:round;stroke-linejoin:round;stroke-miterlimit:4;stroke-dasharray:none;stroke-opacity:1;stop-color:#000000"
     id="rect2325-1"
     width="16"
     height="13"
     x="275.78217"
     y="19.816422" />
  <rect
     style="fill:none;fill-opacity:1;stroke:#0000ff;stroke-width:0.01;stroke-linecap:round;stroke-linejoin:round;stroke-miterlimit:4;stroke-dasharray:none;stroke-opacity:1;stop-color:#000000"
     id="rect2347-7"
     width="16"
     height="6.9996157"
     x="-38.350906"
     y="261.96646"
     transform="rotate(-90)" />
  <rect
     style="fill:none;fill-opacity:1;stroke:#0000ff;stroke-width:0.01;stroke-linecap:round;stroke-linejoin:round;stroke-miterlimit:4;stroke-dasharray:none;stroke-opacity:1;stop-color:#000000"
     id="rect2347-7-5"
     width="16"
     height="8"
     x="22.848801"
     y="-307.25644"
     transform="rotate(90)" />
  <circle
     cx="315.77075"
     cy="-84.744873"
     r="30"
     stroke="#000000"
     stroke-width="0.35 px"
     style="fill:none;stroke:#0000ff;stroke-width:0.01;stroke-miterlimit:4;stroke-dasharray:none;stroke-opacity:1"
     id="circle833-6-2"
     transform="scale(1,-1)" />
  <circle
     cx="315.77075"
     cy="-84.744873"
     r="26"
     stroke="#000000"
     stroke-width="0.35 px"
     style="fill:none;stroke:#0000ff;stroke-width:0.01;stroke-miterlimit:4;stroke-dasharray:none;stroke-opacity:1"
     id="circle838-8-8"
     transform="scale(1,-1)" />
  <circle
     cx="190.89232"
     cy="-84.744873"
     r="30"
     stroke="#000000"
     stroke-width="0.35 px"
     style="fill:none;stroke:#0000ff;stroke-width:0.01;stroke-miterlimit:4;stroke-dasharray:none;stroke-opacity:1"
     id="circle833-6-1-3"
     transform="scale(1,-1)" />
  <circle
     cx="190.89232"
     cy="-84.744873"
     r="26"
     stroke="#000000"
     stroke-width="0.35 px"
     style="fill:none;stroke:#0000ff;stroke-width:0.01;stroke-miterlimit:4;stroke-dasharray:none;stroke-opacity:1"
     id="circle838-8-3-3"
     transform="scale(1,-1)" />
  <circle
     cx="253.33154"
     cy="-84.744873"
     r="30"
     stroke="#000000"
     stroke-width="0.35 px"
     style="fill:none;stroke:#0000ff;stroke-width:0.01;stroke-miterlimit:4;stroke-dasharray:none;stroke-opacity:1"
     id="circle833-6-1-2-4"
     transform="scale(1,-1)" />
  <circle
     cx="253.33154"
     cy="-84.744873"
     r="26"
     stroke="#000000"
     stroke-width="0.35 px"
     style="fill:none;stroke:#0000ff;stroke-width:0.01;stroke-miterlimit:4;stroke-dasharray:none;stroke-opacity:1"
     id="circle838-8-3-4-2"
     transform="scale(1,-1)" />
  <circle
     cx="128.45309"
     cy="-84.744873"
     r="30"
     stroke="#000000"
     stroke-width="0.35 px"
     style="fill:none;stroke:#0000ff;stroke-width:0.01;stroke-miterlimit:4;stroke-dasharray:none;stroke-opacity:1"
     id="circle833-6-1-4-7"
     transform="scale(1,-1)" />
  <circle
     cx="128.45309"
     cy="-84.744873"
     r="26"
     stroke="#000000"
     stroke-width="0.35 px"
     style="fill:none;stroke:#0000ff;stroke-width:0.01;stroke-miterlimit:4;stroke-dasharray:none;stroke-opacity:1"
     id="circle838-8-3-9-4"
     transform="scale(1,-1)" />
  <circle
     cx="66.01387"
     cy="-84.744873"
     r="30"
     stroke="#000000"
     stroke-width="0.35 px"
     style="fill:none;stroke:#0000ff;stroke-width:0.01;stroke-miterlimit:4;stroke-dasharray:none;stroke-opacity:1"
     id="circle833-6-1-6-3"
     transform="scale(1,-1)" />
  <circle
     cx="66.01387"
     cy="-84.744873"
     r="26"
     stroke="#000000"
     stroke-width="0.35 px"
     style="fill:none;stroke:#0000ff;stroke-width:0.01;stroke-miterlimit:4;stroke-dasharray:none;stroke-opacity:1"
     id="circle838-8-3-99-0"
     transform="scale(1,-1)" />
  <path
     id="rect2067-6"
     style="fill:none;fill-opacity:1;stroke:#0000ff;stroke-width:0.01;stroke-linecap:round;stroke-linejoin:round;stroke-miterlimit:4;stroke-dasharray:none;stroke-opacity:1;stop-color:#000000"
     d="m 317.04105,13.30497 0.10062,36.3102 h 5.24982 v 4.00027 h 16.99998 v -4.00027 h 5.25034 l 0.0949,-38.57662 -14.31468,0.42149 c -0.20269,-3.06382 -0.0686,-5.66422 -0.25242,-7.29948 -0.43007,-3.82509 -1.80943,-3.25877 -2.01754,-0.88853 -0.23928,2.72521 0.10899,5.73994 -0.0836,8.47366 z m 13.50341,2.0601 c 2.3471,8e-5 4.24979,1.90277 4.24986,4.24987 2.2e-4,2.34731 -1.90255,4.25031 -4.24986,4.25039 -2.34731,-7e-5 -4.25009,-1.90308 -4.24987,-4.25039 7e-5,-2.34711 1.90276,-4.2498 4.24987,-4.24987 z"
     sodipodi:nodetypes="cccccccccssccccccc" />
  <path
     id="path960"
     style="fill:#000000;stroke-width:0.999998"
     d="m 329.00515,2.1889531 c -0.11957,0.012065 -0.23308,0.052716 -0.28577,0.1162711 -0.0807,0.09866 -0.0829,1.0191962 -0.008,4.7919562 0.0508,2.5683502 0.11502,5.2463776 0.14262,5.9510586 l 0.0501,1.281057 -0.70693,0.04961 c -0.38876,0.0272 -1.1756,0.05658 -1.74822,0.06718 l -1.04076,0.01757 -0.29456,-0.242363 -0.29404,-0.242364 -1.3689,-0.05168 c -0.75288,-0.0285 -1.99674,-0.05203 -2.76469,-0.05219 l -1.3963,-5.29e-4 -0.55242,0.390158 c -0.30373,0.21451 -0.6394,0.483002 -0.74569,0.596862 l -0.19276,0.206706 0.52607,2.564702 c 0.44509,2.168969 0.50883,2.578105 0.41393,2.651519 -0.0447,0.03458 -0.61767,0.910024 -1.27021,1.917711 v 0.468706 c 0.75152,-1.169376 1.37343,-2.11615 1.40043,-2.11615 0.0657,0 0.21772,0.638008 0.28422,1.193207 0.0391,0.32621 -0.0558,0.517652 -1.68465,3.080433 v 0.478525 c 0.16322,-0.252627 0.34932,-0.54452 0.55707,-0.875916 0.56846,-0.906711 1.08947,-1.722943 1.15807,-1.813843 0.11732,-0.155581 0.1379,-0.09737 0.35554,0.992187 l 0.23151,1.157036 -0.26562,0.517798 c -0.16285,0.317659 -0.24891,0.582126 -0.22221,0.684197 0.0335,0.128248 -0.0193,0.203668 -0.22944,0.327628 l 0.0858,0.122989 c 0.0117,-0.01061 0.0248,-0.02492 0.0357,-0.03359 l 0.21807,-0.174667 0.39068,0.276468 c 0.36202,0.25618 0.40006,0.316106 0.51883,0.810805 l -0.68937,-0.198438 0.88212,1.267106 c 0.0165,0.01654 0.37221,1.692815 0.79013,3.724839 1.92656,9.367419 2.04612,9.910469 2.68046,12.15843 l 0.63769,2.260843 -0.16692,0.556038 -0.16743,0.556556 0.16743,0.284737 c 0.31277,0.53177 1.16653,1.715876 1.38131,1.915647 0.17789,0.165528 0.2936,0.199564 0.68885,0.200504 l 0.47491,0.0011 -0.002,2.582788 c -1.8e-4,0.161701 0.002,0.301424 0.004,0.447003 h 0.24029 c -0.008,-1.051176 0.003,-2.03967 0.046,-2.03967 0.034,0 0.77788,0.713417 1.65313,1.584918 l 0.45682,0.454752 h 0.27647 l -0.24908,-0.234095 C 328.74728,52.2 327.99044,51.494711 327.72588,51.254231 327.26976,50.8396 327.2474,50.802174 327.2887,50.521975 l 0.0439,-0.29559 1.41904,1.329119 c 0.7807,0.731179 1.50932,1.388475 1.6185,1.460376 0.0196,0.01291 0.0523,0.02606 0.0837,0.03927 h 1.41542 l -0.003,-0.09095 -0.63665,-0.04134 -0.63665,-0.04134 -1.19787,-1.032497 c -0.65894,-0.567669 -1.39875,-1.192739 -1.64434,-1.389579 l -0.447,-0.358119 -0.0248,-2.357477 -0.0253,-2.35748 0.67593,-0.04651 c 0.70047,-0.04847 4.01895,-0.114803 5.63428,-0.124539 0.53844,-0.0033 0.8878,-2.41e-4 0.8878,0.01188 0,0.02162 -0.54626,0.311418 -1.21336,0.643888 -1.00676,0.50179 -1.3131,0.617863 -1.80403,0.683162 -0.32528,0.0447 -0.61552,0.06368 -0.64492,0.04548 -0.0293,-0.01812 -0.099,-0.257598 -0.15555,-0.532267 -0.19772,-0.962621 -0.31275,-0.889799 -0.15399,0.09715 0.11545,0.717529 0.13838,0.732388 0.99322,0.643887 0.66185,-0.06845 0.7734,-0.107698 1.58078,-0.557588 0.47781,-0.266221 0.87744,-0.484208 0.88884,-0.484208 0.011,0 0.0392,0.187915 0.0625,0.417547 0.0232,0.229668 0.0816,0.810455 0.13022,1.290875 0.0486,0.480412 0.12285,0.915334 0.16485,0.965833 0.0534,0.06428 -0.1694,0.319791 -0.74104,0.849561 -1.31281,1.216541 -1.31504,1.217506 -2.01228,1.270206 -0.34827,0.02635 -0.68759,0.100116 -0.79892,0.173117 -0.18223,0.11934 -0.19379,0.170577 -0.19379,0.864547 0,0.46781 0.035,0.772412 0.0956,0.833025 0.0525,0.0524 0.2951,0.0956 0.53951,0.0956 0.43571,0 0.47835,-0.02193 2.17971,-1.113626 0.95439,-0.612391 1.74962,-1.11311 1.76682,-1.11311 0.0174,0 0.0315,0.665007 0.0315,1.477944 v 1.276927 h 0.29921 l -0.0243,-2.953308 0.57826,-0.02379 0.57774,-0.02376 0.61495,-0.721402 c 0.90511,-1.06144 0.93309,-1.113467 0.81545,-1.533758 -0.16328,-0.58316 0.0136,-1.521973 0.68368,-3.623035 l 0.59635,-1.869136 0.21187,-2.533179 c 0.20651,-2.465409 0.20829,-2.536328 0.0641,-2.641698 -0.0815,-0.05955 -0.18561,-0.120809 -0.23151,-0.135911 -0.0546,-0.0182 0.12888,-1.731661 0.53072,-4.953701 0.33789,-2.709281 0.63469,-5.027912 0.65939,-5.152142 0.0425,-0.21328 0.0674,-0.188391 0.44287,0.437701 0.0334,-0.02774 0.0975,-0.114459 0.17104,-0.222211 l -0.51779,-0.856795 0.0532,-0.49971 c 0.053,-0.495099 0.058,-0.50345 0.51108,-0.848011 l 0.45734,-0.347782 0.24133,0.207741 c 0.0482,0.04155 0.10375,0.101854 0.15968,0.166915 -1.6e-4,-0.104781 -0.0156,-0.197978 -0.0522,-0.272852 -0.2438,-0.1539 -0.2971,-0.23005 -0.2682,-0.381889 0.0255,-0.133641 -0.0727,-0.349186 -0.3328,-0.729155 l -0.36949,-0.538985 0.0951,-0.750858 c 0.052,-0.412981 0.10388,-0.741022 0.11679,-0.728123 0.0125,0.01262 0.36934,0.82705 0.79271,1.80971 0.88848,2.062171 1.05946,2.387397 1.25419,2.387968 0.0911,5.29e-4 0.49441,-0.179398 0.82785,-0.348816 v -0.274402 l -0.28783,0.145211 c -0.2612,0.1318 -0.48774,0.239779 -0.50333,0.239779 -0.0805,0 -1.72599,-3.721579 -1.72599,-3.903639 0,-0.0401 -0.077,-0.149913 -0.17105,-0.243911 l -0.17105,-0.171051 0.14366,-1.144632 c 0.079,-0.62964 0.1693,-1.116188 0.2005,-1.081588 0.0433,0.0481 1.93458,4.284607 2.51509,5.63118 v -0.579808 c -0.78309,-1.83869 -2.33047,-5.332315 -2.43912,-5.463233 -0.0545,-0.06568 0.009,-0.778616 0.19792,-2.236557 0.15268,-1.17696 0.27742,-2.21482 0.2775,-2.306318 1.3e-4,-0.12143 -0.14951,-0.255897 -0.55397,-0.497128 l -0.55449,-0.330729 h -1.19838 c -1.30132,0 -3.67278,0.126923 -4.37337,0.234095 -0.30208,0.0462 -0.45469,0.0393 -0.493,-0.0217 -0.0592,-0.09469 -0.0609,-0.09159 -0.25011,0.464053 -0.10237,0.300601 -0.12945,0.320987 -0.49764,0.369488 -0.21432,0.0281 -1.34174,0.07132 -2.50528,0.09612 l -2.11563,0.04496 -0.0512,-0.891934 c -0.0281,-0.490371 -0.0745,-3.19993 -0.10335,-6.0213404 -0.0365,-3.5851096 -0.0783,-5.1474133 -0.13953,-5.1883126 -0.0757,-0.050564 -0.20133,-0.066855 -0.32091,-0.054777 z m 13.05657,22.7391809 c 9e-5,0.06111 -0.004,0.125651 -0.0145,0.194302 0.0434,0.03082 0.11861,0.103601 0.20722,0.20464 l 0.24391,0.278019 -0.17777,-0.31781 c -0.0622,-0.111368 -0.161,-0.245271 -0.2589,-0.359151 z m -0.0145,0.194302 c -0.0224,-0.01588 -0.039,-0.02392 -0.0393,-0.01241 0.0155,0.0088 0.0249,0.02469 0.0336,0.04134 0.002,-0.0094 0.004,-0.01966 0.006,-0.02894 z m -0.006,0.02894 c -0.106,0.641848 -0.60135,1.539185 -0.8847,1.954401 l 0.0326,0.05426 c 0,0 1.01923,-1.689127 0.85215,-2.008662 z m -22.42861,1.948202 -0.47387,-0.68058 c -0.11744,0.106556 -0.26996,0.299233 -0.3576,0.458369 l 0.3545,-0.158646 -0.20361,0.152447 c 0.0353,-0.01185 0.0587,-0.0052 0.0455,0.04599 z m -0.68058,-0.22841 c -0.0987,0.03312 -0.29852,0.22329 -0.11472,0.08578 z M 329.04235,2.461286 c 0.0989,0 0.12319,0.1798744 0.14159,1.0536847 0.0186,0.8834993 0.003,1.053682 -0.0946,1.053682 -0.15553,0 -0.22231,-0.4845077 -0.19121,-1.3916475 0.0196,-0.5722991 0.0488,-0.7157192 0.14418,-0.7157192 z m 0.0279,2.3461108 c 0.11753,0 0.13077,0.1713468 0.13125,1.650545 8e-4,2.3688702 0.0799,7.4167582 0.12041,7.6744672 0.023,0.146211 -2.1e-4,0.219109 -0.0713,0.219109 -0.12777,0 -0.1812,-1.281604 -0.2589,-6.2233939 -0.048,-3.0514185 -0.0419,-3.3207273 0.0786,-3.3207273 z m 11.16676,8.5958572 c 0.53054,0.01146 0.8305,0.05519 0.96686,0.132811 0.13461,0.0765 0.2447,0.166153 0.24495,0.198953 2.6e-4,0.0329 -0.31282,0.0597 -0.69557,0.05994 -0.38273,2.51e-4 -1.30432,0.05311 -2.04793,0.117306 -0.74365,0.06415 -1.52183,0.138681 -1.72961,0.16588 -0.35756,0.04673 -0.37767,0.03948 -0.37672,-0.13694 0.003,-0.38948 0.0788,-0.417875 1.28725,-0.476975 1.05908,-0.05177 1.82022,-0.07244 2.35077,-0.06098 z m -3.8778,0.136943 v 0.288873 c 0,0.161578 -0.0435,0.30226 -0.0992,0.31936 -0.0547,0.01701 -0.29985,0.05076 -0.54415,0.07596 l -0.44391,0.04547 -0.0842,-0.274402 c -0.098,-0.319328 -0.0995,-0.319043 0.67438,-0.402042 z m 5.34954,0.378273 c 0.0862,-2.65e-4 0.13828,0.0034 0.14728,0.01241 0.0512,0.05125 -0.74947,6.644751 -1.60249,13.193511 l -0.0946,0.723469 -1.48209,0.05323 c -0.8153,0.02948 -2.09084,0.1059 -2.83445,0.1695 -1.81074,0.155369 -1.86913,0.154512 -1.86913,-0.03204 0,-0.08334 0.0524,-0.611185 0.11627,-1.173057 0.11077,-0.973201 0.21536,-2.286727 0.32349,-4.047815 a 5.031017,5.031017 0 0 1 -0.69866,0.756544 c 0.0129,0.0655 0.007,0.179041 -0.0181,0.380855 -0.0312,0.25152 -0.0654,0.46609 -0.076,0.47749 -0.0106,0.01101 -0.13453,-0.02013 -0.27544,-0.06925 -0.32739,-0.11412 -0.74216,-0.04657 -1.31,0.213423 -0.2478,0.11344 -0.78115,0.274918 -1.18494,0.358119 -0.68533,0.141399 -1.10172,0.178305 -1.29087,0.114205 -0.0438,-0.0149 -0.21224,-0.04957 -0.37414,-0.07648 -0.27707,-0.04625 -0.29174,-0.06141 -0.27905,-0.363802 a 5.031017,5.031017 0 0 1 -0.25425,-0.08578 c -0.0215,0.120772 -0.0445,0.224928 -0.0563,0.238744 -0.0147,0.01725 -0.18064,-0.02732 -0.36897,-0.09922 -0.18836,-0.07198 -0.48861,-0.131257 -0.66714,-0.131257 -0.20465,0 -0.39961,0.05949 -0.52762,0.160195 l -0.20309,0.159681 -0.13229,-0.577741 c -0.0924,-0.404167 -0.20516,-0.931302 -0.30902,-1.420585 a 5.031017,5.031017 0 0 1 -0.47233,-0.74776 c -0.001,0.0027 -2.6e-4,0.01217 -0.002,0.01344 -0.058,0.05798 -0.86151,-0.403672 -1.03353,-0.593762 -0.28275,-0.312433 -2.05654,-6.323131 -1.90686,-6.461622 0.0347,-0.03206 0.36985,-0.08266 0.74465,-0.112655 l 0.68161,-0.05426 0.18087,0.821139 c 0.2245,1.018879 0.57411,2.462197 0.81959,3.422013 a 5.031017,5.031017 0 0 1 0.0434,-0.268719 c -0.0866,-0.435107 -0.17826,-0.893212 -0.29559,-1.451073 -0.51122,-2.43015 -0.54226,-2.634157 -0.43408,-2.843236 0.14148,-0.273582 0.2164,-0.281271 0.37465,-0.03979 0.11149,0.170238 0.16749,0.182846 0.69402,0.158647 l 0.57257,-0.02635 -0.0532,0.284737 c -0.0922,0.49158 -0.0345,0.510977 1.49655,0.510045 0.0118,-8e-6 0.0294,-5.29e-4 0.0413,-5.29e-4 a 5.031017,5.031017 0 0 1 0.46663,-0.242364 c -0.36438,0.01807 -0.89136,0.03999 -1.07332,0.05168 l -0.81493,0.05219 v -0.31523 -0.315227 l 2.40554,-0.05271 c 1.32324,-0.02899 2.95184,-0.07629 3.6189,-0.104386 1.18988,-0.05001 1.21284,-0.04778 1.21284,0.113689 0,0.400738 -0.0377,0.416605 -1.02268,0.417544 -0.10926,1.94e-4 -0.34409,0.0068 -0.51108,0.0098 a 5.031017,5.031017 0 0 1 0.48008,0.205672 c 0.12865,-0.0083 0.27567,-0.01572 0.39636,-0.02429 l 0.73587,-0.05219 V 14.858458 14.51016 l 0.37776,-0.0011 c 0.54029,-0.0016 0.69763,-0.06156 0.79323,-0.302824 l 0.0848,-0.212907 0.007,0.278537 c 0.005,0.203457 -0.18047,1.671227 -0.34572,2.858222 a 5.031017,5.031017 0 0 1 0.14211,0.241329 c 0.0558,-0.364892 0.0802,-0.549433 0.13901,-0.923456 0.1729,-1.099714 0.31471,-2.021756 0.31471,-2.048455 0,-0.0268 0.23245,-0.04806 0.51677,-0.04806 0.28436,0 0.51676,0.0344 0.51676,0.077 0,0.11367 -0.52251,3.399353 -0.80357,5.052922 -0.0193,0.113327 -0.0381,0.195673 -0.0579,0.304374 a 5.031017,5.031017 0 0 1 0,0.01498 5.031017,5.031017 0 0 1 -0.30644,1.727544 l 2.36058,-0.04858 c 2.66378,-0.05515 3.41995,-0.10627 3.41995,-0.23151 0,-0.08693 -3.49644,-0.01942 -4.89118,0.09457 -0.39366,0.033 -0.72767,0.05039 -0.74207,0.03979 -0.0143,-0.01024 0.0312,-0.105077 0.10077,-0.211357 0.11449,-0.174721 0.64974,-3.174789 1.04955,-5.882328 l 0.13746,-0.931728 0.32401,-0.03979 c 0.17808,-0.02151 0.66344,-0.059 1.079,-0.0832 0.41554,-0.02429 1.44965,-0.117507 2.29805,-0.206706 0.6363,-0.06728 1.20241,-0.107942 1.4609,-0.109037 z m -22.41155,0.273883 h 1.69137 c 1.5507,0 1.86932,0.03946 1.61127,0.198956 -0.0437,0.02703 -0.0791,0.130953 -0.0791,0.230992 0,0.175861 -0.0306,0.183862 -0.89503,0.233061 -1.66663,0.09495 -2.91988,0.232092 -2.86908,0.314193 0.0473,0.07658 2.036,0.03304 3.32642,-0.07286 l 0.55655,-0.04547 0.50746,1.897041 c 0.5215,1.950879 1.09318,3.815567 1.36374,4.446757 0.0934,0.21789 0.24795,0.41206 0.39378,0.49506 0.13181,0.07501 0.23955,0.157453 0.23978,0.183451 2.6e-4,0.02601 -0.50941,0.07017 -1.13275,0.09767 -0.62334,0.02761 -1.70565,0.104217 -2.40554,0.170016 v -0.0011 c -0.69987,0.06598 -1.44276,0.141764 -1.65054,0.168463 -0.20778,0.02761 -0.37776,0.02904 -0.37776,0.0041 0,-0.02498 -0.34174,-1.701215 -0.75912,-3.725354 l -0.75861,-3.680394 0.2222,-0.184486 c 0.1221,-0.10142 0.40043,-0.307255 0.61857,-0.457338 z m 4.52789,0 h 0.82269 l -0.14831,0.300241 -0.14883,0.300242 -0.74776,0.02223 c -0.82494,0.02458 -0.90508,-0.0209 -0.71159,-0.404109 0.10977,-0.217771 0.1157,-0.218594 0.9338,-0.218594 z m 16.84807,0.250116 c -0.24752,-0.0076 -0.43222,0.295206 -0.25477,0.509011 0.1062,0.128013 0.36112,0.154641 0.42892,0.04496 0.0239,-0.03875 -0.0277,-0.08882 -0.11473,-0.111622 -0.21139,-0.05523 -0.20072,-0.204086 0.0207,-0.289388 0.16762,-0.06468 0.16941,-0.07321 0.0289,-0.129707 -0.037,-0.01492 -0.0737,-0.02217 -0.10904,-0.02326 z m -14.79497,0.346231 -0.008,0.382924 c -0.0162,0.663469 0.0243,0.690395 1.02681,0.690395 h 0.36019 a 5.031017,5.031017 0 0 1 0.29972,-0.220141 c -0.88536,0.04024 -1.43072,0.04206 -1.47278,0 -0.0417,-0.04175 -0.10517,-0.250812 -0.14108,-0.464571 z m 8.10338,0.08372 c -0.0377,0.0056 -0.0807,0.111416 -0.10283,0.313674 l -0.0264,0.238747 -0.94155,0.02429 a 5.031017,5.031017 0 0 1 0.27182,0.1695 c 0.25203,-0.0063 0.50899,-0.02225 0.62012,-0.04444 0.23485,-0.04699 0.24856,-0.07003 0.24856,-0.413928 0,-0.19899 -0.0321,-0.29347 -0.0698,-0.287837 z m -8.82943,0.63717 c -0.0927,-0.05726 0.12548,1.516171 0.38499,2.953308 a 5.031017,5.031017 0 0 1 0.16898,-0.504362 c -0.21915,-1.237467 -0.46929,-2.396689 -0.55397,-2.448946 z m -5.97431,0.364318 c -0.0425,-0.0092 -0.0849,0.0041 -0.1385,0.03772 -0.1728,0.10832 -0.22074,0.399224 -0.0915,0.555006 v 5.29e-4 c 0.11312,0.136231 0.32237,0.11897 0.37207,-0.03049 0.0187,-0.056 -0.0131,-0.09248 -0.0708,-0.07958 -0.0581,0.01238 -0.11773,-0.06078 -0.13333,-0.163814 -0.0246,-0.162338 -0.004,-0.17924 0.1571,-0.130741 0.17822,0.0535 0.18022,0.04975 0.045,-0.09095 -0.0547,-0.05685 -0.0975,-0.08845 -0.14004,-0.09767 z m 1.8774,1.114144 c -0.15545,-0.0019 -0.31495,0.03245 -0.4687,0.105421 -0.35697,0.16937 -0.64589,0.706286 -0.56379,1.047998 0.0921,0.383509 0.26296,0.654379 0.4904,0.77773 0.11975,0.06481 0.37053,0.120438 0.55708,0.121438 0.28183,0.0026 0.38929,-0.04436 0.63613,-0.278534 l 0.29714,-0.282155 -0.30902,0.202573 c -0.4449,0.29097 -0.79253,0.269925 -1.13068,-0.06821 -0.22161,-0.221684 -0.27027,-0.330766 -0.27027,-0.604615 0,-0.273831 0.0486,-0.382429 0.27027,-0.604097 0.33988,-0.339852 0.68721,-0.359759 1.13068,-0.0646 l 0.30902,0.205671 -0.24598,-0.251664 c -0.19488,-0.199295 -0.44319,-0.303794 -0.70228,-0.306959 z m 4.48758,5.292701 c 0.0471,0.0072 0.11896,0.04265 0.21859,0.09353 0.29263,0.149432 0.30193,0.167675 0.47749,0.978236 0.24496,1.13157 0.21572,1.253004 -0.046,0.191201 -0.11774,-0.477609 -0.25814,-0.883036 -0.31264,-0.901237 -0.16616,-0.05536 -0.12095,0.196607 0.49144,2.738335 0.32467,1.34761 0.57871,2.462453 0.56431,2.476852 -0.0365,0.03647 -0.0495,-0.0105 -0.64027,-2.292366 -0.28877,-1.115441 -0.59453,-2.277994 -0.67903,-2.583305 -0.13351,-0.4826 -0.18155,-0.670036 -0.11266,-0.698666 0.0104,-0.0043 0.0231,-0.005 0.0388,-0.0026 z m -0.52555,0.0021 c 0.13337,-0.01593 0.23379,0.299522 0.88057,2.765722 0.40151,1.531022 0.72167,2.795566 0.71107,2.810166 -0.0105,0.01466 -0.42471,0.0606 -0.92036,0.101801 -0.49565,0.04134 -1.67073,0.164843 -2.61121,0.274402 v 5.29e-4 c -0.94047,0.109548 -1.82242,0.218577 -1.95957,0.242877 -0.13717,0.0241 -0.26729,0.01397 -0.28939,-0.02273 -0.0222,-0.03674 -0.15245,-0.621662 -0.28939,-1.299662 -0.13693,-0.67803 -0.40381,-1.969646 -0.59272,-2.870626 l -0.34314,-1.638144 1.48002,-0.04961 c 1.20116,-0.04019 2.52323,-0.145928 3.93412,-0.314708 z m 15.99903,0.936376 0.21859,0.476975 c 0.12008,0.262449 0.22069,0.506386 0.22169,0.542084 0.002,0.03558 -0.14189,0.222917 -0.31988,0.415996 -0.31764,0.344631 -0.32281,0.346782 -0.31781,0.133843 0.003,-0.119312 0.0493,-0.52115 0.10181,-0.892969 z m -14.57638,1.262973 c 0.008,-0.0084 0.0193,0.0029 0.0321,0.03462 0.0233,0.05734 0.0202,0.125944 -0.006,0.152444 -0.0267,0.02641 -0.0459,-0.02069 -0.0419,-0.104386 0.002,-0.04635 0.008,-0.07432 0.016,-0.08268 z m 6.52002,0.108003 c 0.22194,-0.01125 0.41104,0.02297 0.48938,0.106971 0.28401,0.304541 0.27427,0.505621 -0.17622,3.663342 l -0.43821,3.073664 -0.28577,0.04703 c -0.15719,0.02551 -0.67947,0.03849 -1.16065,0.03049 -0.48117,-0.0092 -1.41945,-0.02732 -2.08515,-0.04082 l -1.21077,-0.02429 -0.0791,-0.296108 c -0.0436,-0.162899 -0.13651,-0.546963 -0.2067,-0.853178 -0.0703,-0.3062 -0.35825,-1.515126 -0.63976,-2.686656 l -0.51211,-2.130102 0.1757,-0.237197 c 0.22279,-0.301339 0.48453,-0.473355 0.72037,-0.473355 0.10161,0 0.50559,0.113577 0.89762,0.252698 0.60606,0.215098 0.82569,0.254786 1.46812,0.255799 0.80168,0.0028 1.63178,-0.181054 2.35697,-0.521933 0.20983,-0.0986 0.46432,-0.155146 0.68626,-0.166399 z m 0.12402,0.139528 c -0.24555,-0.01019 -0.62404,0.08861 -1.19269,0.285253 -0.86624,0.299619 -1.09551,0.345892 -1.97404,0.397391 l -0.99425,0.05891 1.11362,-0.01963 c 1.02043,-0.01791 1.17507,-0.04089 1.85157,-0.275434 0.49219,-0.17068 0.84963,-0.247711 1.07332,-0.231511 l 0.3359,0.02429 -0.0238,0.437184 c -0.027,0.499161 -0.51207,3.771644 -0.7028,4.742863 l -0.12661,0.646472 -0.36018,0.04909 c -0.69147,0.09464 -3.31995,0.05677 -3.46284,-0.05013 -0.0829,-0.06196 -0.28105,-0.653616 -0.52607,-1.570448 -0.2163,-0.809249 -0.39494,-1.428443 -0.39894,-1.376143 -0.006,0.09575 0.46209,2.182675 0.62632,2.792595 0.0988,0.366721 0.16464,0.392682 1.11724,0.437182 v 5.29e-4 c 1.0685,0.0493 2.69348,0.05257 2.93006,0.0052 0.18536,-0.03707 0.26486,-0.110025 0.32556,-0.298173 0.19977,-0.620273 0.80047,-4.710954 0.80047,-5.450313 0,-0.398526 -0.0961,-0.592024 -0.41187,-0.605131 z m -13.27102,0.438216 c 0.0392,0.01101 0.0879,0.17974 0.1664,0.556554 0.0774,0.371822 0.13409,0.682913 0.12609,0.690914 -0.008,0.0083 -0.15012,-0.09869 -0.31574,-0.238228 -0.29903,-0.251949 -0.30009,-0.255847 -0.18862,-0.532267 0.0617,-0.15311 0.14078,-0.349584 0.17518,-0.437182 0.0116,-0.02956 0.0236,-0.04346 0.0367,-0.03979 z m 8.98395,0.168463 c -0.0276,-0.0011 -0.0591,0.004 -0.0879,0.01551 -0.0635,0.02551 -0.0447,0.04406 0.0481,0.04806 0.0838,0.0033 0.13078,-0.01545 0.10438,-0.04186 -0.0132,-0.01304 -0.037,-0.02058 -0.0646,-0.0217 z m 5.08134,0.74621 -0.0382,0.993738 c -0.0213,0.546788 -0.0529,1.039188 -0.0698,1.093988 -0.0523,0.169432 -0.19514,0.109239 -0.18914,-0.07958 0.003,-0.09843 0.072,-0.590931 0.15193,-1.093989 z m -2.56367,0.03979 c -0.53671,0 -1.46122,0.02276 -2.05465,0.05116 -1.06515,0.05106 -1.07989,0.05482 -1.16789,0.258898 -0.089,0.20652 -0.089,0.206235 0.0522,0.03617 0.1393,-0.16767 0.17005,-0.169559 2.1022,-0.128157 2.38077,0.05101 2.21355,-0.0569 2.05879,1.331701 -0.0562,0.5035 -0.12433,0.915646 -0.15193,0.915707 -0.0276,8e-5 -0.0174,-0.429463 0.0227,-0.954463 0.0405,-0.524981 0.053,-0.974291 0.0289,-0.998389 -0.0515,-0.05152 -2.58885,0.109138 -3.28301,0.207737 -0.30784,0.0437 0.15089,0.05416 1.29243,0.02946 l 1.7694,-0.03824 -0.007,0.260451 c -0.004,0.143168 -0.0313,0.450395 -0.0599,0.682643 l -0.0517,0.422198 -1.27227,0.02532 c -0.69989,0.01381 -1.38444,0.05037 -1.52084,0.08217 l -0.24805,0.05788 -0.14573,-0.584462 c -0.0802,-0.321458 -0.15821,-0.527235 -0.17311,-0.457335 -0.0228,0.106929 0.43727,2.315271 0.58653,2.815331 0.0318,0.107 0.021,0.132982 -0.0331,0.07958 -0.0443,-0.04376 -0.26519,-0.775565 -0.49092,-1.626256 -0.22575,-0.850691 -0.44566,-1.602383 -0.48886,-1.670182 -0.0634,-0.09981 -0.0704,-0.093 -0.0362,0.03565 0.0233,0.0875 0.186,0.821153 0.36173,1.630392 0.17573,0.80923 0.35686,1.557295 0.40256,1.661914 l 0.0817,0.190169 1.62987,-0.04082 c 0.89643,-0.02241 1.65207,-0.0625 1.67897,-0.0894 0.0685,-0.06847 0.41965,-2.867046 0.42065,-3.361036 10e-4,-0.292899 -0.0445,-0.46563 -0.1633,-0.6165 -0.16208,-0.205569 -0.18105,-0.209289 -1.1405,-0.209289 z m 0.0734,1.143598 c -0.20355,-0.0065 -0.50817,-0.0053 -0.91416,0.0062 -1.39536,0.03969 -1.85824,0.09076 -1.79214,0.197921 l -10e-4,0.0016 c 0.0563,0.09 0.69811,0.09065 1.80092,0.0016 1.21602,-0.09816 1.51703,-0.187841 0.90641,-0.207224 z m -0.47801,0.383958 c -0.58517,-0.0099 -1.33999,0.02482 -1.77664,0.112136 -0.13768,0.02761 -0.25011,0.08719 -0.25011,0.132292 0,0.1007 2.49469,0.02119 2.78691,-0.08888 0.24057,-0.09071 -0.175,-0.145592 -0.76016,-0.155546 z m 9.07076,0.320392 c 0.10653,-0.0045 0.11633,0.04111 0.11627,0.196372 -7e-5,0.122279 -0.25049,2.190758 -0.55655,4.596619 -0.30604,2.405859 -0.84145,6.632043 -1.19011,9.391674 -0.34869,2.759631 -0.65671,5.076857 -0.68471,5.149557 l -5.3e-4,0.0011 c -0.14946,0.389689 -0.19236,-0.104177 -0.21136,-2.429828 l -0.0207,-2.5616 -0.4992,-0.195337 -0.49867,-0.195336 0.0486,-0.682647 c 0.0267,-0.37547 0.0724,-1.051946 0.10129,-1.503267 l 0.0522,-0.820621 0.50643,-0.02066 0.50591,-0.02016 -0.0543,0.622186 c -0.0721,0.826548 -0.0304,0.940477 0.34003,0.939477 0.16111,-5.29e-4 0.34636,-0.03551 0.41186,-0.07751 0.0838,-0.0532 0.0367,-0.06344 -0.15864,-0.03514 -0.49427,0.07172 -0.49781,0.05528 -0.32298,-1.482598 0.21763,-1.914321 0.48162,-4.798661 0.48162,-5.25911 v -0.381889 l 0.45734,-0.0047 c 0.38253,-0.0042 0.4254,-0.01788 0.26148,-0.0832 -0.1078,-0.0433 -0.34001,-0.06778 -0.51624,-0.05478 -0.38178,0.02815 -0.32395,-0.232135 -0.63356,2.846856 -0.11658,1.15919 -0.22996,2.25512 -0.25166,2.435511 l -0.0398,0.328144 -0.49351,-0.0052 -0.49403,-0.0047 0.0233,-0.641821 c 0.0226,-0.624851 0.0106,-0.672579 -0.45734,-1.819011 -0.26429,-0.64752 -0.48059,-1.193244 -0.48059,-1.212844 0,-0.0195 0.12149,-0.03566 0.26975,-0.03566 0.35636,0 1.70781,-0.353661 1.82521,-0.477489 0.16786,-0.177133 -1.42444,0.100193 -2.02365,0.352433 -0.10423,0.04386 -0.20753,-0.155456 -0.5612,-1.083656 -0.38933,-1.02185 -0.45493,-1.141389 -0.64389,-1.17719 l -0.20981,-0.03979 -0.0434,-1.511016 c -0.0236,-0.831112 -0.0736,-1.618547 -0.11058,-1.749764 -0.0627,-0.222673 -0.0914,-0.23858 -0.44339,-0.23358 -0.34276,0.0048 -0.37197,-0.0089 -0.33176,-0.158646 0.0243,-0.09043 0.0444,-0.245134 0.045,-0.343649 5.3e-4,-0.105349 0.05,-0.1788 0.12041,-0.1788 0.0845,0 0.11946,0.08664 0.1204,0.298175 0.001,0.221969 0.0211,0.267599 0.0786,0.1788 0.0423,-0.06562 0.0774,-0.194173 0.078,-0.285772 10e-4,-0.161779 0.0466,-0.168089 1.572,-0.215489 1.41749,-0.0441 3.70742,-0.220017 4.37441,-0.335897 0.0602,-0.01045 0.1066,-0.01709 0.14211,-0.0186 z m -12.98422,0.09095 c 0.008,-0.0084 0.0193,0.0024 0.032,0.03411 v 5.3e-4 c 0.0233,0.05745 0.0202,0.126044 -0.006,0.152445 -0.0267,0.02638 -0.0459,-0.02059 -0.0419,-0.104387 0.002,-0.0464 0.008,-0.07431 0.016,-0.08268 z m -0.45372,0.02791 c 0.075,-0.0031 0.11979,-0.0013 0.12713,0.0062 0.0292,0.02996 0.25119,0.819417 0.49299,1.753899 0.24184,0.93449 0.46251,1.721345 0.49041,1.749245 0.0277,0.0278 0.41459,0.06302 0.85989,0.07751 l 0.80977,0.02635 0.006,0.461989 0.006,0.461986 -0.72295,0.04651 c -0.39762,0.0254 -1.0843,0.0683 -1.526,0.0956 -0.44171,0.02734 -0.84497,0.07569 -0.89607,0.107487 -0.0512,0.03163 -0.30149,0.698834 -0.55604,1.483114 h 5.3e-4 c -0.29887,0.92092 -0.50266,1.430592 -0.57516,1.436606 -0.24999,0.02394 -2.49363,-0.448953 -2.58124,-0.544156 -0.29846,-0.324077 -0.46878,-0.926663 -1.02836,-3.627683 -0.32916,-1.588752 -0.59893,-2.921911 -0.59893,-2.962611 0,-0.0408 0.23067,-0.0739 0.51263,-0.0739 0.78338,0 2.4023,-0.14837 3.90157,-0.3576 0.55773,-0.07782 1.05291,-0.131336 1.27796,-0.14056 z m 5.20123,0.28422 c 0.076,0.0097 0.0817,0.05408 0.0817,0.151929 0,0.180679 -0.0124,0.181385 -0.9741,0.181385 v 5.3e-4 c -0.53584,0 -1.17626,0.02683 -1.42317,0.05943 -0.44083,0.05829 -0.54517,0.0113 -0.54518,-0.244946 0,-0.0293 0.47408,-0.0537 1.05368,-0.05426 0.5796,-7.94e-4 1.24158,-0.02873 1.47123,-0.06253 0.0999,-0.01466 0.17622,-0.02545 0.23409,-0.03049 0.0434,-0.0038 0.0765,-0.0043 0.1018,-0.0011 z m 0.36122,0.36122 c 0.004,0.0024 0.009,0.01291 0.014,0.03204 0.02,0.07656 0.02,0.20142 0,0.278019 -0.02,0.07656 -0.0362,0.0141 -0.0362,-0.139009 0,-0.114824 0.009,-0.178554 0.0222,-0.171048 z m -0.27337,0.0863 -0.0532,0.420129 c -0.0295,0.231029 -0.0618,0.429967 -0.0723,0.442868 -0.0101,0.0123 -0.47925,0.07416 -1.04283,0.137459 v 5.29e-4 c -1.46609,0.164711 -1.46193,0.164947 -1.46193,-0.157612 0,-0.14582 0.0375,-0.16496 0.27234,-0.137459 0.35343,0.04125 1.79713,-0.116197 2.04277,-0.222726 0.16777,-0.0729 -1.0908,-0.0605 -2.19573,0.02169 -0.2013,0.01495 -0.2422,-0.0132 -0.262,-0.182417 l -0.0238,-0.200506 0.85834,0.0011 c 0.47217,7.94e-4 1.10141,-0.02635 1.39837,-0.06046 z m 1.78491,0.328144 c 0.0312,0.0026 0.0674,0.0074 0.10903,0.01085 l 0.28733,0.02429 0.0522,1.232485 c 0.0286,0.678 0.0753,1.438815 0.10335,1.690335 l 0.0512,0.457335 h -1.38337 v -5.29e-4 c -0.76082,0 -1.80925,0.02315 -2.33009,0.05116 l -0.94723,0.05064 v -0.448035 -0.448553 h 1.63504 c 1.18949,-1.99e-4 1.66841,-0.02733 1.75751,-0.09974 0.0815,-0.06624 0.169,-0.431012 0.262,-1.093473 0.19088,-1.358752 0.18452,-1.445125 0.40308,-1.426787 z m -1.92443,0.837158 c 0.0798,-0.0029 0.14493,-0.0021 0.19327,0.0021 0.0645,0.0056 0.0992,0.01783 0.0992,0.03669 0,0.0407 -0.11964,0.07338 -0.26614,0.07338 v 5.29e-4 c -0.1465,0 -0.54942,0.01648 -0.89503,0.03669 -0.55599,0.0325 -0.57774,0.02849 -0.19069,-0.03101 0.44858,-0.06896 0.82005,-0.109556 1.05937,-0.11834 z m 2.94245,2.856674 0.077,0.238229 c 0.0422,0.13123 0.45172,1.184751 0.91002,2.340943 l 0.83303,2.102197 -0.0568,1.019574 c -0.0439,0.789562 -0.0814,1.019578 -0.16691,1.019578 -0.0607,0 -0.11059,0.05335 -0.11059,0.118856 2e-5,0.0658 0.0412,0.119372 0.0915,0.119372 0.0668,0 0.0767,0.259646 0.0367,0.966867 -0.03,0.531698 -0.0733,0.997045 -0.0961,1.034044 -0.0229,0.0368 -2.37808,0.06666 -5.2343,0.06666 h -5.19297 l -0.37155,-2.253091 -0.37104,-2.253094 0.27699,-0.948261 c 0.28063,-0.95938 1.044,-3.285731 1.0945,-3.336232 0.0667,-0.06676 3.88747,-0.208492 5.98155,-0.221692 z m -0.86971,0.07907 c -1.10358,0 -6.53961,0.216384 -6.8063,0.270782 -0.2899,0.05929 -0.2378,-0.06852 -0.78859,1.936317 -0.17735,0.6453 -0.31027,1.210556 -0.29507,1.256255 0.0152,0.04565 0.23755,-0.611823 0.49351,-1.460892 l 0.46509,-1.543577 0.92552,-0.04909 c 0.50886,-0.02709 2.16355,-0.0729 3.6773,-0.101804 l 2.75229,-0.05271 0.68729,1.72961 c 0.37811,0.95133 0.68782,1.779931 0.68782,1.84123 0,0.09142 -0.27341,0.111107 -1.53789,0.111107 -2.90843,0 -7.86086,0.116697 -6.9324,0.163295 V 37.022 c 0.48117,0.0241 2.67346,0.05143 4.87154,0.05943 3.15416,0.01241 3.99452,-0.0047 3.99252,-0.0832 -0.002,-0.05466 -0.35477,-0.994169 -0.78445,-2.087729 l -0.78135,-1.988508 z m 3.35018,0.449585 c -0.0512,7.94e-4 -0.1056,0.0071 -0.15968,0.02066 -0.15227,0.03822 -0.19895,0.101772 -0.19895,0.271301 0,0.12165 0.0432,0.263861 0.0956,0.316259 v 5.3e-4 c 0.12613,0.125629 0.34105,0.121054 0.4501,-0.01035 0.0685,-0.0825 0.0487,-0.104735 -0.0899,-0.09973 -0.12637,0.0044 -0.17725,-0.0396 -0.17725,-0.152961 0,-0.113843 0.0508,-0.157446 0.1788,-0.152448 0.0983,0.0033 0.17931,-0.02482 0.17931,-0.06253 0,-0.08191 -0.12452,-0.132964 -0.27802,-0.130741 z m -3.5202,0.269232 c -0.93279,-0.0027 -4.55403,0.158888 -5.18159,0.242364 -0.19274,0.02564 -0.40067,0.09671 -0.46147,0.157612 -0.0609,0.06095 -0.17352,0.156075 -0.25011,0.211873 -0.0766,0.05565 -0.20324,0.190424 -0.28164,0.299726 l -0.14263,0.198953 0.0512,-0.198953 c 0.0443,-0.173062 0.0388,-0.179563 -0.0403,-0.05271 -0.0911,0.145929 -0.7121,1.939184 -0.7121,2.056204 0,0.0341 1.01116,0.07185 2.24689,0.08475 1.23576,0.01241 3.12697,0.03023 4.20233,0.04083 1.07534,0.01019 1.97518,-0.0016 1.99988,-0.02635 0.0645,-0.06452 -1.04622,-2.816389 -1.21181,-3.002399 -0.007,-0.0078 -0.0853,-0.01151 -0.2186,-0.01188 z m -0.45682,0.202057 0.27182,0.01704 c 0.14972,0.0092 0.28699,0.06157 0.30489,0.116272 0.0414,0.126039 -0.0388,0.120919 -0.33848,-0.02066 z m -2.2288,0.07338 c 1.90123,0 2.28307,0.07908 2.87786,0.593246 0.26676,0.230648 0.29595,0.296743 0.32815,0.742072 0.0288,0.398671 0.004,0.542335 -0.13436,0.777213 -0.2248,0.38096 -0.0299,0.31799 0.22686,-0.07338 l 0.1943,-0.297141 0.13488,0.342099 c 0.0741,0.188039 0.1295,0.345884 0.1235,0.350882 -0.006,0.0051 -1.78726,0.02956 -3.95738,0.05426 l -3.94549,0.04496 0.23874,-0.782897 c 0.14841,-0.485971 0.27425,-0.769657 0.33125,-0.747757 0.0899,0.03449 0.75964,-0.719657 0.75964,-0.855245 0,-0.0379 0.14671,-0.06873 0.32556,-0.06873 h 0.32505 l -0.20981,0.249082 c -0.5024,0.59708 -0.6426,1.213453 -0.40514,1.781802 0.0633,0.151691 0.13138,0.275436 0.15037,0.275436 0.0193,0 0.0158,-0.234645 -0.007,-0.521417 -0.0391,-0.487108 -0.0218,-0.56067 0.26252,-1.120859 0.20051,-0.395002 0.3689,-0.624594 0.49351,-0.671796 0.10411,-0.0394 0.95347,-0.07183 1.88722,-0.07183 z m -7.22437,0.636138 c -0.32095,0 -0.48717,0.32776 -0.27388,0.541051 0.11297,0.112999 0.43254,0.126953 0.49764,0.0217 0.0251,-0.0406 -0.0352,-0.08573 -0.13435,-0.09973 -0.099,-0.01405 -0.18037,-0.07919 -0.18035,-0.144695 -2e-5,-0.06568 0.0812,-0.130693 0.18035,-0.144693 0.22501,-0.03194 0.15221,-0.173632 -0.0894,-0.173632 z m -1.44693,0.839224 c 0.0297,0.0019 0.0949,0.03697 0.21704,0.107487 0.33134,0.19133 1.00218,0.329027 1.93011,0.395843 0.44608,0.03213 0.71495,0.08446 0.70435,0.137459 -0.009,0.04716 -0.0958,0.357449 -0.19327,0.689364 l -0.17777,0.603062 0.30128,1.881539 c 0.23853,1.482601 0.2896,1.989376 0.24649,2.391585 l -0.0543,0.510048 h -0.31212 c -0.36601,0 -0.34967,-0.09952 -0.2372,1.471745 0.0408,0.568679 0.0972,1.38267 0.12558,1.809191 h 5.3e-4 c 0.028,0.426501 0.0376,0.775134 0.0207,0.775148 -0.0169,0 -0.30634,-0.97531 -0.64337,-2.167311 -0.40777,-1.442231 -0.82641,-3.204829 -1.25109,-5.268929 -0.35102,-1.705969 -0.65749,-3.164662 -0.68109,-3.241664 -0.0198,-0.06454 -0.0256,-0.0963 0.004,-0.09457 z m 9.03252,0.19482 c -2.36192,0 -3.23139,0.06167 -2.34766,0.166399 v 5.29e-4 c 0.56497,0.0668 3.45448,0.08075 4.2323,0.02016 1.3339,-0.10386 0.49713,-0.187069 -1.88464,-0.187069 z m -3.95066,0.12764 c -0.0171,-0.0011 -0.0325,0.0046 -0.045,0.01704 -0.0892,0.08923 0.0524,0.399581 0.24908,0.546221 h 10e-4 c 0.20325,0.15217 0.2052,-0.09302 0.002,-0.378272 -0.0846,-0.118102 -0.15586,-0.181642 -0.20722,-0.185002 z m 11.97911,1.388031 c 0.0475,0.0021 0.11237,0.03795 0.18138,0.106969 0.0947,0.09411 0.0965,0.225451 0.0108,0.852662 -0.0558,0.407879 -0.17757,1.494052 -0.27027,2.413807 -0.14369,1.426318 -0.22206,1.865569 -0.53278,2.984828 l -5.3e-4,5.29e-4 c -0.3182,1.146289 -0.42094,1.474216 -0.42065,1.345136 5e-5,-0.01823 0.21486,-1.714918 0.47698,-3.770828 0.26214,-2.055921 0.47666,-3.782793 0.47697,-3.837493 2.7e-4,-0.06609 0.0305,-0.09773 0.078,-0.0956 z m -3.65146,0.989603 -0.69815,0.01394 c -0.38393,0.0074 -2.55562,0.03865 -4.82606,0.06925 l -4.12843,0.0553 0.0501,1.542024 c 0.0274,0.848061 0.0866,1.611955 0.13229,1.697053 0.0678,0.126791 0.18793,0.160287 0.65887,0.184486 l -5.3e-4,-5.29e-4 c 0.96404,0.0493 8.71143,0.02085 8.76433,-0.03204 0.0274,-0.02723 0.0491,-0.832583 0.0486,-1.789554 z m -0.24288,0.260966 v 1.508435 1.508434 l -0.53691,0.05064 c -0.61876,0.0583 -6.11763,0.04103 -7.53598,-0.02379 l -0.95395,-0.04392 -0.0506,-0.795301 c -0.0276,-0.43742 -0.0544,-1.069543 -0.0594,-1.405083 -0.009,-0.605279 -0.008,-0.610539 0.20929,-0.651639 0.12027,-0.02299 2.17845,-0.06537 4.57337,-0.09457 z m -0.15916,0.167947 -4.31447,0.05064 c -2.37306,0.0277 -4.3635,0.06585 -4.4235,0.08475 -0.0891,0.02825 -0.0983,0.23377 -0.0506,1.126029 0.0323,0.60029 0.0893,1.171808 0.12661,1.270207 l 0.0677,0.1788 2.40812,0.0279 c 2.67196,0.03102 5.89531,-0.01013 6.07198,-0.07803 0.0932,-0.03568 0.11421,-0.287526 0.11421,-1.351855 z m -0.7922,0.234095 0.19792,0.448035 c 0.11189,0.253029 0.23379,0.426509 0.28009,0.397907 0.0538,-0.03362 0.0742,0.184661 0.0589,0.65164 l -0.0233,0.702283 -3.93671,0.01138 c -2.16524,0.0061 -3.9975,-0.005 -4.0721,-0.02479 -0.17766,-0.04721 -0.20074,-0.147365 -0.26355,-1.150834 l -0.0527,-0.846461 0.98133,-0.04651 c 0.53975,-0.02561 2.29738,-0.06797 3.90571,-0.09457 z m 0.35553,0.01344 c 0.0679,0 0.14377,0.05207 0.16847,0.116271 0.089,0.232151 -0.0203,0.29781 -0.15451,0.09302 -0.12045,-0.1837 -0.12226,-0.209291 -0.014,-0.209291 z m -6.94066,0.282671 c -0.0222,-0.0016 0.004,0.08868 0.0992,0.272335 0.17142,0.331489 0.0909,0.421442 -0.58188,0.651121 -0.3354,0.114491 -0.47005,0.190707 -0.36638,0.206706 0.0902,0.0141 0.33445,-0.04754 0.54312,-0.13694 0.45464,-0.194943 0.653,-0.204952 0.7462,-0.03824 0.0383,0.06844 0.13628,0.134845 0.21808,0.146246 0.0819,0.01198 0.16455,0.06804 0.18345,0.125058 0.0205,0.0612 -0.002,0.08086 -0.0553,0.04806 -0.0494,-0.0306 -0.0899,-0.01511 -0.0899,0.0341 0,0.0498 0.0635,0.06921 0.14469,0.04341 0.0933,-0.02961 0.2107,0.02522 0.33177,0.153998 0.18454,0.196419 0.32126,0.256545 0.31626,0.139525 -0.001,-0.0328 -0.21909,-0.229394 -0.4837,-0.437181 -0.38464,-0.301983 -0.44529,-0.377757 -0.3023,-0.377757 0.29098,0 0.12108,-0.08317 -0.1943,-0.09457 -0.15931,-0.006 -0.28991,-0.04092 -0.28991,-0.07752 0,-0.0365 0.0328,-0.06666 0.0729,-0.06666 0.0403,0 -0.004,-0.140703 -0.0977,-0.312642 -0.10086,-0.183997 -0.17208,-0.277389 -0.19431,-0.279053 z m 1.08728,0.366903 c -0.0112,-0.0011 -0.0533,0.02326 -0.1323,0.07235 -0.0983,0.06126 -0.1788,0.138465 -0.1788,0.171564 0,0.0331 0.0595,0.06046 0.1323,0.06046 0.0733,0 0.10941,-0.02349 0.0806,-0.05219 -0.0288,-0.02878 -0.008,-0.106481 0.046,-0.172082 0.0436,-0.05265 0.0634,-0.07899 0.0522,-0.0801 z m 0.27285,0.329178 c -0.0133,-0.0032 -0.0616,0.0034 -0.14625,0.02016 -0.50875,0.101261 -0.42318,0.14733 0.71831,0.383955 h 5.2e-4 c 0.52307,0.108381 1.03573,0.200057 1.13947,0.202054 0.1595,0.0044 0.1735,-0.01328 0.0894,-0.11472 -0.12031,-0.144971 -0.7663,-0.337574 -1.31155,-0.390674 -0.31878,-0.03117 -0.26058,-0.0042 0.29352,0.136425 0.38017,0.09651 0.71483,0.199961 0.74363,0.22996 0.0612,0.06344 0.002,0.05235 -0.99426,-0.181901 -0.57589,-0.135398 -0.71563,-0.193045 -0.59634,-0.244946 0.0553,-0.02405 0.0769,-0.03708 0.0636,-0.04031 z m 1.58388,2.360063 c 5.19561,-0.0011 5.27665,0.0011 5.80068,0.171566 0.42522,0.13839 0.54111,0.211698 0.57981,0.365868 0.027,0.10599 0.0432,1.254559 0.0382,2.552298 l -0.0104,2.359547 -0.28525,0.0801 c -0.15681,0.04416 -0.30023,0.124499 -0.31833,0.1788 -0.0455,0.13639 0.31615,0.12692 0.66198,-0.01757 0.25793,-0.107659 0.29055,-0.104798 0.43511,0.03979 0.086,0.08588 0.15607,0.187727 0.15607,0.225827 0,0.07701 -0.63497,0.886479 -1.09089,1.391129 l 0.001,-5.29e-4 c -0.28067,0.310719 -0.31786,0.32685 -0.83405,0.35605 l -0.54054,0.03049 v -0.889352 c 0,-0.840509 0.008,-0.886576 0.15244,-0.840777 0.11376,0.03611 0.21941,-0.03404 0.41342,-0.275433 0.21097,-0.262451 0.27304,-0.300657 0.32814,-0.202055 0.0375,0.06702 0.12479,0.121955 0.19379,0.121955 0.1102,0 0.1204,-0.138084 0.0863,-1.133264 -0.0468,-1.366179 -0.10242,-1.541722 -0.51418,-1.619022 -0.32443,-0.0608 -7.12341,0.01273 -9.1922,0.09973 -0.85212,0.03578 -1.24621,0.08105 -1.2268,0.140044 0.0157,0.04791 0.19613,0.09761 0.40049,0.111104 0.20438,0.01331 0.37155,0.0534 0.37155,0.0894 0,0.03596 -0.0612,0.329658 -0.13591,0.652158 l -0.13591,0.58601 -0.062,-0.472323 c -0.0341,-0.25971 -0.0983,-0.508022 -0.14262,-0.552421 -0.11496,-0.114919 -0.10432,0.869542 0.015,1.385961 0.0869,0.376381 0.0817,0.422826 -0.0553,0.522968 -0.0827,0.06044 -0.28062,0.110069 -0.43977,0.110069 h -0.28939 l -0.10077,-1.72961 c -0.0554,-0.951429 -0.12836,-2.123837 -0.16226,-2.605008 -0.0334,-0.481172 -0.0463,-0.90161 -0.0274,-0.93431 0.0189,-0.0326 0.17538,-0.05943 0.34778,-0.05943 0.22573,0 0.31316,-0.03367 0.31316,-0.119372 0,-0.104831 0.63887,-0.119457 5.26893,-0.120407 z m 3.69125,0.420129 c -0.0373,0.02212 -0.0549,0.177416 -0.0264,0.450101 0.0674,0.644811 0.25365,1.030991 0.56328,1.16582 V 44.1425 c 0.27354,0.119301 1.60198,0.153609 1.67018,0.04341 0.0236,-0.03817 -0.25136,-0.09479 -0.61133,-0.12609 -0.87497,-0.07633 -1.11592,-0.18592 -1.27228,-0.57671 -0.0691,-0.172368 -0.15056,-0.444934 -0.18086,-0.606163 -0.0489,-0.26053 -0.10537,-0.371972 -0.14263,-0.34985 z m -3.65301,1.257805 c -0.0782,-0.0048 -0.179,-1.56e-4 -0.30799,0.0098 l -0.34727,0.02687 0.27854,0.08268 c 0.1583,0.047 0.28969,0.143007 0.30489,0.222207 0.0224,0.115232 -0.023,0.135107 -0.27802,0.114205 -0.24669,-0.02027 -0.31013,-0.05952 -0.33073,-0.204121 -0.0247,-0.173799 -0.17363,-0.258858 -0.17363,-0.09922 0,0.0494 -0.44639,0.07907 -1.18029,0.07907 -1.85586,0 -3.37528,0.08911 -3.27267,0.19172 0.1025,0.10296 2.87519,0.09453 3.83698,-0.01138 0.56907,-0.06269 0.61598,-0.05678 0.61598,0.07751 0,0.07992 0.0805,0.178601 0.1788,0.219106 h 5.3e-4 c 0.0986,0.04051 0.33981,0.06483 0.5364,0.05685 l 0.35811,-0.01654 0.0243,-0.338998 c 0.0213,-0.295531 -0.009,-0.395248 -0.24391,-0.409794 z m 2.16834,0.154512 c -0.96572,0 -1.49765,0.06652 -1.33842,0.167431 0.058,0.0367 0.6604,0.06666 1.33842,0.06666 0.67801,0 1.28022,-0.02976 1.33842,-0.06666 0.15923,-0.100989 -0.37271,-0.167431 -1.33842,-0.167431 z m 1.89394,1.280025 c 0.15451,0.02953 0.16376,0.371435 0.20051,1.303279 l 0.0517,1.313098 -0.32712,0.297656 c -0.18,0.163693 -0.35414,0.307496 -0.38654,0.320395 -0.0325,0.01259 -0.0783,-0.416962 -0.10232,-0.954463 -0.024,-0.537502 -0.0963,-1.16793 -0.16019,-1.400948 l -0.11628,-0.42323 0.36794,-0.230995 c 0.2347,-0.147426 0.37962,-0.242509 0.47232,-0.224792 z m 0.47336,0.04186 c 0.0336,-0.02074 0.21848,0.422373 0.41083,0.984952 l 0.34985,1.022678 -0.27182,0.314708 c -0.1494,0.17298 -0.31085,0.333034 -0.35915,0.355534 -0.14095,0.06543 -0.26951,-2.591374 -0.12971,-2.677872 z m 0.48524,0.01035 c 0.0245,-7.94e-4 0.0542,0.0011 0.0899,0.0062 0.27244,0.0385 0.29515,0.09545 0.35915,0.903303 0.03,0.389279 0.042,0.722307 0.0243,0.740005 -0.0311,0.03109 -0.51578,-1.311563 -0.56018,-1.551842 -0.0119,-0.06465 0.0133,-0.09505 0.0868,-0.09767 z m -9.10125,0.09767 c 0.16008,0 0.18772,0.05007 0.23202,0.417544 0.0276,0.229661 0.0508,0.766194 0.0512,1.192694 h -5.3e-4 c 5.3e-4,0.426509 -0.0261,0.772943 -0.0589,0.768946 -0.0328,-0.0037 -0.1934,-0.142113 -0.35708,-0.307994 -0.29697,-0.300969 -0.29748,-0.302482 -0.22117,-0.729155 0.0421,-0.235108 0.0982,-0.633656 0.12453,-0.885216 0.0429,-0.409689 0.0669,-0.456819 0.22996,-0.456819 z m 1.59422,0.114721 c -0.0133,-0.0043 -0.0264,-0.0035 -0.0388,0.0041 -0.1002,0.06264 -0.10147,0.367776 -10e-4,0.631486 h -0.002 c 0.10457,0.275098 0.24082,0.258303 0.24082,-0.02946 0,-0.272798 -0.10632,-0.575722 -0.19948,-0.606165 z m -0.62374,0.711067 c -0.01,0.0011 -0.002,0.0118 0.0253,0.03411 0.10745,0.0876 0.76944,0.517342 1.47123,0.954463 1.10201,0.68644 1.33841,0.802627 1.73426,0.851628 0.2521,0.03118 0.47271,0.07992 0.49041,0.108521 0.0177,0.02855 0.0577,0.306729 0.0884,0.618048 l 0.0558,0.565859 -0.55294,0.05529 -0.55294,0.05581 -0.709,-0.457853 c -0.80302,-0.518311 -1.97362,-1.233239 -2.26446,-1.38338 -0.28551,-0.147359 -0.0958,0.03477 0.35554,0.341583 l 0.37258,0.253214 0.0165,1.113629 c 0.009,0.612378 0.0524,1.166981 0.0956,1.232482 h -5.3e-4 c 0.11215,0.17019 0.13976,-0.156822 0.10646,-1.280544 l -0.0274,-0.922941 1.03404,0.697632 1.03353,0.697633 0.63666,-0.08217 c 0.34996,-0.04522 0.66458,-0.108143 0.69918,-0.140041 0.0697,-0.064 -0.0861,-1.438082 -0.18035,-1.590601 -0.0326,-0.0526 -0.28789,-0.115962 -0.56741,-0.14056 -0.42906,-0.03752 -0.63235,-0.114972 -1.3038,-0.49816 -1.05672,-0.603105 -1.98729,-1.090753 -2.05672,-1.083657 z m 2.65617,0.764813 c -0.11518,0 -0.10275,0.345051 0.0171,0.466122 0.08,0.08082 0.10465,0.06722 0.12557,-0.06925 0.0325,-0.211 -0.0341,-0.396875 -0.14263,-0.396875 z m -5.69578,0.140041 c 0.0377,-0.01871 0.0798,0.08822 0.16123,0.376722 0.074,0.26244 0.16778,0.581631 0.20878,0.709001 0.11557,0.359169 0.0377,0.326996 -0.2341,-0.09663 -0.24881,-0.387572 -0.29419,-0.630777 -0.17363,-0.930177 0.0129,-0.03205 0.0252,-0.05267 0.0377,-0.05891 z m 1.61438,0.344167 0.2253,0.235128 c 0.12378,0.129109 0.28579,0.235127 0.36071,0.235127 0.12022,0 0.13463,0.10006 0.12402,0.913638 v 5.29e-4 l -0.0114,0.913638 -0.48937,5.29e-4 -0.4899,5.3e-4 -0.40514,-0.546219 c -0.36913,-0.49802 -0.40512,-0.584888 -0.40515,-0.97462 v -0.427363 l 0.38654,0.02687 c 0.33603,0.02328 0.40703,5.3e-4 0.54519,-0.175183 z m 8.78706,0.788065 c 0.0349,0 0.0633,0.385016 0.063,0.855244 l -5.3e-4,0.854729 -1.09295,0.712618 c -0.60119,0.391821 -1.42209,0.919676 -1.82418,1.173054 -0.5666,0.357034 -0.80092,0.460438 -1.04077,0.460438 -0.17021,0 -0.33325,-0.0236 -0.36225,-0.05271 -0.0766,-0.07644 -0.0631,-1.080881 0.016,-1.205611 0.0801,-0.126241 0.5664,-0.247147 1.00459,-0.251148 0.17498,-0.0013 0.41262,-0.06478 0.52813,-0.141076 0.25941,-0.171259 1.90295,-1.638133 2.33112,-2.080492 0.17292,-0.178652 0.34296,-0.325046 0.37776,-0.325046 z m -0.96429,2.909384 c -0.008,-0.0019 -0.0153,-0.0011 -0.0227,0.0036 -0.11045,0.0683 -0.0318,1.102358 0.108,1.421617 l 0.10439,0.238747 0.0258,-0.423746 c 0.0298,-0.489493 -0.10159,-1.212059 -0.21549,-1.240235 z m -6.76599,1.049547 c 0,0.07014 0.32904,0.43852 0.74879,0.864031 h 0.30179 c -0.58167,-0.500988 -1.05058,-0.892683 -1.05058,-0.864031 z m 7.67498,0.132808 c -0.0217,-0.02029 -0.0932,0.06879 -0.21239,0.268718 -0.0554,0.09296 -0.20719,0.265968 -0.39739,0.462505 h 0.34158 c 0.0809,-0.11566 0.14138,-0.227877 0.18139,-0.345199 0.0804,-0.23613 0.10855,-0.365712 0.0868,-0.386024 z" />
  <path
     style="fill:#000000;stroke-width:0.999997"
     d="m 321.18057,25.88929 c -0.0216,-0.008 -0.12587,0.55262 -0.23183,1.24832 -0.34007,2.23234 -0.88304,5.48685 -0.94633,5.67234 -0.0369,0.10793 -0.12758,0.18965 -0.22695,0.20414 -0.13615,0.02 -0.18027,0.13846 -0.24844,0.66705 -0.0457,0.35348 -0.1367,0.91509 -0.20244,1.24807 -0.0657,0.33293 -0.0865,0.68655 -0.0464,0.78577 0.0402,0.0992 0.0559,0.29522 0.0348,0.43554 -0.0504,0.33651 0.0733,0.45241 0.41044,0.38431 0.53604,-0.1083 0.65564,0.12676 0.67326,1.32331 0.0127,0.86299 0.0812,1.0157 0.44265,0.98619 0.21537,-0.0176 0.31647,-0.0633 0.41727,-0.18795 0.15538,-0.19233 0.61084,-0.39958 0.75187,-0.34217 0.0535,0.022 0.45734,0.0699 0.89699,0.10666 0.89912,0.0752 1.74313,0.27843 1.80654,0.435 0.0568,0.14007 -0.18325,0.31305 -0.78888,0.56863 -0.46653,0.19715 -0.5689,0.20711 -1.37871,0.13793 -0.48108,-0.0411 -0.88779,-0.0694 -0.9038,-0.0629 -0.0159,0.006 0.041,0.23437 0.12661,0.50647 0.15297,0.48642 0.14406,0.92845 -0.0201,0.99493 -0.0459,0.0185 -0.0484,-0.0616 -0.006,-0.17822 0.0602,-0.16444 0.0272,-0.35317 -0.14707,-0.84142 -0.14089,-0.39464 -0.19432,-0.64169 -0.14303,-0.66249 0.045,-0.0182 0.5042,-0.008 1.02059,0.0202 0.84549,0.0481 0.98092,0.0338 1.36101,-0.14366 0.23217,-0.1083 0.40486,-0.22506 0.38375,-0.25932 -0.0207,-0.0344 -0.3812,-0.12018 -0.80023,-0.19074 -0.72516,-0.1222 -0.80317,-0.11726 -1.619,0.10156 -1.26179,0.33855 -1.64857,0.51237 -1.93562,0.87001 -0.13281,0.16532 -0.27055,0.41373 -0.30605,0.55189 -0.0746,0.28964 0.0695,0.70719 0.31196,0.90389 l 0.16718,0.13575 -0.0401,-0.24122 c -0.0684,-0.41264 0.20392,0.2796 0.62073,1.5787 0.45042,1.4036 0.79283,2.02884 1.26321,2.30726 l 0.29925,0.17712 0.0608,-0.35307 c 0.0335,-0.19418 0.0811,-0.57663 0.10615,-0.84992 l 0.0453,-0.49686 -0.39208,-0.52205 -0.3921,-0.52208 -0.1241,-0.80686 c -0.0684,-0.44376 -0.0868,-0.7527 -0.0412,-0.68646 0.0456,0.0662 0.0889,0.23601 0.0956,0.37726 0.028,0.56532 0.27055,1.18144 0.60771,1.54354 0.17547,0.18849 0.35786,0.43818 0.40517,0.55491 0.0855,0.21103 -0.0197,1.70484 -0.13514,1.91969 -0.087,0.16208 -0.33873,0.11563 -0.71699,-0.13209 -0.52221,-0.3421 -0.82123,-0.92309 -1.24105,-2.41138 l -0.35345,-1.25297 -0.29067,-0.23216 c -0.35249,-0.28152 -0.5312,-0.79547 -0.39731,-1.14286 l 0.0857,-0.22244 -0.54155,-0.68164 c -0.29786,-0.3749 -0.66328,-0.7675 -0.812,-0.87243 -0.24801,-0.17498 -0.29142,-0.2523 -0.52333,-0.93234 -0.1791,-0.525 -0.22817,-0.76461 -0.16828,-0.82057 0.0466,-0.0434 0.0721,-0.11019 0.0568,-0.14801 -0.0153,-0.0378 -0.10665,0.0708 -0.20254,0.24138 -0.1901,0.33785 -0.15386,0.54433 0.12755,0.72665 0.19687,0.12757 0.15099,0.18596 -0.093,0.11841 -0.229,-0.0633 -0.46815,-0.28785 -0.48084,-0.45135 -0.0115,-0.15093 0.38439,-0.77252 0.52987,-0.83144 0.0462,-0.0187 0.0878,-0.12611 0.0928,-0.23849 0.005,-0.11247 0.10504,-0.30934 0.22273,-0.43746 0.11765,-0.12825 0.20377,-0.25823 0.19129,-0.28904 -0.0126,-0.0307 0.0466,-0.55928 0.13142,-1.17435 0.14413,-1.04567 0.14276,-1.12989 -0.0208,-1.29615 -0.19687,-0.1999 -0.17663,-0.41589 0.14643,-1.55039 0.1473,-0.51765 0.14973,-0.67504 0.0221,-1.4248 -0.18302,-1.07445 -0.18341,-1.38442 -0.002,-1.45792 0.10346,-0.042 0.17389,-0.32742 0.2639,-1.07223 3.3585,-1.54291 2.73977,-1.41292 2.73977,-1.41292 z m -1.32215,13.08737 c -0.13693,-0.24113 -0.14377,-0.35835 -0.0447,-0.8648 0.11246,-0.58 0.0796,-1.16273 -0.0751,-1.32827 -0.1527,-0.1636 -0.21117,-0.0309 -0.10906,0.24781 l 0.10261,0.28024 -0.18938,-0.24507 c -0.17687,-0.22899 -0.20801,-0.23755 -0.47354,-0.13 -0.17016,0.0688 -0.3156,0.0815 -0.36242,0.0313 -0.0638,-0.0685 -0.14225,-0.0394 -0.42688,0.15763 l -0.34861,0.2414 0.12005,0.36201 c 0.0829,0.25024 0.17209,0.38716 0.28872,0.44352 0.0928,0.0449 0.36974,0.3823 0.6155,0.74986 0.24568,0.3676 0.47537,0.70303 0.51018,0.74544 0.0464,0.0568 0.12807,0.0126 0.30718,-0.16723 0.23684,-0.23741 0.23926,-0.25241 0.0854,-0.52351 z m 0.37012,-0.28134 c -0.0498,-0.12296 -0.091,-0.36691 -0.0913,-0.54226 -6.9e-4,-0.29422 -0.005,-0.30367 -0.0595,-0.12335 -0.0908,0.30347 -0.081,0.73867 0.0188,0.84566 0.15107,0.16191 0.22765,0.0573 0.13158,-0.17998 z m -0.21507,-1.94821 c -0.0472,-0.0634 -0.0389,7.6e-4 0.0185,0.14266 0.0575,0.1419 0.0961,0.19378 0.0859,0.11537 -0.0106,-0.0785 -0.0573,-0.19453 -0.10451,-0.25799 z m -0.91486,0.006 c -0.18381,-0.0351 -0.42806,0.0636 -0.33174,0.13436 0.0413,0.0305 0.16449,0.0185 0.27337,-0.0262 0.15477,-0.0636 0.16752,-0.0872 0.0584,-0.10817 z m -0.93376,0.16367 c 0.28661,-0.28387 0.58001,-0.39799 0.85851,-0.33382 0.22315,0.0513 0.22361,0.0505 0.0838,-0.14085 -0.2795,-0.38276 -0.40483,-0.37465 -1.07878,0.0697 -0.35921,0.23686 -0.37826,0.26666 -0.2983,0.46408 0.0982,0.24263 0.1351,0.2376 0.43471,-0.0593 z m 0.91437,-1.05894 c -0.025,-0.0619 -0.15055,-0.11019 -0.27907,-0.10742 -0.12853,0.002 -0.38159,-0.0353 -0.5625,-0.0849 l -0.32893,-0.0898 -0.11462,0.3197 c -0.16851,0.46981 -0.11651,0.50156 0.38818,0.23715 0.34198,-0.17913 0.48644,-0.21937 0.63626,-0.17698 0.2471,0.0698 0.31787,0.0433 0.26084,-0.0974 z m 0.0972,-1.58178 c 0.10134,-0.60737 0.17063,-1.13742 0.15402,-1.17789 -0.0246,-0.06 -0.29655,-0.0992 -0.82565,-0.11967 -0.0636,-0.002 -0.36719,2.0272 -0.33744,2.25646 0.0239,0.18315 0.50064,0.33817 0.69149,0.22471 0.0865,-0.0511 0.19833,-0.46888 0.31758,-1.1836 z m 0.73087,-2.32247 0.1241,-0.70369 -0.41023,-0.0229 c -0.49982,-0.028 -0.77497,-0.10856 -0.92996,-0.27261 -0.1078,-0.11398 -0.12812,-0.0917 -0.25094,0.27324 -0.20926,0.62224 -0.31412,1.27399 -0.22097,1.37373 0.11171,0.11955 1.2581,0.22307 1.43009,0.12908 0.0826,-0.0444 0.18168,-0.34434 0.25793,-0.77685 z m 0.37132,-2.17958 0.19523,-1.25387 -0.41351,-0.0244 c -0.41175,-0.0243 -1.31344,-0.35275 -1.14999,-0.41894 0.0472,-0.019 0.4232,0.0381 0.83555,0.12738 l 0.74971,0.16216 0.19124,-1.20828 c 0.28381,-1.79314 0.28903,-1.66113 -0.0865,-2.18673 l -1.61049,0.54199 c 0,0 1.5866,0.0214 1.45742,0.26634 -0.0266,-0.0114 -1.7536,2.08091 -1.72885,1.78294 0.0247,-0.29796 0.0327,-0.53678 0.0178,-0.53074 -0.015,0.006 -0.0874,0.30572 -0.16123,0.66595 -0.0738,0.36026 -0.0983,0.6405 -0.0548,0.6228 0.13221,-0.0535 0.91194,0.14612 0.95146,0.24368 0.0202,0.0501 -0.0463,0.60543 -0.14794,1.23423 -0.10167,0.62878 -0.14709,1.14085 -0.10103,1.13794 0.0462,-0.002 0.22476,0.0283 0.39701,0.0692 0.17222,0.041 0.34701,0.0627 0.38837,0.0484 0.041,-0.0153 0.16305,-0.59044 0.27042,-1.28006 z m -1.20079,-0.0606 c 0.0818,-0.51154 0.11702,-0.96413 0.078,-1.00572 -0.0961,-0.10283 -0.82505,-0.15127 -0.86364,-0.0573 -0.017,0.0415 0.0351,0.48687 0.11588,0.98983 0.11323,0.70536 0.17596,0.93011 0.27432,0.98296 0.0701,0.0378 0.15428,0.0577 0.18709,0.0445 0.0327,-0.0132 0.12653,-0.44264 0.20834,-0.95418 z m 0.62824,11.07526 c -0.0826,-0.19408 0.0717,-0.7218 0.2864,-0.97803 0.11589,-0.13815 0.34405,-0.29577 0.53644,-0.37037 0.36595,-0.14275 0.38032,-0.16984 -0.19842,0.39549 -0.12498,0.12209 -0.26483,0.31916 -0.31081,0.43799 -0.0809,0.20878 -0.0824,0.24468 -0.018,0.40394 0.0164,0.0406 -0.007,0.0888 -0.0529,0.10716 -0.0571,0.0231 -0.0683,-0.0126 -0.0353,-0.11437 0.03,-0.0947 0.0185,-0.13624 -0.0321,-0.11575 -0.0434,0.0176 -0.0894,0.10389 -0.10198,0.19144 -0.0197,0.13714 -0.03,0.14305 -0.0732,0.042 z"
     id="path960-5-3"
     sodipodi:nodetypes="csscsssssssscssssscscsssssssssscssscsscccsscssssscsscsssssssssscsssssssccsscsssscssscsccsssssssssscsssssssscsscsscccssssscsscscsccssscssscsscscccscsccccscsssssscssscccsssscsscc" />
  <path
     style="fill:#000000;stroke-width:0.999997"
     d="m 340.2668,24.85974 c 0.0215,-0.008 0.13383,0.55076 0.24978,1.24484 0.37224,2.22722 0.96208,5.47355 1.02806,5.65812 0.0384,0.10742 0.13028,0.18779 0.22985,0.20085 0.13636,0.0183 0.18225,0.13579 0.25803,0.66337 0.0508,0.35281 0.14988,0.91303 0.22042,1.24503 0.0705,0.33196 0.0964,0.68524 0.0577,0.78504 -0.0386,0.0997 -0.0513,0.29603 -0.0286,0.43599 0.0553,0.33577 -0.0667,0.45343 -0.40485,0.3902 -0.53764,-0.10004 -0.65374,0.1362 -0.65413,1.33288 -2.9e-4,0.86308 -0.0666,1.01675 -0.42837,0.99246 -0.21562,-0.0144 -0.31724,-0.0593 -0.41994,-0.18193 -0.15813,-0.19005 -0.61653,-0.39073 -0.75671,-0.33128 -0.0532,0.0227 -0.4563,0.0765 -0.89537,0.11954 -0.89794,0.0882 -1.73893,0.30354 -1.80007,0.461 -0.0548,0.1409 0.18774,0.31039 0.79699,0.55721 0.46931,0.19045 0.57184,0.19882 1.38056,0.11804 0.48044,-0.0481 0.88667,-0.0823 0.90279,-0.076 0.0162,0.005 -0.0371,0.23503 -0.1193,0.50825 -0.14589,0.4886 -0.13066,0.93042 0.0345,0.99453 0.0462,0.0178 0.0475,-0.0623 0.004,-0.17829 -0.0626,-0.16356 -0.0322,-0.35276 0.13489,-0.84347 0.13515,-0.39665 0.18503,-0.64442 0.13328,-0.66451 -0.0452,-0.0177 -0.50426,-10e-4 -1.02019,0.0348 -0.84472,0.0602 -0.98033,0.0479 -1.36296,-0.12397 -0.23369,-0.10493 -0.40804,-0.21921 -0.38743,-0.25375 0.0202,-0.0346 0.37944,-0.12563 0.7974,-0.20226 0.72332,-0.13264 0.80138,-0.12884 1.62029,0.0783 1.26656,0.32026 1.65578,0.48855 1.94796,0.84202 0.1352,0.16339 0.27648,0.40979 0.31399,0.54743 0.0788,0.28852 -0.0594,0.70811 -0.29896,0.90828 l -0.16521,0.13813 0.0371,-0.24165 c 0.0625,-0.41359 -0.19986,0.2825 -0.5979,1.58747 -0.43012,1.40995 -0.76349,2.04005 -1.22978,2.32523 l -0.2967,0.18144 -0.0658,-0.35216 c -0.0364,-0.19369 -0.0895,-0.57542 -0.11841,-0.84831 l -0.0525,-0.49614 0.38452,-0.52766 0.38452,-0.52768 0.11248,-0.80858 c 0.062,-0.44469 0.0759,-0.75388 0.0313,-0.68697 -0.0446,0.0668 -0.0854,0.23725 -0.0901,0.37859 -0.0197,0.56571 -0.25352,1.18522 -0.58538,1.55215 -0.17274,0.19101 -0.3515,0.44331 -0.39713,0.5607 -0.0825,0.21224 0.0444,1.70438 0.16281,1.91754 0.0894,0.1608 0.34035,0.1107 0.71501,-0.1424 0.51722,-0.34961 0.80783,-0.93486 1.20615,-2.42904 l 0.33534,-1.25793 0.2873,-0.23634 c 0.3484,-0.28657 0.51968,-0.80302 0.38079,-1.14847 l -0.0889,-0.22116 0.53168,-0.6894 c 0.29241,-0.37913 0.65211,-0.77697 0.79933,-0.88404 0.24545,-0.17853 0.28774,-0.25648 0.50982,-0.93978 0.17145,-0.52754 0.21708,-0.76784 0.15643,-0.82291 -0.0472,-0.0427 -0.0736,-0.10919 -0.0589,-0.14718 0.0149,-0.0379 0.10767,0.0691 0.20602,0.23843 0.19494,0.33507 0.16167,0.54205 -0.11703,0.72841 -0.19501,0.13041 -0.14822,0.18813 0.0948,0.11702 0.22803,-0.0666 0.46393,-0.29456 0.47429,-0.45823 0.008,-0.15108 -0.3955,-0.76689 -0.54182,-0.8237 -0.0464,-0.0178 -0.0896,-0.12473 -0.0961,-0.23713 -0.006,-0.11247 -0.10945,-0.30779 -0.22901,-0.43421 -0.11955,-0.1265 -0.20746,-0.25527 -0.19543,-0.28626 0.0126,-0.0308 -0.0548,-0.55853 -0.14835,-1.17232 -0.15919,-1.04347 -0.15903,-1.12772 0.002,-1.29632 0.19395,-0.20272 0.17056,-0.4184 -0.16877,-1.54814 -0.15475,-0.51545 -0.15946,-0.67279 -0.0427,-1.42431 0.1675,-1.07699 0.16351,-1.38693 -0.0184,-1.45781 -0.1041,-0.0404 -0.17862,-0.32488 -0.27934,-1.06832 -3.3804,-1.49431 -2.75988,-1.37324 -2.75988,-1.37324 z m 1.51071,13.06696 c 0.13348,-0.24308 0.13865,-0.36037 0.0322,-0.86537 -0.12082,-0.57832 -0.0965,-1.16145 0.0559,-1.32919 0.15039,-0.1658 0.2107,-0.034 0.11259,0.2462 l -0.0986,0.28168 0.18582,-0.24777 c 0.17356,-0.23152 0.20457,-0.24052 0.47163,-0.13682 0.17116,0.0663 0.31674,0.077 0.36283,0.0262 0.0628,-0.0694 0.14167,-0.0416 0.42911,0.15139 l 0.35206,0.23635 -0.11488,0.36371 c -0.0792,0.25141 -0.1665,0.3896 -0.28227,0.44763 -0.0921,0.0463 -0.3642,0.38759 -0.60462,0.75867 -0.24037,0.37111 -0.4652,0.70981 -0.4994,0.7527 -0.0457,0.0574 -0.12781,0.0144 -0.30955,-0.16277 -0.24023,-0.23398 -0.24288,-0.24894 -0.093,-0.52222 z m -0.37413,-0.27599 c 0.048,-0.12359 0.0856,-0.36817 0.0834,-0.54352 -0.004,-0.29418 7.1e-4,-0.30369 0.0576,-0.12422 0.0952,0.30211 0.0916,0.7374 -0.006,0.84581 -0.14878,0.16407 -0.2268,0.0606 -0.13417,-0.17803 z m 0.18696,-1.95112 c 0.0464,-0.0641 0.0391,-2.6e-4 -0.0169,0.14285 -0.0553,0.14271 -0.0934,0.19514 -0.0843,0.11664 0.008,-0.0786 0.0544,-0.19536 0.1007,-0.25952 z m 0.91485,-0.006 c 0.18329,-0.0378 0.42892,0.0575 0.33364,0.12956 -0.041,0.031 -0.16418,0.0208 -0.27369,-0.0222 -0.15569,-0.0615 -0.16878,-0.0846 -0.06,-0.10729 z m 0.93604,0.15012 c -0.29068,-0.2797 -0.58569,-0.38958 -0.86324,-0.32139 -0.22239,0.0547 -0.22288,0.0538 -0.0858,-0.13965 0.27395,-0.38677 0.39939,-0.38046 1.07968,0.0542 0.36258,0.23165 0.38206,0.26116 0.30496,0.45972 -0.0948,0.24403 -0.13166,0.23953 -0.43552,-0.053 z m -0.92956,-1.04565 c 0.0247,-0.0621 0.14894,-0.11234 0.27751,-0.11146 0.12853,7.4e-4 0.38103,-0.0408 0.56121,-0.093 l 0.3276,-0.0946 0.11918,0.31802 c 0.17527,0.46734 0.12371,0.49984 -0.38473,0.24272 -0.3445,-0.17422 -0.48955,-0.21232 -0.63872,-0.16785 -0.24607,0.0734 -0.31722,0.0479 -0.26223,-0.0936 z m -0.11992,-1.58022 c -0.11007,-0.60583 -0.18702,-1.13482 -0.171,-1.17554 0.0231,-0.0603 0.2951,-0.10345 0.82385,-0.13155 0.0637,-0.004 0.39637,2.02168 0.36995,2.25135 -0.0211,0.18349 -0.49572,0.34537 -0.68821,0.23467 -0.0872,-0.0499 -0.20507,-0.46599 -0.33459,-1.17892 z m -0.7643,-2.31167 -0.13423,-0.70183 0.40986,-0.0288 c 0.49939,-0.0351 0.77333,-0.11967 0.92594,-0.28598 0.10615,-0.11552 0.12683,-0.0936 0.25484,0.26959 0.21822,0.61915 0.33248,1.26931 0.24078,1.37041 -0.10995,0.12119 -1.25477,0.24118 -1.4281,0.14967 -0.0833,-0.0432 -0.18662,-0.34168 -0.26911,-0.77303 z m -0.40271,-2.174 -0.21327,-1.25094 0.41312,-0.0303 c 0.41136,-0.0302 1.30821,-0.37163 1.14382,-0.43546 -0.0476,-0.0181 -0.4226,0.0443 -0.83363,0.1394 l -0.74729,0.17295 -0.20864,-1.20538 c -0.30964,-1.78886 -0.31297,-1.65679 0.055,-2.18775 l 1.61814,0.51871 c 0,0 -1.58612,0.0443 -1.45342,0.28733 0.0264,-0.0114 1.78342,2.05539 1.75438,1.75782 -0.0289,-0.29757 -0.0404,-0.53625 -0.0256,-0.53043 0.0153,0.005 0.0919,0.30443 0.17082,0.66356 0.079,0.35915 0.10754,0.63902 0.0637,0.62196 -0.13296,-0.0517 -0.90973,0.15923 -0.94784,0.25736 -0.0198,0.0502 0.055,0.60471 0.16572,1.23197 0.11071,0.62724 0.16351,1.1386 0.11741,1.13636 -0.046,-0.002 -0.22431,0.0316 -0.39596,0.075 -0.17162,0.0433 -0.34607,0.0677 -0.38764,0.054 -0.0413,-0.0143 -0.17154,-0.58803 -0.28883,-1.27603 z m 1.1998,-0.0778 c -0.0893,-0.51029 -0.13091,-0.96234 -0.0927,-1.00449 0.0947,-0.10431 0.82279,-0.16314 0.86273,-0.0696 0.0176,0.0412 -0.0281,0.48733 -0.10156,0.99139 -0.10303,0.70692 -0.16258,0.93254 -0.26017,0.98679 -0.0694,0.0387 -0.15344,0.0601 -0.18641,0.0471 -0.033,-0.0128 -0.13293,-0.44078 -0.22209,-0.95108 z m -0.46848,11.08316 c 0.0798,-0.19526 -0.0819,-0.7207 -0.30046,-0.97376 -0.11791,-0.1365 -0.34829,-0.2908 -0.54173,-0.36261 -0.36798,-0.13741 -0.38272,-0.1644 0.2041,0.39257 0.12672,0.12031 0.2694,0.31531 0.31711,0.43346 0.0838,0.20759 0.0858,0.24347 0.0238,0.40365 -0.0156,0.041 0.008,0.0887 0.0545,0.10641 0.0575,0.0224 0.0681,-0.0137 0.0335,-0.11488 -0.0314,-0.0942 -0.0204,-0.13593 0.03,-0.11626 0.0437,0.0174 0.0908,0.10262 0.10473,0.18998 0.0217,0.1368 0.032,0.14258 0.0738,0.0408 z"
     id="path960-5-3-1"
     sodipodi:nodetypes="csscsssssssscssssscscsssssssssscssscsscccsscssssscsscsssssssssscsssssssccsscsssscssscsccsssssssssscsssssssscsscsscccssssscsscscsccssscssscsscscccscsccccscsssssscssscccsssscsscc" />
</svg>
