<?xml version="1.0" encoding="UTF-8" standalone="no"?>
<svg
   xmlns:dc="http://purl.org/dc/elements/1.1/"
   xmlns:cc="http://creativecommons.org/ns#"
   xmlns:rdf="http://www.w3.org/1999/02/22-rdf-syntax-ns#"
   xmlns:svg="http://www.w3.org/2000/svg"
   xmlns="http://www.w3.org/2000/svg"
   xmlns:sodipodi="http://sodipodi.sourceforge.net/DTD/sodipodi-0.dtd"
   xmlns:inkscape="http://www.inkscape.org/namespaces/inkscape"
   height="393.93195mm"
   viewBox="0 0 356.71462 393.93195"
   width="356.7146mm"
   version="1.1"
   id="svg71"
   sodipodi:docname="ESP-Cam Holder WOOD BOX.svg"
   inkscape:version="1.0.2-2 (e86c870879, 2021-01-15)">
  <defs
     id="defs75" />
  <sodipodi:namedview
     pagecolor="#ffffff"
     bordercolor="#666666"
     borderopacity="1"
     objecttolerance="10"
     gridtolerance="10"
     guidetolerance="10"
     inkscape:pageopacity="0"
     inkscape:pageshadow="2"
     inkscape:window-width="1920"
     inkscape:window-height="1137"
     id="namedview73"
     showgrid="false"
     fit-margin-left="1"
     fit-margin-top="1"
     fit-margin-bottom="1"
     fit-margin-right="1"
     inkscape:zoom="0.49344227"
     inkscape:cx="440.37533"
     inkscape:cy="668.78011"
     inkscape:window-x="-8"
     inkscape:window-y="-8"
     inkscape:window-maximized="1"
     inkscape:current-layer="svg71" />
  <!--
IntegratedHingeBox - Box with lid and integraded hinge

Created with Boxes.py (https://festi.info/boxes.py)
Creation date: 2022-03-08 12:03:43
Command line (remove spaces between dashes): boxes IntegratedHingeBox - -FingerJoint_angle=90.0 - -FingerJoint_style=rectangular - -FingerJoint_surroundingspaces=2.0 - -FingerJoint_edge_width=1.0 - -FingerJoint_extra_length=0.0 - -FingerJoint_finger=2.0 - -FingerJoint_play=0.0 - -FingerJoint_space=2.0 - -FingerJoint_width=1.0 - -ChestHinge_hinge_strength=1.0 - -ChestHinge_pin_height=2.0 - -ChestHinge_play=0.1 - -x=100.0 - -y=100.0 - -h=170 - -outside=0 - -lidheight=40 - -thickness=4 - -format=svg - -tabs=0.0 - -debug=0 - -labels=0 - -labels=1 - -reference=100 - -burn=0.2
Url: http://www.festi.info/IntegratedHingeBox?FingerJoint_angle=90.0&FingerJoint_style=rectangular&FingerJoint_surroundingspaces=2.0&FingerJoint_edge_width=1.0&FingerJoint_extra_length=0.0&FingerJoint_finger=2.0&FingerJoint_play=0.0&FingerJoint_space=2.0&FingerJoint_width=1.0&ChestHinge_hinge_strength=1.0&ChestHinge_pin_height=2.0&ChestHinge_play=0.1&x=100.0&y=100.0&h=170&outside=0&lidheight=40&thickness=4&format=svg&tabs=0.0&debug=0&labels=0&labels=1&reference=100&burn=0.2&render=1
SettingsUrl: http://www.festi.info/IntegratedHingeBox?FingerJoint_angle=90.0&FingerJoint_style=rectangular&FingerJoint_surroundingspaces=2.0&FingerJoint_edge_width=1.0&FingerJoint_extra_length=0.0&FingerJoint_finger=2.0&FingerJoint_play=0.0&FingerJoint_space=2.0&FingerJoint_width=1.0&ChestHinge_hinge_strength=1.0&ChestHinge_pin_height=2.0&ChestHinge_play=0.1&x=100.0&y=100.0&h=170&outside=0&lidheight=40&thickness=4&format=svg&tabs=0.0&debug=0&labels=0&labels=1&reference=100&burn=0.2
-->
  <title
     id="title2">IntegratedHingeBox</title>
  <metadata
     id="metadata4">
    <rdf:RDF>
      <cc:Work>
        <dc:title>IntegratedHingeBox</dc:title>
        <dc:date>2022-03-08 12:03:43</dc:date>
        <dc:source>http://www.festi.info/IntegratedHingeBox?FingerJoint_angle=90.0&amp;FingerJoint_style=rectangular&amp;FingerJoint_surroundingspaces=2.0&amp;FingerJoint_edge_width=1.0&amp;FingerJoint_extra_length=0.0&amp;FingerJoint_finger=2.0&amp;FingerJoint_play=0.0&amp;FingerJoint_space=2.0&amp;FingerJoint_width=1.0&amp;ChestHinge_hinge_strength=1.0&amp;ChestHinge_pin_height=2.0&amp;ChestHinge_play=0.1&amp;x=100.0&amp;y=100.0&amp;h=170&amp;outside=0&amp;lidheight=40&amp;thickness=4&amp;format=svg&amp;tabs=0.0&amp;debug=0&amp;labels=0&amp;labels=1&amp;reference=100&amp;burn=0.2&amp;render=1</dc:source>
        <dc:description>Box with lid and integraded hinge

Created with Boxes.py (https://festi.info/boxes.py)
Command line: boxes IntegratedHingeBox --FingerJoint_angle=90.0 --FingerJoint_style=rectangular --FingerJoint_surroundingspaces=2.0 --FingerJoint_edge_width=1.0 --FingerJoint_extra_length=0.0 --FingerJoint_finger=2.0 --FingerJoint_play=0.0 --FingerJoint_space=2.0 --FingerJoint_width=1.0 --ChestHinge_hinge_strength=1.0 --ChestHinge_pin_height=2.0 --ChestHinge_play=0.1 --x=100.0 --y=100.0 --h=170 --outside=0 --lidheight=40 --thickness=4 --format=svg --tabs=0.0 --debug=0 --labels=0 --labels=1 --reference=100 --burn=0.2
Url: http://www.festi.info/IntegratedHingeBox?FingerJoint_angle=90.0&amp;FingerJoint_style=rectangular&amp;FingerJoint_surroundingspaces=2.0&amp;FingerJoint_edge_width=1.0&amp;FingerJoint_extra_length=0.0&amp;FingerJoint_finger=2.0&amp;FingerJoint_play=0.0&amp;FingerJoint_space=2.0&amp;FingerJoint_width=1.0&amp;ChestHinge_hinge_strength=1.0&amp;ChestHinge_pin_height=2.0&amp;ChestHinge_play=0.1&amp;x=100.0&amp;y=100.0&amp;h=170&amp;outside=0&amp;lidheight=40&amp;thickness=4&amp;format=svg&amp;tabs=0.0&amp;debug=0&amp;labels=0&amp;labels=1&amp;reference=100&amp;burn=0.2&amp;render=1
SettingsUrl: http://www.festi.info/IntegratedHingeBox?FingerJoint_angle=90.0&amp;FingerJoint_style=rectangular&amp;FingerJoint_surroundingspaces=2.0&amp;FingerJoint_edge_width=1.0&amp;FingerJoint_extra_length=0.0&amp;FingerJoint_finger=2.0&amp;FingerJoint_play=0.0&amp;FingerJoint_space=2.0&amp;FingerJoint_width=1.0&amp;ChestHinge_hinge_strength=1.0&amp;ChestHinge_pin_height=2.0&amp;ChestHinge_play=0.1&amp;x=100.0&amp;y=100.0&amp;h=170&amp;outside=0&amp;lidheight=40&amp;thickness=4&amp;format=svg&amp;tabs=0.0&amp;debug=0&amp;labels=0&amp;labels=1&amp;reference=100&amp;burn=0.2
</dc:description>
        <dc:format>image/svg+xml</dc:format>
        <dc:type
           rdf:resource="http://purl.org/dc/dcmitype/StillImage" />
      </cc:Work>
    </rdf:RDF>
  </metadata>
  <g
     id="p-1"
     style="fill:none;stroke-width:0.01;stroke-linecap:round;stroke-linejoin:round;stroke-miterlimit:4;stroke-dasharray:none"
     transform="translate(225.54362,-932.19496)">
    <text
       alignment-baseline="hanging"
       font-size="4px"
       style="font-style:normal;font-weight:normal;font-family:sans-serif;fill:#ff0000;stroke-width:0.01;stroke-miterlimit:4;stroke-dasharray:none"
       text-anchor="middle"
       transform="translate(75.966,1030.6)"
       id="text13" />
    <path
       d="m 25.966,1119.6 h 14 c 0.11,0 0.2,-0.09 0.2,-0.2 v -3.8 c 0,-0.2 -0.2,0 0,0 h 7.6 c 0.2,0 0,-0.2 0,0 v 3.8 c 0,0.11 0.089,0.2 0.2,0.2 h 8 c 0.11,0 0.2,-0.09 0.2,-0.2 v -3.8 c 0,-0.2 -0.2,0 0,0 h 7.6 c 0.2,0 0,-0.2 0,0 v 3.8 c 0,0.11 0.089,0.2 0.2,0.2 h 8 c 0.11,0 0.2,-0.09 0.2,-0.2 v -3.8 c 0,-0.2 -0.2,0 0,0 h 7.6 c 0.2,0 0,-0.2 0,0 v 3.8 c 0,0.11 0.089,0.2 0.2,0.2 h 8 c 0.11,0 0.2,-0.09 0.2,-0.2 v -3.8 c 0,-0.2 -0.2,0 0,0 h 7.6 c 0.2,0 0,-0.2 0,0 v 3.8 c 0,0.11 0.089,0.2 0.2,0.2 h 8 c 0.11,0 0.2,-0.09 0.2,-0.2 v -3.8 c 0,-0.2 -0.2,0 0,0 h 7.6 c 0.2,0 0,-0.2 0,0 v 3.8 c 0,0.11 0.089,0.2 0.2,0.2 h 14 c 0.11,0 0.2,-0.09 0.2,-0.2 v -4 -8.8 c 0,-0.2 -0.2,0 0,0 h 3.8 c 0.11,0 0.2,-0.09 0.2,-0.2 v -8 c 0,-0.11 -0.09,-0.2 -0.2,-0.2 h -3.8 c -0.2,0 0,0.2 0,0 v -7.6 c 0,-0.2 -0.2,0 0,0 h 3.8 c 0.11,0 0.2,-0.09 0.2,-0.2 v -8 c 0,-0.11 -0.09,-0.2 -0.2,-0.2 h -3.8 c -0.2,0 0,0.2 0,0 v -7.6 c 0,-0.2 -0.2,0 0,0 h 3.8 c 0.11,0 0.2,-0.09 0.2,-0.2 v -8 c 0,-0.11 -0.09,-0.2 -0.2,-0.2 h -3.8 c -0.2,0 0,0.2 0,0 v -7.6 c 0,-0.2 -0.2,0 0,0 h 3.8 c 0.11,0 0.2,-0.09 0.2,-0.2 v -8 c 0,-0.11 -0.09,-0.2 -0.2,-0.2 h -3.8 c -0.2,0 0,0.2 0,0 v -7.6 c 0,-0.2 -0.2,0 0,0 h 3.8 c 0.11,0 0.2,-0.09 0.2,-0.2 v -8 c 0,-0.11 -0.09,-0.2 -0.2,-0.2 h -3.8 c -0.2,0 0,0.2 0,0 v -7.6 c 0,-0.2 -0.2,0 0,0 h 3.8 c 0.11,0 0.2,-0.09 0.2,-0.2 v -8 c 0,-0.11 -0.09,-0.2 -0.2,-0.2 h -3.8 c -0.2,0 0,0.2 0,0 v -7.6 c 0,-0.2 -0.2,0 0,0 h 3.8 c 0.11,0 0.2,-0.09 0.2,-0.2 v -8 c 0,-0.11 -0.09,-0.2 -0.2,-0.2 h -3.8 c -0.2,0 0,0.2 0,0 v -7.6 c 0,-0.2 -0.2,0 0,0 h 3.8 c 0.11,0 0.2,-0.09 0.2,-0.2 v -8 c 0,-0.11 -0.09,-0.2 -0.2,-0.2 h -3.8 c -0.2,0 0,0.2 0,0 v -7.6 c 0,-0.2 -0.2,0 0,0 h 3.8 c 0.11,0 0.2,-0.09 0.2,-0.2 v -8 c 0,-0.11 -0.09,-0.2 -0.2,-0.2 h -3.8 c -0.2,0 0,0.2 0,0 v -7.6 c 0,-0.2 -0.2,0 0,0 h 3.8 c 0.11,0 0.2,-0.09 0.2,-0.2 v -8 c 0,-0.11 -0.09,-0.2 -0.2,-0.2 h -3.8 c -0.2,0 0,0.2 0,0 v -8.8 c 0,-0.11 -0.09,-0.2 -0.2,-0.2 h -92 c 0.11,0 0.2,0.09 0.2,0.2 0,-2.413 -0.716,-4.772 -2.056,-6.778 -1.341,-2.006 -3.246,-3.57 -5.476,-4.493 -2.229,-0.924 -4.682,-1.165 -7.049,-0.695 -2.366,0.471 -4.54,1.633 -6.246,3.339 -1.706,1.706 -2.868,3.88 -3.339,6.247 -0.471,2.366 -0.229,4.819 0.694,7.049 0.924,2.229 2.487,4.134 4.494,5.475 2.006,1.34 4.365,2.056 6.778,2.056 h 4 c -0.036,0 -0.07,-0.009 -0.1,-0.027 -0.031,-0.017 -0.056,-0.043 -0.074,-0.073 -0.017,-0.03 -0.026,-0.065 -0.026,-0.1 0,-0.035 0.009,-0.07 0.026,-0.1 0.018,-0.03 0.043,-0.056 0.074,-0.073 0.03,-0.018 0.064,-0.027 0.1,-0.027 -0.111,0 -0.2,0.09 -0.2,0.2 v 10.8 c 0,0.2 0.2,0 0,0 h -3.8 c -0.111,0 -0.2,0.09 -0.2,0.2 v 8 c 0,0.11 0.089,0.2 0.2,0.2 h 3.8 c 0.2,0 0,-0.2 0,0 v 7.6 c 0,0.2 0.2,0 0,0 h -3.8 c -0.111,0 -0.2,0.09 -0.2,0.2 v 8 c 0,0.11 0.089,0.2 0.2,0.2 h 3.8 c 0.2,0 0,-0.2 0,0 v 7.6 c 0,0.2 0.2,0 0,0 h -3.8 c -0.111,0 -0.2,0.09 -0.2,0.2 v 8 c 0,0.11 0.089,0.2 0.2,0.2 h 3.8 c 0.2,0 0,-0.2 0,0 v 7.6 c 0,0.2 0.2,0 0,0 h -3.8 c -0.111,0 -0.2,0.09 -0.2,0.2 v 8 c 0,0.11 0.089,0.2 0.2,0.2 h 3.8 c 0.2,0 0,-0.2 0,0 v 7.6 c 0,0.2 0.2,0 0,0 h -3.8 c -0.111,0 -0.2,0.09 -0.2,0.2 v 8 c 0,0.11 0.089,0.2 0.2,0.2 h 3.8 c 0.2,0 0,-0.2 0,0 v 7.6 c 0,0.2 0.2,0 0,0 h -3.8 c -0.111,0 -0.2,0.09 -0.2,0.2 v 8 c 0,0.11 0.089,0.2 0.2,0.2 h 3.8 c 0.2,0 0,-0.2 0,0 v 7.6 c 0,0.2 0.2,0 0,0 h -3.8 c -0.111,0 -0.2,0.09 -0.2,0.2 v 8 c 0,0.11 0.089,0.2 0.2,0.2 h 3.8 c 0.2,0 0,-0.2 0,0 v 7.6 c 0,0.2 0.2,0 0,0 h -3.8 c -0.111,0 -0.2,0.09 -0.2,0.2 v 8 c 0,0.11 0.089,0.2 0.2,0.2 h 3.8 c 0.2,0 0,-0.2 0,0 v 7.6 c 0,0.2 0.2,0 0,0 h -3.8 c -0.111,0 -0.2,0.09 -0.2,0.2 v 8 c 0,0.11 0.089,0.2 0.2,0.2 h 3.8 c 0.2,0 0,-0.2 0,0 v 10.8 4 c 0,0.11 0.089,0.2 0.2,0.2"
       stroke="#000000"
       stroke-width="0.4"
       id="path15"
       style="stroke-width:0.01;stroke-miterlimit:4;stroke-dasharray:none" />
    <path
       d="m 14.166,945.2 c 0,-1.495 0.429,-2.959 1.238,-4.217 0.808,-1.258 1.961,-2.257 3.321,-2.878 1.361,-0.621 2.871,-0.838 4.351,-0.626 1.48,0.213 2.867,0.847 3.997,1.826 1.131,0.979 1.955,2.263 2.377,3.697 0.421,1.435 0.421,2.961 0,4.396 -0.422,1.434 -1.246,2.718 -2.377,3.697 -1.13,0.979 -2.517,1.613 -3.997,1.826 -1.48,0.212 -2.99,-0.005 -4.351,-0.626 -1.36,-0.621 -2.513,-1.62 -3.321,-2.878 -0.809,-1.258 -1.238,-2.722 -1.238,-4.217 z"
       stroke="#0000ff"
       stroke-width="0.4"
       id="path17"
       style="stroke-width:0.01;stroke-miterlimit:4;stroke-dasharray:none" />
    <path
       d="m 23.966,939.413 h 1.8 c 0.2,0 0,-0.2 0,0 V 945 c 0,0.2 0.2,0 0,0 h -3.6 c -0.2,0 0,0.2 0,0 v -5.587 c 0,-0.2 -0.2,0 0,0 z"
       stroke="#0000ff"
       stroke-width="0.4"
       id="path19"
       style="stroke-width:0.01;stroke-miterlimit:4;stroke-dasharray:none" />
  </g>
  <g
     id="p-2"
     style="fill:none;stroke-width:0.01;stroke-linecap:round;stroke-linejoin:round;stroke-miterlimit:4;stroke-dasharray:none"
     transform="translate(98.14624,-716.7615)">
    <text
       alignment-baseline="hanging"
       font-size="4px"
       style="font-style:normal;font-weight:normal;font-family:sans-serif;fill:#ff0000;stroke-width:0.01;stroke-miterlimit:4;stroke-dasharray:none"
       text-anchor="middle"
       transform="translate(75.966,919.2)"
       id="text22" />
    <path
       d="m 25.966,930.8 c -0.036,0 -0.07,-0.009 -0.1,-0.027 -0.031,-0.017 -0.056,-0.043 -0.074,-0.073 -0.017,-0.03 -0.026,-0.065 -0.026,-0.1 0,-0.035 0.009,-0.07 0.026,-0.1 0.018,-0.03 0.043,-0.056 0.074,-0.073 0.03,-0.018 0.064,-0.027 0.1,-0.027 h -4 c 0.035,0 0.069,0.009 0.1,0.027 0.03,0.017 0.055,0.043 0.073,0.073 0.017,0.03 0.027,0.065 0.027,0.1 0,0.035 -0.01,0.07 -0.027,0.1 -0.018,0.03 -0.043,0.056 -0.073,0.073 -0.031,0.018 -0.065,0.027 -0.1,0.027 2.141,0 4.245,0.564 6.1,1.634 1.854,1.071 3.394,2.611 4.465,4.466 1.071,1.855 1.635,3.958 1.635,6.1 0,0.11 0.089,0.2 0.2,0.2 h 91.6 c 0.11,0 0.2,-0.09 0.2,-0.2 v -7.8 c 0,-0.2 -0.2,0 0,0 h 3.8 c 0.11,0 0.2,-0.09 0.2,-0.2 v -8 c 0,-0.11 -0.09,-0.2 -0.2,-0.2 h -3.8 c -0.2,0 0,0.2 0,0 v -7.6 c 0,-0.2 -0.2,0 0,0 h 3.8 c 0.11,0 0.2,-0.09 0.2,-0.2 v -8 c 0,-0.11 -0.09,-0.2 -0.2,-0.2 h -3.8 c -0.2,0 0,0.2 0,0 v -7.8 -4 c 0,-0.11 -0.09,-0.2 -0.2,-0.2 h -14 c -0.111,0 -0.2,0.09 -0.2,0.2 v 3.8 c 0,0.2 0.2,0 0,0 h -7.6 c -0.2,0 0,0.2 0,0 V 899 c 0,-0.11 -0.09,-0.2 -0.2,-0.2 h -8 c -0.111,0 -0.2,0.09 -0.2,0.2 v 3.8 c 0,0.2 0.2,0 0,0 h -7.6 c -0.2,0 0,0.2 0,0 V 899 c 0,-0.11 -0.09,-0.2 -0.2,-0.2 h -8 c -0.111,0 -0.2,0.09 -0.2,0.2 v 3.8 c 0,0.2 0.2,0 0,0 h -7.6 c -0.2,0 0,0.2 0,0 V 899 c 0,-0.11 -0.09,-0.2 -0.2,-0.2 h -8 c -0.111,0 -0.2,0.09 -0.2,0.2 v 3.8 c 0,0.2 0.2,0 0,0 h -7.6 c -0.2,0 0,0.2 0,0 V 899 c 0,-0.11 -0.09,-0.2 -0.2,-0.2 h -8 c -0.111,0 -0.2,0.09 -0.2,0.2 v 3.8 c 0,0.2 0.2,0 0,0 h -7.6 c -0.2,0 0,0.2 0,0 V 899 c 0,-0.11 -0.09,-0.2 -0.2,-0.2 h -14 c -0.111,0 -0.2,0.09 -0.2,0.2 v 4 9.6 c 0,0.2 0.2,0 0,0 h -3.8 c -0.111,0 -0.2,0.09 -0.2,0.2 v 8 c 0,0.11 0.089,0.2 0.2,0.2 h 3.8 c 0.2,0 0,-0.2 0,0 v 9.6 c 0,0.11 0.089,0.2 0.2,0.2"
       stroke="#000000"
       stroke-width="0.4"
       id="path24"
       style="stroke-width:0.01;stroke-miterlimit:4;stroke-dasharray:none" />
  </g>
  <g
     id="p-3"
     style="fill:none;stroke-width:0.01;stroke-linecap:round;stroke-linejoin:round;stroke-miterlimit:4;stroke-dasharray:none"
     transform="translate(213.5441,-519.90881)">
    <text
       alignment-baseline="hanging"
       font-size="4px"
       style="font-style:normal;font-weight:normal;font-family:sans-serif;fill:#ff0000;stroke-width:0.01;stroke-miterlimit:4;stroke-dasharray:none"
       text-anchor="middle"
       transform="translate(75.966,807.8)"
       id="text27" />
    <path
       d="m 25.966,896.8 h 14 c 0.11,0 0.2,-0.09 0.2,-0.2 v -3.8 c 0,-0.2 -0.2,0 0,0 h 7.6 c 0.2,0 0,-0.2 0,0 v 3.8 c 0,0.11 0.089,0.2 0.2,0.2 h 8 c 0.11,0 0.2,-0.09 0.2,-0.2 v -3.8 c 0,-0.2 -0.2,0 0,0 h 7.6 c 0.2,0 0,-0.2 0,0 v 3.8 c 0,0.11 0.089,0.2 0.2,0.2 h 8 c 0.11,0 0.2,-0.09 0.2,-0.2 v -3.8 c 0,-0.2 -0.2,0 0,0 h 7.6 c 0.2,0 0,-0.2 0,0 v 3.8 c 0,0.11 0.089,0.2 0.2,0.2 h 8 c 0.11,0 0.2,-0.09 0.2,-0.2 v -3.8 c 0,-0.2 -0.2,0 0,0 h 7.6 c 0.2,0 0,-0.2 0,0 v 3.8 c 0,0.11 0.089,0.2 0.2,0.2 h 8 c 0.11,0 0.2,-0.09 0.2,-0.2 v -3.8 c 0,-0.2 -0.2,0 0,0 h 7.6 c 0.2,0 0,-0.2 0,0 v 3.8 c 0,0.11 0.089,0.2 0.2,0.2 h 14 c 0.11,0 0.2,-0.09 0.2,-0.2 v -4 -10.8 c 0,-0.2 -0.2,0 0,0 h 3.8 c 0.11,0 0.2,-0.09 0.2,-0.2 v -8 c 0,-0.11 -0.09,-0.2 -0.2,-0.2 h -3.8 c -0.2,0 0,0.2 0,0 v -7.6 c 0,-0.2 -0.2,0 0,0 h 3.8 c 0.11,0 0.2,-0.09 0.2,-0.2 v -8 c 0,-0.11 -0.09,-0.2 -0.2,-0.2 h -3.8 c -0.2,0 0,0.2 0,0 v -7.6 c 0,-0.2 -0.2,0 0,0 h 3.8 c 0.11,0 0.2,-0.09 0.2,-0.2 v -8 c 0,-0.11 -0.09,-0.2 -0.2,-0.2 h -3.8 c -0.2,0 0,0.2 0,0 v -7.6 c 0,-0.2 -0.2,0 0,0 h 3.8 c 0.11,0 0.2,-0.09 0.2,-0.2 v -8 c 0,-0.11 -0.09,-0.2 -0.2,-0.2 h -3.8 c -0.2,0 0,0.2 0,0 v -7.6 c 0,-0.2 -0.2,0 0,0 h 3.8 c 0.11,0 0.2,-0.09 0.2,-0.2 v -8 c 0,-0.11 -0.09,-0.2 -0.2,-0.2 h -3.8 c -0.2,0 0,0.2 0,0 v -7.6 c 0,-0.2 -0.2,0 0,0 h 3.8 c 0.11,0 0.2,-0.09 0.2,-0.2 v -8 c 0,-0.11 -0.09,-0.2 -0.2,-0.2 h -3.8 c -0.2,0 0,0.2 0,0 v -7.6 c 0,-0.2 -0.2,0 0,0 h 3.8 c 0.11,0 0.2,-0.09 0.2,-0.2 v -8 c 0,-0.11 -0.09,-0.2 -0.2,-0.2 h -3.8 c -0.2,0 0,0.2 0,0 v -7.6 c 0,-0.2 -0.2,0 0,0 h 3.8 c 0.11,0 0.2,-0.09 0.2,-0.2 v -8 c 0,-0.11 -0.09,-0.2 -0.2,-0.2 h -3.8 c -0.2,0 0,0.2 0,0 v -7.6 c 0,-0.2 -0.2,0 0,0 h 3.8 c 0.11,0 0.2,-0.09 0.2,-0.2 v -8 c 0,-0.11 -0.09,-0.2 -0.2,-0.2 h -3.8 c -0.2,0 0,0.2 0,0 v -10.8 c 0,-0.11 -0.09,-0.2 -0.2,-0.2 0.035,0 0.069,0.009 0.1,0.027 0.03,0.017 0.055,0.043 0.073,0.073 0.017,0.03 0.027,0.065 0.027,0.1 0,0.035 -0.01,0.07 -0.027,0.1 -0.018,0.03 -0.043,0.056 -0.073,0.073 -0.031,0.018 -0.065,0.027 -0.1,0.027 h 4 c 2.413,0 4.771,-0.716 6.778,-2.056 2.006,-1.341 3.57,-3.246 4.493,-5.475 0.923,-2.23 1.165,-4.683 0.694,-7.049 -0.471,-2.367 -1.633,-4.541 -3.339,-6.247 -1.706,-1.706 -3.88,-2.868 -6.246,-3.339 -2.367,-0.47 -4.82,-0.229 -7.049,0.695 -2.229,0.923 -4.135,2.487 -5.475,4.493 -1.341,2.006 -2.056,4.365 -2.056,6.778 0,-0.11 0.089,-0.2 0.2,-0.2 h -92 c -0.111,0 -0.2,0.09 -0.2,0.2 v 8.8 c 0,0.2 0.2,0 0,0 h -3.8 c -0.111,0 -0.2,0.09 -0.2,0.2 v 8 c 0,0.11 0.089,0.2 0.2,0.2 h 3.8 c 0.2,0 0,-0.2 0,0 v 7.6 c 0,0.2 0.2,0 0,0 h -3.8 c -0.111,0 -0.2,0.09 -0.2,0.2 v 8 c 0,0.11 0.089,0.2 0.2,0.2 h 3.8 c 0.2,0 0,-0.2 0,0 v 7.6 c 0,0.2 0.2,0 0,0 h -3.8 c -0.111,0 -0.2,0.09 -0.2,0.2 v 8 c 0,0.11 0.089,0.2 0.2,0.2 h 3.8 c 0.2,0 0,-0.2 0,0 v 7.6 c 0,0.2 0.2,0 0,0 h -3.8 c -0.111,0 -0.2,0.09 -0.2,0.2 v 8 c 0,0.11 0.089,0.2 0.2,0.2 h 3.8 c 0.2,0 0,-0.2 0,0 v 7.6 c 0,0.2 0.2,0 0,0 h -3.8 c -0.111,0 -0.2,0.09 -0.2,0.2 v 8 c 0,0.11 0.089,0.2 0.2,0.2 h 3.8 c 0.2,0 0,-0.2 0,0 v 7.6 c 0,0.2 0.2,0 0,0 h -3.8 c -0.111,0 -0.2,0.09 -0.2,0.2 v 8 c 0,0.11 0.089,0.2 0.2,0.2 h 3.8 c 0.2,0 0,-0.2 0,0 v 7.6 c 0,0.2 0.2,0 0,0 h -3.8 c -0.111,0 -0.2,0.09 -0.2,0.2 v 8 c 0,0.11 0.089,0.2 0.2,0.2 h 3.8 c 0.2,0 0,-0.2 0,0 v 7.6 c 0,0.2 0.2,0 0,0 h -3.8 c -0.111,0 -0.2,0.09 -0.2,0.2 v 8 c 0,0.11 0.089,0.2 0.2,0.2 h 3.8 c 0.2,0 0,-0.2 0,0 v 7.6 c 0,0.2 0.2,0 0,0 h -3.8 c -0.111,0 -0.2,0.09 -0.2,0.2 v 8 c 0,0.11 0.089,0.2 0.2,0.2 h 3.8 c 0.2,0 0,-0.2 0,0 v 7.6 c 0,0.2 0.2,0 0,0 h -3.8 c -0.111,0 -0.2,0.09 -0.2,0.2 v 8 c 0,0.11 0.089,0.2 0.2,0.2 h 3.8 c 0.2,0 0,-0.2 0,0 v 8.8 4 c 0,0.11 0.089,0.2 0.2,0.2"
       stroke="#000000"
       stroke-width="0.4"
       id="path29"
       style="stroke-width:0.01;stroke-miterlimit:4;stroke-dasharray:none" />
    <path
       d="m 122.166,722.4 c 0,-1.495 0.429,-2.959 1.238,-4.217 0.808,-1.258 1.961,-2.257 3.321,-2.878 1.361,-0.621 2.871,-0.838 4.351,-0.626 1.48,0.213 2.867,0.847 3.997,1.826 1.131,0.979 1.955,2.263 2.377,3.697 0.421,1.435 0.421,2.961 0,4.396 -0.422,1.434 -1.246,2.718 -2.377,3.697 -1.13,0.979 -2.517,1.613 -3.997,1.826 -1.48,0.212 -2.99,-0.005 -4.351,-0.626 -1.36,-0.621 -2.513,-1.62 -3.321,-2.878 -0.809,-1.258 -1.238,-2.722 -1.238,-4.217 z"
       stroke="#0000ff"
       stroke-width="0.4"
       id="path31"
       style="stroke-width:0.01;stroke-miterlimit:4;stroke-dasharray:none" />
    <path
       d="m 127.966,716.613 h 1.8 c 0.2,0 0,-0.2 0,0 v 5.587 c 0,0.2 0.2,0 0,0 h -3.6 c -0.2,0 0,0.2 0,0 v -5.587 c 0,-0.2 -0.2,0 0,0 z"
       stroke="#0000ff"
       stroke-width="0.4"
       id="path33"
       style="stroke-width:0.01;stroke-miterlimit:4;stroke-dasharray:none" />
  </g>
  <g
     id="p-4"
     style="fill:none;stroke-width:0.01;stroke-linecap:round;stroke-linejoin:round;stroke-miterlimit:4;stroke-dasharray:none"
     transform="translate(-20.761,-493.06296)">
    <text
       alignment-baseline="hanging"
       font-size="4px"
       style="font-style:normal;font-weight:normal;font-family:sans-serif;fill:#ff0000;stroke-width:0.01;stroke-miterlimit:4;stroke-dasharray:none"
       text-anchor="middle"
       transform="translate(75.966,696.4)"
       id="text36" />
    <path
       d="m 25.966,720.4 h 91.6 c 0.11,0 0.2,-0.09 0.2,-0.2 0,-2.142 0.563,-4.245 1.634,-6.1 1.071,-1.855 2.611,-3.395 4.466,-4.466 1.854,-1.07 3.958,-1.634 6.1,-1.634 -0.036,0 -0.07,-0.009 -0.1,-0.027 -0.031,-0.017 -0.056,-0.043 -0.074,-0.073 -0.017,-0.03 -0.026,-0.065 -0.026,-0.1 0,-0.035 0.009,-0.07 0.026,-0.1 0.018,-0.03 0.043,-0.056 0.074,-0.073 0.03,-0.018 0.064,-0.027 0.1,-0.027 h -4 c 0.035,0 0.069,0.009 0.1,0.027 0.03,0.017 0.055,0.043 0.073,0.073 0.017,0.03 0.027,0.065 0.027,0.1 0,0.035 -0.01,0.07 -0.027,0.1 -0.018,0.03 -0.043,0.056 -0.073,0.073 -0.031,0.018 -0.065,0.027 -0.1,0.027 0.11,0 0.2,-0.09 0.2,-0.2 v -9.6 c 0,-0.2 -0.2,0 0,0 h 3.8 c 0.11,0 0.2,-0.09 0.2,-0.2 v -8 c 0,-0.11 -0.09,-0.2 -0.2,-0.2 h -3.8 c -0.2,0 0,0.2 0,0 v -9.6 -4 c 0,-0.11 -0.09,-0.2 -0.2,-0.2 h -14 c -0.111,0 -0.2,0.09 -0.2,0.2 v 3.8 c 0,0.2 0.2,0 0,0 h -7.6 c -0.2,0 0,0.2 0,0 v -3.8 c 0,-0.11 -0.09,-0.2 -0.2,-0.2 h -8 c -0.111,0 -0.2,0.09 -0.2,0.2 v 3.8 c 0,0.2 0.2,0 0,0 h -7.6 c -0.2,0 0,0.2 0,0 v -3.8 c 0,-0.11 -0.09,-0.2 -0.2,-0.2 h -8 c -0.111,0 -0.2,0.09 -0.2,0.2 v 3.8 c 0,0.2 0.2,0 0,0 h -7.6 c -0.2,0 0,0.2 0,0 v -3.8 c 0,-0.11 -0.09,-0.2 -0.2,-0.2 h -8 c -0.111,0 -0.2,0.09 -0.2,0.2 v 3.8 c 0,0.2 0.2,0 0,0 h -7.6 c -0.2,0 0,0.2 0,0 v -3.8 c 0,-0.11 -0.09,-0.2 -0.2,-0.2 h -8 c -0.111,0 -0.2,0.09 -0.2,0.2 v 3.8 c 0,0.2 0.2,0 0,0 h -7.6 c -0.2,0 0,0.2 0,0 v -3.8 c 0,-0.11 -0.09,-0.2 -0.2,-0.2 h -14 c -0.111,0 -0.2,0.09 -0.2,0.2 v 4 7.8 c 0,0.2 0.2,0 0,0 h -3.8 c -0.111,0 -0.2,0.09 -0.2,0.2 v 8 c 0,0.11 0.089,0.2 0.2,0.2 h 3.8 c 0.2,0 0,-0.2 0,0 v 7.6 c 0,0.2 0.2,0 0,0 h -3.8 c -0.111,0 -0.2,0.09 -0.2,0.2 v 8 c 0,0.11 0.089,0.2 0.2,0.2 h 3.8 c 0.2,0 0,-0.2 0,0 v 7.8 c 0,0.11 0.089,0.2 0.2,0.2"
       stroke="#000000"
       stroke-width="0.4"
       id="path38"
       style="stroke-width:0.01;stroke-miterlimit:4;stroke-dasharray:none" />
  </g>
  <g
     id="p-5"
     style="fill:none;stroke-width:0.01;stroke-linecap:round;stroke-linejoin:round;stroke-miterlimit:4;stroke-dasharray:none"
     transform="translate(-20.761,-498.59499)">
    <text
       alignment-baseline="hanging"
       font-size="4px"
       style="font-style:normal;font-weight:normal;font-family:sans-serif;fill:#ff0000;stroke-width:0.01;stroke-miterlimit:4;stroke-dasharray:none"
       text-anchor="middle"
       transform="translate(75.966,585)"
       id="text41" />
    <path
       d="m 25.966,674 h 14 c 0.11,0 0.2,-0.09 0.2,-0.2 V 670 c 0,-0.2 -0.2,0 0,0 h 7.6 c 0.2,0 0,-0.2 0,0 v 3.8 c 0,0.11 0.089,0.2 0.2,0.2 h 8 c 0.11,0 0.2,-0.09 0.2,-0.2 V 670 c 0,-0.2 -0.2,0 0,0 h 7.6 c 0.2,0 0,-0.2 0,0 v 3.8 c 0,0.11 0.089,0.2 0.2,0.2 h 8 c 0.11,0 0.2,-0.09 0.2,-0.2 V 670 c 0,-0.2 -0.2,0 0,0 h 7.6 c 0.2,0 0,-0.2 0,0 v 3.8 c 0,0.11 0.089,0.2 0.2,0.2 h 8 c 0.11,0 0.2,-0.09 0.2,-0.2 V 670 c 0,-0.2 -0.2,0 0,0 h 7.6 c 0.2,0 0,-0.2 0,0 v 3.8 c 0,0.11 0.089,0.2 0.2,0.2 h 8 c 0.11,0 0.2,-0.09 0.2,-0.2 V 670 c 0,-0.2 -0.2,0 0,0 h 7.6 c 0.2,0 0,-0.2 0,0 v 3.8 c 0,0.11 0.089,0.2 0.2,0.2 h 14 4 c 0.11,0 0.2,-0.09 0.2,-0.2 v -4 -9 c 0,-0.11 -0.09,-0.2 -0.2,-0.2 h -3.8 c -0.2,0 0,0.2 0,0 V 653 c 0,-0.2 -0.2,0 0,0 h 3.8 c 0.11,0 0.2,-0.09 0.2,-0.2 v -8 c 0,-0.11 -0.09,-0.2 -0.2,-0.2 h -3.8 c -0.2,0 0,0.2 0,0 V 637 c 0,-0.2 -0.2,0 0,0 h 3.8 c 0.11,0 0.2,-0.09 0.2,-0.2 v -8 c 0,-0.11 -0.09,-0.2 -0.2,-0.2 h -3.8 c -0.2,0 0,0.2 0,0 V 621 c 0,-0.2 -0.2,0 0,0 h 3.8 c 0.11,0 0.2,-0.09 0.2,-0.2 v -8 c 0,-0.11 -0.09,-0.2 -0.2,-0.2 h -3.8 c -0.2,0 0,0.2 0,0 V 605 c 0,-0.2 -0.2,0 0,0 h 3.8 c 0.11,0 0.2,-0.09 0.2,-0.2 v -8 c 0,-0.11 -0.09,-0.2 -0.2,-0.2 h -3.8 c -0.2,0 0,0.2 0,0 V 589 c 0,-0.2 -0.2,0 0,0 h 3.8 c 0.11,0 0.2,-0.09 0.2,-0.2 v -8 c 0,-0.11 -0.09,-0.2 -0.2,-0.2 h -3.8 c -0.2,0 0,0.2 0,0 V 573 c 0,-0.2 -0.2,0 0,0 h 3.8 c 0.11,0 0.2,-0.09 0.2,-0.2 v -8 c 0,-0.11 -0.09,-0.2 -0.2,-0.2 h -3.8 c -0.2,0 0,0.2 0,0 V 557 c 0,-0.2 -0.2,0 0,0 h 3.8 c 0.11,0 0.2,-0.09 0.2,-0.2 v -8 c 0,-0.11 -0.09,-0.2 -0.2,-0.2 h -3.8 c -0.2,0 0,0.2 0,0 V 541 c 0,-0.2 -0.2,0 0,0 h 3.8 c 0.11,0 0.2,-0.09 0.2,-0.2 v -8 c 0,-0.11 -0.09,-0.2 -0.2,-0.2 h -3.8 c -0.2,0 0,0.2 0,0 V 525 c 0,-0.2 -0.2,0 0,0 h 3.8 c 0.11,0 0.2,-0.09 0.2,-0.2 v -8 c 0,-0.11 -0.09,-0.2 -0.2,-0.2 h -3.8 c -0.2,0 0,0.2 0,0 V 509 c 0,-0.2 -0.2,0 0,0 h 3.8 c 0.11,0 0.2,-0.09 0.2,-0.2 v -9 c 0,-0.11 -0.09,-0.2 -0.2,-0.2 h -4 -100 -4 c -0.111,0 -0.2,0.09 -0.2,0.2 v 9 c 0,0.11 0.089,0.2 0.2,0.2 h 3.8 c 0.2,0 0,-0.2 0,0 v 7.6 c 0,0.2 0.2,0 0,0 h -3.8 c -0.111,0 -0.2,0.09 -0.2,0.2 v 8 c 0,0.11 0.089,0.2 0.2,0.2 h 3.8 c 0.2,0 0,-0.2 0,0 v 7.6 c 0,0.2 0.2,0 0,0 h -3.8 c -0.111,0 -0.2,0.09 -0.2,0.2 v 8 c 0,0.11 0.089,0.2 0.2,0.2 h 3.8 c 0.2,0 0,-0.2 0,0 v 7.6 c 0,0.2 0.2,0 0,0 h -3.8 c -0.111,0 -0.2,0.09 -0.2,0.2 v 8 c 0,0.11 0.089,0.2 0.2,0.2 h 3.8 c 0.2,0 0,-0.2 0,0 v 7.6 c 0,0.2 0.2,0 0,0 h -3.8 c -0.111,0 -0.2,0.09 -0.2,0.2 v 8 c 0,0.11 0.089,0.2 0.2,0.2 h 3.8 c 0.2,0 0,-0.2 0,0 v 7.6 c 0,0.2 0.2,0 0,0 h -3.8 c -0.111,0 -0.2,0.09 -0.2,0.2 v 8 c 0,0.11 0.089,0.2 0.2,0.2 h 3.8 c 0.2,0 0,-0.2 0,0 v 7.6 c 0,0.2 0.2,0 0,0 h -3.8 c -0.111,0 -0.2,0.09 -0.2,0.2 v 8 c 0,0.11 0.089,0.2 0.2,0.2 h 3.8 c 0.2,0 0,-0.2 0,0 v 7.6 c 0,0.2 0.2,0 0,0 h -3.8 c -0.111,0 -0.2,0.09 -0.2,0.2 v 8 c 0,0.11 0.089,0.2 0.2,0.2 h 3.8 c 0.2,0 0,-0.2 0,0 v 7.6 c 0,0.2 0.2,0 0,0 h -3.8 c -0.111,0 -0.2,0.09 -0.2,0.2 v 8 c 0,0.11 0.089,0.2 0.2,0.2 h 3.8 c 0.2,0 0,-0.2 0,0 v 7.6 c 0,0.2 0.2,0 0,0 h -3.8 c -0.111,0 -0.2,0.09 -0.2,0.2 v 8 c 0,0.11 0.089,0.2 0.2,0.2 h 3.8 c 0.2,0 0,-0.2 0,0 v 7.6 c 0,0.2 0.2,0 0,0 h -3.8 c -0.111,0 -0.2,0.09 -0.2,0.2 v 9 4 c 0,0.11 0.089,0.2 0.2,0.2 h 4"
       stroke="#000000"
       stroke-width="0.4"
       id="path43"
       style="stroke-width:0.01;stroke-miterlimit:4;stroke-dasharray:none" />
  </g>
  <g
     id="p-6"
     style="fill:none;stroke-width:0.01;stroke-linecap:round;stroke-linejoin:round;stroke-miterlimit:4;stroke-dasharray:none"
     transform="translate(98.14624,-322.19499)">
    <text
       alignment-baseline="hanging"
       font-size="4px"
       style="font-style:normal;font-weight:normal;font-family:sans-serif;fill:#ff0000;stroke-width:0.01;stroke-miterlimit:4;stroke-dasharray:none"
       text-anchor="middle"
       transform="translate(75.966,408.6)"
       id="text46" />
    <path
       d="m 25.966,497.6 h 14 c 0.11,0 0.2,-0.09 0.2,-0.2 v -3.8 c 0,-0.2 -0.2,0 0,0 h 7.6 c 0.2,0 0,-0.2 0,0 v 3.8 c 0,0.11 0.089,0.2 0.2,0.2 h 8 c 0.11,0 0.2,-0.09 0.2,-0.2 v -3.8 c 0,-0.2 -0.2,0 0,0 h 7.6 c 0.2,0 0,-0.2 0,0 v 3.8 c 0,0.11 0.089,0.2 0.2,0.2 h 8 c 0.11,0 0.2,-0.09 0.2,-0.2 v -3.8 c 0,-0.2 -0.2,0 0,0 h 7.6 c 0.2,0 0,-0.2 0,0 v 3.8 c 0,0.11 0.089,0.2 0.2,0.2 h 8 c 0.11,0 0.2,-0.09 0.2,-0.2 v -3.8 c 0,-0.2 -0.2,0 0,0 h 7.6 c 0.2,0 0,-0.2 0,0 v 3.8 c 0,0.11 0.089,0.2 0.2,0.2 h 8 c 0.11,0 0.2,-0.09 0.2,-0.2 v -3.8 c 0,-0.2 -0.2,0 0,0 h 7.6 c 0.2,0 0,-0.2 0,0 v 3.8 c 0,0.11 0.089,0.2 0.2,0.2 h 14 4 c 0.11,0 0.2,-0.09 0.2,-0.2 v -4 -11 c 0,-0.11 -0.09,-0.2 -0.2,-0.2 h -3.8 c -0.2,0 0,0.2 0,0 v -7.6 c 0,-0.2 -0.2,0 0,0 h 3.8 c 0.11,0 0.2,-0.09 0.2,-0.2 v -8 c 0,-0.11 -0.09,-0.2 -0.2,-0.2 h -3.8 c -0.2,0 0,0.2 0,0 v -7.6 c 0,-0.2 -0.2,0 0,0 h 3.8 c 0.11,0 0.2,-0.09 0.2,-0.2 v -8 c 0,-0.11 -0.09,-0.2 -0.2,-0.2 h -3.8 c -0.2,0 0,0.2 0,0 v -7.6 c 0,-0.2 -0.2,0 0,0 h 3.8 c 0.11,0 0.2,-0.09 0.2,-0.2 v -8 c 0,-0.11 -0.09,-0.2 -0.2,-0.2 h -3.8 c -0.2,0 0,0.2 0,0 v -7.6 c 0,-0.2 -0.2,0 0,0 h 3.8 c 0.11,0 0.2,-0.09 0.2,-0.2 v -8 c 0,-0.11 -0.09,-0.2 -0.2,-0.2 h -3.8 c -0.2,0 0,0.2 0,0 v -7.6 c 0,-0.2 -0.2,0 0,0 h 3.8 c 0.11,0 0.2,-0.09 0.2,-0.2 v -8 c 0,-0.11 -0.09,-0.2 -0.2,-0.2 h -3.8 c -0.2,0 0,0.2 0,0 v -7.6 c 0,-0.2 -0.2,0 0,0 h 3.8 c 0.11,0 0.2,-0.09 0.2,-0.2 v -8 c 0,-0.11 -0.09,-0.2 -0.2,-0.2 h -3.8 c -0.2,0 0,0.2 0,0 v -7.6 c 0,-0.2 -0.2,0 0,0 h 3.8 c 0.11,0 0.2,-0.09 0.2,-0.2 v -8 c 0,-0.11 -0.09,-0.2 -0.2,-0.2 h -3.8 c -0.2,0 0,0.2 0,0 v -7.6 c 0,-0.2 -0.2,0 0,0 h 3.8 c 0.11,0 0.2,-0.09 0.2,-0.2 v -8 c 0,-0.11 -0.09,-0.2 -0.2,-0.2 h -3.8 c -0.2,0 0,0.2 0,0 v -7.6 c 0,-0.2 -0.2,0 0,0 h 3.8 c 0.11,0 0.2,-0.09 0.2,-0.2 v -11 c 0,-0.11 -0.09,-0.2 -0.2,-0.2 h -3.8 c -0.2,0 0,0.2 0,0 v -11.8 c 0,-0.11 -0.09,-0.2 -0.2,-0.2 h -100 c -0.111,0 -0.2,0.09 -0.2,0.2 v 11.8 c 0,0.2 0.2,0 0,0 h -3.8 c -0.111,0 -0.2,0.09 -0.2,0.2 v 11 c 0,0.11 0.089,0.2 0.2,0.2 h 3.8 c 0.2,0 0,-0.2 0,0 v 7.6 c 0,0.2 0.2,0 0,0 h -3.8 c -0.111,0 -0.2,0.09 -0.2,0.2 v 8 c 0,0.11 0.089,0.2 0.2,0.2 h 3.8 c 0.2,0 0,-0.2 0,0 v 7.6 c 0,0.2 0.2,0 0,0 h -3.8 c -0.111,0 -0.2,0.09 -0.2,0.2 v 8 c 0,0.11 0.089,0.2 0.2,0.2 h 3.8 c 0.2,0 0,-0.2 0,0 v 7.6 c 0,0.2 0.2,0 0,0 h -3.8 c -0.111,0 -0.2,0.09 -0.2,0.2 v 8 c 0,0.11 0.089,0.2 0.2,0.2 h 3.8 c 0.2,0 0,-0.2 0,0 v 7.6 c 0,0.2 0.2,0 0,0 h -3.8 c -0.111,0 -0.2,0.09 -0.2,0.2 v 8 c 0,0.11 0.089,0.2 0.2,0.2 h 3.8 c 0.2,0 0,-0.2 0,0 v 7.6 c 0,0.2 0.2,0 0,0 h -3.8 c -0.111,0 -0.2,0.09 -0.2,0.2 v 8 c 0,0.11 0.089,0.2 0.2,0.2 h 3.8 c 0.2,0 0,-0.2 0,0 v 7.6 c 0,0.2 0.2,0 0,0 h -3.8 c -0.111,0 -0.2,0.09 -0.2,0.2 v 8 c 0,0.11 0.089,0.2 0.2,0.2 h 3.8 c 0.2,0 0,-0.2 0,0 v 7.6 c 0,0.2 0.2,0 0,0 h -3.8 c -0.111,0 -0.2,0.09 -0.2,0.2 v 8 c 0,0.11 0.089,0.2 0.2,0.2 h 3.8 c 0.2,0 0,-0.2 0,0 v 7.6 c 0,0.2 0.2,0 0,0 h -3.8 c -0.111,0 -0.2,0.09 -0.2,0.2 v 8 c 0,0.11 0.089,0.2 0.2,0.2 h 3.8 c 0.2,0 0,-0.2 0,0 v 7.6 c 0,0.2 0.2,0 0,0 h -3.8 c -0.111,0 -0.2,0.09 -0.2,0.2 v 11 4 c 0,0.11 0.089,0.2 0.2,0.2 h 4"
       stroke="#000000"
       stroke-width="0.4"
       id="path48"
       style="stroke-width:0.01;stroke-miterlimit:4;stroke-dasharray:none" />
  </g>
  <g
     id="p-7"
     style="fill:none;stroke-width:0.01;stroke-linecap:round;stroke-linejoin:round;stroke-miterlimit:4;stroke-dasharray:none"
     transform="translate(98.14624,71.112341)">
    <text
       alignment-baseline="hanging"
       font-size="4px"
       style="font-style:normal;font-weight:normal;font-family:sans-serif;fill:#ff0000;stroke-width:0.01;stroke-miterlimit:4;stroke-dasharray:none"
       text-anchor="middle"
       transform="translate(75.966,297.2)"
       id="text51" />
    <path
       d="m 25.966,321.2 h 14 c 0.11,0 0.2,-0.09 0.2,-0.2 v -3.8 c 0,-0.2 -0.2,0 0,0 h 7.6 c 0.2,0 0,-0.2 0,0 v 3.8 c 0,0.11 0.089,0.2 0.2,0.2 h 8 c 0.11,0 0.2,-0.09 0.2,-0.2 v -3.8 c 0,-0.2 -0.2,0 0,0 h 7.6 c 0.2,0 0,-0.2 0,0 v 3.8 c 0,0.11 0.089,0.2 0.2,0.2 h 8 c 0.11,0 0.2,-0.09 0.2,-0.2 v -3.8 c 0,-0.2 -0.2,0 0,0 h 7.6 c 0.2,0 0,-0.2 0,0 v 3.8 c 0,0.11 0.089,0.2 0.2,0.2 h 8 c 0.11,0 0.2,-0.09 0.2,-0.2 v -3.8 c 0,-0.2 -0.2,0 0,0 h 7.6 c 0.2,0 0,-0.2 0,0 v 3.8 c 0,0.11 0.089,0.2 0.2,0.2 h 8 c 0.11,0 0.2,-0.09 0.2,-0.2 v -3.8 c 0,-0.2 -0.2,0 0,0 h 7.6 c 0.2,0 0,-0.2 0,0 v 3.8 c 0,0.11 0.089,0.2 0.2,0.2 h 14 4 c 0.11,0 0.2,-0.09 0.2,-0.2 v -4 -8 c 0,-0.11 -0.09,-0.2 -0.2,-0.2 h -3.8 c -0.2,0 0,0.2 0,0 v -7.6 c 0,-0.2 -0.2,0 0,0 h 3.8 c 0.11,0 0.2,-0.09 0.2,-0.2 v -8 c 0,-0.11 -0.09,-0.2 -0.2,-0.2 h -3.8 c -0.2,0 0,0.2 0,0 v -7.6 c 0,-0.2 -0.2,0 0,0 h 3.8 c 0.11,0 0.2,-0.09 0.2,-0.2 v -8 c 0,-0.11 -0.09,-0.2 -0.2,-0.2 h -4 -100 -4 c -0.111,0 -0.2,0.09 -0.2,0.2 v 8 c 0,0.11 0.089,0.2 0.2,0.2 h 3.8 c 0.2,0 0,-0.2 0,0 v 7.6 c 0,0.2 0.2,0 0,0 h -3.8 c -0.111,0 -0.2,0.09 -0.2,0.2 v 8 c 0,0.11 0.089,0.2 0.2,0.2 h 3.8 c 0.2,0 0,-0.2 0,0 v 7.6 c 0,0.2 0.2,0 0,0 h -3.8 c -0.111,0 -0.2,0.09 -0.2,0.2 v 8 4 c 0,0.11 0.089,0.2 0.2,0.2 h 4"
       stroke="#000000"
       stroke-width="0.4"
       id="path53"
       style="stroke-width:0.01;stroke-miterlimit:4;stroke-dasharray:none" />
  </g>
  <g
     id="p-8"
     style="fill:none;stroke-width:0.01;stroke-linecap:round;stroke-linejoin:round;stroke-miterlimit:4;stroke-dasharray:none"
     transform="translate(-20.761,118.12695)">
    <text
       alignment-baseline="hanging"
       font-size="4px"
       style="font-style:normal;font-weight:normal;font-family:sans-serif;fill:#ff0000;stroke-width:0.01;stroke-miterlimit:4;stroke-dasharray:none"
       text-anchor="middle"
       transform="translate(75.966,251)"
       id="text56" />
    <path
       d="m 25.966,274.8 h 14 c 0.11,0 0.2,-0.09 0.2,-0.2 v -3.8 c 0,-0.2 -0.2,0 0,0 h 7.6 c 0.2,0 0,-0.2 0,0 v 3.8 c 0,0.11 0.089,0.2 0.2,0.2 h 8 c 0.11,0 0.2,-0.09 0.2,-0.2 v -3.8 c 0,-0.2 -0.2,0 0,0 h 7.6 c 0.2,0 0,-0.2 0,0 v 3.8 c 0,0.11 0.089,0.2 0.2,0.2 h 8 c 0.11,0 0.2,-0.09 0.2,-0.2 v -3.8 c 0,-0.2 -0.2,0 0,0 h 7.6 c 0.2,0 0,-0.2 0,0 v 3.8 c 0,0.11 0.089,0.2 0.2,0.2 h 8 c 0.11,0 0.2,-0.09 0.2,-0.2 v -3.8 c 0,-0.2 -0.2,0 0,0 h 7.6 c 0.2,0 0,-0.2 0,0 v 3.8 c 0,0.11 0.089,0.2 0.2,0.2 h 8 c 0.11,0 0.2,-0.09 0.2,-0.2 v -3.8 c 0,-0.2 -0.2,0 0,0 h 7.6 c 0.2,0 0,-0.2 0,0 v 3.8 c 0,0.11 0.089,0.2 0.2,0.2 h 14 4 c 0.11,0 0.2,-0.09 0.2,-0.2 v -4 -9.8 c 0,-0.11 -0.09,-0.2 -0.2,-0.2 h -3.8 c -0.2,0 0,0.2 0,0 V 253 c 0,-0.2 -0.2,0 0,0 h 3.8 c 0.11,0 0.2,-0.09 0.2,-0.2 V 243 c 0,-0.11 -0.09,-0.2 -0.2,-0.2 h -3.8 c -0.2,0 0,0.2 0,0 v -5.613 c 0,-0.2 -0.2,0 0,0 h 3.8 c 0.11,0 0.2,-0.09 0.2,-0.2 V 231 c 0,-0.11 -0.09,-0.2 -0.2,-0.2 h -108 c -0.111,0 -0.2,0.09 -0.2,0.2 v 5.987 c 0,0.11 0.089,0.2 0.2,0.2 h 3.8 c 0.2,0 0,-0.2 0,0 v 5.613 c 0,0.2 0.2,0 0,0 h -3.8 c -0.111,0 -0.2,0.09 -0.2,0.2 v 9.8 c 0,0.11 0.089,0.2 0.2,0.2 h 3.8 c 0.2,0 0,-0.2 0,0 v 7.6 c 0,0.2 0.2,0 0,0 h -3.8 c -0.111,0 -0.2,0.09 -0.2,0.2 v 9.8 4 c 0,0.11 0.089,0.2 0.2,0.2 h 4"
       stroke="#000000"
       stroke-width="0.4"
       id="path58"
       style="stroke-width:0.01;stroke-miterlimit:4;stroke-dasharray:none" />
  </g>
  <g
     id="p-9"
     style="fill:none;stroke-width:0.01;stroke-linecap:round;stroke-linejoin:round;stroke-miterlimit:4;stroke-dasharray:none"
     transform="translate(-20.761,115.85205)">
    <text
       alignment-baseline="hanging"
       font-size="4px"
       style="font-style:normal;font-weight:normal;font-family:sans-serif;fill:#ff0000;stroke-width:0.01;stroke-miterlimit:4;stroke-dasharray:none"
       text-anchor="middle"
       transform="translate(75.966,172.8)"
       id="text61" />
    <path
       d="m 25.966,224.8 h 13.8 c 0.2,0 0,-0.2 0,0 v 3.8 c 0,0.11 0.089,0.2 0.2,0.2 h 8 c 0.11,0 0.2,-0.09 0.2,-0.2 v -3.8 c 0,-0.2 -0.2,0 0,0 h 7.6 c 0.2,0 0,-0.2 0,0 v 3.8 c 0,0.11 0.089,0.2 0.2,0.2 h 8 c 0.11,0 0.2,-0.09 0.2,-0.2 v -3.8 c 0,-0.2 -0.2,0 0,0 h 7.6 c 0.2,0 0,-0.2 0,0 v 3.8 c 0,0.11 0.089,0.2 0.2,0.2 h 8 c 0.11,0 0.2,-0.09 0.2,-0.2 v -3.8 c 0,-0.2 -0.2,0 0,0 h 7.6 c 0.2,0 0,-0.2 0,0 v 3.8 c 0,0.11 0.089,0.2 0.2,0.2 h 8 c 0.11,0 0.2,-0.09 0.2,-0.2 v -3.8 c 0,-0.2 -0.2,0 0,0 h 7.6 c 0.2,0 0,-0.2 0,0 v 3.8 c 0,0.11 0.089,0.2 0.2,0.2 h 8 c 0.11,0 0.2,-0.09 0.2,-0.2 v -3.8 c 0,-0.2 -0.2,0 0,0 h 13.8 c 0.11,0 0.2,-0.09 0.2,-0.2 v -13.8 c 0,-0.2 -0.2,0 0,0 h 3.8 c 0.11,0 0.2,-0.09 0.2,-0.2 v -8 c 0,-0.11 -0.09,-0.2 -0.2,-0.2 h -3.8 c -0.2,0 0,0.2 0,0 v -7.6 c 0,-0.2 -0.2,0 0,0 h 3.8 c 0.11,0 0.2,-0.09 0.2,-0.2 v -8 c 0,-0.11 -0.09,-0.2 -0.2,-0.2 h -3.8 c -0.2,0 0,0.2 0,0 v -7.6 c 0,-0.2 -0.2,0 0,0 h 3.8 c 0.11,0 0.2,-0.09 0.2,-0.2 v -8 c 0,-0.11 -0.09,-0.2 -0.2,-0.2 h -3.8 c -0.2,0 0,0.2 0,0 v -7.6 c 0,-0.2 -0.2,0 0,0 h 3.8 c 0.11,0 0.2,-0.09 0.2,-0.2 v -8 c 0,-0.11 -0.09,-0.2 -0.2,-0.2 h -3.8 c -0.2,0 0,0.2 0,0 v -7.6 c 0,-0.2 -0.2,0 0,0 h 3.8 c 0.11,0 0.2,-0.09 0.2,-0.2 v -8 c 0,-0.11 -0.09,-0.2 -0.2,-0.2 h -3.8 c -0.2,0 0,0.2 0,0 v -13.8 c 0,-0.11 -0.09,-0.2 -0.2,-0.2 h -13.8 c -0.2,0 0,0.2 0,0 v -3.8 c 0,-0.11 -0.09,-0.2 -0.2,-0.2 h -8 c -0.111,0 -0.2,0.09 -0.2,0.2 v 3.8 c 0,0.2 0.2,0 0,0 h -7.6 c -0.2,0 0,0.2 0,0 v -3.8 c 0,-0.11 -0.09,-0.2 -0.2,-0.2 h -8 c -0.111,0 -0.2,0.09 -0.2,0.2 v 3.8 c 0,0.2 0.2,0 0,0 h -7.6 c -0.2,0 0,0.2 0,0 v -3.8 c 0,-0.11 -0.09,-0.2 -0.2,-0.2 h -8 c -0.111,0 -0.2,0.09 -0.2,0.2 v 3.8 c 0,0.2 0.2,0 0,0 h -7.6 c -0.2,0 0,0.2 0,0 v -3.8 c 0,-0.11 -0.09,-0.2 -0.2,-0.2 h -8 c -0.111,0 -0.2,0.09 -0.2,0.2 v 3.8 c 0,0.2 0.2,0 0,0 h -7.6 c -0.2,0 0,0.2 0,0 v -3.8 c 0,-0.11 -0.09,-0.2 -0.2,-0.2 h -8 c -0.111,0 -0.2,0.09 -0.2,0.2 v 3.8 c 0,0.2 0.2,0 0,0 h -13.8 c -0.111,0 -0.2,0.09 -0.2,0.2 v 13.8 c 0,0.2 0.2,0 0,0 h -3.8 c -0.111,0 -0.2,0.09 -0.2,0.2 v 8 c 0,0.11 0.089,0.2 0.2,0.2 h 3.8 c 0.2,0 0,-0.2 0,0 v 7.6 c 0,0.2 0.2,0 0,0 h -3.8 c -0.111,0 -0.2,0.09 -0.2,0.2 v 8 c 0,0.11 0.089,0.2 0.2,0.2 h 3.8 c 0.2,0 0,-0.2 0,0 v 7.6 c 0,0.2 0.2,0 0,0 h -3.8 c -0.111,0 -0.2,0.09 -0.2,0.2 v 8 c 0,0.11 0.089,0.2 0.2,0.2 h 3.8 c 0.2,0 0,-0.2 0,0 v 7.6 c 0,0.2 0.2,0 0,0 h -3.8 c -0.111,0 -0.2,0.09 -0.2,0.2 v 8 c 0,0.11 0.089,0.2 0.2,0.2 h 3.8 c 0.2,0 0,-0.2 0,0 v 7.6 c 0,0.2 0.2,0 0,0 h -3.8 c -0.111,0 -0.2,0.09 -0.2,0.2 v 8 c 0,0.11 0.089,0.2 0.2,0.2 h 3.8 c 0.2,0 0,-0.2 0,0 v 13.8 c 0,0.11 0.089,0.2 0.2,0.2"
       stroke="#000000"
       stroke-width="0.4"
       id="path63"
       style="stroke-width:0.01;stroke-miterlimit:4;stroke-dasharray:none" />
  </g>
  <g
     id="p-10"
     style="fill:none;stroke-width:0.01;stroke-linecap:round;stroke-linejoin:round;stroke-miterlimit:4;stroke-dasharray:none"
     transform="translate(98.14624,220.49747)">
    <text
       alignment-baseline="hanging"
       font-size="4px"
       style="font-style:normal;font-weight:normal;font-family:sans-serif;fill:#ff0000;stroke-width:0.01;stroke-miterlimit:4;stroke-dasharray:none"
       text-anchor="middle"
       transform="translate(75.966,62.4)"
       id="text66" />
    <path
       d="m 25.966,114.4 h 13.8 c 0.2,0 0,-0.2 0,0 v 3.8 c 0,0.11 0.089,0.2 0.2,0.2 h 8 c 0.11,0 0.2,-0.09 0.2,-0.2 v -3.8 c 0,-0.2 -0.2,0 0,0 h 7.6 c 0.2,0 0,-0.2 0,0 v 3.8 c 0,0.11 0.089,0.2 0.2,0.2 h 8 c 0.11,0 0.2,-0.09 0.2,-0.2 v -3.8 c 0,-0.2 -0.2,0 0,0 h 7.6 c 0.2,0 0,-0.2 0,0 v 3.8 c 0,0.11 0.089,0.2 0.2,0.2 h 8 c 0.11,0 0.2,-0.09 0.2,-0.2 v -3.8 c 0,-0.2 -0.2,0 0,0 h 7.6 c 0.2,0 0,-0.2 0,0 v 3.8 c 0,0.11 0.089,0.2 0.2,0.2 h 8 c 0.11,0 0.2,-0.09 0.2,-0.2 v -3.8 c 0,-0.2 -0.2,0 0,0 h 7.6 c 0.2,0 0,-0.2 0,0 v 3.8 c 0,0.11 0.089,0.2 0.2,0.2 h 8 c 0.11,0 0.2,-0.09 0.2,-0.2 v -3.8 c 0,-0.2 -0.2,0 0,0 h 13.8 c 0.11,0 0.2,-0.09 0.2,-0.2 v -13.8 c 0,-0.2 -0.2,0 0,0 h 3.8 c 0.11,0 0.2,-0.09 0.2,-0.2 v -8 c 0,-0.11 -0.09,-0.2 -0.2,-0.2 h -3.8 c -0.2,0 0,0.2 0,0 v -7.6 c 0,-0.2 -0.2,0 0,0 h 3.8 c 0.11,0 0.2,-0.09 0.2,-0.2 v -8 c 0,-0.11 -0.09,-0.2 -0.2,-0.2 h -3.8 c -0.2,0 0,0.2 0,0 v -7.6 c 0,-0.2 -0.2,0 0,0 h 3.8 c 0.11,0 0.2,-0.09 0.2,-0.2 v -8 c 0,-0.11 -0.09,-0.2 -0.2,-0.2 h -3.8 c -0.2,0 0,0.2 0,0 v -7.6 c 0,-0.2 -0.2,0 0,0 h 3.8 c 0.11,0 0.2,-0.09 0.2,-0.2 v -8 c 0,-0.11 -0.09,-0.2 -0.2,-0.2 h -3.8 c -0.2,0 0,0.2 0,0 v -7.6 c 0,-0.2 -0.2,0 0,0 h 3.8 c 0.11,0 0.2,-0.09 0.2,-0.2 v -8 c 0,-0.11 -0.09,-0.2 -0.2,-0.2 h -3.8 c -0.2,0 0,0.2 0,0 V 14.2 c 0,-0.11 -0.09,-0.2 -0.2,-0.2 h -13.8 c -0.2,0 0,0.2 0,0 v -3.8 c 0,-0.11 -0.09,-0.2 -0.2,-0.2 h -8 c -0.111,0 -0.2,0.09 -0.2,0.2 V 14 c 0,0.2 0.2,0 0,0 h -7.6 c -0.2,0 0,0.2 0,0 v -3.8 c 0,-0.11 -0.09,-0.2 -0.2,-0.2 h -8 c -0.111,0 -0.2,0.09 -0.2,0.2 V 14 c 0,0.2 0.2,0 0,0 h -7.6 c -0.2,0 0,0.2 0,0 v -3.8 c 0,-0.11 -0.09,-0.2 -0.2,-0.2 h -8 c -0.111,0 -0.2,0.09 -0.2,0.2 V 14 c 0,0.2 0.2,0 0,0 h -7.6 c -0.2,0 0,0.2 0,0 v -3.8 c 0,-0.11 -0.09,-0.2 -0.2,-0.2 h -8 c -0.111,0 -0.2,0.09 -0.2,0.2 V 14 c 0,0.2 0.2,0 0,0 h -7.6 c -0.2,0 0,0.2 0,0 v -3.8 c 0,-0.11 -0.09,-0.2 -0.2,-0.2 h -8 c -0.111,0 -0.2,0.09 -0.2,0.2 V 14 c 0,0.2 0.2,0 0,0 h -13.8 c -0.111,0 -0.2,0.09 -0.2,0.2 V 28 c 0,0.2 0.2,0 0,0 h -3.8 c -0.111,0 -0.2,0.09 -0.2,0.2 v 8 c 0,0.11 0.089,0.2 0.2,0.2 h 3.8 c 0.2,0 0,-0.2 0,0 V 44 c 0,0.2 0.2,0 0,0 h -3.8 c -0.111,0 -0.2,0.09 -0.2,0.2 v 8 c 0,0.11 0.089,0.2 0.2,0.2 h 3.8 c 0.2,0 0,-0.2 0,0 V 60 c 0,0.2 0.2,0 0,0 h -3.8 c -0.111,0 -0.2,0.09 -0.2,0.2 v 8 c 0,0.11 0.089,0.2 0.2,0.2 h 3.8 c 0.2,0 0,-0.2 0,0 V 76 c 0,0.2 0.2,0 0,0 h -3.8 c -0.111,0 -0.2,0.09 -0.2,0.2 v 8 c 0,0.11 0.089,0.2 0.2,0.2 h 3.8 c 0.2,0 0,-0.2 0,0 V 92 c 0,0.2 0.2,0 0,0 h -3.8 c -0.111,0 -0.2,0.09 -0.2,0.2 v 8 c 0,0.11 0.089,0.2 0.2,0.2 h 3.8 c 0.2,0 0,-0.2 0,0 v 13.8 c 0,0.11 0.089,0.2 0.2,0.2"
       stroke="#000000"
       stroke-width="0.4"
       id="path68"
       style="stroke-width:0.01;stroke-miterlimit:4;stroke-dasharray:none" />
  </g>
  <g
     id="g1684"
     transform="matrix(3.143865,0,0,3.143865,189.01613,-222.96487)"
     style="stroke-width:0.318081">
    <g
       id="g1675"
       style="stroke-width:0.318081">
      <path
         id="path960"
         style="fill:#000000;stroke-width:0.318079"
         d="m -44.074621,73.738457 c -0.11957,0.01207 -0.23308,0.05272 -0.28577,0.116271 -0.0807,0.09866 -0.0829,1.019196 -0.008,4.791956 0.0508,2.568351 0.11502,5.246378 0.14262,5.951059 l 0.0501,1.281057 -0.70693,0.04961 c -0.38876,0.0272 -1.1756,0.05658 -1.74822,0.06718 l -1.04076,0.01757 -0.29456,-0.242363 -0.29404,-0.242364 -1.3689,-0.05168 c -0.75288,-0.0285 -1.99674,-0.05203 -2.76469,-0.05219 l -1.3963,-5.29e-4 -0.55242,0.390158 c -0.30373,0.21451 -0.6394,0.483002 -0.74569,0.596862 l -0.19276,0.206706 0.52607,2.564702 c 0.44509,2.168969 0.50883,2.578105 0.41393,2.651519 -0.0447,0.03458 -0.61767,0.910024 -1.27021,1.917711 v 0.468706 c 0.75152,-1.169376 1.37343,-2.11615 1.40043,-2.11615 0.0657,0 0.21772,0.638008 0.28422,1.193207 0.0391,0.32621 -0.0558,0.517652 -1.68465,3.080433 v 0.478525 c 0.16322,-0.252627 0.34932,-0.54452 0.55707,-0.875916 0.56846,-0.906711 1.08947,-1.722943 1.15807,-1.813843 0.11732,-0.155581 0.1379,-0.09737 0.35554,0.992187 l 0.23151,1.157036 -0.26562,0.517798 c -0.16285,0.317659 -0.24891,0.582126 -0.22221,0.684197 0.0335,0.128248 -0.0193,0.203668 -0.22944,0.327628 l 0.0858,0.122989 c 0.0117,-0.01061 0.0248,-0.02492 0.0357,-0.03359 l 0.21807,-0.174667 0.39068,0.276468 c 0.36202,0.25618 0.40006,0.316106 0.51883,0.810805 l -0.68937,-0.198438 0.88212,1.267106 c 0.0165,0.01654 0.37221,1.692817 0.79013,3.724837 1.92656,9.36742 2.04612,9.91047 2.68046,12.15843 l 0.63769,2.26084 -0.16692,0.55604 -0.16743,0.55656 0.16743,0.28474 c 0.31277,0.53177 1.16653,1.71587 1.38131,1.91564 0.17789,0.16553 0.2936,0.19957 0.68885,0.20051 l 0.47491,0.001 -0.002,2.58278 c -1.8e-4,0.16171 0.002,0.30143 0.004,0.44701 h 0.24029 c -0.008,-1.05118 0.003,-2.03967 0.046,-2.03967 0.034,0 0.77788,0.71341 1.65313,1.58492 l 0.45682,0.45475 h 0.27647 l -0.24908,-0.2341 c -0.66015,-0.62106 -1.41699,-1.32635 -1.68155,-1.56683 -0.45612,-0.41463 -0.47848,-0.45205 -0.43718,-0.73225 l 0.0439,-0.29559 1.41904,1.32912 c 0.7807,0.73118 1.50932,1.38847 1.6185,1.46037 0.0196,0.0129 0.0523,0.0261 0.0837,0.0393 h 1.41542 l -0.003,-0.0909 -0.63665,-0.0413 -0.63665,-0.0413 -1.19787,-1.03249 c -0.65894,-0.56767 -1.39875,-1.19274 -1.64434,-1.38958 l -0.447,-0.35812 -0.0248,-2.35748 -0.0253,-2.35748 0.67593,-0.0465 c 0.70047,-0.0485 4.01895,-0.1148 5.63428,-0.12454 0.53844,-0.003 0.8878,-2.4e-4 0.8878,0.0119 0,0.0216 -0.54626,0.31142 -1.21336,0.64389 -1.00676,0.50179 -1.3131,0.61786 -1.80403,0.68316 -0.32528,0.0447 -0.61552,0.0637 -0.64492,0.0455 -0.0293,-0.0181 -0.099,-0.2576 -0.15555,-0.53227 -0.19772,-0.96262 -0.31275,-0.88979 -0.15399,0.0971 0.11545,0.71753 0.13838,0.73239 0.99322,0.64389 0.66185,-0.0684 0.7734,-0.1077 1.58078,-0.55759 0.47781,-0.26622 0.87744,-0.4842 0.88884,-0.4842 0.011,0 0.0392,0.18791 0.0625,0.41754 0.0232,0.22967 0.0816,0.81046 0.13022,1.29088 0.0486,0.48041 0.12285,0.91533 0.16485,0.96583 0.0534,0.0643 -0.1694,0.31979 -0.74104,0.84956 -1.31281,1.21654 -1.31504,1.21751 -2.01228,1.27021 -0.34827,0.0263 -0.68759,0.10011 -0.79892,0.17312 -0.18223,0.11933 -0.19379,0.17057 -0.19379,0.86454 0,0.46781 0.035,0.77241 0.0956,0.83303 0.0525,0.0524 0.2951,0.0956 0.53951,0.0956 0.43571,0 0.47835,-0.0219 2.17971,-1.11363 0.95439,-0.61239 1.74962,-1.11311 1.76682,-1.11311 0.0174,0 0.0315,0.66501 0.0315,1.47794 v 1.27693 h 0.29921 l -0.0243,-2.95331 0.57826,-0.0238 0.57774,-0.0238 0.61495,-0.7214 c 0.90511,-1.06144 0.93309,-1.11346 0.81545,-1.53376 -0.16328,-0.58316 0.0136,-1.52197 0.68368,-3.62303 l 0.59635,-1.86914 0.21187,-2.53317 c 0.20651,-2.46541 0.20829,-2.53633 0.0641,-2.6417 -0.0815,-0.0596 -0.18561,-0.12081 -0.23151,-0.13591 -0.0546,-0.0182 0.12888,-1.73166 0.53072,-4.9537 0.33789,-2.70929 0.63469,-5.027917 0.65939,-5.152147 0.0425,-0.21328 0.0674,-0.188391 0.44287,0.437701 0.0334,-0.02774 0.0975,-0.114459 0.17104,-0.222211 l -0.51779,-0.856795 0.0532,-0.49971 c 0.053,-0.495099 0.058,-0.50345 0.51108,-0.848011 l 0.45734,-0.347782 0.24133,0.207741 c 0.0482,0.04155 0.10375,0.101854 0.15968,0.166915 -1.6e-4,-0.104781 -0.0156,-0.197978 -0.0522,-0.272852 -0.2438,-0.1539 -0.2971,-0.23005 -0.2682,-0.381889 0.0255,-0.133641 -0.0727,-0.349186 -0.3328,-0.729155 l -0.36949,-0.538985 0.0951,-0.750858 c 0.052,-0.412981 0.10388,-0.741022 0.11679,-0.728123 0.0125,0.01262 0.36934,0.82705 0.79271,1.80971 0.88848,2.062171 1.05946,2.387397 1.25419,2.387968 0.0911,5.29e-4 0.49441,-0.179398 0.82785,-0.348816 v -0.274402 l -0.28783,0.145211 c -0.2612,0.1318 -0.48774,0.239779 -0.50333,0.239779 -0.0805,0 -1.72599,-3.721579 -1.72599,-3.903639 0,-0.0401 -0.077,-0.149913 -0.17105,-0.243911 l -0.17105,-0.171051 0.14366,-1.144632 c 0.079,-0.62964 0.1693,-1.116188 0.2005,-1.081588 0.0433,0.0481 1.93458,4.284607 2.51509,5.63118 V 95.54183 c -0.78309,-1.83869 -2.33047,-5.332315 -2.43912,-5.463233 -0.0545,-0.06568 0.009,-0.778616 0.19792,-2.236557 0.15268,-1.17696 0.27742,-2.21482 0.2775,-2.306318 1.3e-4,-0.12143 -0.14951,-0.255897 -0.55397,-0.497128 l -0.55449,-0.330729 h -1.19838 c -1.30132,0 -3.67278,0.126923 -4.37337,0.234095 -0.30208,0.0462 -0.45469,0.0393 -0.493,-0.0217 -0.0592,-0.09469 -0.0609,-0.09159 -0.25011,0.464053 -0.10237,0.300601 -0.12945,0.320987 -0.49764,0.369488 -0.21432,0.0281 -1.34174,0.07132 -2.50528,0.09612 l -2.11563,0.04496 -0.0512,-0.891934 c -0.0281,-0.490371 -0.0745,-3.19993 -0.10335,-6.02134 -0.0365,-3.58511 -0.0783,-5.147414 -0.13953,-5.188313 -0.0757,-0.05056 -0.20133,-0.06685 -0.32091,-0.05478 z m 13.05657,22.739181 c 9e-5,0.06111 -0.004,0.125651 -0.0145,0.194302 0.0434,0.03082 0.11861,0.103601 0.20722,0.20464 l 0.24391,0.278019 -0.17777,-0.31781 c -0.0622,-0.111368 -0.161,-0.245271 -0.2589,-0.359151 z m -0.0145,0.194302 c -0.0224,-0.01588 -0.039,-0.02392 -0.0393,-0.01241 0.0155,0.0088 0.0249,0.02469 0.0336,0.04134 0.002,-0.0094 0.004,-0.01966 0.006,-0.02894 z m -0.006,0.02894 c -0.106,0.641848 -0.60135,1.539185 -0.8847,1.954401 l 0.0326,0.05426 c 0,0 1.01923,-1.689127 0.85215,-2.008662 z m -22.42861,1.948202 -0.47387,-0.68058 c -0.11744,0.106556 -0.26996,0.299233 -0.3576,0.458369 l 0.3545,-0.158646 -0.20361,0.152447 c 0.0353,-0.01185 0.0587,-0.0052 0.0455,0.04599 z m -0.68058,-0.22841 c -0.0987,0.03312 -0.29852,0.22329 -0.11472,0.08578 z m 10.11032,-24.409882 c 0.0989,0 0.12319,0.179874 0.14159,1.053685 0.0186,0.883499 0.003,1.053682 -0.0946,1.053682 -0.15553,0 -0.22231,-0.484508 -0.19121,-1.391648 0.0196,-0.572299 0.0488,-0.715719 0.14418,-0.715719 z m 0.0279,2.346111 c 0.11753,0 0.13077,0.171347 0.13125,1.650545 8e-4,2.36887 0.0799,7.416758 0.12041,7.674467 0.023,0.146211 -2.1e-4,0.219109 -0.0713,0.219109 -0.12777,0 -0.1812,-1.281604 -0.2589,-6.223394 -0.048,-3.051418 -0.0419,-3.320727 0.0786,-3.320727 z m 11.16676,8.595857 c 0.53054,0.01146 0.8305,0.05519 0.96686,0.132811 0.13461,0.0765 0.2447,0.166153 0.24495,0.198953 2.6e-4,0.0329 -0.31282,0.0597 -0.69557,0.05994 -0.38273,2.51e-4 -1.30432,0.05311 -2.04793,0.117306 -0.74365,0.06415 -1.52183,0.138681 -1.72961,0.16588 -0.35756,0.04673 -0.37767,0.03948 -0.37672,-0.13694 0.003,-0.38948 0.0788,-0.417875 1.28725,-0.476975 1.05908,-0.05177 1.82022,-0.07244 2.35077,-0.06098 z m -3.8778,0.136943 v 0.288873 c 0,0.161578 -0.0435,0.30226 -0.0992,0.31936 -0.0547,0.01701 -0.29985,0.05076 -0.54415,0.07596 l -0.44391,0.04547 -0.0842,-0.274402 c -0.098,-0.319328 -0.0995,-0.319043 0.67438,-0.402042 z m 5.34954,0.378273 c 0.0862,-2.65e-4 0.13828,0.0034 0.14728,0.01241 0.0512,0.05125 -0.74947,6.644751 -1.60249,13.193511 l -0.0946,0.723469 -1.48209,0.05323 c -0.8153,0.02948 -2.09084,0.1059 -2.83445,0.1695 -1.81074,0.155369 -1.86913,0.154512 -1.86913,-0.03204 0,-0.08334 0.0524,-0.611185 0.11627,-1.173057 0.11077,-0.973201 0.21536,-2.286727 0.32349,-4.047815 a 5.031017,5.031017 0 0 1 -0.69866,0.756544 c 0.0129,0.0655 0.007,0.179041 -0.0181,0.380855 -0.0312,0.25152 -0.0654,0.46609 -0.076,0.47749 -0.0106,0.01101 -0.13453,-0.02013 -0.27544,-0.06925 -0.32739,-0.11412 -0.74216,-0.04657 -1.31,0.213423 -0.2478,0.11344 -0.78115,0.274918 -1.18494,0.358119 -0.68533,0.141399 -1.10172,0.178305 -1.29087,0.114205 -0.0438,-0.0149 -0.21224,-0.04957 -0.37414,-0.07648 -0.27707,-0.04625 -0.29174,-0.06141 -0.27905,-0.363802 a 5.031017,5.031017 0 0 1 -0.25425,-0.08578 c -0.0215,0.120772 -0.0445,0.224928 -0.0563,0.238744 -0.0147,0.01725 -0.18064,-0.02732 -0.36897,-0.09922 -0.18836,-0.07198 -0.48861,-0.131257 -0.66714,-0.131257 -0.20465,0 -0.39961,0.05949 -0.52762,0.160195 l -0.20309,0.159681 -0.13229,-0.577741 c -0.0924,-0.404167 -0.20516,-0.931302 -0.30902,-1.420585 a 5.031017,5.031017 0 0 1 -0.47233,-0.74776 c -10e-4,0.0027 -2.6e-4,0.01217 -0.002,0.01344 -0.058,0.05798 -0.86151,-0.403672 -1.03353,-0.593762 -0.28275,-0.312433 -2.05654,-6.323131 -1.90686,-6.461622 0.0347,-0.03206 0.36985,-0.08266 0.74465,-0.112655 l 0.68161,-0.05426 0.18087,0.821139 c 0.2245,1.018879 0.57411,2.462197 0.81959,3.422013 a 5.031017,5.031017 0 0 1 0.0434,-0.268719 c -0.0866,-0.435107 -0.17826,-0.893212 -0.29559,-1.451073 -0.51122,-2.43015 -0.54226,-2.634157 -0.43408,-2.843236 0.14148,-0.273582 0.2164,-0.281271 0.37465,-0.03979 0.11149,0.170238 0.16749,0.182846 0.69402,0.158647 l 0.57257,-0.02635 -0.0532,0.284737 c -0.0922,0.49158 -0.0345,0.510977 1.49655,0.510045 0.0118,-8e-6 0.0294,-5.29e-4 0.0413,-5.29e-4 a 5.031017,5.031017 0 0 1 0.46663,-0.242364 c -0.36438,0.01807 -0.89136,0.03999 -1.07332,0.05168 l -0.81493,0.05219 v -0.31523 -0.315227 l 2.40554,-0.05271 c 1.32324,-0.02899 2.95184,-0.07629 3.6189,-0.104386 1.18988,-0.05001 1.21284,-0.04778 1.21284,0.113689 0,0.400738 -0.0377,0.416605 -1.02268,0.417544 -0.10926,1.94e-4 -0.34409,0.0068 -0.51108,0.0098 a 5.031017,5.031017 0 0 1 0.48008,0.205672 c 0.12865,-0.0083 0.27567,-0.01572 0.39636,-0.02429 l 0.73587,-0.05219 v -0.348804 -0.348298 l 0.37776,-0.0011 c 0.54029,-0.0016 0.69763,-0.06156 0.79323,-0.302824 l 0.0848,-0.212907 0.007,0.278537 c 0.005,0.203457 -0.18047,1.671227 -0.34572,2.858222 a 5.031017,5.031017 0 0 1 0.14211,0.241329 c 0.0558,-0.364892 0.0802,-0.549433 0.13901,-0.923456 0.1729,-1.099714 0.31471,-2.021756 0.31471,-2.048455 0,-0.0268 0.23245,-0.04806 0.51677,-0.04806 0.28436,0 0.51676,0.0344 0.51676,0.077 0,0.11367 -0.52251,3.399353 -0.80357,5.052922 -0.0193,0.113327 -0.0381,0.195673 -0.0579,0.304374 a 5.031017,5.031017 0 0 1 0,0.01498 5.031017,5.031017 0 0 1 -0.30644,1.727544 l 2.36058,-0.04858 c 2.66378,-0.05515 3.41995,-0.10627 3.41995,-0.23151 0,-0.08693 -3.49644,-0.01942 -4.89118,0.09457 -0.39366,0.033 -0.72767,0.05039 -0.74207,0.03979 -0.0143,-0.01024 0.0312,-0.105077 0.10077,-0.211357 0.11449,-0.174721 0.64974,-3.174789 1.04955,-5.882328 l 0.13746,-0.931728 0.32401,-0.03979 c 0.17808,-0.02151 0.66344,-0.059 1.079,-0.0832 0.41554,-0.02429 1.44965,-0.117507 2.29805,-0.206706 0.6363,-0.06728 1.20241,-0.107942 1.4609,-0.109037 z m -22.41155,0.273883 h 1.69137 c 1.5507,0 1.86932,0.03946 1.61127,0.198956 -0.0437,0.02703 -0.0791,0.130953 -0.0791,0.230992 0,0.175861 -0.0306,0.183862 -0.89503,0.233061 -1.66663,0.09495 -2.91988,0.232092 -2.86908,0.314193 0.0473,0.07658 2.036,0.03304 3.32642,-0.07286 l 0.55655,-0.04547 0.50746,1.897041 c 0.5215,1.950879 1.09318,3.815567 1.36374,4.446757 0.0934,0.21789 0.24795,0.41206 0.39378,0.49506 0.13181,0.07501 0.23955,0.157453 0.23978,0.183451 2.6e-4,0.02601 -0.50941,0.07017 -1.13275,0.09767 -0.62334,0.02761 -1.70565,0.104217 -2.40554,0.170016 v -0.0011 c -0.69987,0.06598 -1.44276,0.141764 -1.65054,0.168463 -0.20778,0.02761 -0.37776,0.02904 -0.37776,0.0041 0,-0.02498 -0.34174,-1.701215 -0.75912,-3.725354 l -0.75861,-3.680394 0.2222,-0.184486 c 0.1221,-0.10142 0.40043,-0.307255 0.61857,-0.457338 z m 4.52789,0 h 0.82269 l -0.14831,0.300241 -0.14883,0.300242 -0.74776,0.02223 c -0.82494,0.02458 -0.90508,-0.0209 -0.71159,-0.404109 0.10977,-0.217771 0.1157,-0.218594 0.9338,-0.218594 z m 16.84807,0.250116 c -0.24752,-0.0076 -0.43222,0.295206 -0.25477,0.509011 0.1062,0.128013 0.36112,0.154641 0.42892,0.04496 0.0239,-0.03875 -0.0277,-0.08882 -0.11473,-0.111622 -0.21139,-0.05523 -0.20072,-0.204086 0.0207,-0.289388 0.16762,-0.06468 0.16941,-0.07321 0.0289,-0.129707 -0.037,-0.01492 -0.0737,-0.02217 -0.10904,-0.02326 z m -14.79497,0.346231 -0.008,0.382924 c -0.0162,0.663469 0.0243,0.690395 1.02681,0.690395 h 0.36019 a 5.031017,5.031017 0 0 1 0.29972,-0.220141 c -0.88536,0.04024 -1.43072,0.04206 -1.47278,0 -0.0417,-0.04175 -0.10517,-0.250812 -0.14108,-0.464571 z m 8.10338,0.08372 c -0.0377,0.0056 -0.0807,0.111416 -0.10283,0.313674 l -0.0264,0.238747 -0.94155,0.02429 a 5.031017,5.031017 0 0 1 0.27182,0.1695 c 0.25203,-0.0063 0.50899,-0.02225 0.62012,-0.04444 0.23485,-0.04699 0.24856,-0.07003 0.24856,-0.413928 0,-0.19899 -0.0321,-0.29347 -0.0698,-0.287837 z m -8.82943,0.63717 c -0.0927,-0.05726 0.12548,1.516171 0.38499,2.953308 a 5.031017,5.031017 0 0 1 0.16898,-0.504362 c -0.21915,-1.237467 -0.46929,-2.396689 -0.55397,-2.448946 z m -5.97431,0.364318 c -0.0425,-0.0092 -0.0849,0.0041 -0.1385,0.03772 -0.1728,0.10832 -0.22074,0.399224 -0.0915,0.555006 v 5.29e-4 c 0.11312,0.136231 0.32237,0.11897 0.37207,-0.03049 0.0187,-0.056 -0.0131,-0.09248 -0.0708,-0.07958 -0.0581,0.01238 -0.11773,-0.06078 -0.13333,-0.163814 -0.0246,-0.162338 -0.004,-0.17924 0.1571,-0.130741 0.17822,0.0535 0.18022,0.04975 0.045,-0.09095 -0.0547,-0.05685 -0.0975,-0.08845 -0.14004,-0.09767 z m 1.8774,1.114144 c -0.15545,-0.0019 -0.31495,0.03245 -0.4687,0.105421 -0.35697,0.16937 -0.64589,0.706286 -0.56379,1.047998 0.0921,0.383509 0.26296,0.654379 0.4904,0.77773 0.11975,0.06481 0.37053,0.120438 0.55708,0.121438 0.28183,0.0026 0.38929,-0.04436 0.63613,-0.278534 l 0.29714,-0.282155 -0.30902,0.202573 c -0.4449,0.29097 -0.79253,0.269925 -1.13068,-0.06821 -0.22161,-0.221684 -0.27027,-0.330766 -0.27027,-0.604615 0,-0.273831 0.0486,-0.382429 0.27027,-0.604097 0.33988,-0.339852 0.68721,-0.359759 1.13068,-0.0646 l 0.30902,0.205671 -0.24598,-0.251664 c -0.19488,-0.199295 -0.44319,-0.303794 -0.70228,-0.306959 z m 4.48758,5.292701 c 0.0471,0.0072 0.11896,0.04265 0.21859,0.09353 0.29263,0.149432 0.30193,0.167675 0.47749,0.978236 0.24496,1.13157 0.21572,1.253004 -0.046,0.191201 -0.11774,-0.477609 -0.25814,-0.883036 -0.31264,-0.901237 -0.16616,-0.05536 -0.12095,0.196607 0.49144,2.738335 0.32467,1.34761 0.57871,2.462453 0.56431,2.476852 -0.0365,0.03647 -0.0495,-0.0105 -0.64027,-2.292366 -0.28877,-1.115441 -0.59453,-2.277994 -0.67903,-2.583305 -0.13351,-0.4826 -0.18155,-0.670036 -0.11266,-0.698666 0.0104,-0.0043 0.0231,-0.005 0.0388,-0.0026 z m -0.52555,0.0021 c 0.13337,-0.01593 0.23379,0.299522 0.88057,2.765722 0.40151,1.531022 0.72167,2.795566 0.71107,2.810166 -0.0105,0.01466 -0.42471,0.0606 -0.92036,0.101801 -0.49565,0.04134 -1.67073,0.164843 -2.61121,0.274402 v 5.29e-4 c -0.94047,0.109548 -1.82242,0.218573 -1.95957,0.242873 -0.13717,0.0241 -0.26729,0.014 -0.28939,-0.0227 -0.0222,-0.03674 -0.15245,-0.621658 -0.28939,-1.299658 -0.13693,-0.67803 -0.40381,-1.969646 -0.59272,-2.870626 l -0.34314,-1.638144 1.48002,-0.04961 c 1.20116,-0.04019 2.52323,-0.145928 3.93412,-0.314708 z m 15.99903,0.936376 0.21859,0.476975 c 0.12008,0.262449 0.22069,0.506386 0.22169,0.542084 0.002,0.03558 -0.14189,0.222917 -0.31988,0.415996 -0.31764,0.344631 -0.32281,0.346782 -0.31781,0.133843 0.003,-0.119312 0.0493,-0.52115 0.10181,-0.892969 z m -14.57638,1.262973 c 0.008,-0.0084 0.0193,0.0029 0.0321,0.03462 0.0233,0.05734 0.0202,0.125944 -0.006,0.152444 -0.0267,0.02641 -0.0459,-0.02069 -0.0419,-0.104386 0.002,-0.04635 0.008,-0.07432 0.016,-0.08268 z m 6.52002,0.108003 c 0.22194,-0.01125 0.41104,0.02297 0.48938,0.106971 0.28401,0.304541 0.27427,0.505621 -0.17622,3.663342 l -0.43821,3.073668 -0.28577,0.047 c -0.15719,0.0255 -0.67947,0.0385 -1.16065,0.0305 -0.48117,-0.009 -1.41945,-0.0273 -2.08515,-0.0408 l -1.21077,-0.0243 -0.0791,-0.29611 c -0.0436,-0.1629 -0.13651,-0.54696 -0.2067,-0.85318 -0.0703,-0.3062 -0.35825,-1.51513 -0.63976,-2.686656 l -0.51211,-2.130102 0.1757,-0.237197 c 0.22279,-0.301339 0.48453,-0.473355 0.72037,-0.473355 0.10161,0 0.50559,0.113577 0.89762,0.252698 0.60606,0.215098 0.82569,0.254786 1.46812,0.255799 0.80168,0.0028 1.63178,-0.181054 2.35697,-0.521933 0.20983,-0.0986 0.46432,-0.155146 0.68626,-0.166399 z m 0.12402,0.139528 c -0.24555,-0.01019 -0.62404,0.08861 -1.19269,0.285253 -0.86624,0.299619 -1.09551,0.345892 -1.97404,0.397391 l -0.99425,0.05891 1.11362,-0.01963 c 1.02043,-0.01791 1.17507,-0.04089 1.85157,-0.275434 0.49219,-0.17068 0.84963,-0.247711 1.07332,-0.231511 l 0.3359,0.02429 -0.0238,0.437184 c -0.027,0.499161 -0.51207,3.77164 -0.7028,4.74286 l -0.12661,0.64648 -0.36018,0.0491 c -0.69147,0.0946 -3.31995,0.0568 -3.46284,-0.0501 -0.0829,-0.062 -0.28105,-0.65362 -0.52607,-1.57045 -0.2163,-0.809252 -0.39494,-1.428446 -0.39894,-1.376146 -0.006,0.09575 0.46209,2.182676 0.62632,2.792596 0.0988,0.36672 0.16464,0.39268 1.11724,0.43718 v 5.3e-4 c 1.0685,0.0493 2.69348,0.0526 2.93006,0.005 0.18536,-0.0371 0.26486,-0.11002 0.32556,-0.29817 0.19977,-0.62028 0.80047,-4.710957 0.80047,-5.450316 0,-0.398526 -0.0961,-0.592024 -0.41187,-0.605131 z m -13.27102,0.438216 c 0.0392,0.01101 0.0879,0.17974 0.1664,0.556554 0.0774,0.371822 0.13409,0.682913 0.12609,0.690914 -0.008,0.0083 -0.15012,-0.09869 -0.31574,-0.238228 -0.29903,-0.251949 -0.30009,-0.255847 -0.18862,-0.532267 0.0617,-0.15311 0.14078,-0.349584 0.17518,-0.437182 0.0116,-0.02956 0.0236,-0.04346 0.0367,-0.03979 z m 8.98395,0.168463 c -0.0276,-0.0011 -0.0591,0.004 -0.0879,0.01551 -0.0635,0.02551 -0.0447,0.04406 0.0481,0.04806 0.0838,0.0033 0.13078,-0.01545 0.10438,-0.04186 -0.0132,-0.01304 -0.037,-0.02058 -0.0646,-0.0217 z m 5.08134,0.74621 -0.0382,0.993738 c -0.0213,0.546788 -0.0529,1.039188 -0.0698,1.093988 -0.0523,0.169432 -0.19514,0.109239 -0.18914,-0.07958 0.003,-0.09843 0.072,-0.590931 0.15193,-1.093989 z m -2.56367,0.03979 c -0.53671,0 -1.46122,0.02276 -2.05465,0.05116 -1.06515,0.05106 -1.07989,0.05482 -1.16789,0.258898 -0.089,0.20652 -0.089,0.206235 0.0522,0.03617 0.1393,-0.16767 0.17005,-0.169559 2.1022,-0.128157 2.38077,0.05101 2.21355,-0.0569 2.05879,1.331701 -0.0562,0.5035 -0.12433,0.915642 -0.15193,0.915712 -0.0276,8e-5 -0.0174,-0.429468 0.0227,-0.954468 0.0405,-0.524981 0.053,-0.974291 0.0289,-0.998389 -0.0515,-0.05152 -2.58885,0.109138 -3.28301,0.207737 -0.30784,0.0437 0.15089,0.05416 1.29243,0.02946 l 1.7694,-0.03824 -0.007,0.260451 c -0.004,0.143168 -0.0313,0.450395 -0.0599,0.682643 l -0.0517,0.422198 -1.27227,0.02532 c -0.69989,0.01381 -1.38444,0.05037 -1.52084,0.08217 l -0.24805,0.05788 -0.14573,-0.584462 c -0.0802,-0.321458 -0.15821,-0.527235 -0.17311,-0.457335 -0.0228,0.106929 0.43727,2.315275 0.58653,2.815335 0.0318,0.107 0.021,0.13298 -0.0331,0.0796 -0.0443,-0.0438 -0.26519,-0.77557 -0.49092,-1.62626 -0.22575,-0.850691 -0.44566,-1.602383 -0.48886,-1.670182 -0.0634,-0.09981 -0.0704,-0.093 -0.0362,0.03565 0.0233,0.0875 0.186,0.821153 0.36173,1.630392 0.17573,0.80923 0.35686,1.5573 0.40256,1.66191 l 0.0817,0.19017 1.62987,-0.0408 c 0.89643,-0.0224 1.65207,-0.0625 1.67897,-0.0894 0.0685,-0.0685 0.41965,-2.867043 0.42065,-3.361033 10e-4,-0.292899 -0.0445,-0.46563 -0.1633,-0.6165 -0.16208,-0.205569 -0.18105,-0.209289 -1.1405,-0.209289 z m 0.0734,1.143598 c -0.20355,-0.0065 -0.50817,-0.0053 -0.91416,0.0062 -1.39536,0.03969 -1.85824,0.09076 -1.79214,0.197921 l -10e-4,0.0016 c 0.0563,0.09 0.69811,0.09065 1.80092,0.0016 1.21602,-0.09816 1.51703,-0.187841 0.90641,-0.207224 z m -0.47801,0.383958 c -0.58517,-0.0099 -1.33999,0.02482 -1.77664,0.112136 -0.13768,0.02761 -0.25011,0.08719 -0.25011,0.132292 0,0.1007 2.49469,0.02119 2.78691,-0.08888 0.24057,-0.09071 -0.175,-0.145592 -0.76016,-0.155546 z m 9.07076,0.320392 c 0.10653,-0.0045 0.11633,0.04111 0.11627,0.196372 -7e-5,0.122279 -0.25049,2.190754 -0.55655,4.596624 -0.30604,2.40585 -0.84145,6.63204 -1.19011,9.39167 -0.34869,2.75963 -0.65671,5.07686 -0.68471,5.14956 l -5.3e-4,0.001 c -0.14946,0.38968 -0.19236,-0.10418 -0.21136,-2.42983 l -0.0207,-2.5616 -0.4992,-0.19534 -0.49867,-0.19533 0.0486,-0.68265 c 0.0267,-0.37547 0.0724,-1.05195 0.10129,-1.50327 l 0.0522,-0.82062 0.50643,-0.0207 0.50591,-0.0202 -0.0543,0.62219 c -0.0721,0.82654 -0.0304,0.94047 0.34003,0.93947 0.16111,-5.3e-4 0.34636,-0.0355 0.41186,-0.0775 0.0838,-0.0532 0.0367,-0.0634 -0.15864,-0.0351 -0.49427,0.0717 -0.49781,0.0553 -0.32298,-1.48259 0.21763,-1.91433 0.48162,-4.79867 0.48162,-5.25911 v -0.38189 l 0.45734,-0.005 c 0.38253,-0.004 0.4254,-0.0179 0.26148,-0.0832 -0.1078,-0.0433 -0.34001,-0.0678 -0.51624,-0.0548 -0.38178,0.0282 -0.32395,-0.23214 -0.63356,2.84685 -0.11658,1.15919 -0.22996,2.25512 -0.25166,2.43551 l -0.0398,0.32815 -0.49351,-0.005 -0.49403,-0.005 0.0233,-0.64182 c 0.0226,-0.62485 0.0106,-0.67258 -0.45734,-1.81901 -0.26429,-0.64752 -0.48059,-1.19325 -0.48059,-1.21285 0,-0.0195 0.12149,-0.0357 0.26975,-0.0357 0.35636,0 1.70781,-0.35366 1.82521,-0.47749 0.16786,-0.17713 -1.42444,0.1002 -2.02365,0.35244 -0.10423,0.0439 -0.20753,-0.15546 -0.5612,-1.08366 -0.38933,-1.02185 -0.45493,-1.14139 -0.64389,-1.17719 l -0.20981,-0.0398 -0.0434,-1.51102 c -0.0236,-0.83111 -0.0736,-1.61854 -0.11058,-1.74976 -0.0627,-0.22267 -0.0914,-0.23858 -0.44339,-0.23358 -0.34276,0.005 -0.37197,-0.009 -0.33176,-0.15865 0.0243,-0.0904 0.0444,-0.24513 0.045,-0.34365 5.3e-4,-0.105345 0.05,-0.178796 0.12041,-0.178796 0.0845,0 0.11946,0.08664 0.1204,0.298176 10e-4,0.22197 0.0211,0.2676 0.0786,0.1788 0.0423,-0.0656 0.0774,-0.19417 0.078,-0.28577 10e-4,-0.161782 0.0466,-0.168092 1.572,-0.215492 1.41749,-0.0441 3.70742,-0.220017 4.37441,-0.335897 0.0602,-0.01045 0.1066,-0.01709 0.14211,-0.0186 z m -12.98422,0.09095 c 0.008,-0.0084 0.0193,0.0024 0.032,0.03411 v 5.3e-4 c 0.0233,0.05745 0.0202,0.126044 -0.006,0.152445 -0.0267,0.02638 -0.0459,-0.02059 -0.0419,-0.104387 0.002,-0.0464 0.008,-0.07431 0.016,-0.08268 z m -0.45372,0.02791 c 0.075,-0.0031 0.11979,-0.0013 0.12713,0.0062 0.0292,0.02996 0.25119,0.819416 0.49299,1.753896 0.24184,0.93449 0.46251,1.72135 0.49041,1.74925 0.0277,0.0278 0.41459,0.063 0.85989,0.0775 l 0.80977,0.0264 0.006,0.46199 0.006,0.46198 -0.72295,0.0465 c -0.39762,0.0254 -1.0843,0.0683 -1.526,0.0956 -0.44171,0.0273 -0.84497,0.0757 -0.89607,0.10749 -0.0512,0.0316 -0.30149,0.69883 -0.55604,1.48311 h 5.3e-4 c -0.29887,0.92092 -0.50266,1.4306 -0.57516,1.43661 -0.24999,0.0239 -2.49363,-0.44895 -2.58124,-0.54416 -0.29846,-0.32407 -0.46878,-0.92666 -1.02836,-3.62768 -0.32916,-1.58875 -0.59893,-2.92191 -0.59893,-2.96261 0,-0.0408 0.23067,-0.0739 0.51263,-0.0739 0.78338,0 2.4023,-0.14837 3.90157,-0.3576 0.55773,-0.07782 1.05291,-0.131336 1.27796,-0.14056 z m 5.20123,0.28422 c 0.076,0.0097 0.0817,0.05408 0.0817,0.151926 0,0.18068 -0.0124,0.18139 -0.9741,0.18139 v 5.3e-4 c -0.53584,0 -1.17626,0.0268 -1.42317,0.0594 -0.44083,0.0583 -0.54517,0.0113 -0.54518,-0.24495 0,-0.0293 0.47408,-0.0537 1.05368,-0.0543 0.5796,-7.9e-4 1.24158,-0.02873 1.47123,-0.06253 0.0999,-0.01466 0.17622,-0.02545 0.23409,-0.03049 0.0434,-0.0038 0.0765,-0.0043 0.1018,-0.0011 z m 0.36122,0.361216 c 0.004,0.002 0.009,0.0129 0.014,0.032 0.02,0.0766 0.02,0.20142 0,0.27802 -0.02,0.0766 -0.0362,0.0141 -0.0362,-0.13901 0,-0.11482 0.009,-0.17855 0.0222,-0.17104 z m -0.27337,0.0863 -0.0532,0.42013 c -0.0295,0.23103 -0.0618,0.42997 -0.0723,0.44287 -0.0101,0.0123 -0.47925,0.0742 -1.04283,0.13746 v 5.3e-4 c -1.46609,0.16471 -1.46193,0.16495 -1.46193,-0.15761 0,-0.14582 0.0375,-0.16496 0.27234,-0.13746 0.35343,0.0413 1.79713,-0.1162 2.04277,-0.22273 0.16777,-0.0729 -1.0908,-0.0605 -2.19573,0.0217 -0.2013,0.0149 -0.2422,-0.0132 -0.262,-0.18241 l -0.0238,-0.20051 0.85834,0.001 c 0.47217,7.9e-4 1.10141,-0.0264 1.39837,-0.0605 z m 1.78491,0.32815 c 0.0312,0.003 0.0674,0.007 0.10903,0.0109 l 0.28733,0.0243 0.0522,1.23248 c 0.0286,0.678 0.0753,1.43882 0.10335,1.69034 l 0.0512,0.45733 h -1.38337 v -5.3e-4 c -0.76082,0 -1.80925,0.0232 -2.33009,0.0512 l -0.94723,0.0506 v -0.44803 -0.44855 h 1.63504 c 1.18949,-2e-4 1.66841,-0.0273 1.75751,-0.0997 0.0815,-0.0662 0.169,-0.43102 0.262,-1.09348 0.19088,-1.35875 0.18452,-1.44512 0.40308,-1.42678 z m -1.92443,0.83716 c 0.0798,-0.003 0.14493,-0.002 0.19327,0.002 0.0645,0.006 0.0992,0.0178 0.0992,0.0367 0,0.0407 -0.11964,0.0734 -0.26614,0.0734 v 5.3e-4 c -0.1465,0 -0.54942,0.0165 -0.89503,0.0367 -0.55599,0.0325 -0.57774,0.0285 -0.19069,-0.031 0.44858,-0.069 0.82005,-0.10956 1.05937,-0.11834 z m 2.94245,2.85667 0.077,0.23823 c 0.0422,0.13123 0.45172,1.18475 0.91002,2.34094 l 0.83303,2.1022 -0.0568,1.01957 c -0.0439,0.78957 -0.0814,1.01958 -0.16691,1.01958 -0.0607,0 -0.11059,0.0533 -0.11059,0.11886 2e-5,0.0658 0.0412,0.11937 0.0915,0.11937 0.0668,0 0.0767,0.25965 0.0367,0.96687 -0.03,0.53169 -0.0733,0.99704 -0.0961,1.03404 -0.0229,0.0368 -2.37808,0.0667 -5.2343,0.0667 h -5.19297 l -0.37155,-2.25309 -0.37104,-2.25309 0.27699,-0.94827 c 0.28063,-0.95938 1.044,-3.28573 1.0945,-3.33623 0.0667,-0.0668 3.88747,-0.20849 5.98155,-0.22169 z m -0.86971,0.0791 c -1.10358,0 -6.53961,0.21638 -6.8063,0.27078 -0.2899,0.0593 -0.2378,-0.0685 -0.78859,1.93632 -0.17735,0.6453 -0.31027,1.21056 -0.29507,1.25625 0.0152,0.0456 0.23755,-0.61182 0.49351,-1.46089 l 0.46509,-1.54357 0.92552,-0.0491 c 0.50886,-0.0271 2.16355,-0.0729 3.6773,-0.10181 l 2.75229,-0.0527 0.68729,1.72961 c 0.37811,0.95133 0.68782,1.77993 0.68782,1.84123 0,0.0914 -0.27341,0.11111 -1.53789,0.11111 -2.90843,0 -7.86086,0.1167 -6.9324,0.16329 v -5.3e-4 c 0.48117,0.0241 2.67346,0.0514 4.87154,0.0594 3.15416,0.0124 3.99452,-0.005 3.99252,-0.0832 -0.002,-0.0547 -0.35477,-0.99416 -0.78445,-2.08772 l -0.78135,-1.98851 z m 3.35018,0.44959 c -0.0512,7.9e-4 -0.1056,0.007 -0.15968,0.0207 -0.15227,0.0382 -0.19895,0.10177 -0.19895,0.2713 0,0.12165 0.0432,0.26386 0.0956,0.31626 v 5.3e-4 c 0.12613,0.12562 0.34105,0.12105 0.4501,-0.0104 0.0685,-0.0825 0.0487,-0.10474 -0.0899,-0.0997 -0.12637,0.004 -0.17725,-0.0396 -0.17725,-0.15297 0,-0.11384 0.0508,-0.15744 0.1788,-0.15244 0.0983,0.003 0.17931,-0.0248 0.17931,-0.0625 0,-0.0819 -0.12452,-0.13297 -0.27802,-0.13074 z m -3.5202,0.26923 c -0.93279,-0.003 -4.55403,0.15889 -5.18159,0.24236 -0.19274,0.0256 -0.40067,0.0967 -0.46147,0.15761 -0.0609,0.061 -0.17352,0.15608 -0.25011,0.21188 -0.0766,0.0556 -0.20324,0.19042 -0.28164,0.29972 l -0.14263,0.19896 0.0512,-0.19896 c 0.0443,-0.17306 0.0388,-0.17956 -0.0403,-0.0527 -0.0911,0.14593 -0.7121,1.93919 -0.7121,2.05621 0,0.0341 1.01116,0.0718 2.24689,0.0847 1.23576,0.0124 3.12697,0.0302 4.20233,0.0408 1.07534,0.0102 1.97518,-0.002 1.99988,-0.0264 0.0645,-0.0645 -1.04622,-2.81639 -1.21181,-3.0024 -0.007,-0.008 -0.0853,-0.0115 -0.2186,-0.0119 z m -0.45682,0.20205 0.27182,0.017 c 0.14972,0.009 0.28699,0.0616 0.30489,0.11628 0.0414,0.12604 -0.0388,0.12092 -0.33848,-0.0207 z m -2.2288,0.0734 c 1.90123,0 2.28307,0.0791 2.87786,0.59325 0.26676,0.23065 0.29595,0.29674 0.32815,0.74207 0.0288,0.39867 0.004,0.54234 -0.13436,0.77722 -0.2248,0.38096 -0.0299,0.31799 0.22686,-0.0734 l 0.1943,-0.29715 0.13488,0.3421 c 0.0741,0.18804 0.1295,0.34589 0.1235,0.35089 -0.006,0.005 -1.78726,0.0296 -3.95738,0.0543 l -3.94549,0.045 0.23874,-0.7829 c 0.14841,-0.48597 0.27425,-0.76966 0.33125,-0.74776 0.0899,0.0345 0.75964,-0.71966 0.75964,-0.85524 0,-0.0379 0.14671,-0.0687 0.32556,-0.0687 h 0.32505 l -0.20981,0.24908 c -0.5024,0.59708 -0.6426,1.21345 -0.40514,1.7818 0.0633,0.15169 0.13138,0.27544 0.15037,0.27544 0.0193,0 0.0158,-0.23465 -0.007,-0.52142 -0.0391,-0.48711 -0.0218,-0.56067 0.26252,-1.12086 0.20051,-0.395 0.3689,-0.62459 0.49351,-0.6718 0.10411,-0.0394 0.95347,-0.0718 1.88722,-0.0718 z m -7.22437,0.63614 c -0.32095,0 -0.48717,0.32776 -0.27388,0.54105 0.11297,0.113 0.43254,0.12696 0.49764,0.0217 0.0251,-0.0406 -0.0352,-0.0857 -0.13435,-0.0997 -0.099,-0.014 -0.18037,-0.0792 -0.18035,-0.14469 -2e-5,-0.0657 0.0812,-0.13069 0.18035,-0.14469 0.22501,-0.0319 0.15221,-0.17364 -0.0894,-0.17364 z m -1.44693,0.83923 c 0.0297,0.002 0.0949,0.037 0.21704,0.10748 0.33134,0.19133 1.00218,0.32903 1.93011,0.39585 0.44608,0.0321 0.71495,0.0845 0.70435,0.13746 -0.009,0.0472 -0.0958,0.35744 -0.19327,0.68936 l -0.17777,0.60306 0.30128,1.88154 c 0.23853,1.4826 0.2896,1.98938 0.24649,2.39159 l -0.0543,0.51004 h -0.31212 c -0.36601,0 -0.34967,-0.0995 -0.2372,1.47175 0.0408,0.56868 0.0972,1.38267 0.12558,1.80919 h 5.3e-4 c 0.028,0.4265 0.0376,0.77513 0.0207,0.77515 -0.0169,0 -0.30634,-0.97531 -0.64337,-2.16731 -0.40777,-1.44223 -0.82641,-3.20483 -1.25109,-5.26893 -0.35102,-1.70597 -0.65749,-3.16466 -0.68109,-3.24167 -0.0198,-0.0645 -0.0256,-0.0963 0.004,-0.0946 z m 9.03252,0.19482 c -2.36192,0 -3.23139,0.0617 -2.34766,0.1664 v 5.2e-4 c 0.56497,0.0668 3.45448,0.0807 4.2323,0.0202 1.3339,-0.10386 0.49713,-0.18706 -1.88464,-0.18706 z m -3.95066,0.12764 c -0.0171,-10e-4 -0.0325,0.005 -0.045,0.017 -0.0892,0.0892 0.0524,0.39958 0.24908,0.54622 h 0.001 c 0.20325,0.15217 0.2052,-0.093 0.002,-0.37827 -0.0846,-0.11811 -0.15586,-0.18165 -0.20722,-0.18501 z m 11.97911,1.38803 c 0.0475,0.002 0.11237,0.038 0.18138,0.10697 0.0947,0.0941 0.0965,0.22545 0.0108,0.85266 -0.0558,0.40788 -0.17757,1.49405 -0.27027,2.41381 -0.14369,1.42631 -0.22206,1.86556 -0.53278,2.98482 l -5.3e-4,5.3e-4 c -0.3182,1.14629 -0.42094,1.47422 -0.42065,1.34514 5e-5,-0.0182 0.21486,-1.71492 0.47698,-3.77083 0.26214,-2.05592 0.47666,-3.78279 0.47697,-3.83749 2.7e-4,-0.0661 0.0305,-0.0977 0.078,-0.0956 z m -3.65146,0.9896 -0.69815,0.0139 c -0.38393,0.007 -2.55562,0.0387 -4.82606,0.0693 l -4.12843,0.0553 0.0501,1.54202 c 0.0274,0.84807 0.0866,1.61196 0.13229,1.69706 0.0678,0.12679 0.18793,0.16028 0.65887,0.18448 l -5.3e-4,-5.3e-4 c 0.96404,0.0493 8.71143,0.0208 8.76433,-0.032 0.0274,-0.0272 0.0491,-0.83258 0.0486,-1.78955 z m -0.24288,0.26097 v 1.50843 1.50844 l -0.53691,0.0506 c -0.61876,0.0583 -6.11763,0.041 -7.53598,-0.0238 l -0.95395,-0.0439 -0.0506,-0.79531 c -0.0276,-0.43742 -0.0544,-1.06954 -0.0594,-1.40508 -0.009,-0.60528 -0.008,-0.61054 0.20929,-0.65164 0.12027,-0.023 2.17845,-0.0654 4.57337,-0.0946 z m -0.15916,0.16794 -4.31447,0.0506 c -2.37306,0.0277 -4.3635,0.0659 -4.4235,0.0848 -0.0891,0.0282 -0.0983,0.23377 -0.0506,1.12603 0.0323,0.60029 0.0893,1.17181 0.12661,1.27021 l 0.0677,0.1788 2.40812,0.0279 c 2.67196,0.031 5.89531,-0.0101 6.07198,-0.078 0.0932,-0.0357 0.11421,-0.28753 0.11421,-1.35186 z m -0.7922,0.2341 0.19792,0.44803 c 0.11189,0.25303 0.23379,0.42651 0.28009,0.39791 0.0538,-0.0336 0.0742,0.18466 0.0589,0.65164 l -0.0233,0.70228 -3.93671,0.0114 c -2.16524,0.006 -3.9975,-0.005 -4.0721,-0.0248 -0.17766,-0.0472 -0.20074,-0.14736 -0.26355,-1.15083 l -0.0527,-0.84646 0.98133,-0.0465 c 0.53975,-0.0256 2.29738,-0.068 3.90571,-0.0946 z m 0.35553,0.0134 c 0.0679,0 0.14377,0.0521 0.16847,0.11627 0.089,0.23215 -0.0203,0.29781 -0.15451,0.093 -0.12045,-0.1837 -0.12226,-0.20929 -0.014,-0.20929 z m -6.94066,0.28267 c -0.0222,-0.002 0.004,0.0887 0.0992,0.27233 0.17142,0.33149 0.0909,0.42145 -0.58188,0.65113 -0.3354,0.11449 -0.47005,0.1907 -0.36638,0.2067 0.0902,0.0141 0.33445,-0.0475 0.54312,-0.13694 0.45464,-0.19494 0.653,-0.20495 0.7462,-0.0382 0.0383,0.0684 0.13628,0.13485 0.21808,0.14625 0.0819,0.012 0.16455,0.068 0.18345,0.12506 0.0205,0.0612 -0.002,0.0809 -0.0553,0.0481 -0.0494,-0.0306 -0.0899,-0.0151 -0.0899,0.0341 0,0.0498 0.0635,0.0692 0.14469,0.0434 0.0933,-0.0296 0.2107,0.0252 0.33177,0.15399 0.18454,0.19642 0.32126,0.25655 0.31626,0.13953 -0.001,-0.0328 -0.21909,-0.2294 -0.4837,-0.43718 -0.38464,-0.30199 -0.44529,-0.37776 -0.3023,-0.37776 0.29098,0 0.12108,-0.0832 -0.1943,-0.0946 -0.15931,-0.006 -0.28991,-0.0409 -0.28991,-0.0775 0,-0.0365 0.0328,-0.0667 0.0729,-0.0667 0.0403,0 -0.004,-0.1407 -0.0977,-0.31264 -0.10086,-0.184 -0.17208,-0.27739 -0.19431,-0.27905 z m 1.08728,0.3669 c -0.0112,-0.001 -0.0533,0.0233 -0.1323,0.0724 -0.0983,0.0613 -0.1788,0.13847 -0.1788,0.17157 0,0.0331 0.0595,0.0605 0.1323,0.0605 0.0733,0 0.10941,-0.0235 0.0806,-0.0522 -0.0288,-0.0288 -0.008,-0.10648 0.046,-0.17209 0.0436,-0.0526 0.0634,-0.079 0.0522,-0.0801 z m 0.27285,0.32918 c -0.0133,-0.003 -0.0616,0.003 -0.14625,0.0202 -0.50875,0.10126 -0.42318,0.14733 0.71831,0.38396 h 5.2e-4 c 0.52307,0.10838 1.03573,0.20005 1.13947,0.20205 0.1595,0.004 0.1735,-0.0133 0.0894,-0.11472 -0.12031,-0.14497 -0.7663,-0.33757 -1.31155,-0.39067 -0.31878,-0.0312 -0.26058,-0.004 0.29352,0.13642 0.38017,0.0965 0.71483,0.19996 0.74363,0.22996 0.0612,0.0634 0.002,0.0523 -0.99426,-0.1819 -0.57589,-0.1354 -0.71563,-0.19305 -0.59634,-0.24495 0.0553,-0.0241 0.0769,-0.0371 0.0636,-0.0403 z m 1.58388,2.36006 c 5.19561,-0.001 5.27665,10e-4 5.80068,0.17157 0.42522,0.13839 0.54111,0.2117 0.57981,0.36587 0.027,0.10599 0.0432,1.25456 0.0382,2.55229 l -0.0104,2.35955 -0.28525,0.0801 c -0.15681,0.0442 -0.30023,0.1245 -0.31833,0.1788 -0.0455,0.13639 0.31615,0.12692 0.66198,-0.0176 0.25793,-0.10766 0.29055,-0.1048 0.43511,0.0398 0.086,0.0859 0.15607,0.18773 0.15607,0.22583 0,0.077 -0.63497,0.88648 -1.09089,1.39113 l 0.001,-5.3e-4 c -0.28067,0.31072 -0.31786,0.32685 -0.83405,0.35605 l -0.54054,0.0305 v -0.88935 c 0,-0.84051 0.008,-0.88658 0.15244,-0.84078 0.11376,0.0361 0.21941,-0.034 0.41342,-0.27543 0.21097,-0.26245 0.27304,-0.30066 0.32814,-0.20206 0.0375,0.067 0.12479,0.12196 0.19379,0.12196 0.1102,0 0.1204,-0.13809 0.0863,-1.13327 -0.0468,-1.36618 -0.10242,-1.54172 -0.51418,-1.61902 -0.32443,-0.0608 -7.12341,0.0127 -9.1922,0.0997 -0.85212,0.0358 -1.24621,0.0811 -1.2268,0.14004 0.0157,0.0479 0.19613,0.0976 0.40049,0.11111 0.20438,0.0133 0.37155,0.0534 0.37155,0.0894 0,0.036 -0.0612,0.32966 -0.13591,0.65216 l -0.13591,0.58601 -0.062,-0.47233 c -0.0341,-0.25971 -0.0983,-0.50802 -0.14262,-0.55242 -0.11496,-0.11492 -0.10432,0.86954 0.015,1.38596 0.0869,0.37638 0.0817,0.42283 -0.0553,0.52297 -0.0827,0.0604 -0.28062,0.11007 -0.43977,0.11007 h -0.28939 l -0.10077,-1.72961 c -0.0554,-0.95143 -0.12836,-2.12384 -0.16226,-2.60501 -0.0334,-0.48117 -0.0463,-0.90161 -0.0274,-0.93431 0.0189,-0.0326 0.17538,-0.0594 0.34778,-0.0594 0.22573,0 0.31316,-0.0337 0.31316,-0.11937 0,-0.10483 0.63887,-0.11946 5.26893,-0.12041 z m 3.69125,0.42013 c -0.0373,0.0221 -0.0549,0.17742 -0.0264,0.4501 0.0674,0.64481 0.25365,1.03099 0.56328,1.16582 v -5.3e-4 c 0.27354,0.1193 1.60198,0.15361 1.67018,0.0434 0.0236,-0.0382 -0.25136,-0.0948 -0.61133,-0.12609 -0.87497,-0.0763 -1.11592,-0.18592 -1.27228,-0.57671 -0.0691,-0.17236 -0.15056,-0.44493 -0.18086,-0.60616 -0.0489,-0.26053 -0.10537,-0.37197 -0.14263,-0.34985 z m -3.65301,1.25781 c -0.0782,-0.005 -0.179,-1.6e-4 -0.30799,0.01 l -0.34727,0.0269 0.27854,0.0827 c 0.1583,0.047 0.28969,0.143 0.30489,0.2222 0.0224,0.11524 -0.023,0.13511 -0.27802,0.11421 -0.24669,-0.0203 -0.31013,-0.0595 -0.33073,-0.20412 -0.0247,-0.1738 -0.17363,-0.25886 -0.17363,-0.0992 0,0.0494 -0.44639,0.0791 -1.18029,0.0791 -1.85586,0 -3.37528,0.0891 -3.27267,0.19172 0.1025,0.10296 2.87519,0.0945 3.83698,-0.0114 0.56907,-0.0627 0.61598,-0.0568 0.61598,0.0775 0,0.0799 0.0805,0.1786 0.1788,0.2191 h 5.3e-4 c 0.0986,0.0405 0.33981,0.0648 0.5364,0.0569 l 0.35811,-0.0165 0.0243,-0.33899 c 0.0213,-0.29553 -0.009,-0.39525 -0.24391,-0.4098 z m 2.16834,0.15451 c -0.96572,0 -1.49765,0.0665 -1.33842,0.16743 0.058,0.0367 0.6604,0.0667 1.33842,0.0667 0.67801,0 1.28022,-0.0298 1.33842,-0.0667 0.15923,-0.10099 -0.37271,-0.16743 -1.33842,-0.16743 z m 1.89394,1.28002 c 0.15451,0.0295 0.16376,0.37144 0.20051,1.30328 l 0.0517,1.3131 -0.32712,0.29766 c -0.18,0.16369 -0.35414,0.30749 -0.38654,0.32039 -0.0325,0.0126 -0.0783,-0.41696 -0.10232,-0.95446 -0.024,-0.5375 -0.0963,-1.16793 -0.16019,-1.40095 l -0.11628,-0.42323 0.36794,-0.23099 c 0.2347,-0.14743 0.37962,-0.24251 0.47232,-0.2248 z m 0.47336,0.0419 c 0.0336,-0.0207 0.21848,0.42238 0.41083,0.98496 l 0.34985,1.02267 -0.27182,0.31471 c -0.1494,0.17298 -0.31085,0.33304 -0.35915,0.35554 -0.14095,0.0654 -0.26951,-2.59138 -0.12971,-2.67788 z m 0.48524,0.0104 c 0.0245,-7.9e-4 0.0542,0.001 0.0899,0.006 0.27244,0.0385 0.29515,0.0954 0.35915,0.90331 0.03,0.38928 0.042,0.7223 0.0243,0.74 -0.0311,0.0311 -0.51578,-1.31156 -0.56018,-1.55184 -0.0119,-0.0647 0.0133,-0.0951 0.0868,-0.0977 z m -9.10125,0.0977 c 0.16008,0 0.18772,0.0501 0.23202,0.41755 0.0276,0.22966 0.0508,0.76619 0.0512,1.19269 h -5.3e-4 c 5.3e-4,0.42651 -0.0261,0.77294 -0.0589,0.76895 -0.0328,-0.004 -0.1934,-0.14212 -0.35708,-0.308 -0.29697,-0.30097 -0.29748,-0.30248 -0.22117,-0.72915 0.0421,-0.23511 0.0982,-0.63366 0.12453,-0.88522 0.0429,-0.40969 0.0669,-0.45682 0.22996,-0.45682 z m 1.59422,0.11472 c -0.0133,-0.004 -0.0264,-0.003 -0.0388,0.004 -0.1002,0.0626 -0.10147,0.36778 -0.001,0.63149 h -0.002 c 0.10457,0.2751 0.24082,0.2583 0.24082,-0.0295 0,-0.2728 -0.10632,-0.57572 -0.19948,-0.60616 z m -0.62374,0.71107 c -0.01,0.001 -0.002,0.0118 0.0253,0.0341 0.10745,0.0876 0.76944,0.51734 1.47123,0.95446 1.10201,0.68644 1.33841,0.80263 1.73426,0.85163 0.2521,0.0312 0.47271,0.0799 0.49041,0.10852 0.0177,0.0286 0.0577,0.30673 0.0884,0.61805 l 0.0558,0.56586 -0.55294,0.0553 -0.55294,0.0558 -0.709,-0.45785 c -0.80302,-0.51831 -1.97362,-1.23324 -2.26446,-1.38338 -0.28551,-0.14736 -0.0958,0.0348 0.35554,0.34158 l 0.37258,0.25321 0.0165,1.11363 c 0.009,0.61238 0.0524,1.16698 0.0956,1.23249 h -5.3e-4 c 0.11215,0.17019 0.13976,-0.15683 0.10646,-1.28055 l -0.0274,-0.92294 1.03404,0.69763 1.03353,0.69764 0.63666,-0.0822 c 0.34996,-0.0452 0.66458,-0.10815 0.69918,-0.14005 0.0697,-0.064 -0.0861,-1.43808 -0.18035,-1.5906 -0.0326,-0.0526 -0.28789,-0.11596 -0.56741,-0.14056 -0.42906,-0.0375 -0.63235,-0.11497 -1.3038,-0.49816 -1.05672,-0.6031 -1.98729,-1.09075 -2.05672,-1.08365 z m 2.65617,0.76481 c -0.11518,0 -0.10275,0.34506 0.0171,0.46613 0.08,0.0808 0.10465,0.0672 0.12557,-0.0693 0.0325,-0.211 -0.0341,-0.39688 -0.14263,-0.39688 z m -5.69578,0.14005 c 0.0377,-0.0187 0.0798,0.0882 0.16123,0.37672 0.074,0.26244 0.16778,0.58163 0.20878,0.709 0.11557,0.35917 0.0377,0.32699 -0.2341,-0.0966 -0.24881,-0.38757 -0.29419,-0.63078 -0.17363,-0.93018 0.0129,-0.032 0.0252,-0.0527 0.0377,-0.0589 z m 1.61438,0.34416 0.2253,0.23513 c 0.12378,0.12911 0.28579,0.23513 0.36071,0.23513 0.12022,0 0.13463,0.10006 0.12402,0.91364 v 5.2e-4 l -0.0114,0.91364 -0.48937,5.3e-4 -0.4899,5.3e-4 -0.40514,-0.54622 c -0.36913,-0.49802 -0.40512,-0.58489 -0.40515,-0.97462 v -0.42736 l 0.38654,0.0269 c 0.33603,0.0233 0.40703,5.3e-4 0.54519,-0.17518 z m 8.78706,0.78807 c 0.0349,0 0.0633,0.38501 0.063,0.85524 l -5.3e-4,0.85473 -1.09295,0.71262 c -0.60119,0.39182 -1.42209,0.91967 -1.82418,1.17305 -0.5666,0.35704 -0.80092,0.46044 -1.04077,0.46044 -0.17021,0 -0.33325,-0.0236 -0.36225,-0.0527 -0.0766,-0.0764 -0.0631,-1.08088 0.016,-1.20561 0.0801,-0.12624 0.5664,-0.24715 1.00459,-0.25115 0.17498,-0.001 0.41262,-0.0648 0.52813,-0.14107 0.25941,-0.17126 1.90295,-1.63814 2.33112,-2.0805 0.17292,-0.17865 0.34296,-0.32504 0.37776,-0.32504 z m -0.96429,2.90938 c -0.008,-0.002 -0.0153,-0.001 -0.0227,0.004 -0.11045,0.0683 -0.0318,1.10236 0.108,1.42162 l 0.10439,0.23875 0.0258,-0.42375 c 0.0298,-0.48949 -0.10159,-1.21206 -0.21549,-1.24024 z m -6.76599,1.04955 c 0,0.0701 0.32904,0.43852 0.74879,0.86403 h 0.30179 c -0.58167,-0.50099 -1.05058,-0.89268 -1.05058,-0.86403 z m 7.67498,0.13281 c -0.0217,-0.0203 -0.0932,0.0688 -0.21239,0.26871 -0.0554,0.093 -0.20719,0.26597 -0.39739,0.46251 h 0.34158 c 0.0809,-0.11566 0.14138,-0.22788 0.18139,-0.3452 0.0804,-0.23613 0.10855,-0.36571 0.0868,-0.38602 z" />
      <path
         style="fill:#000000;stroke-width:0.318079"
         d="m -51.899201,97.438794 c -0.0216,-0.008 -0.12587,0.55262 -0.23183,1.24832 -0.34007,2.232336 -0.88304,5.486846 -0.94633,5.672336 -0.0369,0.10793 -0.12758,0.18965 -0.22695,0.20414 -0.13615,0.02 -0.18027,0.13846 -0.24844,0.66705 -0.0457,0.35348 -0.1367,0.91509 -0.20244,1.24807 -0.0657,0.33293 -0.0865,0.68655 -0.0464,0.78577 0.0402,0.0992 0.0559,0.29522 0.0348,0.43554 -0.0504,0.33651 0.0733,0.45241 0.41044,0.38431 0.53604,-0.1083 0.65564,0.12676 0.67326,1.32331 0.0127,0.86299 0.0812,1.0157 0.44265,0.98619 0.21537,-0.0176 0.31647,-0.0633 0.41727,-0.18795 0.15538,-0.19233 0.61084,-0.39958 0.75187,-0.34217 0.0535,0.022 0.45734,0.0699 0.89699,0.10666 0.89912,0.0752 1.74313,0.27843 1.80654,0.435 0.0568,0.14007 -0.18325,0.31305 -0.78888,0.56863 -0.46653,0.19715 -0.5689,0.20711 -1.37871,0.13793 -0.48108,-0.0411 -0.88779,-0.0694 -0.9038,-0.0629 -0.0159,0.006 0.041,0.23437 0.12661,0.50647 0.15297,0.48642 0.14406,0.92845 -0.0201,0.99493 -0.0459,0.0185 -0.0484,-0.0616 -0.006,-0.17822 0.0602,-0.16444 0.0272,-0.35317 -0.14707,-0.84142 -0.14089,-0.39464 -0.19432,-0.64169 -0.14303,-0.66249 0.045,-0.0182 0.5042,-0.008 1.02059,0.0202 0.84549,0.0481 0.98092,0.0338 1.36101,-0.14366 0.23217,-0.1083 0.40486,-0.22506 0.38375,-0.25932 -0.0207,-0.0344 -0.3812,-0.12018 -0.80023,-0.19074 -0.72516,-0.1222 -0.80317,-0.11726 -1.619,0.10156 -1.26179,0.33855 -1.64857,0.51237 -1.93562,0.87001 -0.13281,0.16532 -0.27055,0.41373 -0.30605,0.55189 -0.0746,0.28964 0.0695,0.70719 0.31196,0.90389 l 0.16718,0.13575 -0.0401,-0.24122 c -0.0684,-0.41264 0.20392,0.2796 0.62073,1.5787 0.45042,1.4036 0.79283,2.02884 1.26321,2.30726 l 0.29925,0.17712 0.0608,-0.35307 c 0.0335,-0.19418 0.0811,-0.57663 0.10615,-0.84992 l 0.0453,-0.49686 -0.39208,-0.52205 -0.3921,-0.52208 -0.1241,-0.80686 c -0.0684,-0.44376 -0.0868,-0.7527 -0.0412,-0.68646 0.0456,0.0662 0.0889,0.23601 0.0956,0.37726 0.028,0.56532 0.27055,1.18144 0.60771,1.54354 0.17547,0.18849 0.35786,0.43818 0.40517,0.55491 0.0855,0.21103 -0.0197,1.70484 -0.13514,1.91969 -0.087,0.16208 -0.33873,0.11563 -0.71699,-0.13209 -0.52221,-0.3421 -0.82123,-0.92309 -1.24105,-2.41138 l -0.35345,-1.25297 -0.29067,-0.23216 c -0.35249,-0.28152 -0.5312,-0.79547 -0.39731,-1.14286 l 0.0857,-0.22244 -0.54155,-0.68164 c -0.29786,-0.3749 -0.66328,-0.7675 -0.812,-0.87243 -0.24801,-0.17498 -0.29142,-0.2523 -0.52333,-0.93234 -0.1791,-0.525 -0.22817,-0.76461 -0.16828,-0.82057 0.0466,-0.0434 0.0721,-0.11019 0.0568,-0.14801 -0.0153,-0.0378 -0.10665,0.0708 -0.20254,0.24138 -0.1901,0.33785 -0.15386,0.54433 0.12755,0.72665 0.19687,0.12757 0.15099,0.18596 -0.093,0.11841 -0.229,-0.0633 -0.46815,-0.28785 -0.48084,-0.45135 -0.0115,-0.15093 0.38439,-0.77252 0.52987,-0.83144 0.0462,-0.0187 0.0878,-0.12611 0.0928,-0.23849 0.005,-0.11247 0.10504,-0.30934 0.22273,-0.43746 0.11765,-0.12825 0.20377,-0.25823 0.19129,-0.28904 -0.0126,-0.0307 0.0466,-0.55928 0.13142,-1.17435 0.14413,-1.04567 0.14276,-1.12989 -0.0208,-1.29615 -0.19687,-0.1999 -0.17663,-0.41589 0.14643,-1.55039 0.1473,-0.51765 0.14973,-0.67504 0.0221,-1.4248 -0.18302,-1.07445 -0.18341,-1.384416 -0.002,-1.457916 0.10346,-0.042 0.17389,-0.32742 0.2639,-1.07223 3.3585,-1.54291 2.73977,-1.41292 2.73977,-1.41292 z m -1.32215,13.087366 c -0.13693,-0.24113 -0.14377,-0.35835 -0.0447,-0.8648 0.11246,-0.58 0.0796,-1.16273 -0.0751,-1.32827 -0.1527,-0.1636 -0.21117,-0.0309 -0.10906,0.24781 l 0.10261,0.28024 -0.18938,-0.24507 c -0.17687,-0.22899 -0.20801,-0.23755 -0.47354,-0.13 -0.17016,0.0688 -0.3156,0.0815 -0.36242,0.0313 -0.0638,-0.0685 -0.14225,-0.0394 -0.42688,0.15763 l -0.34861,0.2414 0.12005,0.36201 c 0.0829,0.25024 0.17209,0.38716 0.28872,0.44352 0.0928,0.0449 0.36974,0.3823 0.6155,0.74986 0.24568,0.3676 0.47537,0.70303 0.51018,0.74544 0.0464,0.0568 0.12807,0.0126 0.30718,-0.16723 0.23684,-0.23741 0.23926,-0.25241 0.0854,-0.52351 z m 0.37012,-0.28134 c -0.0498,-0.12296 -0.091,-0.36691 -0.0913,-0.54226 -6.9e-4,-0.29422 -0.005,-0.30367 -0.0595,-0.12335 -0.0908,0.30347 -0.081,0.73867 0.0188,0.84566 0.15107,0.16191 0.22765,0.0573 0.13158,-0.17998 z m -0.21507,-1.94821 c -0.0472,-0.0634 -0.0389,7.6e-4 0.0185,0.14266 0.0575,0.1419 0.0961,0.19378 0.0859,0.11537 -0.0106,-0.0785 -0.0573,-0.19453 -0.10451,-0.25799 z m -0.91486,0.006 c -0.18381,-0.0351 -0.42806,0.0636 -0.33174,0.13436 0.0413,0.0305 0.16449,0.0185 0.27337,-0.0262 0.15477,-0.0636 0.16752,-0.0872 0.0584,-0.10817 z m -0.93376,0.16367 c 0.28661,-0.28387 0.58001,-0.39799 0.85851,-0.33382 0.22315,0.0513 0.22361,0.0505 0.0838,-0.14085 -0.2795,-0.38276 -0.40483,-0.37465 -1.07878,0.0697 -0.35921,0.23686 -0.37826,0.26666 -0.2983,0.46408 0.0982,0.24263 0.1351,0.2376 0.43471,-0.0593 z m 0.91437,-1.05894 c -0.025,-0.0619 -0.15055,-0.11019 -0.27907,-0.10742 -0.12853,0.002 -0.38159,-0.0353 -0.5625,-0.0849 l -0.32893,-0.0898 -0.11462,0.3197 c -0.16851,0.46981 -0.11651,0.50156 0.38818,0.23715 0.34198,-0.17913 0.48644,-0.21937 0.63626,-0.17698 0.2471,0.0698 0.31787,0.0433 0.26084,-0.0974 z m 0.0972,-1.58178 c 0.10134,-0.60737 0.17063,-1.13742 0.15402,-1.17789 -0.0246,-0.06 -0.29655,-0.0992 -0.82565,-0.11967 -0.0636,-0.002 -0.36719,2.0272 -0.33744,2.25646 0.0239,0.18315 0.50064,0.33817 0.69149,0.22471 0.0865,-0.0511 0.19833,-0.46888 0.31758,-1.1836 z m 0.73087,-2.32247 0.1241,-0.70369 -0.41023,-0.0229 c -0.49982,-0.028 -0.77497,-0.10856 -0.92996,-0.27261 -0.1078,-0.11398 -0.12812,-0.0917 -0.25094,0.27324 -0.20926,0.62224 -0.31412,1.27399 -0.22097,1.37373 0.11171,0.11955 1.2581,0.22307 1.43009,0.12908 0.0826,-0.0444 0.18168,-0.34434 0.25793,-0.77685 z m 0.37132,-2.17958 0.19523,-1.25387 -0.41351,-0.0244 c -0.41175,-0.0243 -1.31344,-0.352746 -1.14999,-0.418936 0.0472,-0.019 0.4232,0.0381 0.83555,0.12738 l 0.74971,0.16216 0.19124,-1.20828 c 0.28381,-1.79314 0.28903,-1.66113 -0.0865,-2.18673 l -1.61049,0.54199 c 0,0 1.5866,0.0214 1.45742,0.26634 -0.0266,-0.0114 -1.7536,2.08091 -1.72885,1.78294 0.0247,-0.29796 0.0327,-0.53678 0.0178,-0.53074 -0.015,0.006 -0.0874,0.30572 -0.16123,0.66595 -0.0738,0.36026 -0.0983,0.6405 -0.0548,0.6228 0.13221,-0.0535 0.91194,0.146116 0.95146,0.243676 0.0202,0.0501 -0.0463,0.60543 -0.14794,1.23423 -0.10167,0.62878 -0.14709,1.14085 -0.10103,1.13794 0.0462,-0.002 0.22476,0.0283 0.39701,0.0692 0.17222,0.041 0.34701,0.0627 0.38837,0.0484 0.041,-0.0153 0.16305,-0.59044 0.27042,-1.28006 z m -1.20079,-0.0606 c 0.0818,-0.51154 0.11702,-0.96413 0.078,-1.00572 -0.0961,-0.10283 -0.82505,-0.15127 -0.86364,-0.0573 -0.017,0.0415 0.0351,0.48687 0.11588,0.98983 0.11323,0.70536 0.17596,0.93011 0.27432,0.98296 0.0701,0.0378 0.15428,0.0577 0.18709,0.0445 0.0327,-0.0132 0.12653,-0.44264 0.20834,-0.95418 z m 0.62824,11.07526 c -0.0826,-0.19408 0.0717,-0.7218 0.2864,-0.97803 0.11589,-0.13815 0.34405,-0.29577 0.53644,-0.37037 0.36595,-0.14275 0.38032,-0.16984 -0.19842,0.39549 -0.12498,0.12209 -0.26483,0.31916 -0.31081,0.43799 -0.0809,0.20878 -0.0824,0.24468 -0.018,0.40394 0.0164,0.0406 -0.007,0.0888 -0.0529,0.10716 -0.0571,0.0231 -0.0683,-0.0126 -0.0353,-0.11437 0.03,-0.0947 0.0185,-0.13624 -0.0321,-0.11575 -0.0434,0.0176 -0.0894,0.10389 -0.10198,0.19144 -0.0197,0.13714 -0.03,0.14305 -0.0732,0.042 z"
         id="path960-5-3"
         sodipodi:nodetypes="csscsssssssscssssscscsssssssssscssscsscccsscssssscsscsssssssssscsssssssccsscsssscssscsccsssssssssscsssssssscsscsscccssssscsscscsccssscssscsscscccscsccccscsssssscssscccsssscsscc" />
      <path
         style="fill:#000000;stroke-width:0.318079"
         d="m -32.812971,96.409244 c 0.0215,-0.008 0.13383,0.55076 0.24978,1.24484 0.37224,2.22722 0.96208,5.473546 1.02806,5.658116 0.0384,0.10742 0.13028,0.18779 0.22985,0.20085 0.13636,0.0183 0.18225,0.13579 0.25803,0.66337 0.0508,0.35281 0.14988,0.91303 0.22042,1.24503 0.0705,0.33196 0.0964,0.68524 0.0577,0.78504 -0.0386,0.0997 -0.0513,0.29603 -0.0286,0.43599 0.0553,0.33577 -0.0667,0.45343 -0.40485,0.3902 -0.53764,-0.10004 -0.65374,0.1362 -0.65413,1.33288 -2.9e-4,0.86308 -0.0666,1.01675 -0.42837,0.99246 -0.21562,-0.0144 -0.31724,-0.0593 -0.41994,-0.18193 -0.15813,-0.19005 -0.61653,-0.39073 -0.75671,-0.33128 -0.0532,0.0227 -0.4563,0.0765 -0.89537,0.11954 -0.89794,0.0882 -1.73893,0.30354 -1.80007,0.461 -0.0548,0.1409 0.18774,0.31039 0.79699,0.55721 0.46931,0.19045 0.57184,0.19882 1.38056,0.11804 0.48044,-0.0481 0.88667,-0.0823 0.90279,-0.076 0.0162,0.005 -0.0371,0.23503 -0.1193,0.50825 -0.14589,0.4886 -0.13066,0.93042 0.0345,0.99453 0.0462,0.0178 0.0475,-0.0623 0.004,-0.17829 -0.0626,-0.16356 -0.0322,-0.35276 0.13489,-0.84347 0.13515,-0.39665 0.18503,-0.64442 0.13328,-0.66451 -0.0452,-0.0177 -0.50426,-0.001 -1.02019,0.0348 -0.84472,0.0602 -0.98033,0.0479 -1.36296,-0.12397 -0.23369,-0.10493 -0.40804,-0.21921 -0.38743,-0.25375 0.0202,-0.0346 0.37944,-0.12563 0.7974,-0.20226 0.72332,-0.13264 0.80138,-0.12884 1.62029,0.0783 1.26656,0.32026 1.65578,0.48855 1.94796,0.84202 0.1352,0.16339 0.27648,0.40979 0.31399,0.54743 0.0788,0.28852 -0.0594,0.70811 -0.29896,0.90828 l -0.16521,0.13813 0.0371,-0.24165 c 0.0625,-0.41359 -0.19986,0.2825 -0.5979,1.58747 -0.43012,1.40995 -0.76349,2.04005 -1.22978,2.32523 l -0.2967,0.18144 -0.0658,-0.35216 c -0.0364,-0.19369 -0.0895,-0.57542 -0.11841,-0.84831 l -0.0525,-0.49614 0.38452,-0.52766 0.38452,-0.52768 0.11248,-0.80858 c 0.062,-0.44469 0.0759,-0.75388 0.0313,-0.68697 -0.0446,0.0668 -0.0854,0.23725 -0.0901,0.37859 -0.0197,0.56571 -0.25352,1.18522 -0.58538,1.55215 -0.17274,0.19101 -0.3515,0.44331 -0.39713,0.5607 -0.0825,0.21224 0.0444,1.70438 0.16281,1.91754 0.0894,0.1608 0.34035,0.1107 0.71501,-0.1424 0.51722,-0.34961 0.80783,-0.93486 1.20615,-2.42904 l 0.33534,-1.25793 0.2873,-0.23634 c 0.3484,-0.28657 0.51968,-0.80302 0.38079,-1.14847 l -0.0889,-0.22116 0.53168,-0.6894 c 0.29241,-0.37913 0.65211,-0.77697 0.79933,-0.88404 0.24545,-0.17853 0.28774,-0.25648 0.50982,-0.93978 0.17145,-0.52754 0.21708,-0.76784 0.15643,-0.82291 -0.0472,-0.0427 -0.0736,-0.10919 -0.0589,-0.14718 0.0149,-0.0379 0.10767,0.0691 0.20602,0.23843 0.19494,0.33507 0.16167,0.54205 -0.11703,0.72841 -0.19501,0.13041 -0.14822,0.18813 0.0948,0.11702 0.22803,-0.0666 0.46393,-0.29456 0.47429,-0.45823 0.008,-0.15108 -0.3955,-0.76689 -0.54182,-0.8237 -0.0464,-0.0178 -0.0896,-0.12473 -0.0961,-0.23713 -0.006,-0.11247 -0.10945,-0.30779 -0.22901,-0.43421 -0.11955,-0.1265 -0.20746,-0.25527 -0.19543,-0.28626 0.0126,-0.0308 -0.0548,-0.55853 -0.14835,-1.17232 -0.15919,-1.04347 -0.15903,-1.12772 0.002,-1.29632 0.19395,-0.20272 0.17056,-0.4184 -0.16877,-1.54814 -0.15475,-0.51545 -0.15946,-0.67279 -0.0427,-1.42431 0.1675,-1.076986 0.16351,-1.386926 -0.0184,-1.457806 -0.1041,-0.0404 -0.17862,-0.32488 -0.27934,-1.06832 -3.3804,-1.49431 -2.75988,-1.37324 -2.75988,-1.37324 z m 1.51071,13.066956 c 0.13348,-0.24308 0.13865,-0.36037 0.0322,-0.86537 -0.12082,-0.57832 -0.0965,-1.16145 0.0559,-1.32919 0.15039,-0.1658 0.2107,-0.034 0.11259,0.2462 l -0.0986,0.28168 0.18582,-0.24777 c 0.17356,-0.23152 0.20457,-0.24052 0.47163,-0.13682 0.17116,0.0663 0.31674,0.077 0.36283,0.0262 0.0628,-0.0694 0.14167,-0.0416 0.42911,0.15139 l 0.35206,0.23635 -0.11488,0.36371 c -0.0792,0.25141 -0.1665,0.3896 -0.28227,0.44763 -0.0921,0.0463 -0.3642,0.38759 -0.60462,0.75867 -0.24037,0.37111 -0.4652,0.70981 -0.4994,0.7527 -0.0457,0.0574 -0.12781,0.0144 -0.30955,-0.16277 -0.24023,-0.23398 -0.24288,-0.24894 -0.093,-0.52222 z m -0.37413,-0.27599 c 0.048,-0.12359 0.0856,-0.36817 0.0834,-0.54352 -0.004,-0.29418 7.1e-4,-0.30369 0.0576,-0.12422 0.0952,0.30211 0.0916,0.7374 -0.006,0.84581 -0.14878,0.16407 -0.2268,0.0606 -0.13417,-0.17803 z m 0.18696,-1.95112 c 0.0464,-0.0641 0.0391,-2.6e-4 -0.0169,0.14285 -0.0553,0.14271 -0.0934,0.19514 -0.0843,0.11664 0.008,-0.0786 0.0544,-0.19536 0.1007,-0.25952 z m 0.91485,-0.006 c 0.18329,-0.0378 0.42892,0.0575 0.33364,0.12956 -0.041,0.031 -0.16418,0.0208 -0.27369,-0.0222 -0.15569,-0.0615 -0.16878,-0.0846 -0.06,-0.10729 z m 0.93604,0.15012 c -0.29068,-0.2797 -0.58569,-0.38958 -0.86324,-0.32139 -0.22239,0.0547 -0.22288,0.0538 -0.0858,-0.13965 0.27395,-0.38677 0.39939,-0.38046 1.07968,0.0542 0.36258,0.23165 0.38206,0.26116 0.30496,0.45972 -0.0948,0.24403 -0.13166,0.23953 -0.43552,-0.053 z m -0.92956,-1.04565 c 0.0247,-0.0621 0.14894,-0.11234 0.27751,-0.11146 0.12853,7.4e-4 0.38103,-0.0408 0.56121,-0.093 l 0.3276,-0.0946 0.11918,0.31802 c 0.17527,0.46734 0.12371,0.49984 -0.38473,0.24272 -0.3445,-0.17422 -0.48955,-0.21232 -0.63872,-0.16785 -0.24607,0.0734 -0.31722,0.0479 -0.26223,-0.0936 z m -0.11992,-1.58022 c -0.11007,-0.60583 -0.18702,-1.13482 -0.171,-1.17554 0.0231,-0.0603 0.2951,-0.10345 0.82385,-0.13155 0.0637,-0.004 0.39637,2.02168 0.36995,2.25135 -0.0211,0.18349 -0.49572,0.34537 -0.68821,0.23467 -0.0872,-0.0499 -0.20507,-0.46599 -0.33459,-1.17892 z m -0.7643,-2.31167 -0.13423,-0.70183 0.40986,-0.0288 c 0.49939,-0.0351 0.77333,-0.11967 0.92594,-0.28598 0.10615,-0.11552 0.12683,-0.0936 0.25484,0.26959 0.21822,0.61915 0.33248,1.26931 0.24078,1.37041 -0.10995,0.12119 -1.25477,0.24118 -1.4281,0.14967 -0.0833,-0.0432 -0.18662,-0.34168 -0.26911,-0.77303 z m -0.40271,-2.174 -0.21327,-1.250936 0.41312,-0.0303 c 0.41136,-0.0302 1.30821,-0.37163 1.14382,-0.43546 -0.0476,-0.0181 -0.4226,0.0443 -0.83363,0.1394 l -0.74729,0.17295 -0.20864,-1.20538 c -0.30964,-1.78886 -0.31297,-1.65679 0.055,-2.18775 l 1.61814,0.51871 c 0,0 -1.58612,0.0443 -1.45342,0.28733 0.0264,-0.0114 1.78342,2.05539 1.75438,1.75782 -0.0289,-0.29757 -0.0404,-0.53625 -0.0256,-0.53043 0.0153,0.005 0.0919,0.30443 0.17082,0.66356 0.079,0.35915 0.10754,0.63902 0.0637,0.62196 -0.13296,-0.0517 -0.90973,0.15923 -0.94784,0.25736 -0.0198,0.0502 0.055,0.60471 0.16572,1.231966 0.11071,0.62724 0.16351,1.1386 0.11741,1.13636 -0.046,-0.002 -0.22431,0.0316 -0.39596,0.075 -0.17162,0.0433 -0.34607,0.0677 -0.38764,0.054 -0.0413,-0.0143 -0.17154,-0.58803 -0.28883,-1.27603 z m 1.1998,-0.0778 c -0.0893,-0.510286 -0.13091,-0.962336 -0.0927,-1.004486 0.0947,-0.10431 0.82279,-0.16314 0.86273,-0.0696 0.0176,0.0412 -0.0281,0.48733 -0.10156,0.991386 -0.10303,0.70692 -0.16258,0.93254 -0.26017,0.98679 -0.0694,0.0387 -0.15344,0.0601 -0.18641,0.0471 -0.033,-0.0128 -0.13293,-0.44078 -0.22209,-0.95108 z m -0.46848,11.08316 c 0.0798,-0.19526 -0.0819,-0.7207 -0.30046,-0.97376 -0.11791,-0.1365 -0.34829,-0.2908 -0.54173,-0.36261 -0.36798,-0.13741 -0.38272,-0.1644 0.2041,0.39257 0.12672,0.12031 0.2694,0.31531 0.31711,0.43346 0.0838,0.20759 0.0858,0.24347 0.0238,0.40365 -0.0156,0.041 0.008,0.0887 0.0545,0.10641 0.0575,0.0224 0.0681,-0.0137 0.0335,-0.11488 -0.0314,-0.0942 -0.0204,-0.13593 0.03,-0.11626 0.0437,0.0174 0.0908,0.10262 0.10473,0.18998 0.0217,0.1368 0.032,0.14258 0.0738,0.0408 z"
         id="path960-5-3-1"
         sodipodi:nodetypes="csscsssssssscssssscscsssssssssscssscsscccsscssssscsscsssssssssscsssssssccsscsssscssscsccsssssssssscsssssssscsscsscccssssscsscscsccssscssscsscscccscsccccscsssssscssscccsssscsscc" />
    </g>
    <circle
       style="fill:none;stroke:#0000ff;stroke-width:0.318081;stroke-linecap:round;stroke-linejoin:round;stroke-miterlimit:4;stroke-dasharray:none;stop-color:#000000"
       id="path1677"
       cx="-42.654388"
       cy="91.327782"
       r="3.9336822" />
  </g>
</svg>
