%TF.GenerationSoftware,KiCad,Pcbnew,(6.0.4)*%
%TF.CreationDate,2022-05-24T10:51:07+02:00*%
%TF.ProjectId,XRTL_PCB,5852544c-5f50-4434-922e-6b696361645f,1.0*%
%TF.SameCoordinates,Original*%
%TF.FileFunction,Legend,Top*%
%TF.FilePolarity,Positive*%
%FSLAX46Y46*%
G04 Gerber Fmt 4.6, Leading zero omitted, Abs format (unit mm)*
G04 Created by KiCad (PCBNEW (6.0.4)) date 2022-05-24 10:51:07*
%MOMM*%
%LPD*%
G01*
G04 APERTURE LIST*
%ADD10C,0.150000*%
%ADD11C,0.120000*%
G04 APERTURE END LIST*
D10*
X122076785Y-93480000D02*
X121981547Y-93432380D01*
X121838690Y-93432380D01*
X121695833Y-93480000D01*
X121600595Y-93575238D01*
X121552976Y-93670476D01*
X121505357Y-93860952D01*
X121505357Y-94003809D01*
X121552976Y-94194285D01*
X121600595Y-94289523D01*
X121695833Y-94384761D01*
X121838690Y-94432380D01*
X121933928Y-94432380D01*
X122076785Y-94384761D01*
X122124404Y-94337142D01*
X122124404Y-94003809D01*
X121933928Y-94003809D01*
X122552976Y-94432380D02*
X122552976Y-93432380D01*
X123124404Y-94432380D01*
X123124404Y-93432380D01*
X123600595Y-94432380D02*
X123600595Y-93432380D01*
X123838690Y-93432380D01*
X123981547Y-93480000D01*
X124076785Y-93575238D01*
X124124404Y-93670476D01*
X124172023Y-93860952D01*
X124172023Y-94003809D01*
X124124404Y-94194285D01*
X124076785Y-94289523D01*
X123981547Y-94384761D01*
X123838690Y-94432380D01*
X123600595Y-94432380D01*
X122362500Y-112212380D02*
X121886309Y-112212380D01*
X121886309Y-111212380D01*
X122695833Y-111688571D02*
X123029166Y-111688571D01*
X123172023Y-112212380D02*
X122695833Y-112212380D01*
X122695833Y-111212380D01*
X123172023Y-111212380D01*
X123600595Y-112212380D02*
X123600595Y-111212380D01*
X123838690Y-111212380D01*
X123981547Y-111260000D01*
X124076785Y-111355238D01*
X124124404Y-111450476D01*
X124172023Y-111640952D01*
X124172023Y-111783809D01*
X124124404Y-111974285D01*
X124076785Y-112069523D01*
X123981547Y-112164761D01*
X123838690Y-112212380D01*
X123600595Y-112212380D01*
X119648214Y-107084761D02*
X119743452Y-107132380D01*
X119933928Y-107132380D01*
X120029166Y-107084761D01*
X120076785Y-106989523D01*
X120076785Y-106941904D01*
X120029166Y-106846666D01*
X119933928Y-106799047D01*
X119791071Y-106799047D01*
X119695833Y-106751428D01*
X119648214Y-106656190D01*
X119648214Y-106608571D01*
X119695833Y-106513333D01*
X119791071Y-106465714D01*
X119933928Y-106465714D01*
X120029166Y-106513333D01*
X120886309Y-107084761D02*
X120791071Y-107132380D01*
X120600595Y-107132380D01*
X120505357Y-107084761D01*
X120457738Y-106989523D01*
X120457738Y-106608571D01*
X120505357Y-106513333D01*
X120600595Y-106465714D01*
X120791071Y-106465714D01*
X120886309Y-106513333D01*
X120933928Y-106608571D01*
X120933928Y-106703809D01*
X120457738Y-106799047D01*
X121362500Y-107132380D02*
X121362500Y-106465714D01*
X121362500Y-106656190D02*
X121410119Y-106560952D01*
X121457738Y-106513333D01*
X121552976Y-106465714D01*
X121648214Y-106465714D01*
X121886309Y-106465714D02*
X122124404Y-107132380D01*
X122362500Y-106465714D01*
X122886309Y-107132380D02*
X122791071Y-107084761D01*
X122743452Y-107037142D01*
X122695833Y-106941904D01*
X122695833Y-106656190D01*
X122743452Y-106560952D01*
X122791071Y-106513333D01*
X122886309Y-106465714D01*
X123029166Y-106465714D01*
X123124404Y-106513333D01*
X123172023Y-106560952D01*
X123219642Y-106656190D01*
X123219642Y-106941904D01*
X123172023Y-107037142D01*
X123124404Y-107084761D01*
X123029166Y-107132380D01*
X122886309Y-107132380D01*
X123600595Y-106227619D02*
X123648214Y-106180000D01*
X123743452Y-106132380D01*
X123981547Y-106132380D01*
X124076785Y-106180000D01*
X124124404Y-106227619D01*
X124172023Y-106322857D01*
X124172023Y-106418095D01*
X124124404Y-106560952D01*
X123552976Y-107132380D01*
X124172023Y-107132380D01*
X121743452Y-126452380D02*
X122362500Y-126452380D01*
X122029166Y-126833333D01*
X122172023Y-126833333D01*
X122267261Y-126880952D01*
X122314880Y-126928571D01*
X122362500Y-127023809D01*
X122362500Y-127261904D01*
X122314880Y-127357142D01*
X122267261Y-127404761D01*
X122172023Y-127452380D01*
X121886309Y-127452380D01*
X121791071Y-127404761D01*
X121743452Y-127357142D01*
X122648214Y-126452380D02*
X122981547Y-127452380D01*
X123314880Y-126452380D01*
X123552976Y-126452380D02*
X124172023Y-126452380D01*
X123838690Y-126833333D01*
X123981547Y-126833333D01*
X124076785Y-126880952D01*
X124124404Y-126928571D01*
X124172023Y-127023809D01*
X124172023Y-127261904D01*
X124124404Y-127357142D01*
X124076785Y-127404761D01*
X123981547Y-127452380D01*
X123695833Y-127452380D01*
X123600595Y-127404761D01*
X123552976Y-127357142D01*
X129159047Y-73731428D02*
X129920952Y-73731428D01*
X129540000Y-74112380D02*
X129540000Y-73350476D01*
X129159047Y-61031428D02*
X129920952Y-61031428D01*
X76652380Y-76404523D02*
X75652380Y-76404523D01*
X75652380Y-76023571D01*
X75700000Y-75928333D01*
X75747619Y-75880714D01*
X75842857Y-75833095D01*
X75985714Y-75833095D01*
X76080952Y-75880714D01*
X76128571Y-75928333D01*
X76176190Y-76023571D01*
X76176190Y-76404523D01*
X75652380Y-75214047D02*
X75652380Y-75023571D01*
X75700000Y-74928333D01*
X75795238Y-74833095D01*
X75985714Y-74785476D01*
X76319047Y-74785476D01*
X76509523Y-74833095D01*
X76604761Y-74928333D01*
X76652380Y-75023571D01*
X76652380Y-75214047D01*
X76604761Y-75309285D01*
X76509523Y-75404523D01*
X76319047Y-75452142D01*
X75985714Y-75452142D01*
X75795238Y-75404523D01*
X75700000Y-75309285D01*
X75652380Y-75214047D01*
X75652380Y-74452142D02*
X76652380Y-74214047D01*
X75938095Y-74023571D01*
X76652380Y-73833095D01*
X75652380Y-73595000D01*
X76128571Y-73214047D02*
X76128571Y-72880714D01*
X76652380Y-72737857D02*
X76652380Y-73214047D01*
X75652380Y-73214047D01*
X75652380Y-72737857D01*
X76652380Y-71737857D02*
X76176190Y-72071190D01*
X76652380Y-72309285D02*
X75652380Y-72309285D01*
X75652380Y-71928333D01*
X75700000Y-71833095D01*
X75747619Y-71785476D01*
X75842857Y-71737857D01*
X75985714Y-71737857D01*
X76080952Y-71785476D01*
X76128571Y-71833095D01*
X76176190Y-71928333D01*
X76176190Y-72309285D01*
X129159047Y-63571428D02*
X129920952Y-63571428D01*
X129540000Y-63952380D02*
X129540000Y-63190476D01*
X129159047Y-55951428D02*
X129920952Y-55951428D01*
X119648214Y-109624761D02*
X119743452Y-109672380D01*
X119933928Y-109672380D01*
X120029166Y-109624761D01*
X120076785Y-109529523D01*
X120076785Y-109481904D01*
X120029166Y-109386666D01*
X119933928Y-109339047D01*
X119791071Y-109339047D01*
X119695833Y-109291428D01*
X119648214Y-109196190D01*
X119648214Y-109148571D01*
X119695833Y-109053333D01*
X119791071Y-109005714D01*
X119933928Y-109005714D01*
X120029166Y-109053333D01*
X120886309Y-109624761D02*
X120791071Y-109672380D01*
X120600595Y-109672380D01*
X120505357Y-109624761D01*
X120457738Y-109529523D01*
X120457738Y-109148571D01*
X120505357Y-109053333D01*
X120600595Y-109005714D01*
X120791071Y-109005714D01*
X120886309Y-109053333D01*
X120933928Y-109148571D01*
X120933928Y-109243809D01*
X120457738Y-109339047D01*
X121362500Y-109672380D02*
X121362500Y-109005714D01*
X121362500Y-109196190D02*
X121410119Y-109100952D01*
X121457738Y-109053333D01*
X121552976Y-109005714D01*
X121648214Y-109005714D01*
X121886309Y-109005714D02*
X122124404Y-109672380D01*
X122362500Y-109005714D01*
X122886309Y-109672380D02*
X122791071Y-109624761D01*
X122743452Y-109577142D01*
X122695833Y-109481904D01*
X122695833Y-109196190D01*
X122743452Y-109100952D01*
X122791071Y-109053333D01*
X122886309Y-109005714D01*
X123029166Y-109005714D01*
X123124404Y-109053333D01*
X123172023Y-109100952D01*
X123219642Y-109196190D01*
X123219642Y-109481904D01*
X123172023Y-109577142D01*
X123124404Y-109624761D01*
X123029166Y-109672380D01*
X122886309Y-109672380D01*
X124172023Y-109672380D02*
X123600595Y-109672380D01*
X123886309Y-109672380D02*
X123886309Y-108672380D01*
X123791071Y-108815238D01*
X123695833Y-108910476D01*
X123600595Y-108958095D01*
X104427976Y-106227619D02*
X104475595Y-106180000D01*
X104570833Y-106132380D01*
X104808928Y-106132380D01*
X104904166Y-106180000D01*
X104951785Y-106227619D01*
X104999404Y-106322857D01*
X104999404Y-106418095D01*
X104951785Y-106560952D01*
X104380357Y-107132380D01*
X104999404Y-107132380D01*
X105427976Y-107132380D02*
X105427976Y-106132380D01*
X105666071Y-106132380D01*
X105808928Y-106180000D01*
X105904166Y-106275238D01*
X105951785Y-106370476D01*
X105999404Y-106560952D01*
X105999404Y-106703809D01*
X105951785Y-106894285D01*
X105904166Y-106989523D01*
X105808928Y-107084761D01*
X105666071Y-107132380D01*
X105427976Y-107132380D01*
X129159047Y-71191428D02*
X129920952Y-71191428D01*
X78232380Y-107084761D02*
X78327619Y-107132380D01*
X78518095Y-107132380D01*
X78613333Y-107084761D01*
X78660952Y-106989523D01*
X78660952Y-106941904D01*
X78613333Y-106846666D01*
X78518095Y-106799047D01*
X78375238Y-106799047D01*
X78280000Y-106751428D01*
X78232380Y-106656190D01*
X78232380Y-106608571D01*
X78280000Y-106513333D01*
X78375238Y-106465714D01*
X78518095Y-106465714D01*
X78613333Y-106513333D01*
X78946666Y-106465714D02*
X79327619Y-106465714D01*
X79089523Y-106132380D02*
X79089523Y-106989523D01*
X79137142Y-107084761D01*
X79232380Y-107132380D01*
X79327619Y-107132380D01*
X80041904Y-107084761D02*
X79946666Y-107132380D01*
X79756190Y-107132380D01*
X79660952Y-107084761D01*
X79613333Y-106989523D01*
X79613333Y-106608571D01*
X79660952Y-106513333D01*
X79756190Y-106465714D01*
X79946666Y-106465714D01*
X80041904Y-106513333D01*
X80089523Y-106608571D01*
X80089523Y-106703809D01*
X79613333Y-106799047D01*
X80518095Y-106465714D02*
X80518095Y-107465714D01*
X80518095Y-106513333D02*
X80613333Y-106465714D01*
X80803809Y-106465714D01*
X80899047Y-106513333D01*
X80946666Y-106560952D01*
X80994285Y-106656190D01*
X80994285Y-106941904D01*
X80946666Y-107037142D01*
X80899047Y-107084761D01*
X80803809Y-107132380D01*
X80613333Y-107132380D01*
X80518095Y-107084761D01*
X81422857Y-106465714D02*
X81422857Y-107465714D01*
X81422857Y-106513333D02*
X81518095Y-106465714D01*
X81708571Y-106465714D01*
X81803809Y-106513333D01*
X81851428Y-106560952D01*
X81899047Y-106656190D01*
X81899047Y-106941904D01*
X81851428Y-107037142D01*
X81803809Y-107084761D01*
X81708571Y-107132380D01*
X81518095Y-107132380D01*
X81422857Y-107084761D01*
X82708571Y-107084761D02*
X82613333Y-107132380D01*
X82422857Y-107132380D01*
X82327619Y-107084761D01*
X82280000Y-106989523D01*
X82280000Y-106608571D01*
X82327619Y-106513333D01*
X82422857Y-106465714D01*
X82613333Y-106465714D01*
X82708571Y-106513333D01*
X82756190Y-106608571D01*
X82756190Y-106703809D01*
X82280000Y-106799047D01*
X83184761Y-107132380D02*
X83184761Y-106465714D01*
X83184761Y-106656190D02*
X83232380Y-106560952D01*
X83280000Y-106513333D01*
X83375238Y-106465714D01*
X83470476Y-106465714D01*
X83756190Y-106227619D02*
X83803809Y-106180000D01*
X83899047Y-106132380D01*
X84137142Y-106132380D01*
X84232380Y-106180000D01*
X84280000Y-106227619D01*
X84327619Y-106322857D01*
X84327619Y-106418095D01*
X84280000Y-106560952D01*
X83708571Y-107132380D01*
X84327619Y-107132380D01*
X104999404Y-122372380D02*
X104427976Y-122372380D01*
X104713690Y-122372380D02*
X104713690Y-121372380D01*
X104618452Y-121515238D01*
X104523214Y-121610476D01*
X104427976Y-121658095D01*
X105999404Y-122277142D02*
X105951785Y-122324761D01*
X105808928Y-122372380D01*
X105713690Y-122372380D01*
X105570833Y-122324761D01*
X105475595Y-122229523D01*
X105427976Y-122134285D01*
X105380357Y-121943809D01*
X105380357Y-121800952D01*
X105427976Y-121610476D01*
X105475595Y-121515238D01*
X105570833Y-121420000D01*
X105713690Y-121372380D01*
X105808928Y-121372380D01*
X105951785Y-121420000D01*
X105999404Y-121467619D01*
X104999404Y-124912380D02*
X104427976Y-124912380D01*
X104713690Y-124912380D02*
X104713690Y-123912380D01*
X104618452Y-124055238D01*
X104523214Y-124150476D01*
X104427976Y-124198095D01*
X105427976Y-124912380D02*
X105427976Y-123912380D01*
X105666071Y-123912380D01*
X105808928Y-123960000D01*
X105904166Y-124055238D01*
X105951785Y-124150476D01*
X105999404Y-124340952D01*
X105999404Y-124483809D01*
X105951785Y-124674285D01*
X105904166Y-124769523D01*
X105808928Y-124864761D01*
X105666071Y-124912380D01*
X105427976Y-124912380D01*
X128852380Y-57252380D02*
X128852380Y-56585714D01*
X128852380Y-56252380D02*
X128804761Y-56300000D01*
X128852380Y-56347619D01*
X128900000Y-56300000D01*
X128852380Y-56252380D01*
X128852380Y-56347619D01*
X129328571Y-56585714D02*
X129328571Y-57252380D01*
X129328571Y-56680952D02*
X129376190Y-56633333D01*
X129471428Y-56585714D01*
X129614285Y-56585714D01*
X129709523Y-56633333D01*
X129757142Y-56728571D01*
X129757142Y-57252380D01*
X130090476Y-56585714D02*
X130471428Y-56585714D01*
X130233333Y-57252380D02*
X130233333Y-56395238D01*
X130280952Y-56300000D01*
X130376190Y-56252380D01*
X130471428Y-56252380D01*
X130947619Y-57252380D02*
X130852380Y-57204761D01*
X130804761Y-57157142D01*
X130757142Y-57061904D01*
X130757142Y-56776190D01*
X130804761Y-56680952D01*
X130852380Y-56633333D01*
X130947619Y-56585714D01*
X131090476Y-56585714D01*
X131185714Y-56633333D01*
X131233333Y-56680952D01*
X131280952Y-56776190D01*
X131280952Y-57061904D01*
X131233333Y-57157142D01*
X131185714Y-57204761D01*
X131090476Y-57252380D01*
X130947619Y-57252380D01*
X132185714Y-57252380D02*
X131709523Y-57252380D01*
X131709523Y-56252380D01*
X132519047Y-56728571D02*
X132852380Y-56728571D01*
X132995238Y-57252380D02*
X132519047Y-57252380D01*
X132519047Y-56252380D01*
X132995238Y-56252380D01*
X133423809Y-57252380D02*
X133423809Y-56252380D01*
X133661904Y-56252380D01*
X133804761Y-56300000D01*
X133900000Y-56395238D01*
X133947619Y-56490476D01*
X133995238Y-56680952D01*
X133995238Y-56823809D01*
X133947619Y-57014285D01*
X133900000Y-57109523D01*
X133804761Y-57204761D01*
X133661904Y-57252380D01*
X133423809Y-57252380D01*
X119981547Y-102052380D02*
X119981547Y-101385714D01*
X119981547Y-101576190D02*
X120029166Y-101480952D01*
X120076785Y-101433333D01*
X120172023Y-101385714D01*
X120267261Y-101385714D01*
X120981547Y-102004761D02*
X120886309Y-102052380D01*
X120695833Y-102052380D01*
X120600595Y-102004761D01*
X120552976Y-101909523D01*
X120552976Y-101528571D01*
X120600595Y-101433333D01*
X120695833Y-101385714D01*
X120886309Y-101385714D01*
X120981547Y-101433333D01*
X121029166Y-101528571D01*
X121029166Y-101623809D01*
X120552976Y-101719047D01*
X121600595Y-102052380D02*
X121505357Y-102004761D01*
X121457738Y-101909523D01*
X121457738Y-101052380D01*
X122410119Y-102052380D02*
X122410119Y-101528571D01*
X122362500Y-101433333D01*
X122267261Y-101385714D01*
X122076785Y-101385714D01*
X121981547Y-101433333D01*
X122410119Y-102004761D02*
X122314880Y-102052380D01*
X122076785Y-102052380D01*
X121981547Y-102004761D01*
X121933928Y-101909523D01*
X121933928Y-101814285D01*
X121981547Y-101719047D01*
X122076785Y-101671428D01*
X122314880Y-101671428D01*
X122410119Y-101623809D01*
X122791071Y-101385714D02*
X123029166Y-102052380D01*
X123267261Y-101385714D02*
X123029166Y-102052380D01*
X122933928Y-102290476D01*
X122886309Y-102338095D01*
X122791071Y-102385714D01*
X124172023Y-102052380D02*
X123600595Y-102052380D01*
X123886309Y-102052380D02*
X123886309Y-101052380D01*
X123791071Y-101195238D01*
X123695833Y-101290476D01*
X123600595Y-101338095D01*
X131258095Y-68984761D02*
X131353333Y-69032380D01*
X131543809Y-69032380D01*
X131639047Y-68984761D01*
X131686666Y-68889523D01*
X131686666Y-68841904D01*
X131639047Y-68746666D01*
X131543809Y-68699047D01*
X131400952Y-68699047D01*
X131305714Y-68651428D01*
X131258095Y-68556190D01*
X131258095Y-68508571D01*
X131305714Y-68413333D01*
X131400952Y-68365714D01*
X131543809Y-68365714D01*
X131639047Y-68413333D01*
X132496190Y-68984761D02*
X132400952Y-69032380D01*
X132210476Y-69032380D01*
X132115238Y-68984761D01*
X132067619Y-68889523D01*
X132067619Y-68508571D01*
X132115238Y-68413333D01*
X132210476Y-68365714D01*
X132400952Y-68365714D01*
X132496190Y-68413333D01*
X132543809Y-68508571D01*
X132543809Y-68603809D01*
X132067619Y-68699047D01*
X132972380Y-69032380D02*
X132972380Y-68365714D01*
X132972380Y-68556190D02*
X133020000Y-68460952D01*
X133067619Y-68413333D01*
X133162857Y-68365714D01*
X133258095Y-68365714D01*
X133496190Y-68365714D02*
X133734285Y-69032380D01*
X133972380Y-68365714D01*
X134496190Y-69032380D02*
X134400952Y-68984761D01*
X134353333Y-68937142D01*
X134305714Y-68841904D01*
X134305714Y-68556190D01*
X134353333Y-68460952D01*
X134400952Y-68413333D01*
X134496190Y-68365714D01*
X134639047Y-68365714D01*
X134734285Y-68413333D01*
X134781904Y-68460952D01*
X134829523Y-68556190D01*
X134829523Y-68841904D01*
X134781904Y-68937142D01*
X134734285Y-68984761D01*
X134639047Y-69032380D01*
X134496190Y-69032380D01*
X135781904Y-69032380D02*
X135210476Y-69032380D01*
X135496190Y-69032380D02*
X135496190Y-68032380D01*
X135400952Y-68175238D01*
X135305714Y-68270476D01*
X135210476Y-68318095D01*
X101935595Y-61412380D02*
X101935595Y-60412380D01*
X102411785Y-61412380D02*
X102411785Y-60412380D01*
X102983214Y-61412380D01*
X102983214Y-60412380D01*
X119981547Y-104592380D02*
X119981547Y-103925714D01*
X119981547Y-104116190D02*
X120029166Y-104020952D01*
X120076785Y-103973333D01*
X120172023Y-103925714D01*
X120267261Y-103925714D01*
X120981547Y-104544761D02*
X120886309Y-104592380D01*
X120695833Y-104592380D01*
X120600595Y-104544761D01*
X120552976Y-104449523D01*
X120552976Y-104068571D01*
X120600595Y-103973333D01*
X120695833Y-103925714D01*
X120886309Y-103925714D01*
X120981547Y-103973333D01*
X121029166Y-104068571D01*
X121029166Y-104163809D01*
X120552976Y-104259047D01*
X121600595Y-104592380D02*
X121505357Y-104544761D01*
X121457738Y-104449523D01*
X121457738Y-103592380D01*
X122410119Y-104592380D02*
X122410119Y-104068571D01*
X122362500Y-103973333D01*
X122267261Y-103925714D01*
X122076785Y-103925714D01*
X121981547Y-103973333D01*
X122410119Y-104544761D02*
X122314880Y-104592380D01*
X122076785Y-104592380D01*
X121981547Y-104544761D01*
X121933928Y-104449523D01*
X121933928Y-104354285D01*
X121981547Y-104259047D01*
X122076785Y-104211428D01*
X122314880Y-104211428D01*
X122410119Y-104163809D01*
X122791071Y-103925714D02*
X123029166Y-104592380D01*
X123267261Y-103925714D02*
X123029166Y-104592380D01*
X122933928Y-104830476D01*
X122886309Y-104878095D01*
X122791071Y-104925714D01*
X123600595Y-103687619D02*
X123648214Y-103640000D01*
X123743452Y-103592380D01*
X123981547Y-103592380D01*
X124076785Y-103640000D01*
X124124404Y-103687619D01*
X124172023Y-103782857D01*
X124172023Y-103878095D01*
X124124404Y-104020952D01*
X123552976Y-104592380D01*
X124172023Y-104592380D01*
X80280000Y-60412380D02*
X80470476Y-60412380D01*
X80565714Y-60460000D01*
X80660952Y-60555238D01*
X80708571Y-60745714D01*
X80708571Y-61079047D01*
X80660952Y-61269523D01*
X80565714Y-61364761D01*
X80470476Y-61412380D01*
X80280000Y-61412380D01*
X80184761Y-61364761D01*
X80089523Y-61269523D01*
X80041904Y-61079047D01*
X80041904Y-60745714D01*
X80089523Y-60555238D01*
X80184761Y-60460000D01*
X80280000Y-60412380D01*
X81137142Y-60412380D02*
X81137142Y-61221904D01*
X81184761Y-61317142D01*
X81232380Y-61364761D01*
X81327619Y-61412380D01*
X81518095Y-61412380D01*
X81613333Y-61364761D01*
X81660952Y-61317142D01*
X81708571Y-61221904D01*
X81708571Y-60412380D01*
X82041904Y-60412380D02*
X82613333Y-60412380D01*
X82327619Y-61412380D02*
X82327619Y-60412380D01*
X105680000Y-60412380D02*
X105870476Y-60412380D01*
X105965714Y-60460000D01*
X106060952Y-60555238D01*
X106108571Y-60745714D01*
X106108571Y-61079047D01*
X106060952Y-61269523D01*
X105965714Y-61364761D01*
X105870476Y-61412380D01*
X105680000Y-61412380D01*
X105584761Y-61364761D01*
X105489523Y-61269523D01*
X105441904Y-61079047D01*
X105441904Y-60745714D01*
X105489523Y-60555238D01*
X105584761Y-60460000D01*
X105680000Y-60412380D01*
X106537142Y-60412380D02*
X106537142Y-61221904D01*
X106584761Y-61317142D01*
X106632380Y-61364761D01*
X106727619Y-61412380D01*
X106918095Y-61412380D01*
X107013333Y-61364761D01*
X107060952Y-61317142D01*
X107108571Y-61221904D01*
X107108571Y-60412380D01*
X107441904Y-60412380D02*
X108013333Y-60412380D01*
X107727619Y-61412380D02*
X107727619Y-60412380D01*
X104999404Y-111260000D02*
X104904166Y-111212380D01*
X104761309Y-111212380D01*
X104618452Y-111260000D01*
X104523214Y-111355238D01*
X104475595Y-111450476D01*
X104427976Y-111640952D01*
X104427976Y-111783809D01*
X104475595Y-111974285D01*
X104523214Y-112069523D01*
X104618452Y-112164761D01*
X104761309Y-112212380D01*
X104856547Y-112212380D01*
X104999404Y-112164761D01*
X105047023Y-112117142D01*
X105047023Y-111783809D01*
X104856547Y-111783809D01*
X105475595Y-112212380D02*
X105475595Y-111212380D01*
X106047023Y-112212380D01*
X106047023Y-111212380D01*
X106523214Y-112212380D02*
X106523214Y-111212380D01*
X106761309Y-111212380D01*
X106904166Y-111260000D01*
X106999404Y-111355238D01*
X107047023Y-111450476D01*
X107094642Y-111640952D01*
X107094642Y-111783809D01*
X107047023Y-111974285D01*
X106999404Y-112069523D01*
X106904166Y-112164761D01*
X106761309Y-112212380D01*
X106523214Y-112212380D01*
X78232380Y-127404761D02*
X78327619Y-127452380D01*
X78518095Y-127452380D01*
X78613333Y-127404761D01*
X78660952Y-127309523D01*
X78660952Y-127261904D01*
X78613333Y-127166666D01*
X78518095Y-127119047D01*
X78375238Y-127119047D01*
X78280000Y-127071428D01*
X78232380Y-126976190D01*
X78232380Y-126928571D01*
X78280000Y-126833333D01*
X78375238Y-126785714D01*
X78518095Y-126785714D01*
X78613333Y-126833333D01*
X78946666Y-126785714D02*
X79327619Y-126785714D01*
X79089523Y-126452380D02*
X79089523Y-127309523D01*
X79137142Y-127404761D01*
X79232380Y-127452380D01*
X79327619Y-127452380D01*
X80041904Y-127404761D02*
X79946666Y-127452380D01*
X79756190Y-127452380D01*
X79660952Y-127404761D01*
X79613333Y-127309523D01*
X79613333Y-126928571D01*
X79660952Y-126833333D01*
X79756190Y-126785714D01*
X79946666Y-126785714D01*
X80041904Y-126833333D01*
X80089523Y-126928571D01*
X80089523Y-127023809D01*
X79613333Y-127119047D01*
X80518095Y-126785714D02*
X80518095Y-127785714D01*
X80518095Y-126833333D02*
X80613333Y-126785714D01*
X80803809Y-126785714D01*
X80899047Y-126833333D01*
X80946666Y-126880952D01*
X80994285Y-126976190D01*
X80994285Y-127261904D01*
X80946666Y-127357142D01*
X80899047Y-127404761D01*
X80803809Y-127452380D01*
X80613333Y-127452380D01*
X80518095Y-127404761D01*
X81422857Y-126785714D02*
X81422857Y-127785714D01*
X81422857Y-126833333D02*
X81518095Y-126785714D01*
X81708571Y-126785714D01*
X81803809Y-126833333D01*
X81851428Y-126880952D01*
X81899047Y-126976190D01*
X81899047Y-127261904D01*
X81851428Y-127357142D01*
X81803809Y-127404761D01*
X81708571Y-127452380D01*
X81518095Y-127452380D01*
X81422857Y-127404761D01*
X82708571Y-127404761D02*
X82613333Y-127452380D01*
X82422857Y-127452380D01*
X82327619Y-127404761D01*
X82280000Y-127309523D01*
X82280000Y-126928571D01*
X82327619Y-126833333D01*
X82422857Y-126785714D01*
X82613333Y-126785714D01*
X82708571Y-126833333D01*
X82756190Y-126928571D01*
X82756190Y-127023809D01*
X82280000Y-127119047D01*
X83184761Y-127452380D02*
X83184761Y-126785714D01*
X83184761Y-126976190D02*
X83232380Y-126880952D01*
X83280000Y-126833333D01*
X83375238Y-126785714D01*
X83470476Y-126785714D01*
X84327619Y-127452380D02*
X83756190Y-127452380D01*
X84041904Y-127452380D02*
X84041904Y-126452380D01*
X83946666Y-126595238D01*
X83851428Y-126690476D01*
X83756190Y-126738095D01*
X104999404Y-126500000D02*
X104904166Y-126452380D01*
X104761309Y-126452380D01*
X104618452Y-126500000D01*
X104523214Y-126595238D01*
X104475595Y-126690476D01*
X104427976Y-126880952D01*
X104427976Y-127023809D01*
X104475595Y-127214285D01*
X104523214Y-127309523D01*
X104618452Y-127404761D01*
X104761309Y-127452380D01*
X104856547Y-127452380D01*
X104999404Y-127404761D01*
X105047023Y-127357142D01*
X105047023Y-127023809D01*
X104856547Y-127023809D01*
X105475595Y-127452380D02*
X105475595Y-126452380D01*
X106047023Y-127452380D01*
X106047023Y-126452380D01*
X106523214Y-127452380D02*
X106523214Y-126452380D01*
X106761309Y-126452380D01*
X106904166Y-126500000D01*
X106999404Y-126595238D01*
X107047023Y-126690476D01*
X107094642Y-126880952D01*
X107094642Y-127023809D01*
X107047023Y-127214285D01*
X106999404Y-127309523D01*
X106904166Y-127404761D01*
X106761309Y-127452380D01*
X106523214Y-127452380D01*
X104427976Y-101147619D02*
X104475595Y-101100000D01*
X104570833Y-101052380D01*
X104808928Y-101052380D01*
X104904166Y-101100000D01*
X104951785Y-101147619D01*
X104999404Y-101242857D01*
X104999404Y-101338095D01*
X104951785Y-101480952D01*
X104380357Y-102052380D01*
X104999404Y-102052380D01*
X105999404Y-101957142D02*
X105951785Y-102004761D01*
X105808928Y-102052380D01*
X105713690Y-102052380D01*
X105570833Y-102004761D01*
X105475595Y-101909523D01*
X105427976Y-101814285D01*
X105380357Y-101623809D01*
X105380357Y-101480952D01*
X105427976Y-101290476D01*
X105475595Y-101195238D01*
X105570833Y-101100000D01*
X105713690Y-101052380D01*
X105808928Y-101052380D01*
X105951785Y-101100000D01*
X105999404Y-101147619D01*
X127395595Y-61412380D02*
X127395595Y-60412380D01*
X127871785Y-61412380D02*
X127871785Y-60412380D01*
X128443214Y-61412380D01*
X128443214Y-60412380D01*
X131258095Y-79144761D02*
X131353333Y-79192380D01*
X131543809Y-79192380D01*
X131639047Y-79144761D01*
X131686666Y-79049523D01*
X131686666Y-79001904D01*
X131639047Y-78906666D01*
X131543809Y-78859047D01*
X131400952Y-78859047D01*
X131305714Y-78811428D01*
X131258095Y-78716190D01*
X131258095Y-78668571D01*
X131305714Y-78573333D01*
X131400952Y-78525714D01*
X131543809Y-78525714D01*
X131639047Y-78573333D01*
X132496190Y-79144761D02*
X132400952Y-79192380D01*
X132210476Y-79192380D01*
X132115238Y-79144761D01*
X132067619Y-79049523D01*
X132067619Y-78668571D01*
X132115238Y-78573333D01*
X132210476Y-78525714D01*
X132400952Y-78525714D01*
X132496190Y-78573333D01*
X132543809Y-78668571D01*
X132543809Y-78763809D01*
X132067619Y-78859047D01*
X132972380Y-79192380D02*
X132972380Y-78525714D01*
X132972380Y-78716190D02*
X133020000Y-78620952D01*
X133067619Y-78573333D01*
X133162857Y-78525714D01*
X133258095Y-78525714D01*
X133496190Y-78525714D02*
X133734285Y-79192380D01*
X133972380Y-78525714D01*
X134496190Y-79192380D02*
X134400952Y-79144761D01*
X134353333Y-79097142D01*
X134305714Y-79001904D01*
X134305714Y-78716190D01*
X134353333Y-78620952D01*
X134400952Y-78573333D01*
X134496190Y-78525714D01*
X134639047Y-78525714D01*
X134734285Y-78573333D01*
X134781904Y-78620952D01*
X134829523Y-78716190D01*
X134829523Y-79001904D01*
X134781904Y-79097142D01*
X134734285Y-79144761D01*
X134639047Y-79192380D01*
X134496190Y-79192380D01*
X135210476Y-78287619D02*
X135258095Y-78240000D01*
X135353333Y-78192380D01*
X135591428Y-78192380D01*
X135686666Y-78240000D01*
X135734285Y-78287619D01*
X135781904Y-78382857D01*
X135781904Y-78478095D01*
X135734285Y-78620952D01*
X135162857Y-79192380D01*
X135781904Y-79192380D01*
X104999404Y-109672380D02*
X104427976Y-109672380D01*
X104713690Y-109672380D02*
X104713690Y-108672380D01*
X104618452Y-108815238D01*
X104523214Y-108910476D01*
X104427976Y-108958095D01*
X105380357Y-109386666D02*
X105856547Y-109386666D01*
X105285119Y-109672380D02*
X105618452Y-108672380D01*
X105951785Y-109672380D01*
X104999404Y-114752380D02*
X104427976Y-114752380D01*
X104713690Y-114752380D02*
X104713690Y-113752380D01*
X104618452Y-113895238D01*
X104523214Y-113990476D01*
X104427976Y-114038095D01*
X105761309Y-114228571D02*
X105904166Y-114276190D01*
X105951785Y-114323809D01*
X105999404Y-114419047D01*
X105999404Y-114561904D01*
X105951785Y-114657142D01*
X105904166Y-114704761D01*
X105808928Y-114752380D01*
X105427976Y-114752380D01*
X105427976Y-113752380D01*
X105761309Y-113752380D01*
X105856547Y-113800000D01*
X105904166Y-113847619D01*
X105951785Y-113942857D01*
X105951785Y-114038095D01*
X105904166Y-114133333D01*
X105856547Y-114180952D01*
X105761309Y-114228571D01*
X105427976Y-114228571D01*
X104427976Y-98607619D02*
X104475595Y-98560000D01*
X104570833Y-98512380D01*
X104808928Y-98512380D01*
X104904166Y-98560000D01*
X104951785Y-98607619D01*
X104999404Y-98702857D01*
X104999404Y-98798095D01*
X104951785Y-98940952D01*
X104380357Y-99512380D01*
X104999404Y-99512380D01*
X105761309Y-98988571D02*
X105904166Y-99036190D01*
X105951785Y-99083809D01*
X105999404Y-99179047D01*
X105999404Y-99321904D01*
X105951785Y-99417142D01*
X105904166Y-99464761D01*
X105808928Y-99512380D01*
X105427976Y-99512380D01*
X105427976Y-98512380D01*
X105761309Y-98512380D01*
X105856547Y-98560000D01*
X105904166Y-98607619D01*
X105951785Y-98702857D01*
X105951785Y-98798095D01*
X105904166Y-98893333D01*
X105856547Y-98940952D01*
X105761309Y-98988571D01*
X105427976Y-98988571D01*
X131699047Y-55951428D02*
X132460952Y-55951428D01*
X132080000Y-56332380D02*
X132080000Y-55570476D01*
X123267261Y-80732380D02*
X122791071Y-80732380D01*
X122743452Y-81208571D01*
X122791071Y-81160952D01*
X122886309Y-81113333D01*
X123124404Y-81113333D01*
X123219642Y-81160952D01*
X123267261Y-81208571D01*
X123314880Y-81303809D01*
X123314880Y-81541904D01*
X123267261Y-81637142D01*
X123219642Y-81684761D01*
X123124404Y-81732380D01*
X122886309Y-81732380D01*
X122791071Y-81684761D01*
X122743452Y-81637142D01*
X123600595Y-80732380D02*
X123933928Y-81732380D01*
X124267261Y-80732380D01*
X104427976Y-96067619D02*
X104475595Y-96020000D01*
X104570833Y-95972380D01*
X104808928Y-95972380D01*
X104904166Y-96020000D01*
X104951785Y-96067619D01*
X104999404Y-96162857D01*
X104999404Y-96258095D01*
X104951785Y-96400952D01*
X104380357Y-96972380D01*
X104999404Y-96972380D01*
X105380357Y-96686666D02*
X105856547Y-96686666D01*
X105285119Y-96972380D02*
X105618452Y-95972380D01*
X105951785Y-96972380D01*
%TO.C,R1*%
X78573333Y-83652380D02*
X78240000Y-83176190D01*
X78001904Y-83652380D02*
X78001904Y-82652380D01*
X78382857Y-82652380D01*
X78478095Y-82700000D01*
X78525714Y-82747619D01*
X78573333Y-82842857D01*
X78573333Y-82985714D01*
X78525714Y-83080952D01*
X78478095Y-83128571D01*
X78382857Y-83176190D01*
X78001904Y-83176190D01*
X79525714Y-83652380D02*
X78954285Y-83652380D01*
X79240000Y-83652380D02*
X79240000Y-82652380D01*
X79144761Y-82795238D01*
X79049523Y-82890476D01*
X78954285Y-82938095D01*
%TO.C,C3*%
X128277142Y-71286666D02*
X128324761Y-71334285D01*
X128372380Y-71477142D01*
X128372380Y-71572380D01*
X128324761Y-71715238D01*
X128229523Y-71810476D01*
X128134285Y-71858095D01*
X127943809Y-71905714D01*
X127800952Y-71905714D01*
X127610476Y-71858095D01*
X127515238Y-71810476D01*
X127420000Y-71715238D01*
X127372380Y-71572380D01*
X127372380Y-71477142D01*
X127420000Y-71334285D01*
X127467619Y-71286666D01*
X127372380Y-70953333D02*
X127372380Y-70334285D01*
X127753333Y-70667619D01*
X127753333Y-70524761D01*
X127800952Y-70429523D01*
X127848571Y-70381904D01*
X127943809Y-70334285D01*
X128181904Y-70334285D01*
X128277142Y-70381904D01*
X128324761Y-70429523D01*
X128372380Y-70524761D01*
X128372380Y-70810476D01*
X128324761Y-70905714D01*
X128277142Y-70953333D01*
%TO.C,U2*%
X91948095Y-100842380D02*
X91948095Y-101651904D01*
X91995714Y-101747142D01*
X92043333Y-101794761D01*
X92138571Y-101842380D01*
X92329047Y-101842380D01*
X92424285Y-101794761D01*
X92471904Y-101747142D01*
X92519523Y-101651904D01*
X92519523Y-100842380D01*
X92948095Y-100937619D02*
X92995714Y-100890000D01*
X93090952Y-100842380D01*
X93329047Y-100842380D01*
X93424285Y-100890000D01*
X93471904Y-100937619D01*
X93519523Y-101032857D01*
X93519523Y-101128095D01*
X93471904Y-101270952D01*
X92900476Y-101842380D01*
X93519523Y-101842380D01*
%TO.C,C2*%
X89257142Y-76366666D02*
X89304761Y-76414285D01*
X89352380Y-76557142D01*
X89352380Y-76652380D01*
X89304761Y-76795238D01*
X89209523Y-76890476D01*
X89114285Y-76938095D01*
X88923809Y-76985714D01*
X88780952Y-76985714D01*
X88590476Y-76938095D01*
X88495238Y-76890476D01*
X88400000Y-76795238D01*
X88352380Y-76652380D01*
X88352380Y-76557142D01*
X88400000Y-76414285D01*
X88447619Y-76366666D01*
X88447619Y-75985714D02*
X88400000Y-75938095D01*
X88352380Y-75842857D01*
X88352380Y-75604761D01*
X88400000Y-75509523D01*
X88447619Y-75461904D01*
X88542857Y-75414285D01*
X88638095Y-75414285D01*
X88780952Y-75461904D01*
X89352380Y-76033333D01*
X89352380Y-75414285D01*
%TO.C,R2*%
X78573333Y-63952380D02*
X78240000Y-63476190D01*
X78001904Y-63952380D02*
X78001904Y-62952380D01*
X78382857Y-62952380D01*
X78478095Y-63000000D01*
X78525714Y-63047619D01*
X78573333Y-63142857D01*
X78573333Y-63285714D01*
X78525714Y-63380952D01*
X78478095Y-63428571D01*
X78382857Y-63476190D01*
X78001904Y-63476190D01*
X78954285Y-63047619D02*
X79001904Y-63000000D01*
X79097142Y-62952380D01*
X79335238Y-62952380D01*
X79430476Y-63000000D01*
X79478095Y-63047619D01*
X79525714Y-63142857D01*
X79525714Y-63238095D01*
X79478095Y-63380952D01*
X78906666Y-63952380D01*
X79525714Y-63952380D01*
%TO.C,U1*%
X91948095Y-128782380D02*
X91948095Y-129591904D01*
X91995714Y-129687142D01*
X92043333Y-129734761D01*
X92138571Y-129782380D01*
X92329047Y-129782380D01*
X92424285Y-129734761D01*
X92471904Y-129687142D01*
X92519523Y-129591904D01*
X92519523Y-128782380D01*
X93519523Y-129782380D02*
X92948095Y-129782380D01*
X93233809Y-129782380D02*
X93233809Y-128782380D01*
X93138571Y-128925238D01*
X93043333Y-129020476D01*
X92948095Y-129068095D01*
%TO.C,D2*%
X113561904Y-76582380D02*
X113561904Y-75582380D01*
X113800000Y-75582380D01*
X113942857Y-75630000D01*
X114038095Y-75725238D01*
X114085714Y-75820476D01*
X114133333Y-76010952D01*
X114133333Y-76153809D01*
X114085714Y-76344285D01*
X114038095Y-76439523D01*
X113942857Y-76534761D01*
X113800000Y-76582380D01*
X113561904Y-76582380D01*
X114514285Y-75677619D02*
X114561904Y-75630000D01*
X114657142Y-75582380D01*
X114895238Y-75582380D01*
X114990476Y-75630000D01*
X115038095Y-75677619D01*
X115085714Y-75772857D01*
X115085714Y-75868095D01*
X115038095Y-76010952D01*
X114466666Y-76582380D01*
X115085714Y-76582380D01*
%TO.C,C1*%
X92523333Y-107037142D02*
X92475714Y-107084761D01*
X92332857Y-107132380D01*
X92237619Y-107132380D01*
X92094761Y-107084761D01*
X91999523Y-106989523D01*
X91951904Y-106894285D01*
X91904285Y-106703809D01*
X91904285Y-106560952D01*
X91951904Y-106370476D01*
X91999523Y-106275238D01*
X92094761Y-106180000D01*
X92237619Y-106132380D01*
X92332857Y-106132380D01*
X92475714Y-106180000D01*
X92523333Y-106227619D01*
X93475714Y-107132380D02*
X92904285Y-107132380D01*
X93190000Y-107132380D02*
X93190000Y-106132380D01*
X93094761Y-106275238D01*
X92999523Y-106370476D01*
X92904285Y-106418095D01*
%TO.C,D1*%
X107062380Y-69318095D02*
X106062380Y-69318095D01*
X106062380Y-69080000D01*
X106110000Y-68937142D01*
X106205238Y-68841904D01*
X106300476Y-68794285D01*
X106490952Y-68746666D01*
X106633809Y-68746666D01*
X106824285Y-68794285D01*
X106919523Y-68841904D01*
X107014761Y-68937142D01*
X107062380Y-69080000D01*
X107062380Y-69318095D01*
X107062380Y-67794285D02*
X107062380Y-68365714D01*
X107062380Y-68080000D02*
X106062380Y-68080000D01*
X106205238Y-68175238D01*
X106300476Y-68270476D01*
X106348095Y-68365714D01*
%TO.C,J13*%
X82532380Y-74904523D02*
X83246666Y-74904523D01*
X83389523Y-74952142D01*
X83484761Y-75047380D01*
X83532380Y-75190238D01*
X83532380Y-75285476D01*
X83532380Y-73904523D02*
X83532380Y-74475952D01*
X83532380Y-74190238D02*
X82532380Y-74190238D01*
X82675238Y-74285476D01*
X82770476Y-74380714D01*
X82818095Y-74475952D01*
X82532380Y-73571190D02*
X82532380Y-72952142D01*
X82913333Y-73285476D01*
X82913333Y-73142619D01*
X82960952Y-73047380D01*
X83008571Y-72999761D01*
X83103809Y-72952142D01*
X83341904Y-72952142D01*
X83437142Y-72999761D01*
X83484761Y-73047380D01*
X83532380Y-73142619D01*
X83532380Y-73428333D01*
X83484761Y-73523571D01*
X83437142Y-73571190D01*
D11*
%TO.C,R1*%
X80660000Y-80360000D02*
X76820000Y-80360000D01*
X80660000Y-82200000D02*
X76820000Y-82200000D01*
%TO.C,C3*%
X127920000Y-75579000D02*
X127920000Y-74321000D01*
X126080000Y-75579000D02*
X126080000Y-74321000D01*
%TO.C,K2*%
X100076000Y-69850000D02*
X85344000Y-69850000D01*
X88392000Y-62992000D02*
X88392000Y-63652000D01*
X88900000Y-63652000D02*
X87884000Y-63652000D01*
X89027000Y-62992000D02*
X88392000Y-62992000D01*
X88900000Y-65176000D02*
X87884000Y-64541000D01*
X87884000Y-63652000D02*
X87884000Y-65557000D01*
X89027000Y-66192000D02*
X88392000Y-66192000D01*
X88900000Y-65557000D02*
X87884000Y-65557000D01*
X100076000Y-59690000D02*
X100076000Y-69850000D01*
X88392000Y-66192000D02*
X88392000Y-65557000D01*
X88900000Y-65557000D02*
X88900000Y-63652000D01*
X85344000Y-69850000D02*
X85344000Y-59690000D01*
X85344000Y-59690000D02*
X100076000Y-59690000D01*
%TO.C,K1*%
X114300000Y-65557000D02*
X113284000Y-65557000D01*
X114427000Y-66192000D02*
X113792000Y-66192000D01*
X110744000Y-59690000D02*
X125476000Y-59690000D01*
X114300000Y-63652000D02*
X113284000Y-63652000D01*
X113284000Y-63652000D02*
X113284000Y-65557000D01*
X114427000Y-62992000D02*
X113792000Y-62992000D01*
X114300000Y-65557000D02*
X114300000Y-63652000D01*
X125476000Y-59690000D02*
X125476000Y-69850000D01*
X114300000Y-65176000D02*
X113284000Y-64541000D01*
X113792000Y-66192000D02*
X113792000Y-65557000D01*
X125476000Y-69850000D02*
X110744000Y-69850000D01*
X110744000Y-69850000D02*
X110744000Y-59690000D01*
X113792000Y-62992000D02*
X113792000Y-63652000D01*
%TO.C,J6*%
X95207000Y-52317000D02*
X95254000Y-52271000D01*
X101900000Y-48440000D02*
X101400000Y-48440000D01*
X101900000Y-49180000D02*
X101900000Y-48440000D01*
X101660000Y-55641000D02*
X91380000Y-55641000D01*
X92705000Y-54409000D02*
X92752000Y-54363000D01*
X101660000Y-50740000D02*
X91380000Y-50740000D01*
X95014000Y-52101000D02*
X95049000Y-52066000D01*
X91380000Y-58601000D02*
X91380000Y-48680000D01*
X101660000Y-58601000D02*
X101660000Y-48680000D01*
X101660000Y-48680000D02*
X91380000Y-48680000D01*
X101660000Y-58601000D02*
X91380000Y-58601000D01*
X101660000Y-49240000D02*
X91380000Y-49240000D01*
X92910000Y-54615000D02*
X92945000Y-54579000D01*
X97524999Y-52656000D02*
G75*
G03*
X97524573Y-54023042I1535001J-684000D01*
G01*
X98376000Y-54875000D02*
G75*
G03*
X99743042Y-54875427I684001J1534993D01*
G01*
X99060000Y-51660000D02*
G75*
G03*
X98376682Y-51805244I0J-1680000D01*
G01*
X100595000Y-54024000D02*
G75*
G03*
X100595427Y-52656958I-1534993J684001D01*
G01*
X99744000Y-51805000D02*
G75*
G03*
X99031195Y-51659747I-683999J-1535001D01*
G01*
X95660000Y-53340000D02*
G75*
G03*
X95660000Y-53340000I-1680000J0D01*
G01*
%TO.C,J7*%
X116780000Y-58601000D02*
X116780000Y-48680000D01*
X127060000Y-58601000D02*
X127060000Y-48680000D01*
X127060000Y-48680000D02*
X116780000Y-48680000D01*
X127060000Y-50740000D02*
X116780000Y-50740000D01*
X118105000Y-54409000D02*
X118152000Y-54363000D01*
X127300000Y-48440000D02*
X126800000Y-48440000D01*
X127060000Y-55641000D02*
X116780000Y-55641000D01*
X127060000Y-58601000D02*
X116780000Y-58601000D01*
X120607000Y-52317000D02*
X120654000Y-52271000D01*
X120414000Y-52101000D02*
X120449000Y-52066000D01*
X118310000Y-54615000D02*
X118345000Y-54579000D01*
X127060000Y-49240000D02*
X116780000Y-49240000D01*
X127300000Y-49180000D02*
X127300000Y-48440000D01*
X122924999Y-52656000D02*
G75*
G03*
X122924573Y-54023042I1535001J-684000D01*
G01*
X124460000Y-51660000D02*
G75*
G03*
X123776682Y-51805244I0J-1680000D01*
G01*
X125144000Y-51805000D02*
G75*
G03*
X124431195Y-51659747I-683999J-1535001D01*
G01*
X123776000Y-54875000D02*
G75*
G03*
X125143042Y-54875427I684001J1534993D01*
G01*
X125995000Y-54024000D02*
G75*
G03*
X125995427Y-52656958I-1534993J684001D01*
G01*
X121060000Y-53340000D02*
G75*
G03*
X121060000Y-53340000I-1680000J0D01*
G01*
%TO.C,U2*%
X95360000Y-100390000D02*
X95360000Y-79950000D01*
X93710000Y-100390000D02*
X95360000Y-100390000D01*
X95360000Y-79950000D02*
X90060000Y-79950000D01*
X90060000Y-100390000D02*
X91710000Y-100390000D01*
X90060000Y-79950000D02*
X90060000Y-100390000D01*
X93710000Y-100390000D02*
G75*
G03*
X91710000Y-100390000I-1000000J0D01*
G01*
%TO.C,J4*%
X125670000Y-125730000D02*
X125670000Y-79950000D01*
X125670000Y-128330000D02*
X125670000Y-127000000D01*
X128330000Y-79950000D02*
X125670000Y-79950000D01*
X128330000Y-125730000D02*
X125670000Y-125730000D01*
X127000000Y-128330000D02*
X125670000Y-128330000D01*
X128330000Y-125730000D02*
X128330000Y-79950000D01*
%TO.C,J9*%
X114360000Y-58601000D02*
X104080000Y-58601000D01*
X107714000Y-52101000D02*
X107749000Y-52066000D01*
X105405000Y-54409000D02*
X105452000Y-54363000D01*
X114360000Y-58601000D02*
X114360000Y-48680000D01*
X114600000Y-49180000D02*
X114600000Y-48440000D01*
X114360000Y-55641000D02*
X104080000Y-55641000D01*
X114360000Y-49240000D02*
X104080000Y-49240000D01*
X107907000Y-52317000D02*
X107954000Y-52271000D01*
X114360000Y-48680000D02*
X104080000Y-48680000D01*
X114600000Y-48440000D02*
X114100000Y-48440000D01*
X104080000Y-58601000D02*
X104080000Y-48680000D01*
X114360000Y-50740000D02*
X104080000Y-50740000D01*
X105610000Y-54615000D02*
X105645000Y-54579000D01*
X111760000Y-51660000D02*
G75*
G03*
X111076682Y-51805244I0J-1680000D01*
G01*
X111076000Y-54875000D02*
G75*
G03*
X112443042Y-54875427I684001J1534993D01*
G01*
X113295000Y-54024000D02*
G75*
G03*
X113295427Y-52656958I-1534993J684001D01*
G01*
X112444000Y-51805000D02*
G75*
G03*
X111731195Y-51659747I-683999J-1535001D01*
G01*
X110224999Y-52656000D02*
G75*
G03*
X110224573Y-54023042I1535001J-684000D01*
G01*
X108360000Y-53340000D02*
G75*
G03*
X108360000Y-53340000I-1680000J0D01*
G01*
%TO.C,C2*%
X92061000Y-77120000D02*
X93319000Y-77120000D01*
X92061000Y-75280000D02*
X93319000Y-75280000D01*
%TO.C,R2*%
X80660000Y-65120000D02*
X76820000Y-65120000D01*
X80660000Y-66960000D02*
X76820000Y-66960000D01*
%TO.C,U1*%
X90060000Y-128330000D02*
X91710000Y-128330000D01*
X90060000Y-107890000D02*
X90060000Y-128330000D01*
X95360000Y-107890000D02*
X90060000Y-107890000D01*
X95360000Y-128330000D02*
X95360000Y-107890000D01*
X93710000Y-128330000D02*
X95360000Y-128330000D01*
X93710000Y-128330000D02*
G75*
G03*
X91710000Y-128330000I-1000000J0D01*
G01*
%TO.C,J2*%
X79680000Y-121510000D02*
X74180000Y-121510000D01*
X74180000Y-111510000D02*
X74180000Y-112010000D01*
X74180000Y-119010000D02*
X74180000Y-119510000D01*
X83380000Y-112060000D02*
X82780000Y-111760000D01*
X74180000Y-119510000D02*
X79680000Y-119510000D01*
X74180000Y-114510000D02*
X79680000Y-114510000D01*
X79680000Y-114510000D02*
X79680000Y-114010000D01*
X74180000Y-109200000D02*
X85290000Y-109200000D01*
X85290000Y-122900000D02*
X80790000Y-122900000D01*
X79680000Y-119510000D02*
X79680000Y-119010000D01*
X85290000Y-109200000D02*
X85290000Y-110620000D01*
X82780000Y-111760000D02*
X83380000Y-111460000D01*
X85290000Y-124320000D02*
X85290000Y-122900000D01*
X83380000Y-111460000D02*
X83380000Y-112060000D01*
X74180000Y-116760000D02*
X74180000Y-109200000D01*
X74180000Y-122010000D02*
X79680000Y-122010000D01*
X74180000Y-116760000D02*
X74180000Y-124320000D01*
X74180000Y-124320000D02*
X85290000Y-124320000D01*
X79680000Y-117010000D02*
X79680000Y-116510000D01*
X79680000Y-122010000D02*
X79680000Y-121510000D01*
X79680000Y-119010000D02*
X74180000Y-119010000D01*
X74180000Y-114010000D02*
X74180000Y-114510000D01*
X74180000Y-112010000D02*
X79680000Y-112010000D01*
X74180000Y-116510000D02*
X74180000Y-117010000D01*
X79680000Y-111510000D02*
X74180000Y-111510000D01*
X74180000Y-121510000D02*
X74180000Y-122010000D01*
X79680000Y-114010000D02*
X74180000Y-114010000D01*
X85290000Y-110620000D02*
X80790000Y-110620000D01*
X79680000Y-116510000D02*
X74180000Y-116510000D01*
X74180000Y-117010000D02*
X79680000Y-117010000D01*
X79680000Y-112010000D02*
X79680000Y-111510000D01*
%TO.C,J5*%
X102930000Y-79950000D02*
X100270000Y-79950000D01*
X102930000Y-125730000D02*
X100270000Y-125730000D01*
X101600000Y-128330000D02*
X100270000Y-128330000D01*
X102930000Y-125730000D02*
X102930000Y-79950000D01*
X100270000Y-125730000D02*
X100270000Y-79950000D01*
X100270000Y-128330000D02*
X100270000Y-127000000D01*
%TO.C,J10*%
X130810000Y-59690000D02*
X132080000Y-59690000D01*
X133122929Y-65660000D02*
X133520000Y-65660000D01*
X136180000Y-67370000D02*
X136180000Y-59630000D01*
X133122929Y-66420000D02*
X133520000Y-66420000D01*
X133122929Y-63120000D02*
X133520000Y-63120000D01*
X136180000Y-59630000D02*
X133520000Y-59630000D01*
X133520000Y-64770000D02*
X136180000Y-64770000D01*
X133190000Y-60580000D02*
X133520000Y-60580000D01*
X133520000Y-67370000D02*
X136180000Y-67370000D01*
X133122929Y-63880000D02*
X133520000Y-63880000D01*
X133520000Y-62230000D02*
X136180000Y-62230000D01*
X133520000Y-59630000D02*
X133520000Y-67370000D01*
X133190000Y-61340000D02*
X133520000Y-61340000D01*
X130810000Y-60960000D02*
X130810000Y-59690000D01*
%TO.C,D2*%
X111580000Y-75130000D02*
X117020000Y-75130000D01*
X117020000Y-72190000D02*
X111580000Y-72190000D01*
X116240000Y-75130000D02*
X116240000Y-72190000D01*
X110560000Y-73660000D02*
X111580000Y-73660000D01*
X117020000Y-75130000D02*
X117020000Y-72190000D01*
X116120000Y-75130000D02*
X116120000Y-72190000D01*
X111580000Y-72190000D02*
X111580000Y-75130000D01*
X116000000Y-75130000D02*
X116000000Y-72190000D01*
X118040000Y-73660000D02*
X117020000Y-73660000D01*
%TO.C,J3*%
X74180000Y-101190000D02*
X74180000Y-101690000D01*
X74180000Y-101690000D02*
X79680000Y-101690000D01*
X74180000Y-96440000D02*
X74180000Y-88880000D01*
X79680000Y-98690000D02*
X74180000Y-98690000D01*
X74180000Y-104000000D02*
X85290000Y-104000000D01*
X79680000Y-93690000D02*
X74180000Y-93690000D01*
X74180000Y-96440000D02*
X74180000Y-104000000D01*
X79680000Y-99190000D02*
X79680000Y-98690000D01*
X74180000Y-99190000D02*
X79680000Y-99190000D01*
X83380000Y-91140000D02*
X83380000Y-91740000D01*
X79680000Y-101190000D02*
X74180000Y-101190000D01*
X74180000Y-98690000D02*
X74180000Y-99190000D01*
X74180000Y-93690000D02*
X74180000Y-94190000D01*
X79680000Y-91190000D02*
X74180000Y-91190000D01*
X74180000Y-91690000D02*
X79680000Y-91690000D01*
X82780000Y-91440000D02*
X83380000Y-91140000D01*
X83380000Y-91740000D02*
X82780000Y-91440000D01*
X85290000Y-90300000D02*
X80790000Y-90300000D01*
X74180000Y-94190000D02*
X79680000Y-94190000D01*
X74180000Y-96690000D02*
X79680000Y-96690000D01*
X79680000Y-91690000D02*
X79680000Y-91190000D01*
X74180000Y-88880000D02*
X85290000Y-88880000D01*
X79680000Y-94190000D02*
X79680000Y-93690000D01*
X79680000Y-101690000D02*
X79680000Y-101190000D01*
X85290000Y-104000000D02*
X85290000Y-102580000D01*
X85290000Y-88880000D02*
X85290000Y-90300000D01*
X74180000Y-96190000D02*
X74180000Y-96690000D01*
X74180000Y-91190000D02*
X74180000Y-91690000D01*
X79680000Y-96690000D02*
X79680000Y-96190000D01*
X79680000Y-96190000D02*
X74180000Y-96190000D01*
X85290000Y-102580000D02*
X80790000Y-102580000D01*
%TO.C,C1*%
X92061000Y-103220000D02*
X93319000Y-103220000D01*
X92061000Y-105060000D02*
X93319000Y-105060000D01*
%TO.C,J8*%
X80005000Y-54409000D02*
X80052000Y-54363000D01*
X88960000Y-58601000D02*
X88960000Y-48680000D01*
X89200000Y-49180000D02*
X89200000Y-48440000D01*
X82507000Y-52317000D02*
X82554000Y-52271000D01*
X80210000Y-54615000D02*
X80245000Y-54579000D01*
X78680000Y-58601000D02*
X78680000Y-48680000D01*
X88960000Y-48680000D02*
X78680000Y-48680000D01*
X88960000Y-58601000D02*
X78680000Y-58601000D01*
X89200000Y-48440000D02*
X88700000Y-48440000D01*
X82314000Y-52101000D02*
X82349000Y-52066000D01*
X88960000Y-49240000D02*
X78680000Y-49240000D01*
X88960000Y-55641000D02*
X78680000Y-55641000D01*
X88960000Y-50740000D02*
X78680000Y-50740000D01*
X86360000Y-51660000D02*
G75*
G03*
X85676682Y-51805244I0J-1680000D01*
G01*
X84824999Y-52656000D02*
G75*
G03*
X84824573Y-54023042I1535001J-684000D01*
G01*
X85676000Y-54875000D02*
G75*
G03*
X87043042Y-54875427I684001J1534993D01*
G01*
X87895000Y-54024000D02*
G75*
G03*
X87895427Y-52656958I-1534993J684001D01*
G01*
X87044000Y-51805000D02*
G75*
G03*
X86331195Y-51659747I-683999J-1535001D01*
G01*
X82960000Y-53340000D02*
G75*
G03*
X82960000Y-53340000I-1680000J0D01*
G01*
%TO.C,D1*%
X104140000Y-72320000D02*
X104140000Y-71300000D01*
X102670000Y-65860000D02*
X102670000Y-71300000D01*
X104140000Y-64840000D02*
X104140000Y-65860000D01*
X102670000Y-71300000D02*
X105610000Y-71300000D01*
X105610000Y-65860000D02*
X102670000Y-65860000D01*
X105610000Y-66640000D02*
X102670000Y-66640000D01*
X105610000Y-66880000D02*
X102670000Y-66880000D01*
X105610000Y-66760000D02*
X102670000Y-66760000D01*
X105610000Y-71300000D02*
X105610000Y-65860000D01*
%TO.C,J11*%
X133520000Y-69790000D02*
X133520000Y-77530000D01*
X133122929Y-76580000D02*
X133520000Y-76580000D01*
X130810000Y-71120000D02*
X130810000Y-69850000D01*
X133122929Y-73280000D02*
X133520000Y-73280000D01*
X133520000Y-74930000D02*
X136180000Y-74930000D01*
X130810000Y-69850000D02*
X132080000Y-69850000D01*
X133190000Y-70740000D02*
X133520000Y-70740000D01*
X136180000Y-77530000D02*
X136180000Y-69790000D01*
X133520000Y-77530000D02*
X136180000Y-77530000D01*
X133122929Y-74040000D02*
X133520000Y-74040000D01*
X136180000Y-69790000D02*
X133520000Y-69790000D01*
X133520000Y-72390000D02*
X136180000Y-72390000D01*
X133190000Y-71500000D02*
X133520000Y-71500000D01*
X133122929Y-75820000D02*
X133520000Y-75820000D01*
%TO.C,J12*%
X129920000Y-52230000D02*
X129920000Y-51900000D01*
X133350000Y-51900000D02*
X133350000Y-49240000D01*
X129540000Y-54610000D02*
X128270000Y-54610000D01*
X128210000Y-49240000D02*
X128210000Y-51900000D01*
X135950000Y-49240000D02*
X128210000Y-49240000D01*
X134240000Y-52297071D02*
X134240000Y-51900000D01*
X135950000Y-51900000D02*
X135950000Y-49240000D01*
X132460000Y-52297071D02*
X132460000Y-51900000D01*
X130810000Y-51900000D02*
X130810000Y-49240000D01*
X129160000Y-52230000D02*
X129160000Y-51900000D01*
X128270000Y-54610000D02*
X128270000Y-53340000D01*
X135000000Y-52297071D02*
X135000000Y-51900000D01*
X128210000Y-51900000D02*
X135950000Y-51900000D01*
X131700000Y-52297071D02*
X131700000Y-51900000D01*
%TO.C,J13*%
X78880000Y-69500000D02*
X77980000Y-69500000D01*
X78880000Y-78690000D02*
X77980000Y-78690000D01*
X75280000Y-69500000D02*
X74280000Y-69500000D01*
X74280000Y-69500000D02*
X74280000Y-78690000D01*
X75280000Y-78690000D02*
X74280000Y-78690000D01*
X81960000Y-69620000D02*
X81960000Y-78570000D01*
%TD*%
M02*
