M48
; DRILL file {KiCad (6.0.4)} date Tue May 24 10:51:36 2022
; FORMAT={-:-/ absolute / inch / decimal}
; #@! TF.CreationDate,2022-05-24T10:51:36+02:00
; #@! TF.GenerationSoftware,Kicad,Pcbnew,(6.0.4)
; #@! TF.FileFunction,Plated,1,2,PTH
FMAT,2
INCH
; #@! TA.AperFunction,Plated,PTH,ViaDrill
T1C0.0157
; #@! TA.AperFunction,Plated,PTH,ComponentDrill
T2C0.0157
; #@! TA.AperFunction,Plated,PTH,ComponentDrill
T3C0.0236
; #@! TA.AperFunction,Plated,PTH,ComponentDrill
T4C0.0276
; #@! TA.AperFunction,Plated,PTH,ComponentDrill
T5C0.0315
; #@! TA.AperFunction,Plated,PTH,ComponentDrill
T6C0.0374
; #@! TA.AperFunction,Plated,PTH,ComponentDrill
T7C0.0394
; #@! TA.AperFunction,Plated,PTH,ComponentDrill
T8C0.0433
; #@! TA.AperFunction,Plated,PTH,ComponentDrill
T9C0.0512
%
G90
G05
T1
X3.1Y-2.9
X3.2Y-3.3
X3.3Y-4.0
X3.4Y-2.8
X3.4Y-3.1
X3.4Y-4.8
X3.5Y-2.9
X3.6Y-2.7
X3.7Y-3.3
X3.9Y-3.1
X4.1Y-2.7
X4.1Y-3.4
X4.3Y-2.7
X4.4Y-2.9
X4.8Y-2.5
X4.8Y-3.6
X5.0Y-2.2
X5.0Y-2.5
T2
X3.1469Y-2.8
X3.1469Y-2.8335
X3.1469Y-2.8669
X3.1469Y-2.9004
X3.1469Y-2.9339
X3.1469Y-2.9673
X3.1469Y-3.0008
X3.1469Y-3.0343
X3.2Y-2.8
X3.2Y-2.8335
X3.2Y-2.8669
X3.2Y-2.9004
X3.2Y-2.9339
X3.2Y-2.9673
X3.2Y-3.0008
X3.2Y-3.0343
T4
X3.0Y-2.6
X3.0Y-3.2
X3.2Y-2.6
X3.2Y-3.2
T5
X3.5Y-3.2
X3.5Y-3.3
X3.5Y-3.4
X3.5Y-3.5
X3.5Y-3.6
X3.5Y-3.7
X3.5Y-3.8
X3.5Y-3.9
X3.5Y-4.3
X3.5Y-4.4
X3.5Y-4.5
X3.5Y-4.6
X3.5Y-4.7
X3.5Y-4.8
X3.5Y-4.9
X3.5Y-5.0
X3.6Y-3.0
X3.6Y-4.1
X3.6984Y-3.0
X3.6984Y-4.1
X3.8Y-3.2
X3.8Y-3.3
X3.8Y-3.4
X3.8Y-3.5
X3.8Y-3.6
X3.8Y-3.7
X3.8Y-3.8
X3.8Y-3.9
X3.8Y-4.3
X3.8Y-4.4
X3.8Y-4.5
X3.8Y-4.6
X3.8Y-4.7
X3.8Y-4.8
X3.8Y-4.9
X3.8Y-5.0
X5.0Y-2.9016
X5.0Y-3.0
T6
X3.2Y-3.6
X3.2Y-3.6984
X3.2Y-3.7969
X3.2Y-3.8953
X3.2Y-3.9937
X3.2Y-4.4
X3.2Y-4.4984
X3.2Y-4.5969
X3.2Y-4.6953
X3.2Y-4.7937
T7
X3.4Y-2.4
X3.4Y-2.7
X3.5Y-2.4
X3.5Y-2.7
X3.9Y-2.4
X3.9Y-2.7
X4.0Y-3.2
X4.0Y-3.3
X4.0Y-3.4
X4.0Y-3.5
X4.0Y-3.6
X4.0Y-3.7
X4.0Y-3.8
X4.0Y-3.9
X4.0Y-4.0
X4.0Y-4.1
X4.0Y-4.2
X4.0Y-4.3
X4.0Y-4.4
X4.0Y-4.5
X4.0Y-4.6
X4.0Y-4.7
X4.0Y-4.8
X4.0Y-4.9
X4.0Y-5.0
X4.4Y-2.4
X4.4Y-2.7
X4.5Y-2.4
X4.5Y-2.7
X4.9Y-2.4
X4.9Y-2.7
X5.0Y-3.2
X5.0Y-3.3
X5.0Y-3.4
X5.0Y-3.5
X5.0Y-3.6
X5.0Y-3.7
X5.0Y-3.8
X5.0Y-3.9
X5.0Y-4.0
X5.0Y-4.1
X5.0Y-4.2
X5.0Y-4.3
X5.0Y-4.4
X5.0Y-4.5
X5.0Y-4.6
X5.0Y-4.7
X5.0Y-4.8
X5.0Y-4.9
X5.0Y-5.0
X5.1Y-2.1
X5.2Y-2.1
X5.2Y-2.4
X5.2Y-2.5
X5.2Y-2.6
X5.2Y-2.8
X5.2Y-2.9
X5.2Y-3.0
X5.3Y-2.1
T8
X4.1Y-2.5
X4.1Y-2.9
X4.3Y-2.9
X4.7Y-2.9
T9
X3.2Y-2.1
X3.4Y-2.1
X3.7Y-2.1
X3.9Y-2.1
X4.2Y-2.1
X4.4Y-2.1
X4.7Y-2.1
X4.9Y-2.1
T3
G00X3.0441Y-2.7469
M15
G01X3.0126Y-2.7469
M16
G05
G00X3.0441Y-3.0874
M15
G01X3.0126Y-3.0874
M16
G05
G00X3.1909Y-2.7469
M15
G01X3.1319Y-2.7469
M16
G05
G00X3.1909Y-3.0874
M15
G01X3.1319Y-3.0874
M16
G05
T0
M30
