%TF.GenerationSoftware,KiCad,Pcbnew,(6.0.4)*%
%TF.CreationDate,2022-05-24T10:51:07+02:00*%
%TF.ProjectId,XRTL_PCB,5852544c-5f50-4434-922e-6b696361645f,1.0*%
%TF.SameCoordinates,Original*%
%TF.FileFunction,Copper,L1,Top*%
%TF.FilePolarity,Positive*%
%FSLAX46Y46*%
G04 Gerber Fmt 4.6, Leading zero omitted, Abs format (unit mm)*
G04 Created by KiCad (PCBNEW (6.0.4)) date 2022-05-24 10:51:07*
%MOMM*%
%LPD*%
G01*
G04 APERTURE LIST*
G04 Aperture macros list*
%AMRoundRect*
0 Rectangle with rounded corners*
0 $1 Rounding radius*
0 $2 $3 $4 $5 $6 $7 $8 $9 X,Y pos of 4 corners*
0 Add a 4 corners polygon primitive as box body*
4,1,4,$2,$3,$4,$5,$6,$7,$8,$9,$2,$3,0*
0 Add four circle primitives for the rounded corners*
1,1,$1+$1,$2,$3*
1,1,$1+$1,$4,$5*
1,1,$1+$1,$6,$7*
1,1,$1+$1,$8,$9*
0 Add four rect primitives between the rounded corners*
20,1,$1+$1,$2,$3,$4,$5,0*
20,1,$1+$1,$4,$5,$6,$7,0*
20,1,$1+$1,$6,$7,$8,$9,0*
20,1,$1+$1,$8,$9,$2,$3,0*%
G04 Aperture macros list end*
%TA.AperFunction,ComponentPad*%
%ADD10C,1.400000*%
%TD*%
%TA.AperFunction,ComponentPad*%
%ADD11O,1.400000X1.400000*%
%TD*%
%TA.AperFunction,ComponentPad*%
%ADD12C,1.600000*%
%TD*%
%TA.AperFunction,ComponentPad*%
%ADD13O,1.600000X2.300000*%
%TD*%
%TA.AperFunction,ComponentPad*%
%ADD14R,2.600000X2.600000*%
%TD*%
%TA.AperFunction,ComponentPad*%
%ADD15C,2.600000*%
%TD*%
%TA.AperFunction,ComponentPad*%
%ADD16R,1.600000X1.600000*%
%TD*%
%TA.AperFunction,ComponentPad*%
%ADD17O,1.600000X1.600000*%
%TD*%
%TA.AperFunction,ComponentPad*%
%ADD18R,1.700000X1.700000*%
%TD*%
%TA.AperFunction,ComponentPad*%
%ADD19O,1.700000X1.700000*%
%TD*%
%TA.AperFunction,ComponentPad*%
%ADD20RoundRect,0.250000X-0.725000X0.600000X-0.725000X-0.600000X0.725000X-0.600000X0.725000X0.600000X0*%
%TD*%
%TA.AperFunction,ComponentPad*%
%ADD21O,1.950000X1.700000*%
%TD*%
%TA.AperFunction,ComponentPad*%
%ADD22R,2.200000X2.200000*%
%TD*%
%TA.AperFunction,ComponentPad*%
%ADD23O,2.200000X2.200000*%
%TD*%
%TA.AperFunction,ComponentPad*%
%ADD24C,0.700000*%
%TD*%
%TA.AperFunction,ComponentPad*%
%ADD25O,1.700000X0.900000*%
%TD*%
%TA.AperFunction,ComponentPad*%
%ADD26O,2.400000X0.900000*%
%TD*%
%TA.AperFunction,ViaPad*%
%ADD27C,0.800000*%
%TD*%
%TA.AperFunction,Conductor*%
%ADD28C,0.500000*%
%TD*%
%TA.AperFunction,Conductor*%
%ADD29C,1.000000*%
%TD*%
G04 APERTURE END LIST*
D10*
%TO.P,R1,1*%
%TO.N,Net-(J13-PadB5)*%
X81280000Y-81280000D03*
D11*
%TO.P,R1,2*%
%TO.N,GND*%
X76200000Y-81280000D03*
%TD*%
D12*
%TO.P,C3,1*%
%TO.N,+5V*%
X127000000Y-76200000D03*
%TO.P,C3,2*%
%TO.N,GND*%
X127000000Y-73700000D03*
%TD*%
D13*
%TO.P,K2,1*%
%TO.N,Net-(J6-Pad2)*%
X99060000Y-60960000D03*
%TO.P,K2,5*%
%TO.N,+5V*%
X88900000Y-60960000D03*
%TO.P,K2,6*%
%TO.N,Net-(J8-Pad2)*%
X86360000Y-60960000D03*
%TO.P,K2,7*%
%TO.N,unconnected-(K2-Pad7)*%
X86360000Y-68580000D03*
%TO.P,K2,8*%
%TO.N,driverRelay2*%
X88900000Y-68580000D03*
%TO.P,K2,12*%
%TO.N,Net-(J6-Pad2)*%
X99060000Y-68580000D03*
%TD*%
%TO.P,K1,1*%
%TO.N,Net-(J7-Pad2)*%
X124460000Y-60960000D03*
%TO.P,K1,5*%
%TO.N,+5V*%
X114300000Y-60960000D03*
%TO.P,K1,6*%
%TO.N,Net-(J9-Pad2)*%
X111760000Y-60960000D03*
%TO.P,K1,7*%
%TO.N,unconnected-(K1-Pad7)*%
X111760000Y-68580000D03*
%TO.P,K1,8*%
%TO.N,driverRelay1*%
X114300000Y-68580000D03*
%TO.P,K1,12*%
%TO.N,Net-(J7-Pad2)*%
X124460000Y-68580000D03*
%TD*%
D14*
%TO.P,J6,1,Pin_1*%
%TO.N,Net-(J6-Pad1)*%
X99060000Y-53340000D03*
D15*
%TO.P,J6,2,Pin_2*%
%TO.N,Net-(J6-Pad2)*%
X93980000Y-53340000D03*
%TD*%
D14*
%TO.P,J7,1,Pin_1*%
%TO.N,Net-(J7-Pad1)*%
X124460000Y-53340000D03*
D15*
%TO.P,J7,2,Pin_2*%
%TO.N,Net-(J7-Pad2)*%
X119380000Y-53340000D03*
%TD*%
D16*
%TO.P,U2,1,I1*%
%TO.N,stepper2D*%
X96520000Y-99060000D03*
D17*
%TO.P,U2,2,I2*%
%TO.N,stepper2C*%
X96520000Y-96520000D03*
%TO.P,U2,3,I3*%
%TO.N,stepper2B*%
X96520000Y-93980000D03*
%TO.P,U2,4,I4*%
%TO.N,stepper2A*%
X96520000Y-91440000D03*
%TO.P,U2,5,I5*%
%TO.N,unconnected-(U2-Pad5)*%
X96520000Y-88900000D03*
%TO.P,U2,6,I6*%
%TO.N,relay2*%
X96520000Y-86360000D03*
%TO.P,U2,7,I7*%
%TO.N,relay1*%
X96520000Y-83820000D03*
%TO.P,U2,8,GND*%
%TO.N,GND*%
X96520000Y-81280000D03*
%TO.P,U2,9,COM*%
%TO.N,+5V*%
X88900000Y-81280000D03*
%TO.P,U2,10,O7*%
%TO.N,driverRelay2*%
X88900000Y-83820000D03*
%TO.P,U2,11,O6*%
%TO.N,driverRelay1*%
X88900000Y-86360000D03*
%TO.P,U2,12,O5*%
%TO.N,unconnected-(U2-Pad12)*%
X88900000Y-88900000D03*
%TO.P,U2,13,O4*%
%TO.N,Net-(J3-Pad1)*%
X88900000Y-91440000D03*
%TO.P,U2,14,O3*%
%TO.N,Net-(J3-Pad2)*%
X88900000Y-93980000D03*
%TO.P,U2,15,O2*%
%TO.N,Net-(J3-Pad3)*%
X88900000Y-96520000D03*
%TO.P,U2,16,O1*%
%TO.N,Net-(J3-Pad4)*%
X88900000Y-99060000D03*
%TD*%
D18*
%TO.P,J4,1,Pin_1*%
%TO.N,+3V3*%
X127000000Y-127000000D03*
D19*
%TO.P,J4,2,Pin_2*%
%TO.N,unconnected-(J4-Pad2)*%
X127000000Y-124460000D03*
%TO.P,J4,3,Pin_3*%
%TO.N,unconnected-(J4-Pad3)*%
X127000000Y-121920000D03*
%TO.P,J4,4,Pin_4*%
%TO.N,unconnected-(J4-Pad4)*%
X127000000Y-119380000D03*
%TO.P,J4,5,Pin_5*%
%TO.N,unconnected-(J4-Pad5)*%
X127000000Y-116840000D03*
%TO.P,J4,6,Pin_6*%
%TO.N,unconnected-(J4-Pad6)*%
X127000000Y-114300000D03*
%TO.P,J4,7,Pin_7*%
%TO.N,infoLED*%
X127000000Y-111760000D03*
%TO.P,J4,8,Pin_8*%
%TO.N,servo1*%
X127000000Y-109220000D03*
%TO.P,J4,9,Pin_9*%
%TO.N,servo2*%
X127000000Y-106680000D03*
%TO.P,J4,10,Pin_10*%
%TO.N,relay2*%
X127000000Y-104140000D03*
%TO.P,J4,11,Pin_11*%
%TO.N,relay1*%
X127000000Y-101600000D03*
%TO.P,J4,12,Pin_12*%
%TO.N,unconnected-(J4-Pad12)*%
X127000000Y-99060000D03*
%TO.P,J4,13,Pin_13*%
%TO.N,unconnected-(J4-Pad13)*%
X127000000Y-96520000D03*
%TO.P,J4,14,Pin_14*%
%TO.N,GND*%
X127000000Y-93980000D03*
%TO.P,J4,15,Pin_15*%
%TO.N,unconnected-(J4-Pad15)*%
X127000000Y-91440000D03*
%TO.P,J4,16,Pin_16*%
%TO.N,unconnected-(J4-Pad16)*%
X127000000Y-88900000D03*
%TO.P,J4,17,Pin_17*%
%TO.N,unconnected-(J4-Pad17)*%
X127000000Y-86360000D03*
%TO.P,J4,18,Pin_18*%
%TO.N,unconnected-(J4-Pad18)*%
X127000000Y-83820000D03*
%TO.P,J4,19,Pin_19*%
%TO.N,+5V*%
X127000000Y-81280000D03*
%TD*%
D14*
%TO.P,J9,1,Pin_1*%
%TO.N,Net-(J7-Pad1)*%
X111760000Y-53340000D03*
D15*
%TO.P,J9,2,Pin_2*%
%TO.N,Net-(J9-Pad2)*%
X106680000Y-53340000D03*
%TD*%
D12*
%TO.P,C2,1*%
%TO.N,+5V*%
X91440000Y-76200000D03*
%TO.P,C2,2*%
%TO.N,GND*%
X93940000Y-76200000D03*
%TD*%
D10*
%TO.P,R2,1*%
%TO.N,Net-(J13-PadA5)*%
X81280000Y-66040000D03*
D11*
%TO.P,R2,2*%
%TO.N,GND*%
X76200000Y-66040000D03*
%TD*%
D16*
%TO.P,U1,1,I1*%
%TO.N,unconnected-(U1-Pad1)*%
X96520000Y-127000000D03*
D17*
%TO.P,U1,2,I2*%
%TO.N,unconnected-(U1-Pad2)*%
X96520000Y-124460000D03*
%TO.P,U1,3,I3*%
%TO.N,unconnected-(U1-Pad3)*%
X96520000Y-121920000D03*
%TO.P,U1,4,I4*%
%TO.N,stepper1D*%
X96520000Y-119380000D03*
%TO.P,U1,5,I5*%
%TO.N,stepper1C*%
X96520000Y-116840000D03*
%TO.P,U1,6,I6*%
%TO.N,stepper1B*%
X96520000Y-114300000D03*
%TO.P,U1,7,I7*%
%TO.N,stepper1A*%
X96520000Y-111760000D03*
%TO.P,U1,8,GND*%
%TO.N,GND*%
X96520000Y-109220000D03*
%TO.P,U1,9,COM*%
%TO.N,+5V*%
X88900000Y-109220000D03*
%TO.P,U1,10,O7*%
%TO.N,Net-(J2-Pad1)*%
X88900000Y-111760000D03*
%TO.P,U1,11,O6*%
%TO.N,Net-(J2-Pad2)*%
X88900000Y-114300000D03*
%TO.P,U1,12,O5*%
%TO.N,Net-(J2-Pad3)*%
X88900000Y-116840000D03*
%TO.P,U1,13,O4*%
%TO.N,Net-(J2-Pad4)*%
X88900000Y-119380000D03*
%TO.P,U1,14,O3*%
%TO.N,unconnected-(U1-Pad14)*%
X88900000Y-121920000D03*
%TO.P,U1,15,O2*%
%TO.N,unconnected-(U1-Pad15)*%
X88900000Y-124460000D03*
%TO.P,U1,16,O1*%
%TO.N,unconnected-(U1-Pad16)*%
X88900000Y-127000000D03*
%TD*%
D20*
%TO.P,J2,1,Pin_1*%
%TO.N,Net-(J2-Pad1)*%
X81280000Y-111760000D03*
D21*
%TO.P,J2,2,Pin_2*%
%TO.N,Net-(J2-Pad2)*%
X81280000Y-114260000D03*
%TO.P,J2,3,Pin_3*%
%TO.N,Net-(J2-Pad3)*%
X81280000Y-116760000D03*
%TO.P,J2,4,Pin_4*%
%TO.N,Net-(J2-Pad4)*%
X81280000Y-119260000D03*
%TO.P,J2,5,Pin_5*%
%TO.N,+5V*%
X81280000Y-121760000D03*
%TD*%
D18*
%TO.P,J5,1,Pin_1*%
%TO.N,GND*%
X101600000Y-127000000D03*
D19*
%TO.P,J5,2,Pin_2*%
%TO.N,stepper1D*%
X101600000Y-124460000D03*
%TO.P,J5,3,Pin_3*%
%TO.N,stepper1C*%
X101600000Y-121920000D03*
%TO.P,J5,4,Pin_4*%
%TO.N,unconnected-(J5-Pad4)*%
X101600000Y-119380000D03*
%TO.P,J5,5,Pin_5*%
%TO.N,unconnected-(J5-Pad5)*%
X101600000Y-116840000D03*
%TO.P,J5,6,Pin_6*%
%TO.N,stepper1B*%
X101600000Y-114300000D03*
%TO.P,J5,7,Pin_7*%
%TO.N,GND*%
X101600000Y-111760000D03*
%TO.P,J5,8,Pin_8*%
%TO.N,stepper1A*%
X101600000Y-109220000D03*
%TO.P,J5,9,Pin_9*%
%TO.N,stepper2D*%
X101600000Y-106680000D03*
%TO.P,J5,10,Pin_10*%
%TO.N,unconnected-(J5-Pad10)*%
X101600000Y-104140000D03*
%TO.P,J5,11,Pin_11*%
%TO.N,stepper2C*%
X101600000Y-101600000D03*
%TO.P,J5,12,Pin_12*%
%TO.N,stepper2B*%
X101600000Y-99060000D03*
%TO.P,J5,13,Pin_13*%
%TO.N,stepper2A*%
X101600000Y-96520000D03*
%TO.P,J5,14,Pin_14*%
%TO.N,unconnected-(J5-Pad14)*%
X101600000Y-93980000D03*
%TO.P,J5,15,Pin_15*%
%TO.N,unconnected-(J5-Pad15)*%
X101600000Y-91440000D03*
%TO.P,J5,16,Pin_16*%
%TO.N,unconnected-(J5-Pad16)*%
X101600000Y-88900000D03*
%TO.P,J5,17,Pin_17*%
%TO.N,unconnected-(J5-Pad17)*%
X101600000Y-86360000D03*
%TO.P,J5,18,Pin_18*%
%TO.N,unconnected-(J5-Pad18)*%
X101600000Y-83820000D03*
%TO.P,J5,19,Pin_19*%
%TO.N,unconnected-(J5-Pad19)*%
X101600000Y-81280000D03*
%TD*%
D18*
%TO.P,J10,1,Pin_1*%
%TO.N,GND*%
X132080000Y-60960000D03*
D19*
%TO.P,J10,2,Pin_2*%
%TO.N,+5V*%
X132080000Y-63500000D03*
%TO.P,J10,3,Pin_3*%
%TO.N,servo1*%
X132080000Y-66040000D03*
%TD*%
D22*
%TO.P,D2,1,K*%
%TO.N,+5V*%
X119380000Y-73660000D03*
D23*
%TO.P,D2,2,A*%
%TO.N,driverRelay1*%
X109220000Y-73660000D03*
%TD*%
D20*
%TO.P,J3,1,Pin_1*%
%TO.N,Net-(J3-Pad1)*%
X81280000Y-91440000D03*
D21*
%TO.P,J3,2,Pin_2*%
%TO.N,Net-(J3-Pad2)*%
X81280000Y-93940000D03*
%TO.P,J3,3,Pin_3*%
%TO.N,Net-(J3-Pad3)*%
X81280000Y-96440000D03*
%TO.P,J3,4,Pin_4*%
%TO.N,Net-(J3-Pad4)*%
X81280000Y-98940000D03*
%TO.P,J3,5,Pin_5*%
%TO.N,+5V*%
X81280000Y-101440000D03*
%TD*%
D12*
%TO.P,C1,1*%
%TO.N,+5V*%
X91440000Y-104140000D03*
%TO.P,C1,2*%
%TO.N,GND*%
X93940000Y-104140000D03*
%TD*%
D14*
%TO.P,J8,1,Pin_1*%
%TO.N,Net-(J6-Pad1)*%
X86360000Y-53340000D03*
D15*
%TO.P,J8,2,Pin_2*%
%TO.N,Net-(J8-Pad2)*%
X81280000Y-53340000D03*
%TD*%
D22*
%TO.P,D1,1,K*%
%TO.N,+5V*%
X104140000Y-63500000D03*
D23*
%TO.P,D1,2,A*%
%TO.N,driverRelay2*%
X104140000Y-73660000D03*
%TD*%
D18*
%TO.P,J11,1,Pin_1*%
%TO.N,GND*%
X132080000Y-71120000D03*
D19*
%TO.P,J11,2,Pin_2*%
%TO.N,+5V*%
X132080000Y-73660000D03*
%TO.P,J11,3,Pin_3*%
%TO.N,servo2*%
X132080000Y-76200000D03*
%TD*%
D18*
%TO.P,J12,1,Pin_1*%
%TO.N,GND*%
X129540000Y-53340000D03*
D19*
%TO.P,J12,2,Pin_2*%
%TO.N,+5V*%
X132080000Y-53340000D03*
%TO.P,J12,3,Pin_3*%
%TO.N,infoLED*%
X134620000Y-53340000D03*
%TD*%
D24*
%TO.P,J13,A1,GND*%
%TO.N,GND*%
X81280000Y-71120000D03*
%TO.P,J13,A4,VBUS*%
%TO.N,+5V*%
X81280000Y-71970000D03*
%TO.P,J13,A5,CC1*%
%TO.N,Net-(J13-PadA5)*%
X81280000Y-72820000D03*
%TO.P,J13,A6,D+*%
%TO.N,unconnected-(J13-PadA6)*%
X81280000Y-73670000D03*
%TO.P,J13,A7,D-*%
%TO.N,unconnected-(J13-PadA7)*%
X81280000Y-74520000D03*
%TO.P,J13,A8,SBU1*%
%TO.N,unconnected-(J13-PadA8)*%
X81280000Y-75370000D03*
%TO.P,J13,A9,VBUS*%
%TO.N,+5V*%
X81280000Y-76220000D03*
%TO.P,J13,A12,GND*%
%TO.N,GND*%
X81280000Y-77070000D03*
%TO.P,J13,B1,GND*%
X79930000Y-77070000D03*
%TO.P,J13,B4,VBUS*%
%TO.N,+5V*%
X79930000Y-76220000D03*
%TO.P,J13,B5,CC2*%
%TO.N,Net-(J13-PadB5)*%
X79930000Y-75370000D03*
%TO.P,J13,B6,D+*%
%TO.N,unconnected-(J13-PadB6)*%
X79930000Y-74520000D03*
%TO.P,J13,B7,D-*%
%TO.N,unconnected-(J13-PadB7)*%
X79930000Y-73670000D03*
%TO.P,J13,B8,SBU2*%
%TO.N,unconnected-(J13-PadB8)*%
X79930000Y-72820000D03*
%TO.P,J13,B9,VBUS*%
%TO.N,+5V*%
X79930000Y-71970000D03*
%TO.P,J13,B12,GND*%
%TO.N,GND*%
X79930000Y-71120000D03*
D25*
%TO.P,J13,S1,SHIELD*%
X76920000Y-78420000D03*
D26*
X80300000Y-78420000D03*
X80300000Y-69770000D03*
D25*
X76920000Y-69770000D03*
%TD*%
D27*
%TO.N,GND*%
X104140000Y-68580000D03*
X121920000Y-63500000D03*
X91440000Y-68580000D03*
X81280000Y-83820000D03*
X121920000Y-91440000D03*
X93980000Y-83820000D03*
X78740000Y-73660000D03*
X86360000Y-121920000D03*
X83820000Y-101600000D03*
X86360000Y-78740000D03*
X127000000Y-55880000D03*
X99060000Y-78740000D03*
X111760000Y-73660000D03*
X109220000Y-68580000D03*
X88900000Y-73660000D03*
X86360000Y-71120000D03*
X127000000Y-63500000D03*
X104140000Y-86360000D03*
%TD*%
D28*
%TO.N,stepper2A*%
X101600000Y-96520000D02*
X96520000Y-91440000D01*
%TO.N,stepper2B*%
X101600000Y-99060000D02*
X96520000Y-93980000D01*
%TO.N,stepper2C*%
X101600000Y-101600000D02*
X96520000Y-96520000D01*
%TO.N,stepper2D*%
X96520000Y-101600000D02*
X96520000Y-99060000D01*
X101600000Y-106680000D02*
X96520000Y-101600000D01*
%TO.N,GND*%
X79930000Y-77070000D02*
X81280000Y-77070000D01*
X79930000Y-71120000D02*
X81280000Y-71120000D01*
%TO.N,servo1*%
X127000000Y-109220000D02*
X133379511Y-102840489D01*
X133379511Y-67339511D02*
X132080000Y-66040000D01*
X133379511Y-102840489D02*
X133379511Y-67339511D01*
%TO.N,servo2*%
X132080000Y-101600000D02*
X132080000Y-76200000D01*
X127000000Y-106680000D02*
X132080000Y-101600000D01*
%TO.N,stepper1A*%
X96520000Y-111760000D02*
X99060000Y-111760000D01*
X99060000Y-111760000D02*
X101600000Y-109220000D01*
%TO.N,stepper1B*%
X101600000Y-114300000D02*
X96520000Y-114300000D01*
%TO.N,stepper1C*%
X101600000Y-121920000D02*
X96520000Y-116840000D01*
%TO.N,stepper1D*%
X101600000Y-124460000D02*
X96520000Y-119380000D01*
D29*
%TO.N,Net-(J2-Pad3)*%
X81360000Y-116840000D02*
X88900000Y-116840000D01*
%TO.N,Net-(J2-Pad4)*%
X81400000Y-119380000D02*
X88900000Y-119380000D01*
D28*
%TO.N,infoLED*%
X134620000Y-104140000D02*
X134620000Y-53340000D01*
X127000000Y-111760000D02*
X134620000Y-104140000D01*
%TO.N,relay1*%
X125159520Y-99759520D02*
X125159520Y-88610250D01*
X125159520Y-88610250D02*
X115830240Y-79280970D01*
X115830240Y-79280970D02*
X100771973Y-79280970D01*
X127000000Y-101600000D02*
X125159520Y-99759520D01*
X100771973Y-79280970D02*
X96520000Y-83532943D01*
%TO.N,relay2*%
X101061724Y-79980489D02*
X100300489Y-80741724D01*
X100300489Y-80741724D02*
X100300489Y-82579511D01*
X124460000Y-88900000D02*
X115540489Y-79980489D01*
X127000000Y-104140000D02*
X124460000Y-101600000D01*
X100300489Y-82579511D02*
X96520000Y-86360000D01*
X124460000Y-101600000D02*
X124460000Y-88900000D01*
X115540489Y-79980489D02*
X101061724Y-79980489D01*
D29*
%TO.N,Net-(J2-Pad1)*%
X81280000Y-111760000D02*
X88900000Y-111760000D01*
%TO.N,Net-(J2-Pad2)*%
X81320000Y-114300000D02*
X88900000Y-114300000D01*
%TO.N,Net-(J3-Pad1)*%
X81280000Y-91440000D02*
X88900000Y-91440000D01*
%TO.N,Net-(J3-Pad2)*%
X81280000Y-93940000D02*
X88860000Y-93940000D01*
%TO.N,Net-(J3-Pad3)*%
X88900000Y-96520000D02*
X81360000Y-96520000D01*
D28*
%TO.N,+5V*%
X81774974Y-76220000D02*
X82079511Y-75915463D01*
D29*
X121920000Y-71120000D02*
X127000000Y-76200000D01*
X129540000Y-57082081D02*
X132080000Y-54542081D01*
X104140000Y-63500000D02*
X91440000Y-63500000D01*
X91440000Y-104140000D02*
X91440000Y-106680000D01*
X79605480Y-88034520D02*
X79605480Y-99765480D01*
X88900000Y-71120000D02*
X84034907Y-75985093D01*
X79605480Y-99765480D02*
X81280000Y-101440000D01*
X114300000Y-71120000D02*
X116840000Y-71120000D01*
D28*
X81280000Y-76220000D02*
X81774974Y-76220000D01*
D29*
X114300000Y-71120000D02*
X128980978Y-71120000D01*
X124390641Y-71120000D02*
X129540000Y-65970641D01*
X91440000Y-76200000D02*
X91440000Y-78740000D01*
X79605480Y-120085480D02*
X81280000Y-121760000D01*
X121920000Y-71120000D02*
X124460000Y-71120000D01*
X99060000Y-71120000D02*
X88900000Y-71120000D01*
X79605480Y-110766696D02*
X79605480Y-120085480D01*
X98990641Y-71120000D02*
X104140000Y-65970641D01*
X91440000Y-106680000D02*
X88900000Y-109220000D01*
X116840000Y-71120000D02*
X119380000Y-73660000D01*
X104140000Y-65970641D02*
X104140000Y-63500000D01*
X99060000Y-71120000D02*
X121920000Y-71120000D01*
D28*
X79930000Y-76220000D02*
X81280000Y-76220000D01*
D29*
X84034907Y-75985093D02*
X82149141Y-75985093D01*
D28*
X82079511Y-72274537D02*
X81774974Y-71970000D01*
D29*
X129540000Y-65970641D02*
X129540000Y-57082081D01*
X86232176Y-104140000D02*
X79605480Y-110766696D01*
X128980978Y-71120000D02*
X131520978Y-73660000D01*
X91440000Y-63500000D02*
X88900000Y-60960000D01*
X91440000Y-78740000D02*
X88900000Y-81280000D01*
X79605480Y-88034520D02*
X91440000Y-76200000D01*
X124460000Y-71120000D02*
X132080000Y-63500000D01*
D28*
X82079511Y-75915463D02*
X82079511Y-72274537D01*
D29*
X131520978Y-73660000D02*
X132080000Y-73660000D01*
X91440000Y-104140000D02*
X86232176Y-104140000D01*
D28*
X79930000Y-71970000D02*
X81280000Y-71970000D01*
D29*
X121920000Y-71120000D02*
X124390641Y-71120000D01*
D28*
X81774974Y-71970000D02*
X81280000Y-71970000D01*
D29*
X132080000Y-54542081D02*
X132080000Y-53340000D01*
%TO.N,Net-(J3-Pad4)*%
X81280000Y-98940000D02*
X88780000Y-98940000D01*
%TD*%
%TA.AperFunction,Conductor*%
%TO.N,GND*%
G36*
X136593621Y-48788502D02*
G01*
X136640114Y-48842158D01*
X136651500Y-48894500D01*
X136651500Y-133985500D01*
X136631498Y-134053621D01*
X136577842Y-134100114D01*
X136525500Y-134111500D01*
X74294500Y-134111500D01*
X74226379Y-134091498D01*
X74179886Y-134037842D01*
X74168500Y-133985500D01*
X74168500Y-110763158D01*
X78592106Y-110763158D01*
X78592686Y-110769289D01*
X78596421Y-110808805D01*
X78596980Y-110820663D01*
X78596980Y-120023637D01*
X78596243Y-120037244D01*
X78592156Y-120074868D01*
X78592693Y-120081003D01*
X78596530Y-120124868D01*
X78596859Y-120129694D01*
X78596980Y-120132166D01*
X78596980Y-120135249D01*
X78597281Y-120138317D01*
X78601170Y-120177986D01*
X78601292Y-120179299D01*
X78609393Y-120271893D01*
X78610880Y-120277012D01*
X78611400Y-120282313D01*
X78638271Y-120371314D01*
X78638606Y-120372447D01*
X78653634Y-120424171D01*
X78664571Y-120461816D01*
X78667024Y-120466548D01*
X78668564Y-120471649D01*
X78671458Y-120477092D01*
X78712211Y-120553740D01*
X78712823Y-120554906D01*
X78748640Y-120624002D01*
X78755588Y-120637406D01*
X78758911Y-120641569D01*
X78761414Y-120646276D01*
X78820235Y-120718398D01*
X78820926Y-120719254D01*
X78852218Y-120758453D01*
X78854722Y-120760957D01*
X78855364Y-120761675D01*
X78859065Y-120766008D01*
X78886415Y-120799542D01*
X78921747Y-120828771D01*
X78930517Y-120836752D01*
X79357017Y-121263251D01*
X79758280Y-121664514D01*
X79792305Y-121726827D01*
X79795096Y-121748881D01*
X79801751Y-121926158D01*
X79849093Y-122151791D01*
X79851051Y-122156750D01*
X79851052Y-122156752D01*
X79916548Y-122322596D01*
X79933776Y-122366221D01*
X80053377Y-122563317D01*
X80056874Y-122567347D01*
X80143438Y-122667103D01*
X80204477Y-122737445D01*
X80237229Y-122764300D01*
X80378627Y-122880240D01*
X80378633Y-122880244D01*
X80382755Y-122883624D01*
X80387391Y-122886263D01*
X80387394Y-122886265D01*
X80518989Y-122961173D01*
X80583114Y-122997675D01*
X80799825Y-123076337D01*
X80805074Y-123077286D01*
X80805077Y-123077287D01*
X81022608Y-123116623D01*
X81022615Y-123116624D01*
X81026692Y-123117361D01*
X81044414Y-123118197D01*
X81049356Y-123118430D01*
X81049363Y-123118430D01*
X81050844Y-123118500D01*
X81462890Y-123118500D01*
X81529809Y-123112822D01*
X81629409Y-123104371D01*
X81629413Y-123104370D01*
X81634720Y-123103920D01*
X81639875Y-123102582D01*
X81639881Y-123102581D01*
X81852703Y-123047343D01*
X81852707Y-123047342D01*
X81857872Y-123046001D01*
X81862738Y-123043809D01*
X81862741Y-123043808D01*
X82046184Y-122961173D01*
X82068075Y-122951312D01*
X82259319Y-122822559D01*
X82275486Y-122807137D01*
X82422278Y-122667103D01*
X82426135Y-122663424D01*
X82563754Y-122478458D01*
X82668240Y-122272949D01*
X82704321Y-122156752D01*
X82735024Y-122057871D01*
X82736607Y-122052773D01*
X82752079Y-121936035D01*
X82766198Y-121829511D01*
X82766198Y-121829506D01*
X82766898Y-121824226D01*
X82764070Y-121748883D01*
X82760584Y-121656037D01*
X82758249Y-121593842D01*
X82710907Y-121368209D01*
X82708948Y-121363248D01*
X82628185Y-121158744D01*
X82628184Y-121158742D01*
X82626224Y-121153779D01*
X82586477Y-121088277D01*
X82509390Y-120961243D01*
X82506623Y-120956683D01*
X82366121Y-120794768D01*
X82359023Y-120786588D01*
X82359021Y-120786586D01*
X82355523Y-120782555D01*
X82277962Y-120718959D01*
X82181373Y-120639760D01*
X82181367Y-120639756D01*
X82177245Y-120636376D01*
X82172609Y-120633737D01*
X82172606Y-120633735D01*
X82155507Y-120624002D01*
X82106201Y-120572920D01*
X82092339Y-120503289D01*
X82118322Y-120437218D01*
X82175902Y-120395684D01*
X82217839Y-120388500D01*
X88019260Y-120388500D01*
X88091531Y-120411287D01*
X88243251Y-120517523D01*
X88248233Y-120519846D01*
X88248238Y-120519849D01*
X88282457Y-120535805D01*
X88335742Y-120582722D01*
X88355203Y-120650999D01*
X88334661Y-120718959D01*
X88282457Y-120764195D01*
X88248238Y-120780151D01*
X88248233Y-120780154D01*
X88243251Y-120782477D01*
X88138389Y-120855902D01*
X88060211Y-120910643D01*
X88060208Y-120910645D01*
X88055700Y-120913802D01*
X87893802Y-121075700D01*
X87890645Y-121080208D01*
X87890643Y-121080211D01*
X87842325Y-121149217D01*
X87762477Y-121263251D01*
X87760154Y-121268233D01*
X87760151Y-121268238D01*
X87711101Y-121373428D01*
X87665716Y-121470757D01*
X87664294Y-121476065D01*
X87664293Y-121476067D01*
X87612407Y-121669707D01*
X87606457Y-121691913D01*
X87586502Y-121920000D01*
X87606457Y-122148087D01*
X87607881Y-122153400D01*
X87607881Y-122153402D01*
X87655851Y-122332425D01*
X87665716Y-122369243D01*
X87668039Y-122374224D01*
X87668039Y-122374225D01*
X87760151Y-122571762D01*
X87760154Y-122571767D01*
X87762477Y-122576749D01*
X87765634Y-122581257D01*
X87869078Y-122728990D01*
X87893802Y-122764300D01*
X88055700Y-122926198D01*
X88060208Y-122929355D01*
X88060211Y-122929357D01*
X88087303Y-122948327D01*
X88243251Y-123057523D01*
X88248233Y-123059846D01*
X88248238Y-123059849D01*
X88282457Y-123075805D01*
X88335742Y-123122722D01*
X88355203Y-123190999D01*
X88334661Y-123258959D01*
X88282457Y-123304195D01*
X88248238Y-123320151D01*
X88248233Y-123320154D01*
X88243251Y-123322477D01*
X88138389Y-123395902D01*
X88060211Y-123450643D01*
X88060208Y-123450645D01*
X88055700Y-123453802D01*
X87893802Y-123615700D01*
X87890645Y-123620208D01*
X87890643Y-123620211D01*
X87835902Y-123698389D01*
X87762477Y-123803251D01*
X87760154Y-123808233D01*
X87760151Y-123808238D01*
X87677908Y-123984610D01*
X87665716Y-124010757D01*
X87664294Y-124016065D01*
X87664293Y-124016067D01*
X87612407Y-124209707D01*
X87606457Y-124231913D01*
X87586502Y-124460000D01*
X87606457Y-124688087D01*
X87607881Y-124693400D01*
X87607881Y-124693402D01*
X87655851Y-124872425D01*
X87665716Y-124909243D01*
X87668039Y-124914224D01*
X87668039Y-124914225D01*
X87760151Y-125111762D01*
X87760154Y-125111767D01*
X87762477Y-125116749D01*
X87765634Y-125121257D01*
X87869078Y-125268990D01*
X87893802Y-125304300D01*
X88055700Y-125466198D01*
X88060208Y-125469355D01*
X88060211Y-125469357D01*
X88105649Y-125501173D01*
X88243251Y-125597523D01*
X88248233Y-125599846D01*
X88248238Y-125599849D01*
X88282457Y-125615805D01*
X88335742Y-125662722D01*
X88355203Y-125730999D01*
X88334661Y-125798959D01*
X88282457Y-125844195D01*
X88248238Y-125860151D01*
X88248233Y-125860154D01*
X88243251Y-125862477D01*
X88195220Y-125896109D01*
X88060211Y-125990643D01*
X88060208Y-125990645D01*
X88055700Y-125993802D01*
X87893802Y-126155700D01*
X87762477Y-126343251D01*
X87760154Y-126348233D01*
X87760151Y-126348238D01*
X87668039Y-126545775D01*
X87665716Y-126550757D01*
X87606457Y-126771913D01*
X87586502Y-127000000D01*
X87606457Y-127228087D01*
X87665716Y-127449243D01*
X87668039Y-127454224D01*
X87668039Y-127454225D01*
X87760151Y-127651762D01*
X87760154Y-127651767D01*
X87762477Y-127656749D01*
X87893802Y-127844300D01*
X88055700Y-128006198D01*
X88060208Y-128009355D01*
X88060211Y-128009357D01*
X88101542Y-128038297D01*
X88243251Y-128137523D01*
X88248233Y-128139846D01*
X88248238Y-128139849D01*
X88417212Y-128218642D01*
X88450757Y-128234284D01*
X88456065Y-128235706D01*
X88456067Y-128235707D01*
X88666598Y-128292119D01*
X88666600Y-128292119D01*
X88671913Y-128293543D01*
X88900000Y-128313498D01*
X89128087Y-128293543D01*
X89133400Y-128292119D01*
X89133402Y-128292119D01*
X89343933Y-128235707D01*
X89343935Y-128235706D01*
X89349243Y-128234284D01*
X89382788Y-128218642D01*
X89551762Y-128139849D01*
X89551767Y-128139846D01*
X89556749Y-128137523D01*
X89698458Y-128038297D01*
X89739789Y-128009357D01*
X89739792Y-128009355D01*
X89744300Y-128006198D01*
X89906198Y-127844300D01*
X90037523Y-127656749D01*
X90039846Y-127651767D01*
X90039849Y-127651762D01*
X90131961Y-127454225D01*
X90131961Y-127454224D01*
X90134284Y-127449243D01*
X90193543Y-127228087D01*
X90213498Y-127000000D01*
X90193543Y-126771913D01*
X90134284Y-126550757D01*
X90131961Y-126545775D01*
X90039849Y-126348238D01*
X90039846Y-126348233D01*
X90037523Y-126343251D01*
X89906198Y-126155700D01*
X89744300Y-125993802D01*
X89739792Y-125990645D01*
X89739789Y-125990643D01*
X89604780Y-125896109D01*
X89556749Y-125862477D01*
X89551767Y-125860154D01*
X89551762Y-125860151D01*
X89517543Y-125844195D01*
X89464258Y-125797278D01*
X89444797Y-125729001D01*
X89465339Y-125661041D01*
X89517543Y-125615805D01*
X89551762Y-125599849D01*
X89551767Y-125599846D01*
X89556749Y-125597523D01*
X89694351Y-125501173D01*
X89739789Y-125469357D01*
X89739792Y-125469355D01*
X89744300Y-125466198D01*
X89906198Y-125304300D01*
X89930923Y-125268990D01*
X90034366Y-125121257D01*
X90037523Y-125116749D01*
X90039846Y-125111767D01*
X90039849Y-125111762D01*
X90131961Y-124914225D01*
X90131961Y-124914224D01*
X90134284Y-124909243D01*
X90144150Y-124872425D01*
X90192119Y-124693402D01*
X90192119Y-124693400D01*
X90193543Y-124688087D01*
X90213498Y-124460000D01*
X90193543Y-124231913D01*
X90187593Y-124209707D01*
X90135707Y-124016067D01*
X90135706Y-124016065D01*
X90134284Y-124010757D01*
X90122092Y-123984610D01*
X90039849Y-123808238D01*
X90039846Y-123808233D01*
X90037523Y-123803251D01*
X89964098Y-123698389D01*
X89909357Y-123620211D01*
X89909355Y-123620208D01*
X89906198Y-123615700D01*
X89744300Y-123453802D01*
X89739792Y-123450645D01*
X89739789Y-123450643D01*
X89661611Y-123395902D01*
X89556749Y-123322477D01*
X89551767Y-123320154D01*
X89551762Y-123320151D01*
X89517543Y-123304195D01*
X89464258Y-123257278D01*
X89444797Y-123189001D01*
X89465339Y-123121041D01*
X89517543Y-123075805D01*
X89551762Y-123059849D01*
X89551767Y-123059846D01*
X89556749Y-123057523D01*
X89712697Y-122948327D01*
X89739789Y-122929357D01*
X89739792Y-122929355D01*
X89744300Y-122926198D01*
X89906198Y-122764300D01*
X89930923Y-122728990D01*
X90034366Y-122581257D01*
X90037523Y-122576749D01*
X90039846Y-122571767D01*
X90039849Y-122571762D01*
X90131961Y-122374225D01*
X90131961Y-122374224D01*
X90134284Y-122369243D01*
X90144150Y-122332425D01*
X90192119Y-122153402D01*
X90192119Y-122153400D01*
X90193543Y-122148087D01*
X90213498Y-121920000D01*
X90193543Y-121691913D01*
X90187593Y-121669707D01*
X90135707Y-121476067D01*
X90135706Y-121476065D01*
X90134284Y-121470757D01*
X90088899Y-121373428D01*
X90039849Y-121268238D01*
X90039846Y-121268233D01*
X90037523Y-121263251D01*
X89957675Y-121149217D01*
X89909357Y-121080211D01*
X89909355Y-121080208D01*
X89906198Y-121075700D01*
X89744300Y-120913802D01*
X89739792Y-120910645D01*
X89739789Y-120910643D01*
X89661611Y-120855902D01*
X89556749Y-120782477D01*
X89551767Y-120780154D01*
X89551762Y-120780151D01*
X89517543Y-120764195D01*
X89464258Y-120717278D01*
X89444797Y-120649001D01*
X89465339Y-120581041D01*
X89517543Y-120535805D01*
X89551762Y-120519849D01*
X89551767Y-120519846D01*
X89556749Y-120517523D01*
X89699555Y-120417529D01*
X89739789Y-120389357D01*
X89739792Y-120389355D01*
X89744300Y-120386198D01*
X89906198Y-120224300D01*
X89930923Y-120188990D01*
X90009032Y-120077438D01*
X90037523Y-120036749D01*
X90039846Y-120031767D01*
X90039849Y-120031762D01*
X90131961Y-119834225D01*
X90131961Y-119834224D01*
X90134284Y-119829243D01*
X90144150Y-119792425D01*
X90192119Y-119613402D01*
X90192119Y-119613400D01*
X90193543Y-119608087D01*
X90213498Y-119380000D01*
X90193543Y-119151913D01*
X90187593Y-119129707D01*
X90135707Y-118936067D01*
X90135706Y-118936065D01*
X90134284Y-118930757D01*
X90122092Y-118904610D01*
X90039849Y-118728238D01*
X90039846Y-118728233D01*
X90037523Y-118723251D01*
X89964098Y-118618389D01*
X89909357Y-118540211D01*
X89909355Y-118540208D01*
X89906198Y-118535700D01*
X89744300Y-118373802D01*
X89739792Y-118370645D01*
X89739789Y-118370643D01*
X89609149Y-118279168D01*
X89556749Y-118242477D01*
X89551767Y-118240154D01*
X89551762Y-118240151D01*
X89517543Y-118224195D01*
X89464258Y-118177278D01*
X89444797Y-118109001D01*
X89465339Y-118041041D01*
X89517543Y-117995805D01*
X89551762Y-117979849D01*
X89551767Y-117979846D01*
X89556749Y-117977523D01*
X89699555Y-117877529D01*
X89739789Y-117849357D01*
X89739792Y-117849355D01*
X89744300Y-117846198D01*
X89906198Y-117684300D01*
X89930923Y-117648990D01*
X90034366Y-117501257D01*
X90037523Y-117496749D01*
X90039846Y-117491767D01*
X90039849Y-117491762D01*
X90131961Y-117294225D01*
X90131961Y-117294224D01*
X90134284Y-117289243D01*
X90144150Y-117252425D01*
X90192119Y-117073402D01*
X90192119Y-117073400D01*
X90193543Y-117068087D01*
X90213498Y-116840000D01*
X90193543Y-116611913D01*
X90187593Y-116589707D01*
X90135707Y-116396067D01*
X90135706Y-116396065D01*
X90134284Y-116390757D01*
X90122092Y-116364610D01*
X90039849Y-116188238D01*
X90039846Y-116188233D01*
X90037523Y-116183251D01*
X89964098Y-116078389D01*
X89909357Y-116000211D01*
X89909355Y-116000208D01*
X89906198Y-115995700D01*
X89744300Y-115833802D01*
X89739792Y-115830645D01*
X89739789Y-115830643D01*
X89661611Y-115775902D01*
X89556749Y-115702477D01*
X89551767Y-115700154D01*
X89551762Y-115700151D01*
X89517543Y-115684195D01*
X89464258Y-115637278D01*
X89444797Y-115569001D01*
X89465339Y-115501041D01*
X89517543Y-115455805D01*
X89551762Y-115439849D01*
X89551767Y-115439846D01*
X89556749Y-115437523D01*
X89699555Y-115337529D01*
X89739789Y-115309357D01*
X89739792Y-115309355D01*
X89744300Y-115306198D01*
X89906198Y-115144300D01*
X89930923Y-115108990D01*
X90034366Y-114961257D01*
X90037523Y-114956749D01*
X90039846Y-114951767D01*
X90039849Y-114951762D01*
X90131961Y-114754225D01*
X90131961Y-114754224D01*
X90134284Y-114749243D01*
X90144150Y-114712425D01*
X90192119Y-114533402D01*
X90192119Y-114533400D01*
X90193543Y-114528087D01*
X90213498Y-114300000D01*
X90193543Y-114071913D01*
X90187593Y-114049707D01*
X90135707Y-113856067D01*
X90135706Y-113856065D01*
X90134284Y-113850757D01*
X90122092Y-113824610D01*
X90039849Y-113648238D01*
X90039846Y-113648233D01*
X90037523Y-113643251D01*
X89927767Y-113486504D01*
X89909357Y-113460211D01*
X89909355Y-113460208D01*
X89906198Y-113455700D01*
X89744300Y-113293802D01*
X89739792Y-113290645D01*
X89739789Y-113290643D01*
X89661611Y-113235902D01*
X89556749Y-113162477D01*
X89551767Y-113160154D01*
X89551762Y-113160151D01*
X89517543Y-113144195D01*
X89464258Y-113097278D01*
X89444797Y-113029001D01*
X89465339Y-112961041D01*
X89517543Y-112915805D01*
X89551762Y-112899849D01*
X89551767Y-112899846D01*
X89556749Y-112897523D01*
X89699555Y-112797529D01*
X89739789Y-112769357D01*
X89739792Y-112769355D01*
X89744300Y-112766198D01*
X89906198Y-112604300D01*
X89930923Y-112568990D01*
X89968579Y-112515211D01*
X90037523Y-112416749D01*
X90039846Y-112411767D01*
X90039849Y-112411762D01*
X90131961Y-112214225D01*
X90131961Y-112214224D01*
X90134284Y-112209243D01*
X90144150Y-112172425D01*
X90192119Y-111993402D01*
X90192119Y-111993400D01*
X90193543Y-111988087D01*
X90213498Y-111760000D01*
X90193543Y-111531913D01*
X90187593Y-111509707D01*
X90135707Y-111316067D01*
X90135706Y-111316065D01*
X90134284Y-111310757D01*
X90122092Y-111284610D01*
X90039849Y-111108238D01*
X90039846Y-111108233D01*
X90037523Y-111103251D01*
X89906198Y-110915700D01*
X89744300Y-110753802D01*
X89739792Y-110750645D01*
X89739789Y-110750643D01*
X89639584Y-110680479D01*
X89556749Y-110622477D01*
X89551767Y-110620154D01*
X89551762Y-110620151D01*
X89517543Y-110604195D01*
X89464258Y-110557278D01*
X89444797Y-110489001D01*
X89465339Y-110421041D01*
X89517543Y-110375805D01*
X89551762Y-110359849D01*
X89551767Y-110359846D01*
X89556749Y-110357523D01*
X89699555Y-110257529D01*
X89739789Y-110229357D01*
X89739792Y-110229355D01*
X89744300Y-110226198D01*
X89906198Y-110064300D01*
X89930923Y-110028990D01*
X90034366Y-109881257D01*
X90037523Y-109876749D01*
X90039846Y-109871767D01*
X90039849Y-109871762D01*
X90131961Y-109674225D01*
X90131961Y-109674224D01*
X90134284Y-109669243D01*
X90144150Y-109632425D01*
X90178845Y-109502939D01*
X90193543Y-109448087D01*
X90198692Y-109389231D01*
X90224555Y-109323113D01*
X90235118Y-109311117D01*
X92109384Y-107436851D01*
X92119527Y-107427749D01*
X92144218Y-107407897D01*
X92149025Y-107404032D01*
X92181312Y-107365554D01*
X92184467Y-107361938D01*
X92186123Y-107360112D01*
X92188309Y-107357926D01*
X92190264Y-107355546D01*
X92190273Y-107355536D01*
X92215576Y-107324732D01*
X92216418Y-107323717D01*
X92272194Y-107257245D01*
X92276154Y-107252526D01*
X92278723Y-107247852D01*
X92282102Y-107243739D01*
X92325975Y-107161915D01*
X92326584Y-107160793D01*
X92368464Y-107084614D01*
X92368465Y-107084612D01*
X92371433Y-107079213D01*
X92373045Y-107074131D01*
X92375562Y-107069437D01*
X92402762Y-106980469D01*
X92403108Y-106979358D01*
X92406690Y-106968069D01*
X92431235Y-106890694D01*
X92431829Y-106885398D01*
X92433387Y-106880302D01*
X92442790Y-106787743D01*
X92442911Y-106786607D01*
X92448500Y-106736773D01*
X92448500Y-106733246D01*
X92448555Y-106732261D01*
X92449002Y-106726581D01*
X92453374Y-106683538D01*
X92449059Y-106637891D01*
X92448500Y-106626033D01*
X92448500Y-105020740D01*
X92471287Y-104948469D01*
X92574366Y-104801257D01*
X92577523Y-104796749D01*
X92579846Y-104791767D01*
X92579849Y-104791762D01*
X92671961Y-104594225D01*
X92671961Y-104594224D01*
X92674284Y-104589243D01*
X92684150Y-104552425D01*
X92732119Y-104373402D01*
X92732119Y-104373400D01*
X92733543Y-104368087D01*
X92753498Y-104140000D01*
X92733543Y-103911913D01*
X92727593Y-103889707D01*
X92675707Y-103696067D01*
X92675706Y-103696065D01*
X92674284Y-103690757D01*
X92659878Y-103659862D01*
X92579849Y-103488238D01*
X92579846Y-103488233D01*
X92577523Y-103483251D01*
X92487513Y-103354704D01*
X92449357Y-103300211D01*
X92449355Y-103300208D01*
X92446198Y-103295700D01*
X92284300Y-103133802D01*
X92279792Y-103130645D01*
X92279789Y-103130643D01*
X92201611Y-103075902D01*
X92096749Y-103002477D01*
X92091767Y-103000154D01*
X92091762Y-103000151D01*
X91894225Y-102908039D01*
X91894224Y-102908039D01*
X91889243Y-102905716D01*
X91883935Y-102904294D01*
X91883933Y-102904293D01*
X91673402Y-102847881D01*
X91673400Y-102847881D01*
X91668087Y-102846457D01*
X91440000Y-102826502D01*
X91211913Y-102846457D01*
X91206600Y-102847881D01*
X91206598Y-102847881D01*
X90996067Y-102904293D01*
X90996065Y-102904294D01*
X90990757Y-102905716D01*
X90985776Y-102908039D01*
X90985775Y-102908039D01*
X90788238Y-103000151D01*
X90788233Y-103000154D01*
X90783251Y-103002477D01*
X90640708Y-103102287D01*
X90631531Y-103108713D01*
X90559260Y-103131500D01*
X86294016Y-103131500D01*
X86280408Y-103130763D01*
X86248912Y-103127341D01*
X86248908Y-103127341D01*
X86242787Y-103126676D01*
X86224787Y-103128251D01*
X86192785Y-103131050D01*
X86187960Y-103131379D01*
X86185489Y-103131500D01*
X86182407Y-103131500D01*
X86159939Y-103133703D01*
X86139665Y-103135691D01*
X86138350Y-103135813D01*
X86106089Y-103138636D01*
X86045763Y-103143913D01*
X86040644Y-103145400D01*
X86035343Y-103145920D01*
X85946370Y-103172782D01*
X85945230Y-103173120D01*
X85855839Y-103199091D01*
X85851105Y-103201545D01*
X85846007Y-103203084D01*
X85840563Y-103205978D01*
X85840562Y-103205979D01*
X85764007Y-103246684D01*
X85762839Y-103247298D01*
X85695626Y-103282138D01*
X85680250Y-103290108D01*
X85676087Y-103293431D01*
X85671380Y-103295934D01*
X85599258Y-103354755D01*
X85598402Y-103355446D01*
X85559203Y-103386738D01*
X85556699Y-103389242D01*
X85555981Y-103389884D01*
X85551648Y-103393585D01*
X85518114Y-103420935D01*
X85514187Y-103425682D01*
X85514185Y-103425684D01*
X85488889Y-103456262D01*
X85480899Y-103465042D01*
X78936101Y-110009841D01*
X78925958Y-110018943D01*
X78896455Y-110042664D01*
X78878300Y-110064300D01*
X78864189Y-110081117D01*
X78861008Y-110084765D01*
X78859365Y-110086577D01*
X78857171Y-110088771D01*
X78829838Y-110122045D01*
X78829176Y-110122843D01*
X78769326Y-110194170D01*
X78766758Y-110198840D01*
X78763377Y-110202957D01*
X78749222Y-110229357D01*
X78719503Y-110284782D01*
X78718874Y-110285941D01*
X78677018Y-110362077D01*
X78677015Y-110362085D01*
X78674047Y-110367483D01*
X78672435Y-110372565D01*
X78669918Y-110377259D01*
X78642718Y-110466227D01*
X78642398Y-110467255D01*
X78614245Y-110556002D01*
X78613651Y-110561298D01*
X78612093Y-110566394D01*
X78606076Y-110625634D01*
X78602698Y-110658883D01*
X78602569Y-110660089D01*
X78596980Y-110709923D01*
X78596980Y-110713450D01*
X78596925Y-110714435D01*
X78596478Y-110720115D01*
X78592106Y-110763158D01*
X74168500Y-110763158D01*
X74168500Y-88030982D01*
X78592106Y-88030982D01*
X78595298Y-88064744D01*
X78596421Y-88076629D01*
X78596980Y-88088487D01*
X78596980Y-99703637D01*
X78596243Y-99717244D01*
X78592156Y-99754868D01*
X78592693Y-99761003D01*
X78596530Y-99804868D01*
X78596859Y-99809694D01*
X78596980Y-99812166D01*
X78596980Y-99815249D01*
X78597281Y-99818317D01*
X78601170Y-99857986D01*
X78601292Y-99859299D01*
X78609393Y-99951893D01*
X78610880Y-99957012D01*
X78611400Y-99962313D01*
X78638271Y-100051314D01*
X78638606Y-100052447D01*
X78656458Y-100113891D01*
X78664571Y-100141816D01*
X78667024Y-100146548D01*
X78668564Y-100151649D01*
X78671458Y-100157092D01*
X78712211Y-100233740D01*
X78712823Y-100234906D01*
X78744340Y-100295707D01*
X78755588Y-100317406D01*
X78758911Y-100321569D01*
X78761414Y-100326276D01*
X78820235Y-100398398D01*
X78820926Y-100399254D01*
X78852218Y-100438453D01*
X78854722Y-100440957D01*
X78855364Y-100441675D01*
X78859065Y-100446008D01*
X78886415Y-100479542D01*
X78921747Y-100508771D01*
X78930517Y-100516752D01*
X79758280Y-101344514D01*
X79792305Y-101406827D01*
X79795096Y-101428881D01*
X79801751Y-101606158D01*
X79849093Y-101831791D01*
X79851051Y-101836750D01*
X79851052Y-101836752D01*
X79917423Y-102004812D01*
X79933776Y-102046221D01*
X79936543Y-102050780D01*
X79936544Y-102050783D01*
X80004482Y-102162740D01*
X80053377Y-102243317D01*
X80056874Y-102247347D01*
X80154934Y-102360351D01*
X80204477Y-102417445D01*
X80208608Y-102420832D01*
X80378627Y-102560240D01*
X80378633Y-102560244D01*
X80382755Y-102563624D01*
X80387391Y-102566263D01*
X80387394Y-102566265D01*
X80518989Y-102641173D01*
X80583114Y-102677675D01*
X80799825Y-102756337D01*
X80805074Y-102757286D01*
X80805077Y-102757287D01*
X81022608Y-102796623D01*
X81022615Y-102796624D01*
X81026692Y-102797361D01*
X81044414Y-102798197D01*
X81049356Y-102798430D01*
X81049363Y-102798430D01*
X81050844Y-102798500D01*
X81462890Y-102798500D01*
X81529809Y-102792822D01*
X81629409Y-102784371D01*
X81629413Y-102784370D01*
X81634720Y-102783920D01*
X81639875Y-102782582D01*
X81639881Y-102782581D01*
X81852703Y-102727343D01*
X81852707Y-102727342D01*
X81857872Y-102726001D01*
X81862738Y-102723809D01*
X81862741Y-102723808D01*
X82046184Y-102641173D01*
X82068075Y-102631312D01*
X82259319Y-102502559D01*
X82275486Y-102487137D01*
X82422278Y-102347103D01*
X82426135Y-102343424D01*
X82563754Y-102158458D01*
X82570340Y-102145506D01*
X82640914Y-102006695D01*
X82668240Y-101952949D01*
X82671660Y-101941937D01*
X82735024Y-101737871D01*
X82736607Y-101732773D01*
X82744305Y-101674692D01*
X82766198Y-101509511D01*
X82766198Y-101509506D01*
X82766898Y-101504226D01*
X82764070Y-101428883D01*
X82759297Y-101301750D01*
X82758249Y-101273842D01*
X82710907Y-101048209D01*
X82708948Y-101043248D01*
X82628185Y-100838744D01*
X82628184Y-100838742D01*
X82626224Y-100833779D01*
X82586477Y-100768277D01*
X82509390Y-100641243D01*
X82506623Y-100636683D01*
X82366121Y-100474768D01*
X82359023Y-100466588D01*
X82359021Y-100466586D01*
X82355523Y-100462555D01*
X82278456Y-100399364D01*
X82181373Y-100319760D01*
X82181367Y-100319756D01*
X82177245Y-100316376D01*
X82145750Y-100298448D01*
X82096445Y-100247368D01*
X82082583Y-100177738D01*
X82108566Y-100111667D01*
X82137716Y-100084427D01*
X82254889Y-100005542D01*
X82254893Y-100005539D01*
X82259319Y-100002559D01*
X82279475Y-99983331D01*
X82342571Y-99950783D01*
X82366447Y-99948500D01*
X87885812Y-99948500D01*
X87953933Y-99968502D01*
X87974907Y-99985405D01*
X88055700Y-100066198D01*
X88060208Y-100069355D01*
X88060211Y-100069357D01*
X88100445Y-100097529D01*
X88243251Y-100197523D01*
X88248233Y-100199846D01*
X88248238Y-100199849D01*
X88367618Y-100255516D01*
X88450757Y-100294284D01*
X88456065Y-100295706D01*
X88456067Y-100295707D01*
X88666598Y-100352119D01*
X88666600Y-100352119D01*
X88671913Y-100353543D01*
X88900000Y-100373498D01*
X89128087Y-100353543D01*
X89133400Y-100352119D01*
X89133402Y-100352119D01*
X89343933Y-100295707D01*
X89343935Y-100295706D01*
X89349243Y-100294284D01*
X89432382Y-100255516D01*
X89551762Y-100199849D01*
X89551767Y-100199846D01*
X89556749Y-100197523D01*
X89699555Y-100097529D01*
X89739789Y-100069357D01*
X89739792Y-100069355D01*
X89744300Y-100066198D01*
X89906198Y-99904300D01*
X89938168Y-99858643D01*
X90009032Y-99757438D01*
X90037523Y-99716749D01*
X90039846Y-99711767D01*
X90039849Y-99711762D01*
X90131961Y-99514225D01*
X90131961Y-99514224D01*
X90134284Y-99509243D01*
X90178846Y-99342939D01*
X90192119Y-99293402D01*
X90192119Y-99293400D01*
X90193543Y-99288087D01*
X90213498Y-99060000D01*
X90193543Y-98831913D01*
X90188862Y-98814442D01*
X90135707Y-98616067D01*
X90135706Y-98616065D01*
X90134284Y-98610757D01*
X90131961Y-98605775D01*
X90039849Y-98408238D01*
X90039846Y-98408233D01*
X90037523Y-98403251D01*
X89919910Y-98235282D01*
X89909357Y-98220211D01*
X89909355Y-98220208D01*
X89906198Y-98215700D01*
X89744300Y-98053802D01*
X89739792Y-98050645D01*
X89739789Y-98050643D01*
X89569635Y-97931500D01*
X89556749Y-97922477D01*
X89551767Y-97920154D01*
X89551762Y-97920151D01*
X89517543Y-97904195D01*
X89464258Y-97857278D01*
X89444797Y-97789001D01*
X89465339Y-97721041D01*
X89517543Y-97675805D01*
X89551762Y-97659849D01*
X89551767Y-97659846D01*
X89556749Y-97657523D01*
X89694351Y-97561173D01*
X89739789Y-97529357D01*
X89739792Y-97529355D01*
X89744300Y-97526198D01*
X89906198Y-97364300D01*
X90037523Y-97176749D01*
X90039846Y-97171767D01*
X90039849Y-97171762D01*
X90131961Y-96974225D01*
X90131961Y-96974224D01*
X90134284Y-96969243D01*
X90178846Y-96802939D01*
X90192119Y-96753402D01*
X90192119Y-96753400D01*
X90193543Y-96748087D01*
X90213498Y-96520000D01*
X90193543Y-96291913D01*
X90188862Y-96274442D01*
X90135707Y-96076067D01*
X90135706Y-96076065D01*
X90134284Y-96070757D01*
X90131961Y-96065775D01*
X90039849Y-95868238D01*
X90039846Y-95868233D01*
X90037523Y-95863251D01*
X89919910Y-95695282D01*
X89909357Y-95680211D01*
X89909355Y-95680208D01*
X89906198Y-95675700D01*
X89744300Y-95513802D01*
X89739792Y-95510645D01*
X89739789Y-95510643D01*
X89641566Y-95441867D01*
X89556749Y-95382477D01*
X89551767Y-95380154D01*
X89551762Y-95380151D01*
X89517543Y-95364195D01*
X89464258Y-95317278D01*
X89444797Y-95249001D01*
X89465339Y-95181041D01*
X89517543Y-95135805D01*
X89551762Y-95119849D01*
X89551767Y-95119846D01*
X89556749Y-95117523D01*
X89716674Y-95005542D01*
X89739789Y-94989357D01*
X89739792Y-94989355D01*
X89744300Y-94986198D01*
X89906198Y-94824300D01*
X90037523Y-94636749D01*
X90039846Y-94631767D01*
X90039849Y-94631762D01*
X90131961Y-94434225D01*
X90131961Y-94434224D01*
X90134284Y-94429243D01*
X90178846Y-94262939D01*
X90192119Y-94213402D01*
X90192119Y-94213400D01*
X90193543Y-94208087D01*
X90213498Y-93980000D01*
X90193543Y-93751913D01*
X90187593Y-93729707D01*
X90135707Y-93536067D01*
X90135706Y-93536065D01*
X90134284Y-93530757D01*
X90122092Y-93504610D01*
X90039849Y-93328238D01*
X90039846Y-93328233D01*
X90037523Y-93323251D01*
X89964098Y-93218389D01*
X89909357Y-93140211D01*
X89909355Y-93140208D01*
X89906198Y-93135700D01*
X89744300Y-92973802D01*
X89739792Y-92970645D01*
X89739789Y-92970643D01*
X89655321Y-92911498D01*
X89556749Y-92842477D01*
X89551767Y-92840154D01*
X89551762Y-92840151D01*
X89517543Y-92824195D01*
X89464258Y-92777278D01*
X89444797Y-92709001D01*
X89465339Y-92641041D01*
X89517543Y-92595805D01*
X89551762Y-92579849D01*
X89551767Y-92579846D01*
X89556749Y-92577523D01*
X89694351Y-92481173D01*
X89739789Y-92449357D01*
X89739792Y-92449355D01*
X89744300Y-92446198D01*
X89906198Y-92284300D01*
X89930923Y-92248990D01*
X90034366Y-92101257D01*
X90037523Y-92096749D01*
X90039846Y-92091767D01*
X90039849Y-92091762D01*
X90131961Y-91894225D01*
X90131961Y-91894224D01*
X90134284Y-91889243D01*
X90144150Y-91852425D01*
X90192119Y-91673402D01*
X90192119Y-91673400D01*
X90193543Y-91668087D01*
X90213498Y-91440000D01*
X90193543Y-91211913D01*
X90187593Y-91189707D01*
X90135707Y-90996067D01*
X90135706Y-90996065D01*
X90134284Y-90990757D01*
X90122092Y-90964610D01*
X90039849Y-90788238D01*
X90039846Y-90788233D01*
X90037523Y-90783251D01*
X89919910Y-90615282D01*
X89909357Y-90600211D01*
X89909355Y-90600208D01*
X89906198Y-90595700D01*
X89744300Y-90433802D01*
X89739792Y-90430645D01*
X89739789Y-90430643D01*
X89639584Y-90360479D01*
X89556749Y-90302477D01*
X89551767Y-90300154D01*
X89551762Y-90300151D01*
X89517543Y-90284195D01*
X89464258Y-90237278D01*
X89444797Y-90169001D01*
X89465339Y-90101041D01*
X89517543Y-90055805D01*
X89551762Y-90039849D01*
X89551767Y-90039846D01*
X89556749Y-90037523D01*
X89694351Y-89941173D01*
X89739789Y-89909357D01*
X89739792Y-89909355D01*
X89744300Y-89906198D01*
X89906198Y-89744300D01*
X89930923Y-89708990D01*
X90034366Y-89561257D01*
X90037523Y-89556749D01*
X90039846Y-89551767D01*
X90039849Y-89551762D01*
X90131961Y-89354225D01*
X90131961Y-89354224D01*
X90134284Y-89349243D01*
X90144150Y-89312425D01*
X90192119Y-89133402D01*
X90192119Y-89133400D01*
X90193543Y-89128087D01*
X90213498Y-88900000D01*
X90193543Y-88671913D01*
X90187593Y-88649707D01*
X90135707Y-88456067D01*
X90135706Y-88456065D01*
X90134284Y-88450757D01*
X90117774Y-88415350D01*
X90039849Y-88248238D01*
X90039846Y-88248233D01*
X90037523Y-88243251D01*
X89924993Y-88082542D01*
X89909357Y-88060211D01*
X89909355Y-88060208D01*
X89906198Y-88055700D01*
X89744300Y-87893802D01*
X89739792Y-87890645D01*
X89739789Y-87890643D01*
X89635982Y-87817957D01*
X89556749Y-87762477D01*
X89551767Y-87760154D01*
X89551762Y-87760151D01*
X89517543Y-87744195D01*
X89464258Y-87697278D01*
X89444797Y-87629001D01*
X89465339Y-87561041D01*
X89517543Y-87515805D01*
X89551762Y-87499849D01*
X89551767Y-87499846D01*
X89556749Y-87497523D01*
X89709932Y-87390263D01*
X89739789Y-87369357D01*
X89739792Y-87369355D01*
X89744300Y-87366198D01*
X89906198Y-87204300D01*
X89930923Y-87168990D01*
X90034366Y-87021257D01*
X90037523Y-87016749D01*
X90039846Y-87011767D01*
X90039849Y-87011762D01*
X90131961Y-86814225D01*
X90131961Y-86814224D01*
X90134284Y-86809243D01*
X90144150Y-86772425D01*
X90192119Y-86593402D01*
X90192119Y-86593400D01*
X90193543Y-86588087D01*
X90213498Y-86360000D01*
X90193543Y-86131913D01*
X90187593Y-86109707D01*
X90135707Y-85916067D01*
X90135706Y-85916065D01*
X90134284Y-85910757D01*
X90122092Y-85884610D01*
X90039849Y-85708238D01*
X90039846Y-85708233D01*
X90037523Y-85703251D01*
X89964098Y-85598389D01*
X89909357Y-85520211D01*
X89909355Y-85520208D01*
X89906198Y-85515700D01*
X89744300Y-85353802D01*
X89739792Y-85350645D01*
X89739789Y-85350643D01*
X89661611Y-85295902D01*
X89556749Y-85222477D01*
X89551767Y-85220154D01*
X89551762Y-85220151D01*
X89517543Y-85204195D01*
X89464258Y-85157278D01*
X89444797Y-85089001D01*
X89465339Y-85021041D01*
X89517543Y-84975805D01*
X89551762Y-84959849D01*
X89551767Y-84959846D01*
X89556749Y-84957523D01*
X89699555Y-84857529D01*
X89739789Y-84829357D01*
X89739792Y-84829355D01*
X89744300Y-84826198D01*
X89906198Y-84664300D01*
X89930923Y-84628990D01*
X90034366Y-84481257D01*
X90037523Y-84476749D01*
X90039846Y-84471767D01*
X90039849Y-84471762D01*
X90131961Y-84274225D01*
X90131961Y-84274224D01*
X90134284Y-84269243D01*
X90144150Y-84232425D01*
X90192119Y-84053402D01*
X90192119Y-84053400D01*
X90193543Y-84048087D01*
X90213498Y-83820000D01*
X90193543Y-83591913D01*
X90187593Y-83569707D01*
X90135707Y-83376067D01*
X90135706Y-83376065D01*
X90134284Y-83370757D01*
X90110512Y-83319777D01*
X90039849Y-83168238D01*
X90039846Y-83168233D01*
X90037523Y-83163251D01*
X89964098Y-83058389D01*
X89909357Y-82980211D01*
X89909355Y-82980208D01*
X89906198Y-82975700D01*
X89744300Y-82813802D01*
X89739792Y-82810645D01*
X89739789Y-82810643D01*
X89661611Y-82755902D01*
X89556749Y-82682477D01*
X89551767Y-82680154D01*
X89551762Y-82680151D01*
X89517543Y-82664195D01*
X89464258Y-82617278D01*
X89444797Y-82549001D01*
X89465339Y-82481041D01*
X89517543Y-82435805D01*
X89551762Y-82419849D01*
X89551767Y-82419846D01*
X89556749Y-82417523D01*
X89721397Y-82302235D01*
X89739789Y-82289357D01*
X89739792Y-82289355D01*
X89744300Y-82286198D01*
X89906198Y-82124300D01*
X89930923Y-82088990D01*
X90034366Y-81941257D01*
X90037523Y-81936749D01*
X90039846Y-81931767D01*
X90039849Y-81931762D01*
X90131961Y-81734225D01*
X90131961Y-81734224D01*
X90134284Y-81729243D01*
X90144150Y-81692425D01*
X90158762Y-81637890D01*
X90193543Y-81508087D01*
X90198692Y-81449231D01*
X90224555Y-81383113D01*
X90235118Y-81371117D01*
X92109384Y-79496851D01*
X92119527Y-79487749D01*
X92144218Y-79467897D01*
X92149025Y-79464032D01*
X92181312Y-79425554D01*
X92184467Y-79421938D01*
X92186123Y-79420112D01*
X92188309Y-79417926D01*
X92190264Y-79415546D01*
X92190273Y-79415536D01*
X92215576Y-79384732D01*
X92216418Y-79383717D01*
X92272194Y-79317245D01*
X92276154Y-79312526D01*
X92278723Y-79307852D01*
X92282102Y-79303739D01*
X92325975Y-79221915D01*
X92326584Y-79220793D01*
X92368464Y-79144614D01*
X92368465Y-79144612D01*
X92371433Y-79139213D01*
X92373045Y-79134131D01*
X92375562Y-79129437D01*
X92402762Y-79040469D01*
X92403108Y-79039358D01*
X92429373Y-78956563D01*
X92431235Y-78950694D01*
X92431829Y-78945398D01*
X92433387Y-78940302D01*
X92442790Y-78847743D01*
X92442911Y-78846607D01*
X92448500Y-78796773D01*
X92448500Y-78793246D01*
X92448555Y-78792261D01*
X92449002Y-78786581D01*
X92453374Y-78743538D01*
X92449059Y-78697891D01*
X92448500Y-78686033D01*
X92448500Y-77080740D01*
X92471287Y-77008469D01*
X92488981Y-76983199D01*
X92577523Y-76856749D01*
X92579846Y-76851767D01*
X92579849Y-76851762D01*
X92671961Y-76654225D01*
X92671961Y-76654224D01*
X92674284Y-76649243D01*
X92684150Y-76612425D01*
X92732119Y-76433402D01*
X92732119Y-76433400D01*
X92733543Y-76428087D01*
X92753498Y-76200000D01*
X92733543Y-75971913D01*
X92727593Y-75949707D01*
X92675707Y-75756067D01*
X92675706Y-75756065D01*
X92674284Y-75750757D01*
X92660458Y-75721107D01*
X92579849Y-75548238D01*
X92579846Y-75548233D01*
X92577523Y-75543251D01*
X92446198Y-75355700D01*
X92284300Y-75193802D01*
X92279792Y-75190645D01*
X92279789Y-75190643D01*
X92149639Y-75099511D01*
X92096749Y-75062477D01*
X92091767Y-75060154D01*
X92091762Y-75060151D01*
X91894225Y-74968039D01*
X91894224Y-74968039D01*
X91889243Y-74965716D01*
X91883935Y-74964294D01*
X91883933Y-74964293D01*
X91673402Y-74907881D01*
X91673400Y-74907881D01*
X91668087Y-74906457D01*
X91440000Y-74886502D01*
X91211913Y-74906457D01*
X91206600Y-74907881D01*
X91206598Y-74907881D01*
X90996067Y-74964293D01*
X90996065Y-74964294D01*
X90990757Y-74965716D01*
X90985776Y-74968039D01*
X90985775Y-74968039D01*
X90788238Y-75060151D01*
X90788233Y-75060154D01*
X90783251Y-75062477D01*
X90730361Y-75099511D01*
X90600211Y-75190643D01*
X90600208Y-75190645D01*
X90595700Y-75193802D01*
X90433802Y-75355700D01*
X90302477Y-75543251D01*
X90300154Y-75548233D01*
X90300151Y-75548238D01*
X90219542Y-75721107D01*
X90205716Y-75750757D01*
X90146457Y-75971913D01*
X90145978Y-75977392D01*
X90141308Y-76030770D01*
X90115445Y-76096888D01*
X90104882Y-76108884D01*
X78936101Y-87277665D01*
X78925958Y-87286767D01*
X78896455Y-87310488D01*
X78876778Y-87333938D01*
X78864189Y-87348941D01*
X78861008Y-87352589D01*
X78859365Y-87354401D01*
X78857171Y-87356595D01*
X78829838Y-87389869D01*
X78829176Y-87390667D01*
X78769326Y-87461994D01*
X78766758Y-87466664D01*
X78763377Y-87470781D01*
X78747791Y-87499849D01*
X78719503Y-87552606D01*
X78718874Y-87553765D01*
X78677018Y-87629901D01*
X78677015Y-87629909D01*
X78674047Y-87635307D01*
X78672435Y-87640389D01*
X78669918Y-87645083D01*
X78642718Y-87734051D01*
X78642398Y-87735079D01*
X78614245Y-87823826D01*
X78613651Y-87829122D01*
X78612093Y-87834218D01*
X78605645Y-87897699D01*
X78602698Y-87926707D01*
X78602569Y-87927913D01*
X78596980Y-87977747D01*
X78596980Y-87981274D01*
X78596925Y-87982259D01*
X78596478Y-87987939D01*
X78592106Y-88030982D01*
X74168500Y-88030982D01*
X74168500Y-81280000D01*
X80066884Y-81280000D01*
X80085314Y-81490655D01*
X80086738Y-81495968D01*
X80086738Y-81495970D01*
X80124766Y-81637890D01*
X80140044Y-81694910D01*
X80142366Y-81699891D01*
X80142367Y-81699892D01*
X80180567Y-81781811D01*
X80229411Y-81886558D01*
X80350699Y-82059776D01*
X80500224Y-82209301D01*
X80673442Y-82330589D01*
X80678420Y-82332910D01*
X80678423Y-82332912D01*
X80853102Y-82414366D01*
X80865090Y-82419956D01*
X80870398Y-82421378D01*
X80870400Y-82421379D01*
X81064030Y-82473262D01*
X81064032Y-82473262D01*
X81069345Y-82474686D01*
X81280000Y-82493116D01*
X81490655Y-82474686D01*
X81495968Y-82473262D01*
X81495970Y-82473262D01*
X81689600Y-82421379D01*
X81689602Y-82421378D01*
X81694910Y-82419956D01*
X81706898Y-82414366D01*
X81881577Y-82332912D01*
X81881580Y-82332910D01*
X81886558Y-82330589D01*
X82059776Y-82209301D01*
X82209301Y-82059776D01*
X82330589Y-81886558D01*
X82379434Y-81781811D01*
X82417633Y-81699892D01*
X82417634Y-81699891D01*
X82419956Y-81694910D01*
X82435235Y-81637890D01*
X82473262Y-81495970D01*
X82473262Y-81495968D01*
X82474686Y-81490655D01*
X82493116Y-81280000D01*
X82474686Y-81069345D01*
X82419956Y-80865090D01*
X82370481Y-80758991D01*
X82332912Y-80678423D01*
X82332910Y-80678420D01*
X82330589Y-80673442D01*
X82209301Y-80500224D01*
X82059776Y-80350699D01*
X81886558Y-80229411D01*
X81881580Y-80227090D01*
X81881577Y-80227088D01*
X81699892Y-80142367D01*
X81699891Y-80142366D01*
X81694910Y-80140044D01*
X81689602Y-80138622D01*
X81689600Y-80138621D01*
X81495970Y-80086738D01*
X81495968Y-80086738D01*
X81490655Y-80085314D01*
X81280000Y-80066884D01*
X81069345Y-80085314D01*
X81064032Y-80086738D01*
X81064030Y-80086738D01*
X80870400Y-80138621D01*
X80870398Y-80138622D01*
X80865090Y-80140044D01*
X80860109Y-80142366D01*
X80860108Y-80142367D01*
X80678423Y-80227088D01*
X80678420Y-80227090D01*
X80673442Y-80229411D01*
X80500224Y-80350699D01*
X80350699Y-80500224D01*
X80229411Y-80673442D01*
X80227090Y-80678420D01*
X80227088Y-80678423D01*
X80189519Y-80758991D01*
X80140044Y-80865090D01*
X80085314Y-81069345D01*
X80066884Y-81280000D01*
X74168500Y-81280000D01*
X74168500Y-76220000D01*
X79066771Y-76220000D01*
X79085635Y-76399475D01*
X79141401Y-76571107D01*
X79231633Y-76727393D01*
X79236051Y-76732300D01*
X79236052Y-76732301D01*
X79323263Y-76829159D01*
X79352387Y-76861504D01*
X79357729Y-76865385D01*
X79357731Y-76865387D01*
X79443529Y-76927723D01*
X79498385Y-76967578D01*
X79504413Y-76970262D01*
X79504415Y-76970263D01*
X79657217Y-77038295D01*
X79663248Y-77040980D01*
X79751508Y-77059740D01*
X79833311Y-77077128D01*
X79833315Y-77077128D01*
X79839768Y-77078500D01*
X80020232Y-77078500D01*
X80026685Y-77077128D01*
X80026689Y-77077128D01*
X80108492Y-77059740D01*
X80196752Y-77040980D01*
X80312618Y-76989393D01*
X80363867Y-76978500D01*
X80846133Y-76978500D01*
X80897382Y-76989393D01*
X81013248Y-77040980D01*
X81101508Y-77059740D01*
X81183311Y-77077128D01*
X81183315Y-77077128D01*
X81189768Y-77078500D01*
X81370232Y-77078500D01*
X81376685Y-77077128D01*
X81376689Y-77077128D01*
X81458492Y-77059740D01*
X81546752Y-77040980D01*
X81661100Y-76990069D01*
X81731298Y-76980609D01*
X81732491Y-76980791D01*
X81741089Y-76982099D01*
X81741093Y-76982099D01*
X81748323Y-76983199D01*
X81755615Y-76982606D01*
X81755618Y-76982606D01*
X81800992Y-76978915D01*
X81811207Y-76978500D01*
X81819267Y-76978500D01*
X81847483Y-76975211D01*
X81851842Y-76974779D01*
X81892924Y-76971437D01*
X81929339Y-76973777D01*
X81932572Y-76974464D01*
X81938447Y-76976328D01*
X82092368Y-76993593D01*
X83973064Y-76993593D01*
X83986671Y-76994330D01*
X84018169Y-76997752D01*
X84018174Y-76997752D01*
X84024295Y-76998417D01*
X84050545Y-76996120D01*
X84074295Y-76994043D01*
X84079121Y-76993714D01*
X84081593Y-76993593D01*
X84084676Y-76993593D01*
X84096645Y-76992419D01*
X84127413Y-76989403D01*
X84128726Y-76989281D01*
X84172991Y-76985408D01*
X84221320Y-76981180D01*
X84226439Y-76979693D01*
X84231740Y-76979173D01*
X84320741Y-76952302D01*
X84321874Y-76951967D01*
X84405321Y-76927723D01*
X84405325Y-76927721D01*
X84411243Y-76926002D01*
X84415975Y-76923549D01*
X84421076Y-76922009D01*
X84426519Y-76919115D01*
X84503167Y-76878362D01*
X84504333Y-76877750D01*
X84581360Y-76837822D01*
X84586833Y-76834985D01*
X84590996Y-76831662D01*
X84595703Y-76829159D01*
X84667825Y-76770338D01*
X84668681Y-76769647D01*
X84707880Y-76738355D01*
X84710384Y-76735851D01*
X84711102Y-76735209D01*
X84715435Y-76731508D01*
X84748969Y-76704158D01*
X84778195Y-76668830D01*
X84786184Y-76660051D01*
X89280830Y-72165405D01*
X89343142Y-72131379D01*
X89369925Y-72128500D01*
X98928798Y-72128500D01*
X98942405Y-72129237D01*
X98973903Y-72132659D01*
X98973908Y-72132659D01*
X98980029Y-72133324D01*
X99029694Y-72128979D01*
X99040675Y-72128500D01*
X103115795Y-72128500D01*
X103183916Y-72148502D01*
X103230409Y-72202158D01*
X103240513Y-72272432D01*
X103211019Y-72337012D01*
X103192089Y-72354387D01*
X103191624Y-72354672D01*
X103187863Y-72357885D01*
X103187862Y-72357885D01*
X103070644Y-72457999D01*
X102999102Y-72519102D01*
X102834672Y-72711624D01*
X102702384Y-72927498D01*
X102605495Y-73161409D01*
X102546391Y-73407597D01*
X102526526Y-73660000D01*
X102546391Y-73912403D01*
X102547545Y-73917210D01*
X102547546Y-73917216D01*
X102575104Y-74032001D01*
X102605495Y-74158591D01*
X102607388Y-74163162D01*
X102607389Y-74163164D01*
X102694301Y-74372987D01*
X102702384Y-74392502D01*
X102834672Y-74608376D01*
X102999102Y-74800898D01*
X103191624Y-74965328D01*
X103407498Y-75097616D01*
X103412068Y-75099509D01*
X103412072Y-75099511D01*
X103616948Y-75184373D01*
X103641409Y-75194505D01*
X103708513Y-75210615D01*
X103882784Y-75252454D01*
X103882790Y-75252455D01*
X103887597Y-75253609D01*
X104140000Y-75273474D01*
X104392403Y-75253609D01*
X104397210Y-75252455D01*
X104397216Y-75252454D01*
X104571487Y-75210615D01*
X104638591Y-75194505D01*
X104663052Y-75184373D01*
X104867928Y-75099511D01*
X104867932Y-75099509D01*
X104872502Y-75097616D01*
X105088376Y-74965328D01*
X105280898Y-74800898D01*
X105445328Y-74608376D01*
X105577616Y-74392502D01*
X105585700Y-74372987D01*
X105672611Y-74163164D01*
X105672612Y-74163162D01*
X105674505Y-74158591D01*
X105704896Y-74032001D01*
X105732454Y-73917216D01*
X105732455Y-73917210D01*
X105733609Y-73912403D01*
X105753474Y-73660000D01*
X105733609Y-73407597D01*
X105674505Y-73161409D01*
X105577616Y-72927498D01*
X105445328Y-72711624D01*
X105280898Y-72519102D01*
X105209356Y-72457999D01*
X105092138Y-72357885D01*
X105092137Y-72357885D01*
X105088376Y-72354672D01*
X105088590Y-72354422D01*
X105046789Y-72300210D01*
X105040715Y-72229474D01*
X105073849Y-72166683D01*
X105135670Y-72131774D01*
X105164205Y-72128500D01*
X108195795Y-72128500D01*
X108263916Y-72148502D01*
X108310409Y-72202158D01*
X108320513Y-72272432D01*
X108291019Y-72337012D01*
X108272089Y-72354387D01*
X108271624Y-72354672D01*
X108267863Y-72357885D01*
X108267862Y-72357885D01*
X108150644Y-72457999D01*
X108079102Y-72519102D01*
X107914672Y-72711624D01*
X107782384Y-72927498D01*
X107685495Y-73161409D01*
X107626391Y-73407597D01*
X107606526Y-73660000D01*
X107626391Y-73912403D01*
X107627545Y-73917210D01*
X107627546Y-73917216D01*
X107655104Y-74032001D01*
X107685495Y-74158591D01*
X107687388Y-74163162D01*
X107687389Y-74163164D01*
X107774301Y-74372987D01*
X107782384Y-74392502D01*
X107914672Y-74608376D01*
X108079102Y-74800898D01*
X108271624Y-74965328D01*
X108487498Y-75097616D01*
X108492068Y-75099509D01*
X108492072Y-75099511D01*
X108696948Y-75184373D01*
X108721409Y-75194505D01*
X108788513Y-75210615D01*
X108962784Y-75252454D01*
X108962790Y-75252455D01*
X108967597Y-75253609D01*
X109220000Y-75273474D01*
X109472403Y-75253609D01*
X109477210Y-75252455D01*
X109477216Y-75252454D01*
X109651487Y-75210615D01*
X109718591Y-75194505D01*
X109743052Y-75184373D01*
X109947928Y-75099511D01*
X109947932Y-75099509D01*
X109952502Y-75097616D01*
X110168376Y-74965328D01*
X110360898Y-74800898D01*
X110525328Y-74608376D01*
X110657616Y-74392502D01*
X110665700Y-74372987D01*
X110752611Y-74163164D01*
X110752612Y-74163162D01*
X110754505Y-74158591D01*
X110784896Y-74032001D01*
X110812454Y-73917216D01*
X110812455Y-73917210D01*
X110813609Y-73912403D01*
X110833474Y-73660000D01*
X110813609Y-73407597D01*
X110754505Y-73161409D01*
X110657616Y-72927498D01*
X110525328Y-72711624D01*
X110360898Y-72519102D01*
X110289356Y-72457999D01*
X110172138Y-72357885D01*
X110172137Y-72357885D01*
X110168376Y-72354672D01*
X110168590Y-72354422D01*
X110126789Y-72300210D01*
X110120715Y-72229474D01*
X110153849Y-72166683D01*
X110215670Y-72131774D01*
X110244205Y-72128500D01*
X116370075Y-72128500D01*
X116438196Y-72148502D01*
X116459170Y-72165405D01*
X117734595Y-73440830D01*
X117768621Y-73503142D01*
X117771500Y-73529925D01*
X117771500Y-74808134D01*
X117778255Y-74870316D01*
X117829385Y-75006705D01*
X117916739Y-75123261D01*
X118033295Y-75210615D01*
X118169684Y-75261745D01*
X118231866Y-75268500D01*
X120528134Y-75268500D01*
X120590316Y-75261745D01*
X120726705Y-75210615D01*
X120843261Y-75123261D01*
X120930615Y-75006705D01*
X120981745Y-74870316D01*
X120988500Y-74808134D01*
X120988500Y-72511866D01*
X120981745Y-72449684D01*
X120930615Y-72313295D01*
X120929362Y-72311623D01*
X120914934Y-72245650D01*
X120939671Y-72179103D01*
X120996460Y-72136493D01*
X121040623Y-72128500D01*
X121450075Y-72128500D01*
X121518196Y-72148502D01*
X121539170Y-72165405D01*
X125664882Y-76291116D01*
X125698908Y-76353428D01*
X125701308Y-76369227D01*
X125706457Y-76428087D01*
X125743095Y-76564822D01*
X125755851Y-76612425D01*
X125765716Y-76649243D01*
X125768039Y-76654224D01*
X125768039Y-76654225D01*
X125860151Y-76851762D01*
X125860154Y-76851767D01*
X125862477Y-76856749D01*
X125910872Y-76925864D01*
X125969078Y-77008990D01*
X125993802Y-77044300D01*
X126155700Y-77206198D01*
X126160208Y-77209355D01*
X126160211Y-77209357D01*
X126238389Y-77264098D01*
X126343251Y-77337523D01*
X126348233Y-77339846D01*
X126348238Y-77339849D01*
X126545775Y-77431961D01*
X126550757Y-77434284D01*
X126556065Y-77435706D01*
X126556067Y-77435707D01*
X126766598Y-77492119D01*
X126766600Y-77492119D01*
X126771913Y-77493543D01*
X127000000Y-77513498D01*
X127228087Y-77493543D01*
X127233400Y-77492119D01*
X127233402Y-77492119D01*
X127443933Y-77435707D01*
X127443935Y-77435706D01*
X127449243Y-77434284D01*
X127454225Y-77431961D01*
X127651762Y-77339849D01*
X127651767Y-77339846D01*
X127656749Y-77337523D01*
X127761611Y-77264098D01*
X127839789Y-77209357D01*
X127839792Y-77209355D01*
X127844300Y-77206198D01*
X128006198Y-77044300D01*
X128030923Y-77008990D01*
X128089128Y-76925864D01*
X128137523Y-76856749D01*
X128139846Y-76851767D01*
X128139849Y-76851762D01*
X128231961Y-76654225D01*
X128231961Y-76654224D01*
X128234284Y-76649243D01*
X128244150Y-76612425D01*
X128292119Y-76433402D01*
X128292119Y-76433400D01*
X128293543Y-76428087D01*
X128313498Y-76200000D01*
X128293543Y-75971913D01*
X128287593Y-75949707D01*
X128235707Y-75756067D01*
X128235706Y-75756065D01*
X128234284Y-75750757D01*
X128220458Y-75721107D01*
X128139849Y-75548238D01*
X128139846Y-75548233D01*
X128137523Y-75543251D01*
X128006198Y-75355700D01*
X127844300Y-75193802D01*
X127839792Y-75190645D01*
X127839789Y-75190643D01*
X127709639Y-75099511D01*
X127656749Y-75062477D01*
X127651767Y-75060154D01*
X127651762Y-75060151D01*
X127454225Y-74968039D01*
X127454224Y-74968039D01*
X127449243Y-74965716D01*
X127443935Y-74964294D01*
X127443933Y-74964293D01*
X127312755Y-74929144D01*
X127228087Y-74906457D01*
X127169231Y-74901308D01*
X127103113Y-74875445D01*
X127091117Y-74864882D01*
X124569830Y-72343595D01*
X124535804Y-72281283D01*
X124540869Y-72210468D01*
X124583416Y-72153632D01*
X124649936Y-72128821D01*
X124658925Y-72128500D01*
X128511053Y-72128500D01*
X128579174Y-72148502D01*
X128600148Y-72165405D01*
X130764127Y-74329384D01*
X130773229Y-74339527D01*
X130796946Y-74369025D01*
X130835424Y-74401312D01*
X130839040Y-74404467D01*
X130840866Y-74406123D01*
X130843052Y-74408309D01*
X130845432Y-74410264D01*
X130845442Y-74410273D01*
X130876246Y-74435576D01*
X130877261Y-74436418D01*
X130948452Y-74496154D01*
X130953126Y-74498723D01*
X130957239Y-74502102D01*
X130962676Y-74505017D01*
X130962677Y-74505018D01*
X131039066Y-74545977D01*
X131041171Y-74547131D01*
X131041212Y-74547154D01*
X131074804Y-74574547D01*
X131126250Y-74633938D01*
X131298126Y-74776632D01*
X131357849Y-74811531D01*
X131371445Y-74819476D01*
X131420169Y-74871114D01*
X131433240Y-74940897D01*
X131406509Y-75006669D01*
X131366055Y-75040027D01*
X131353607Y-75046507D01*
X131349474Y-75049610D01*
X131349471Y-75049612D01*
X131251380Y-75123261D01*
X131174965Y-75180635D01*
X131020629Y-75342138D01*
X131017715Y-75346410D01*
X131017714Y-75346411D01*
X131008300Y-75360211D01*
X130894743Y-75526680D01*
X130847715Y-75627993D01*
X130807411Y-75714822D01*
X130800688Y-75729305D01*
X130740989Y-75944570D01*
X130717251Y-76166695D01*
X130717548Y-76171848D01*
X130717548Y-76171851D01*
X130719171Y-76200000D01*
X130730110Y-76389715D01*
X130731247Y-76394761D01*
X130731248Y-76394767D01*
X130739955Y-76433400D01*
X130779222Y-76607639D01*
X130863266Y-76814616D01*
X130914942Y-76898944D01*
X130975492Y-76997752D01*
X130979987Y-77005088D01*
X131126250Y-77173938D01*
X131275985Y-77298250D01*
X131315620Y-77357152D01*
X131321500Y-77395194D01*
X131321500Y-101233629D01*
X131301498Y-101301750D01*
X131284595Y-101322724D01*
X128563448Y-104043871D01*
X128501136Y-104077897D01*
X128430321Y-104072832D01*
X128373485Y-104030285D01*
X128348777Y-103965101D01*
X128345276Y-103922521D01*
X128344852Y-103917361D01*
X128290431Y-103700702D01*
X128201354Y-103495840D01*
X128130773Y-103386738D01*
X128082822Y-103312617D01*
X128082820Y-103312614D01*
X128080014Y-103308277D01*
X127929670Y-103143051D01*
X127925619Y-103139852D01*
X127925615Y-103139848D01*
X127758414Y-103007800D01*
X127758410Y-103007798D01*
X127754359Y-103004598D01*
X127713053Y-102981796D01*
X127663084Y-102931364D01*
X127648312Y-102861921D01*
X127673428Y-102795516D01*
X127700780Y-102768909D01*
X127764009Y-102723808D01*
X127879860Y-102641173D01*
X128038096Y-102483489D01*
X128097594Y-102400689D01*
X128165435Y-102306277D01*
X128168453Y-102302077D01*
X128199748Y-102238757D01*
X128265136Y-102106453D01*
X128265137Y-102106451D01*
X128267430Y-102101811D01*
X128314144Y-101948058D01*
X128330865Y-101893023D01*
X128330865Y-101893021D01*
X128332370Y-101888069D01*
X128361529Y-101666590D01*
X128363156Y-101600000D01*
X128344852Y-101377361D01*
X128290431Y-101160702D01*
X128201354Y-100955840D01*
X128080014Y-100768277D01*
X127929670Y-100603051D01*
X127925619Y-100599852D01*
X127925615Y-100599848D01*
X127758414Y-100467800D01*
X127758410Y-100467798D01*
X127754359Y-100464598D01*
X127713053Y-100441796D01*
X127663084Y-100391364D01*
X127648312Y-100321921D01*
X127673428Y-100255516D01*
X127700780Y-100228909D01*
X127807948Y-100152467D01*
X127879860Y-100101173D01*
X127911788Y-100069357D01*
X127996033Y-99985405D01*
X128038096Y-99943489D01*
X128069498Y-99899789D01*
X128165435Y-99766277D01*
X128168453Y-99762077D01*
X128188628Y-99721257D01*
X128265136Y-99566453D01*
X128265137Y-99566451D01*
X128267430Y-99561811D01*
X128332370Y-99348069D01*
X128361529Y-99126590D01*
X128362405Y-99090757D01*
X128363074Y-99063365D01*
X128363074Y-99063361D01*
X128363156Y-99060000D01*
X128344852Y-98837361D01*
X128290431Y-98620702D01*
X128201354Y-98415840D01*
X128080014Y-98228277D01*
X127929670Y-98063051D01*
X127925619Y-98059852D01*
X127925615Y-98059848D01*
X127758414Y-97927800D01*
X127758410Y-97927798D01*
X127754359Y-97924598D01*
X127713053Y-97901796D01*
X127663084Y-97851364D01*
X127648312Y-97781921D01*
X127673428Y-97715516D01*
X127700780Y-97688909D01*
X127749207Y-97654366D01*
X127879860Y-97561173D01*
X127911788Y-97529357D01*
X128034435Y-97407137D01*
X128038096Y-97403489D01*
X128069498Y-97359789D01*
X128165435Y-97226277D01*
X128168453Y-97222077D01*
X128188628Y-97181257D01*
X128265136Y-97026453D01*
X128265137Y-97026451D01*
X128267430Y-97021811D01*
X128332370Y-96808069D01*
X128361529Y-96586590D01*
X128363156Y-96520000D01*
X128344852Y-96297361D01*
X128290431Y-96080702D01*
X128201354Y-95875840D01*
X128080014Y-95688277D01*
X127929670Y-95523051D01*
X127925619Y-95519852D01*
X127925615Y-95519848D01*
X127758414Y-95387800D01*
X127758410Y-95387798D01*
X127754359Y-95384598D01*
X127746304Y-95380151D01*
X127702136Y-95355769D01*
X127558789Y-95276638D01*
X127553920Y-95274914D01*
X127553916Y-95274912D01*
X127353087Y-95203795D01*
X127353083Y-95203794D01*
X127348212Y-95202069D01*
X127343119Y-95201162D01*
X127343116Y-95201161D01*
X127133373Y-95163800D01*
X127133367Y-95163799D01*
X127128284Y-95162894D01*
X127054452Y-95161992D01*
X126910081Y-95160228D01*
X126910079Y-95160228D01*
X126904911Y-95160165D01*
X126684091Y-95193955D01*
X126471756Y-95263357D01*
X126273607Y-95366507D01*
X126269474Y-95369610D01*
X126269471Y-95369612D01*
X126252337Y-95382477D01*
X126140308Y-95466591D01*
X126119673Y-95482084D01*
X126053188Y-95506990D01*
X125983793Y-95491998D01*
X125933519Y-95441867D01*
X125918020Y-95381324D01*
X125918020Y-92575850D01*
X125938022Y-92507729D01*
X125991678Y-92461236D01*
X126061952Y-92451132D01*
X126124504Y-92478905D01*
X126218126Y-92556632D01*
X126411000Y-92669338D01*
X126619692Y-92749030D01*
X126624760Y-92750061D01*
X126624763Y-92750062D01*
X126729466Y-92771364D01*
X126838597Y-92793567D01*
X126843772Y-92793757D01*
X126843774Y-92793757D01*
X127056673Y-92801564D01*
X127056677Y-92801564D01*
X127061837Y-92801753D01*
X127066957Y-92801097D01*
X127066959Y-92801097D01*
X127278288Y-92774025D01*
X127278289Y-92774025D01*
X127283416Y-92773368D01*
X127290096Y-92771364D01*
X127492429Y-92710661D01*
X127492434Y-92710659D01*
X127497384Y-92709174D01*
X127697994Y-92610896D01*
X127879860Y-92481173D01*
X127911788Y-92449357D01*
X128034435Y-92327137D01*
X128038096Y-92323489D01*
X128069498Y-92279789D01*
X128165435Y-92146277D01*
X128168453Y-92142077D01*
X128188628Y-92101257D01*
X128265136Y-91946453D01*
X128265137Y-91946451D01*
X128267430Y-91941811D01*
X128332370Y-91728069D01*
X128361529Y-91506590D01*
X128363156Y-91440000D01*
X128344852Y-91217361D01*
X128290431Y-91000702D01*
X128201354Y-90795840D01*
X128080014Y-90608277D01*
X127929670Y-90443051D01*
X127925619Y-90439852D01*
X127925615Y-90439848D01*
X127758414Y-90307800D01*
X127758410Y-90307798D01*
X127754359Y-90304598D01*
X127713053Y-90281796D01*
X127663084Y-90231364D01*
X127648312Y-90161921D01*
X127673428Y-90095516D01*
X127700780Y-90068909D01*
X127749207Y-90034366D01*
X127879860Y-89941173D01*
X127911788Y-89909357D01*
X128034435Y-89787137D01*
X128038096Y-89783489D01*
X128069498Y-89739789D01*
X128165435Y-89606277D01*
X128168453Y-89602077D01*
X128188628Y-89561257D01*
X128265136Y-89406453D01*
X128265137Y-89406451D01*
X128267430Y-89401811D01*
X128332370Y-89188069D01*
X128361529Y-88966590D01*
X128363156Y-88900000D01*
X128344852Y-88677361D01*
X128290431Y-88460702D01*
X128201354Y-88255840D01*
X128113733Y-88120398D01*
X128082822Y-88072617D01*
X128082820Y-88072614D01*
X128080014Y-88068277D01*
X127929670Y-87903051D01*
X127925619Y-87899852D01*
X127925615Y-87899848D01*
X127758414Y-87767800D01*
X127758410Y-87767798D01*
X127754359Y-87764598D01*
X127713053Y-87741796D01*
X127663084Y-87691364D01*
X127648312Y-87621921D01*
X127673428Y-87555516D01*
X127700780Y-87528909D01*
X127749207Y-87494366D01*
X127879860Y-87401173D01*
X127911788Y-87369357D01*
X128034435Y-87247137D01*
X128038096Y-87243489D01*
X128069498Y-87199789D01*
X128165435Y-87066277D01*
X128168453Y-87062077D01*
X128188628Y-87021257D01*
X128265136Y-86866453D01*
X128265137Y-86866451D01*
X128267430Y-86861811D01*
X128332370Y-86648069D01*
X128361529Y-86426590D01*
X128363156Y-86360000D01*
X128344852Y-86137361D01*
X128290431Y-85920702D01*
X128201354Y-85715840D01*
X128080014Y-85528277D01*
X127929670Y-85363051D01*
X127925619Y-85359852D01*
X127925615Y-85359848D01*
X127758414Y-85227800D01*
X127758410Y-85227798D01*
X127754359Y-85224598D01*
X127713053Y-85201796D01*
X127663084Y-85151364D01*
X127648312Y-85081921D01*
X127673428Y-85015516D01*
X127700780Y-84988909D01*
X127749207Y-84954366D01*
X127879860Y-84861173D01*
X127911788Y-84829357D01*
X128034435Y-84707137D01*
X128038096Y-84703489D01*
X128069498Y-84659789D01*
X128165435Y-84526277D01*
X128168453Y-84522077D01*
X128188628Y-84481257D01*
X128265136Y-84326453D01*
X128265137Y-84326451D01*
X128267430Y-84321811D01*
X128332370Y-84108069D01*
X128361529Y-83886590D01*
X128363156Y-83820000D01*
X128344852Y-83597361D01*
X128290431Y-83380702D01*
X128201354Y-83175840D01*
X128080014Y-82988277D01*
X127929670Y-82823051D01*
X127925619Y-82819852D01*
X127925615Y-82819848D01*
X127758414Y-82687800D01*
X127758410Y-82687798D01*
X127754359Y-82684598D01*
X127713053Y-82661796D01*
X127663084Y-82611364D01*
X127648312Y-82541921D01*
X127673428Y-82475516D01*
X127700780Y-82448909D01*
X127749207Y-82414366D01*
X127879860Y-82321173D01*
X127911788Y-82289357D01*
X127988271Y-82213140D01*
X128038096Y-82163489D01*
X128069498Y-82119789D01*
X128165435Y-81986277D01*
X128168453Y-81982077D01*
X128188628Y-81941257D01*
X128265136Y-81786453D01*
X128265137Y-81786451D01*
X128267430Y-81781811D01*
X128311157Y-81637890D01*
X128330865Y-81573023D01*
X128330865Y-81573021D01*
X128332370Y-81568069D01*
X128361529Y-81346590D01*
X128363156Y-81280000D01*
X128344852Y-81057361D01*
X128290431Y-80840702D01*
X128201354Y-80635840D01*
X128080014Y-80448277D01*
X127929670Y-80283051D01*
X127925619Y-80279852D01*
X127925615Y-80279848D01*
X127758414Y-80147800D01*
X127758410Y-80147798D01*
X127754359Y-80144598D01*
X127746110Y-80140044D01*
X127649545Y-80086738D01*
X127558789Y-80036638D01*
X127553920Y-80034914D01*
X127553916Y-80034912D01*
X127353087Y-79963795D01*
X127353083Y-79963794D01*
X127348212Y-79962069D01*
X127343119Y-79961162D01*
X127343116Y-79961161D01*
X127133373Y-79923800D01*
X127133367Y-79923799D01*
X127128284Y-79922894D01*
X127054452Y-79921992D01*
X126910081Y-79920228D01*
X126910079Y-79920228D01*
X126904911Y-79920165D01*
X126684091Y-79953955D01*
X126471756Y-80023357D01*
X126273607Y-80126507D01*
X126269474Y-80129610D01*
X126269471Y-80129612D01*
X126132349Y-80232566D01*
X126094965Y-80260635D01*
X125940629Y-80422138D01*
X125814743Y-80606680D01*
X125783753Y-80673442D01*
X125753016Y-80739661D01*
X125720688Y-80809305D01*
X125660989Y-81024570D01*
X125637251Y-81246695D01*
X125637548Y-81251848D01*
X125637548Y-81251851D01*
X125643011Y-81346590D01*
X125650110Y-81469715D01*
X125651247Y-81474761D01*
X125651248Y-81474767D01*
X125659955Y-81513400D01*
X125699222Y-81687639D01*
X125783266Y-81894616D01*
X125785965Y-81899020D01*
X125886863Y-82063671D01*
X125899987Y-82085088D01*
X126046250Y-82253938D01*
X126218126Y-82396632D01*
X126260476Y-82421379D01*
X126291445Y-82439476D01*
X126340169Y-82491114D01*
X126353240Y-82560897D01*
X126326509Y-82626669D01*
X126286055Y-82660027D01*
X126273607Y-82666507D01*
X126269474Y-82669610D01*
X126269471Y-82669612D01*
X126248132Y-82685634D01*
X126094965Y-82800635D01*
X125940629Y-82962138D01*
X125937715Y-82966410D01*
X125937714Y-82966411D01*
X125928300Y-82980211D01*
X125814743Y-83146680D01*
X125720688Y-83349305D01*
X125660989Y-83564570D01*
X125637251Y-83786695D01*
X125637548Y-83791848D01*
X125637548Y-83791851D01*
X125642861Y-83883999D01*
X125650110Y-84009715D01*
X125651247Y-84014761D01*
X125651248Y-84014767D01*
X125659955Y-84053402D01*
X125699222Y-84227639D01*
X125783266Y-84434616D01*
X125899987Y-84625088D01*
X126046250Y-84793938D01*
X126218126Y-84936632D01*
X126285163Y-84975805D01*
X126291445Y-84979476D01*
X126340169Y-85031114D01*
X126353240Y-85100897D01*
X126326509Y-85166669D01*
X126286055Y-85200027D01*
X126273607Y-85206507D01*
X126269474Y-85209610D01*
X126269471Y-85209612D01*
X126248132Y-85225634D01*
X126094965Y-85340635D01*
X125940629Y-85502138D01*
X125937715Y-85506410D01*
X125937714Y-85506411D01*
X125928300Y-85520211D01*
X125814743Y-85686680D01*
X125720688Y-85889305D01*
X125660989Y-86104570D01*
X125637251Y-86326695D01*
X125637548Y-86331848D01*
X125637548Y-86331851D01*
X125643011Y-86426590D01*
X125650110Y-86549715D01*
X125651247Y-86554761D01*
X125651248Y-86554767D01*
X125659955Y-86593402D01*
X125699222Y-86767639D01*
X125783266Y-86974616D01*
X125899987Y-87165088D01*
X126046250Y-87333938D01*
X126218126Y-87476632D01*
X126285163Y-87515805D01*
X126291445Y-87519476D01*
X126340169Y-87571114D01*
X126353240Y-87640897D01*
X126326509Y-87706669D01*
X126286055Y-87740027D01*
X126273607Y-87746507D01*
X126269474Y-87749610D01*
X126269471Y-87749612D01*
X126148614Y-87840354D01*
X126094965Y-87880635D01*
X126091393Y-87884373D01*
X126002163Y-87977747D01*
X125940629Y-88042138D01*
X125914910Y-88079841D01*
X125860001Y-88124843D01*
X125789476Y-88133015D01*
X125724170Y-88100309D01*
X125689137Y-88067122D01*
X125686695Y-88064744D01*
X116414010Y-78792059D01*
X116401624Y-78777647D01*
X116393091Y-78766052D01*
X116393086Y-78766047D01*
X116388748Y-78760152D01*
X116383170Y-78755413D01*
X116383167Y-78755410D01*
X116348472Y-78725935D01*
X116340956Y-78719005D01*
X116335261Y-78713310D01*
X116315772Y-78697891D01*
X116312989Y-78695689D01*
X116309585Y-78692898D01*
X116259537Y-78650379D01*
X116259535Y-78650378D01*
X116253955Y-78645637D01*
X116247439Y-78642309D01*
X116242390Y-78638942D01*
X116237261Y-78635775D01*
X116231524Y-78631236D01*
X116165365Y-78600315D01*
X116161465Y-78598409D01*
X116096432Y-78565201D01*
X116089324Y-78563462D01*
X116083681Y-78561363D01*
X116077918Y-78559446D01*
X116071290Y-78556348D01*
X115999823Y-78541483D01*
X115995539Y-78540513D01*
X115924630Y-78523162D01*
X115919028Y-78522814D01*
X115919025Y-78522814D01*
X115913476Y-78522470D01*
X115913478Y-78522434D01*
X115909485Y-78522195D01*
X115905293Y-78521821D01*
X115898125Y-78520330D01*
X115834360Y-78522055D01*
X115820719Y-78522424D01*
X115817312Y-78522470D01*
X100839043Y-78522470D01*
X100820093Y-78521037D01*
X100805858Y-78518871D01*
X100805854Y-78518871D01*
X100798624Y-78517771D01*
X100791332Y-78518364D01*
X100791329Y-78518364D01*
X100745955Y-78522055D01*
X100735740Y-78522470D01*
X100727680Y-78522470D01*
X100724046Y-78522894D01*
X100724040Y-78522894D01*
X100711015Y-78524413D01*
X100699453Y-78525761D01*
X100695105Y-78526191D01*
X100622337Y-78532110D01*
X100615376Y-78534365D01*
X100609436Y-78535552D01*
X100603561Y-78536941D01*
X100596292Y-78537788D01*
X100527643Y-78562706D01*
X100523515Y-78564123D01*
X100461037Y-78584363D01*
X100461035Y-78584364D01*
X100454074Y-78586619D01*
X100447819Y-78590415D01*
X100442345Y-78592921D01*
X100436915Y-78595640D01*
X100430036Y-78598137D01*
X100423916Y-78602150D01*
X100423915Y-78602150D01*
X100368997Y-78638156D01*
X100365293Y-78640493D01*
X100302866Y-78678375D01*
X100294489Y-78685773D01*
X100294465Y-78685746D01*
X100291473Y-78688399D01*
X100288240Y-78691102D01*
X100282121Y-78695114D01*
X100252924Y-78725935D01*
X100228845Y-78751353D01*
X100226467Y-78753795D01*
X96501756Y-82478506D01*
X96439444Y-82512532D01*
X96423644Y-82514932D01*
X96291913Y-82526457D01*
X96286600Y-82527881D01*
X96286598Y-82527881D01*
X96076067Y-82584293D01*
X96076065Y-82584294D01*
X96070757Y-82585716D01*
X96065776Y-82588039D01*
X96065775Y-82588039D01*
X95868238Y-82680151D01*
X95868233Y-82680154D01*
X95863251Y-82682477D01*
X95758389Y-82755902D01*
X95680211Y-82810643D01*
X95680208Y-82810645D01*
X95675700Y-82813802D01*
X95513802Y-82975700D01*
X95510645Y-82980208D01*
X95510643Y-82980211D01*
X95455902Y-83058389D01*
X95382477Y-83163251D01*
X95380154Y-83168233D01*
X95380151Y-83168238D01*
X95309488Y-83319777D01*
X95285716Y-83370757D01*
X95284294Y-83376065D01*
X95284293Y-83376067D01*
X95232407Y-83569707D01*
X95226457Y-83591913D01*
X95206502Y-83820000D01*
X95226457Y-84048087D01*
X95227881Y-84053400D01*
X95227881Y-84053402D01*
X95275851Y-84232425D01*
X95285716Y-84269243D01*
X95288039Y-84274224D01*
X95288039Y-84274225D01*
X95380151Y-84471762D01*
X95380154Y-84471767D01*
X95382477Y-84476749D01*
X95385634Y-84481257D01*
X95489078Y-84628990D01*
X95513802Y-84664300D01*
X95675700Y-84826198D01*
X95680208Y-84829355D01*
X95680211Y-84829357D01*
X95720445Y-84857529D01*
X95863251Y-84957523D01*
X95868233Y-84959846D01*
X95868238Y-84959849D01*
X95902457Y-84975805D01*
X95955742Y-85022722D01*
X95975203Y-85090999D01*
X95954661Y-85158959D01*
X95902457Y-85204195D01*
X95868238Y-85220151D01*
X95868233Y-85220154D01*
X95863251Y-85222477D01*
X95758389Y-85295902D01*
X95680211Y-85350643D01*
X95680208Y-85350645D01*
X95675700Y-85353802D01*
X95513802Y-85515700D01*
X95510645Y-85520208D01*
X95510643Y-85520211D01*
X95455902Y-85598389D01*
X95382477Y-85703251D01*
X95380154Y-85708233D01*
X95380151Y-85708238D01*
X95297908Y-85884610D01*
X95285716Y-85910757D01*
X95284294Y-85916065D01*
X95284293Y-85916067D01*
X95232407Y-86109707D01*
X95226457Y-86131913D01*
X95206502Y-86360000D01*
X95226457Y-86588087D01*
X95227881Y-86593400D01*
X95227881Y-86593402D01*
X95275851Y-86772425D01*
X95285716Y-86809243D01*
X95288039Y-86814224D01*
X95288039Y-86814225D01*
X95380151Y-87011762D01*
X95380154Y-87011767D01*
X95382477Y-87016749D01*
X95385634Y-87021257D01*
X95489078Y-87168990D01*
X95513802Y-87204300D01*
X95675700Y-87366198D01*
X95680208Y-87369355D01*
X95680211Y-87369357D01*
X95710068Y-87390263D01*
X95863251Y-87497523D01*
X95868233Y-87499846D01*
X95868238Y-87499849D01*
X95902457Y-87515805D01*
X95955742Y-87562722D01*
X95975203Y-87630999D01*
X95954661Y-87698959D01*
X95902457Y-87744195D01*
X95868238Y-87760151D01*
X95868233Y-87760154D01*
X95863251Y-87762477D01*
X95784018Y-87817957D01*
X95680211Y-87890643D01*
X95680208Y-87890645D01*
X95675700Y-87893802D01*
X95513802Y-88055700D01*
X95510645Y-88060208D01*
X95510643Y-88060211D01*
X95495007Y-88082542D01*
X95382477Y-88243251D01*
X95380154Y-88248233D01*
X95380151Y-88248238D01*
X95302226Y-88415350D01*
X95285716Y-88450757D01*
X95284294Y-88456065D01*
X95284293Y-88456067D01*
X95232407Y-88649707D01*
X95226457Y-88671913D01*
X95206502Y-88900000D01*
X95226457Y-89128087D01*
X95227881Y-89133400D01*
X95227881Y-89133402D01*
X95275851Y-89312425D01*
X95285716Y-89349243D01*
X95288039Y-89354224D01*
X95288039Y-89354225D01*
X95380151Y-89551762D01*
X95380154Y-89551767D01*
X95382477Y-89556749D01*
X95385634Y-89561257D01*
X95489078Y-89708990D01*
X95513802Y-89744300D01*
X95675700Y-89906198D01*
X95680208Y-89909355D01*
X95680211Y-89909357D01*
X95725649Y-89941173D01*
X95863251Y-90037523D01*
X95868233Y-90039846D01*
X95868238Y-90039849D01*
X95902457Y-90055805D01*
X95955742Y-90102722D01*
X95975203Y-90170999D01*
X95954661Y-90238959D01*
X95902457Y-90284195D01*
X95868238Y-90300151D01*
X95868233Y-90300154D01*
X95863251Y-90302477D01*
X95780416Y-90360479D01*
X95680211Y-90430643D01*
X95680208Y-90430645D01*
X95675700Y-90433802D01*
X95513802Y-90595700D01*
X95510645Y-90600208D01*
X95510643Y-90600211D01*
X95500090Y-90615282D01*
X95382477Y-90783251D01*
X95380154Y-90788233D01*
X95380151Y-90788238D01*
X95297908Y-90964610D01*
X95285716Y-90990757D01*
X95284294Y-90996065D01*
X95284293Y-90996067D01*
X95232407Y-91189707D01*
X95226457Y-91211913D01*
X95206502Y-91440000D01*
X95226457Y-91668087D01*
X95227881Y-91673400D01*
X95227881Y-91673402D01*
X95275851Y-91852425D01*
X95285716Y-91889243D01*
X95288039Y-91894224D01*
X95288039Y-91894225D01*
X95380151Y-92091762D01*
X95380154Y-92091767D01*
X95382477Y-92096749D01*
X95385634Y-92101257D01*
X95489078Y-92248990D01*
X95513802Y-92284300D01*
X95675700Y-92446198D01*
X95680208Y-92449355D01*
X95680211Y-92449357D01*
X95725649Y-92481173D01*
X95863251Y-92577523D01*
X95868233Y-92579846D01*
X95868238Y-92579849D01*
X95902457Y-92595805D01*
X95955742Y-92642722D01*
X95975203Y-92710999D01*
X95954661Y-92778959D01*
X95902457Y-92824195D01*
X95868238Y-92840151D01*
X95868233Y-92840154D01*
X95863251Y-92842477D01*
X95764679Y-92911498D01*
X95680211Y-92970643D01*
X95680208Y-92970645D01*
X95675700Y-92973802D01*
X95513802Y-93135700D01*
X95510645Y-93140208D01*
X95510643Y-93140211D01*
X95455902Y-93218389D01*
X95382477Y-93323251D01*
X95380154Y-93328233D01*
X95380151Y-93328238D01*
X95297908Y-93504610D01*
X95285716Y-93530757D01*
X95284294Y-93536065D01*
X95284293Y-93536067D01*
X95232407Y-93729707D01*
X95226457Y-93751913D01*
X95206502Y-93980000D01*
X95226457Y-94208087D01*
X95227881Y-94213400D01*
X95227881Y-94213402D01*
X95241155Y-94262939D01*
X95285716Y-94429243D01*
X95288039Y-94434224D01*
X95288039Y-94434225D01*
X95380151Y-94631762D01*
X95380154Y-94631767D01*
X95382477Y-94636749D01*
X95513802Y-94824300D01*
X95675700Y-94986198D01*
X95680208Y-94989355D01*
X95680211Y-94989357D01*
X95703326Y-95005542D01*
X95863251Y-95117523D01*
X95868233Y-95119846D01*
X95868238Y-95119849D01*
X95902457Y-95135805D01*
X95955742Y-95182722D01*
X95975203Y-95250999D01*
X95954661Y-95318959D01*
X95902457Y-95364195D01*
X95868238Y-95380151D01*
X95868233Y-95380154D01*
X95863251Y-95382477D01*
X95778434Y-95441867D01*
X95680211Y-95510643D01*
X95680208Y-95510645D01*
X95675700Y-95513802D01*
X95513802Y-95675700D01*
X95510645Y-95680208D01*
X95510643Y-95680211D01*
X95500090Y-95695282D01*
X95382477Y-95863251D01*
X95380154Y-95868233D01*
X95380151Y-95868238D01*
X95288039Y-96065775D01*
X95285716Y-96070757D01*
X95284294Y-96076065D01*
X95284293Y-96076067D01*
X95231138Y-96274442D01*
X95226457Y-96291913D01*
X95206502Y-96520000D01*
X95226457Y-96748087D01*
X95227881Y-96753400D01*
X95227881Y-96753402D01*
X95241155Y-96802939D01*
X95285716Y-96969243D01*
X95288039Y-96974224D01*
X95288039Y-96974225D01*
X95380151Y-97171762D01*
X95380154Y-97171767D01*
X95382477Y-97176749D01*
X95513802Y-97364300D01*
X95675700Y-97526198D01*
X95680211Y-97529357D01*
X95684424Y-97532892D01*
X95683473Y-97534026D01*
X95723471Y-97584071D01*
X95730776Y-97654690D01*
X95698742Y-97718049D01*
X95637538Y-97754030D01*
X95620483Y-97757082D01*
X95609684Y-97758255D01*
X95473295Y-97809385D01*
X95356739Y-97896739D01*
X95269385Y-98013295D01*
X95218255Y-98149684D01*
X95211500Y-98211866D01*
X95211500Y-99908134D01*
X95218255Y-99970316D01*
X95269385Y-100106705D01*
X95356739Y-100223261D01*
X95473295Y-100310615D01*
X95609684Y-100361745D01*
X95636914Y-100364703D01*
X95649108Y-100366028D01*
X95714670Y-100393270D01*
X95755096Y-100451634D01*
X95761500Y-100491291D01*
X95761500Y-101532930D01*
X95760067Y-101551880D01*
X95756801Y-101573349D01*
X95757394Y-101580641D01*
X95757394Y-101580644D01*
X95761085Y-101626018D01*
X95761500Y-101636233D01*
X95761500Y-101644293D01*
X95761925Y-101647937D01*
X95764789Y-101672507D01*
X95765222Y-101676882D01*
X95771140Y-101749637D01*
X95773396Y-101756601D01*
X95774587Y-101762560D01*
X95775971Y-101768415D01*
X95776818Y-101775681D01*
X95801735Y-101844327D01*
X95803152Y-101848455D01*
X95825649Y-101917899D01*
X95829445Y-101924154D01*
X95831951Y-101929628D01*
X95834670Y-101935058D01*
X95837167Y-101941937D01*
X95841180Y-101948057D01*
X95841180Y-101948058D01*
X95877186Y-102002976D01*
X95879523Y-102006680D01*
X95917405Y-102069107D01*
X95921121Y-102073315D01*
X95921122Y-102073316D01*
X95924803Y-102077484D01*
X95924776Y-102077508D01*
X95927429Y-102080500D01*
X95930132Y-102083733D01*
X95934144Y-102089852D01*
X95939456Y-102094884D01*
X95990383Y-102143128D01*
X95992825Y-102145506D01*
X100219449Y-106372130D01*
X100253475Y-106434442D01*
X100255641Y-106474613D01*
X100237251Y-106646695D01*
X100237548Y-106651848D01*
X100237548Y-106651851D01*
X100243011Y-106746590D01*
X100250110Y-106869715D01*
X100251247Y-106874761D01*
X100251248Y-106874767D01*
X100271119Y-106962939D01*
X100299222Y-107087639D01*
X100337461Y-107181811D01*
X100362524Y-107243533D01*
X100383266Y-107294616D01*
X100499987Y-107485088D01*
X100646250Y-107653938D01*
X100818126Y-107796632D01*
X100888595Y-107837811D01*
X100891445Y-107839476D01*
X100940169Y-107891114D01*
X100953240Y-107960897D01*
X100926509Y-108026669D01*
X100886055Y-108060027D01*
X100873607Y-108066507D01*
X100869474Y-108069610D01*
X100869471Y-108069612D01*
X100848132Y-108085634D01*
X100694965Y-108200635D01*
X100540629Y-108362138D01*
X100537715Y-108366410D01*
X100537714Y-108366411D01*
X100528300Y-108380211D01*
X100414743Y-108546680D01*
X100320688Y-108749305D01*
X100260989Y-108964570D01*
X100237251Y-109186695D01*
X100237548Y-109191848D01*
X100237548Y-109191851D01*
X100238978Y-109216646D01*
X100250110Y-109409715D01*
X100251247Y-109414760D01*
X100251966Y-109419877D01*
X100250518Y-109420081D01*
X100246398Y-109484274D01*
X100217119Y-109530200D01*
X98782724Y-110964595D01*
X98720412Y-110998621D01*
X98693629Y-111001500D01*
X97651867Y-111001500D01*
X97583746Y-110981498D01*
X97548655Y-110947772D01*
X97526198Y-110915700D01*
X97364300Y-110753802D01*
X97359792Y-110750645D01*
X97359789Y-110750643D01*
X97259584Y-110680479D01*
X97176749Y-110622477D01*
X97171767Y-110620154D01*
X97171762Y-110620151D01*
X96974225Y-110528039D01*
X96974224Y-110528039D01*
X96969243Y-110525716D01*
X96963935Y-110524294D01*
X96963933Y-110524293D01*
X96753402Y-110467881D01*
X96753400Y-110467881D01*
X96748087Y-110466457D01*
X96520000Y-110446502D01*
X96291913Y-110466457D01*
X96286600Y-110467881D01*
X96286598Y-110467881D01*
X96076067Y-110524293D01*
X96076065Y-110524294D01*
X96070757Y-110525716D01*
X96065776Y-110528039D01*
X96065775Y-110528039D01*
X95868238Y-110620151D01*
X95868233Y-110620154D01*
X95863251Y-110622477D01*
X95780416Y-110680479D01*
X95680211Y-110750643D01*
X95680208Y-110750645D01*
X95675700Y-110753802D01*
X95513802Y-110915700D01*
X95382477Y-111103251D01*
X95380154Y-111108233D01*
X95380151Y-111108238D01*
X95297908Y-111284610D01*
X95285716Y-111310757D01*
X95284294Y-111316065D01*
X95284293Y-111316067D01*
X95232407Y-111509707D01*
X95226457Y-111531913D01*
X95206502Y-111760000D01*
X95226457Y-111988087D01*
X95227881Y-111993400D01*
X95227881Y-111993402D01*
X95275851Y-112172425D01*
X95285716Y-112209243D01*
X95288039Y-112214224D01*
X95288039Y-112214225D01*
X95380151Y-112411762D01*
X95380154Y-112411767D01*
X95382477Y-112416749D01*
X95451421Y-112515211D01*
X95489078Y-112568990D01*
X95513802Y-112604300D01*
X95675700Y-112766198D01*
X95680208Y-112769355D01*
X95680211Y-112769357D01*
X95720445Y-112797529D01*
X95863251Y-112897523D01*
X95868233Y-112899846D01*
X95868238Y-112899849D01*
X95902457Y-112915805D01*
X95955742Y-112962722D01*
X95975203Y-113030999D01*
X95954661Y-113098959D01*
X95902457Y-113144195D01*
X95868238Y-113160151D01*
X95868233Y-113160154D01*
X95863251Y-113162477D01*
X95758389Y-113235902D01*
X95680211Y-113290643D01*
X95680208Y-113290645D01*
X95675700Y-113293802D01*
X95513802Y-113455700D01*
X95510645Y-113460208D01*
X95510643Y-113460211D01*
X95492233Y-113486504D01*
X95382477Y-113643251D01*
X95380154Y-113648233D01*
X95380151Y-113648238D01*
X95297908Y-113824610D01*
X95285716Y-113850757D01*
X95284294Y-113856065D01*
X95284293Y-113856067D01*
X95232407Y-114049707D01*
X95226457Y-114071913D01*
X95206502Y-114300000D01*
X95226457Y-114528087D01*
X95227881Y-114533400D01*
X95227881Y-114533402D01*
X95275851Y-114712425D01*
X95285716Y-114749243D01*
X95288039Y-114754224D01*
X95288039Y-114754225D01*
X95380151Y-114951762D01*
X95380154Y-114951767D01*
X95382477Y-114956749D01*
X95385634Y-114961257D01*
X95489078Y-115108990D01*
X95513802Y-115144300D01*
X95675700Y-115306198D01*
X95680208Y-115309355D01*
X95680211Y-115309357D01*
X95720445Y-115337529D01*
X95863251Y-115437523D01*
X95868233Y-115439846D01*
X95868238Y-115439849D01*
X95902457Y-115455805D01*
X95955742Y-115502722D01*
X95975203Y-115570999D01*
X95954661Y-115638959D01*
X95902457Y-115684195D01*
X95868238Y-115700151D01*
X95868233Y-115700154D01*
X95863251Y-115702477D01*
X95758389Y-115775902D01*
X95680211Y-115830643D01*
X95680208Y-115830645D01*
X95675700Y-115833802D01*
X95513802Y-115995700D01*
X95510645Y-116000208D01*
X95510643Y-116000211D01*
X95455902Y-116078389D01*
X95382477Y-116183251D01*
X95380154Y-116188233D01*
X95380151Y-116188238D01*
X95297908Y-116364610D01*
X95285716Y-116390757D01*
X95284294Y-116396065D01*
X95284293Y-116396067D01*
X95232407Y-116589707D01*
X95226457Y-116611913D01*
X95206502Y-116840000D01*
X95226457Y-117068087D01*
X95227881Y-117073400D01*
X95227881Y-117073402D01*
X95275851Y-117252425D01*
X95285716Y-117289243D01*
X95288039Y-117294224D01*
X95288039Y-117294225D01*
X95380151Y-117491762D01*
X95380154Y-117491767D01*
X95382477Y-117496749D01*
X95385634Y-117501257D01*
X95489078Y-117648990D01*
X95513802Y-117684300D01*
X95675700Y-117846198D01*
X95680208Y-117849355D01*
X95680211Y-117849357D01*
X95720445Y-117877529D01*
X95863251Y-117977523D01*
X95868233Y-117979846D01*
X95868238Y-117979849D01*
X95902457Y-117995805D01*
X95955742Y-118042722D01*
X95975203Y-118110999D01*
X95954661Y-118178959D01*
X95902457Y-118224195D01*
X95868238Y-118240151D01*
X95868233Y-118240154D01*
X95863251Y-118242477D01*
X95810851Y-118279168D01*
X95680211Y-118370643D01*
X95680208Y-118370645D01*
X95675700Y-118373802D01*
X95513802Y-118535700D01*
X95510645Y-118540208D01*
X95510643Y-118540211D01*
X95455902Y-118618389D01*
X95382477Y-118723251D01*
X95380154Y-118728233D01*
X95380151Y-118728238D01*
X95297908Y-118904610D01*
X95285716Y-118930757D01*
X95284294Y-118936065D01*
X95284293Y-118936067D01*
X95232407Y-119129707D01*
X95226457Y-119151913D01*
X95206502Y-119380000D01*
X95226457Y-119608087D01*
X95227881Y-119613400D01*
X95227881Y-119613402D01*
X95275851Y-119792425D01*
X95285716Y-119829243D01*
X95288039Y-119834224D01*
X95288039Y-119834225D01*
X95380151Y-120031762D01*
X95380154Y-120031767D01*
X95382477Y-120036749D01*
X95410968Y-120077438D01*
X95489078Y-120188990D01*
X95513802Y-120224300D01*
X95675700Y-120386198D01*
X95680208Y-120389355D01*
X95680211Y-120389357D01*
X95720445Y-120417529D01*
X95863251Y-120517523D01*
X95868233Y-120519846D01*
X95868238Y-120519849D01*
X95902457Y-120535805D01*
X95955742Y-120582722D01*
X95975203Y-120650999D01*
X95954661Y-120718959D01*
X95902457Y-120764195D01*
X95868238Y-120780151D01*
X95868233Y-120780154D01*
X95863251Y-120782477D01*
X95758389Y-120855902D01*
X95680211Y-120910643D01*
X95680208Y-120910645D01*
X95675700Y-120913802D01*
X95513802Y-121075700D01*
X95510645Y-121080208D01*
X95510643Y-121080211D01*
X95462325Y-121149217D01*
X95382477Y-121263251D01*
X95380154Y-121268233D01*
X95380151Y-121268238D01*
X95331101Y-121373428D01*
X95285716Y-121470757D01*
X95284294Y-121476065D01*
X95284293Y-121476067D01*
X95232407Y-121669707D01*
X95226457Y-121691913D01*
X95206502Y-121920000D01*
X95226457Y-122148087D01*
X95227881Y-122153400D01*
X95227881Y-122153402D01*
X95275851Y-122332425D01*
X95285716Y-122369243D01*
X95288039Y-122374224D01*
X95288039Y-122374225D01*
X95380151Y-122571762D01*
X95380154Y-122571767D01*
X95382477Y-122576749D01*
X95385634Y-122581257D01*
X95489078Y-122728990D01*
X95513802Y-122764300D01*
X95675700Y-122926198D01*
X95680208Y-122929355D01*
X95680211Y-122929357D01*
X95707303Y-122948327D01*
X95863251Y-123057523D01*
X95868233Y-123059846D01*
X95868238Y-123059849D01*
X95902457Y-123075805D01*
X95955742Y-123122722D01*
X95975203Y-123190999D01*
X95954661Y-123258959D01*
X95902457Y-123304195D01*
X95868238Y-123320151D01*
X95868233Y-123320154D01*
X95863251Y-123322477D01*
X95758389Y-123395902D01*
X95680211Y-123450643D01*
X95680208Y-123450645D01*
X95675700Y-123453802D01*
X95513802Y-123615700D01*
X95510645Y-123620208D01*
X95510643Y-123620211D01*
X95455902Y-123698389D01*
X95382477Y-123803251D01*
X95380154Y-123808233D01*
X95380151Y-123808238D01*
X95297908Y-123984610D01*
X95285716Y-124010757D01*
X95284294Y-124016065D01*
X95284293Y-124016067D01*
X95232407Y-124209707D01*
X95226457Y-124231913D01*
X95206502Y-124460000D01*
X95226457Y-124688087D01*
X95227881Y-124693400D01*
X95227881Y-124693402D01*
X95275851Y-124872425D01*
X95285716Y-124909243D01*
X95288039Y-124914224D01*
X95288039Y-124914225D01*
X95380151Y-125111762D01*
X95380154Y-125111767D01*
X95382477Y-125116749D01*
X95385634Y-125121257D01*
X95489078Y-125268990D01*
X95513802Y-125304300D01*
X95675700Y-125466198D01*
X95680211Y-125469357D01*
X95684424Y-125472892D01*
X95683473Y-125474026D01*
X95723471Y-125524071D01*
X95730776Y-125594690D01*
X95698742Y-125658049D01*
X95637538Y-125694030D01*
X95620483Y-125697082D01*
X95609684Y-125698255D01*
X95473295Y-125749385D01*
X95356739Y-125836739D01*
X95269385Y-125953295D01*
X95218255Y-126089684D01*
X95211500Y-126151866D01*
X95211500Y-127848134D01*
X95218255Y-127910316D01*
X95269385Y-128046705D01*
X95356739Y-128163261D01*
X95473295Y-128250615D01*
X95609684Y-128301745D01*
X95671866Y-128308500D01*
X97368134Y-128308500D01*
X97430316Y-128301745D01*
X97566705Y-128250615D01*
X97683261Y-128163261D01*
X97770615Y-128046705D01*
X97821745Y-127910316D01*
X97828500Y-127848134D01*
X97828500Y-126151866D01*
X97821745Y-126089684D01*
X97770615Y-125953295D01*
X97683261Y-125836739D01*
X97566705Y-125749385D01*
X97430316Y-125698255D01*
X97419526Y-125697083D01*
X97417394Y-125696197D01*
X97414778Y-125695575D01*
X97414879Y-125695152D01*
X97353965Y-125669845D01*
X97313537Y-125611483D01*
X97311078Y-125540529D01*
X97347371Y-125479510D01*
X97356031Y-125472511D01*
X97359793Y-125469354D01*
X97364300Y-125466198D01*
X97526198Y-125304300D01*
X97550923Y-125268990D01*
X97654366Y-125121257D01*
X97657523Y-125116749D01*
X97659846Y-125111767D01*
X97659849Y-125111762D01*
X97751961Y-124914225D01*
X97751961Y-124914224D01*
X97754284Y-124909243D01*
X97764150Y-124872425D01*
X97812119Y-124693402D01*
X97812119Y-124693400D01*
X97813543Y-124688087D01*
X97833498Y-124460000D01*
X97813543Y-124231913D01*
X97807593Y-124209707D01*
X97755707Y-124016067D01*
X97755706Y-124016065D01*
X97754284Y-124010757D01*
X97742092Y-123984610D01*
X97659849Y-123808238D01*
X97659846Y-123808233D01*
X97657523Y-123803251D01*
X97584098Y-123698389D01*
X97529357Y-123620211D01*
X97529355Y-123620208D01*
X97526198Y-123615700D01*
X97364300Y-123453802D01*
X97359792Y-123450645D01*
X97359789Y-123450643D01*
X97281611Y-123395902D01*
X97176749Y-123322477D01*
X97171767Y-123320154D01*
X97171762Y-123320151D01*
X97137543Y-123304195D01*
X97084258Y-123257278D01*
X97064797Y-123189001D01*
X97085339Y-123121041D01*
X97137543Y-123075805D01*
X97171762Y-123059849D01*
X97171767Y-123059846D01*
X97176749Y-123057523D01*
X97332697Y-122948327D01*
X97359789Y-122929357D01*
X97359792Y-122929355D01*
X97364300Y-122926198D01*
X97526198Y-122764300D01*
X97550923Y-122728990D01*
X97654366Y-122581257D01*
X97657523Y-122576749D01*
X97659846Y-122571767D01*
X97659849Y-122571762D01*
X97751961Y-122374225D01*
X97751961Y-122374224D01*
X97754284Y-122369243D01*
X97764150Y-122332425D01*
X97812119Y-122153402D01*
X97812119Y-122153400D01*
X97813543Y-122148087D01*
X97822323Y-122047733D01*
X97848187Y-121981615D01*
X97905690Y-121939976D01*
X97976577Y-121936035D01*
X98036939Y-121969620D01*
X100219449Y-124152130D01*
X100253475Y-124214442D01*
X100255641Y-124254613D01*
X100237251Y-124426695D01*
X100237548Y-124431848D01*
X100237548Y-124431851D01*
X100243011Y-124526590D01*
X100250110Y-124649715D01*
X100251247Y-124654761D01*
X100251248Y-124654767D01*
X100259955Y-124693402D01*
X100299222Y-124867639D01*
X100383266Y-125074616D01*
X100499987Y-125265088D01*
X100646250Y-125433938D01*
X100818126Y-125576632D01*
X101011000Y-125689338D01*
X101015825Y-125691180D01*
X101015826Y-125691181D01*
X101051415Y-125704771D01*
X101219692Y-125769030D01*
X101224760Y-125770061D01*
X101224763Y-125770062D01*
X101306734Y-125786739D01*
X101438597Y-125813567D01*
X101443772Y-125813757D01*
X101443774Y-125813757D01*
X101656673Y-125821564D01*
X101656677Y-125821564D01*
X101661837Y-125821753D01*
X101666957Y-125821097D01*
X101666959Y-125821097D01*
X101878288Y-125794025D01*
X101878289Y-125794025D01*
X101883416Y-125793368D01*
X101888366Y-125791883D01*
X102092429Y-125730661D01*
X102092434Y-125730659D01*
X102097384Y-125729174D01*
X102297994Y-125630896D01*
X102479860Y-125501173D01*
X102508623Y-125472511D01*
X102634435Y-125347137D01*
X102638096Y-125343489D01*
X102669498Y-125299789D01*
X102765435Y-125166277D01*
X102768453Y-125162077D01*
X102788628Y-125121257D01*
X102865136Y-124966453D01*
X102865137Y-124966451D01*
X102867430Y-124961811D01*
X102932370Y-124748069D01*
X102961529Y-124526590D01*
X102963156Y-124460000D01*
X102944852Y-124237361D01*
X102890431Y-124020702D01*
X102801354Y-123815840D01*
X102680014Y-123628277D01*
X102529670Y-123463051D01*
X102525619Y-123459852D01*
X102525615Y-123459848D01*
X102358414Y-123327800D01*
X102358410Y-123327798D01*
X102354359Y-123324598D01*
X102313053Y-123301796D01*
X102263084Y-123251364D01*
X102248312Y-123181921D01*
X102273428Y-123115516D01*
X102300780Y-123088909D01*
X102364009Y-123043808D01*
X102479860Y-122961173D01*
X102511788Y-122929357D01*
X102634435Y-122807137D01*
X102638096Y-122803489D01*
X102669498Y-122759789D01*
X102765435Y-122626277D01*
X102768453Y-122622077D01*
X102788628Y-122581257D01*
X102865136Y-122426453D01*
X102865137Y-122426451D01*
X102867430Y-122421811D01*
X102912658Y-122272949D01*
X102930865Y-122213023D01*
X102930865Y-122213021D01*
X102932370Y-122208069D01*
X102961529Y-121986590D01*
X102963156Y-121920000D01*
X102944852Y-121697361D01*
X102890431Y-121480702D01*
X102801354Y-121275840D01*
X102680014Y-121088277D01*
X102529670Y-120923051D01*
X102525619Y-120919852D01*
X102525615Y-120919848D01*
X102358414Y-120787800D01*
X102358410Y-120787798D01*
X102354359Y-120784598D01*
X102313053Y-120761796D01*
X102263084Y-120711364D01*
X102248312Y-120641921D01*
X102273428Y-120575516D01*
X102300780Y-120548909D01*
X102364737Y-120503289D01*
X102479860Y-120421173D01*
X102511788Y-120389357D01*
X102613290Y-120288208D01*
X102638096Y-120263489D01*
X102669498Y-120219789D01*
X102765435Y-120086277D01*
X102768453Y-120082077D01*
X102788628Y-120041257D01*
X102865136Y-119886453D01*
X102865137Y-119886451D01*
X102867430Y-119881811D01*
X102932370Y-119668069D01*
X102961529Y-119446590D01*
X102963156Y-119380000D01*
X102944852Y-119157361D01*
X102890431Y-118940702D01*
X102801354Y-118735840D01*
X102680014Y-118548277D01*
X102529670Y-118383051D01*
X102525619Y-118379852D01*
X102525615Y-118379848D01*
X102358414Y-118247800D01*
X102358410Y-118247798D01*
X102354359Y-118244598D01*
X102313053Y-118221796D01*
X102263084Y-118171364D01*
X102248312Y-118101921D01*
X102273428Y-118035516D01*
X102300780Y-118008909D01*
X102349207Y-117974366D01*
X102479860Y-117881173D01*
X102511788Y-117849357D01*
X102634435Y-117727137D01*
X102638096Y-117723489D01*
X102669498Y-117679789D01*
X102765435Y-117546277D01*
X102768453Y-117542077D01*
X102788628Y-117501257D01*
X102865136Y-117346453D01*
X102865137Y-117346451D01*
X102867430Y-117341811D01*
X102932370Y-117128069D01*
X102961529Y-116906590D01*
X102963156Y-116840000D01*
X102944852Y-116617361D01*
X102890431Y-116400702D01*
X102801354Y-116195840D01*
X102680014Y-116008277D01*
X102529670Y-115843051D01*
X102525619Y-115839852D01*
X102525615Y-115839848D01*
X102358414Y-115707800D01*
X102358410Y-115707798D01*
X102354359Y-115704598D01*
X102313053Y-115681796D01*
X102263084Y-115631364D01*
X102248312Y-115561921D01*
X102273428Y-115495516D01*
X102300780Y-115468909D01*
X102352991Y-115431667D01*
X102479860Y-115341173D01*
X102511788Y-115309357D01*
X102634435Y-115187137D01*
X102638096Y-115183489D01*
X102669498Y-115139789D01*
X102765435Y-115006277D01*
X102768453Y-115002077D01*
X102788628Y-114961257D01*
X102865136Y-114806453D01*
X102865137Y-114806451D01*
X102867430Y-114801811D01*
X102932370Y-114588069D01*
X102961529Y-114366590D01*
X102963156Y-114300000D01*
X102944852Y-114077361D01*
X102890431Y-113860702D01*
X102801354Y-113655840D01*
X102727384Y-113541500D01*
X102682822Y-113472617D01*
X102682820Y-113472614D01*
X102680014Y-113468277D01*
X102529670Y-113303051D01*
X102525619Y-113299852D01*
X102525615Y-113299848D01*
X102358414Y-113167800D01*
X102358410Y-113167798D01*
X102354359Y-113164598D01*
X102346304Y-113160151D01*
X102256474Y-113110563D01*
X102158789Y-113056638D01*
X102153920Y-113054914D01*
X102153916Y-113054912D01*
X101953087Y-112983795D01*
X101953083Y-112983794D01*
X101948212Y-112982069D01*
X101943119Y-112981162D01*
X101943116Y-112981161D01*
X101733373Y-112943800D01*
X101733367Y-112943799D01*
X101728284Y-112942894D01*
X101654452Y-112941992D01*
X101510081Y-112940228D01*
X101510079Y-112940228D01*
X101504911Y-112940165D01*
X101284091Y-112973955D01*
X101071756Y-113043357D01*
X100873607Y-113146507D01*
X100869474Y-113149610D01*
X100869471Y-113149612D01*
X100707134Y-113271498D01*
X100694965Y-113280635D01*
X100540629Y-113442138D01*
X100510363Y-113486507D01*
X100455455Y-113531507D01*
X100406277Y-113541500D01*
X97651867Y-113541500D01*
X97583746Y-113521498D01*
X97548655Y-113487772D01*
X97526198Y-113455700D01*
X97364300Y-113293802D01*
X97359792Y-113290645D01*
X97359789Y-113290643D01*
X97281611Y-113235902D01*
X97176749Y-113162477D01*
X97171767Y-113160154D01*
X97171762Y-113160151D01*
X97137543Y-113144195D01*
X97084258Y-113097278D01*
X97064797Y-113029001D01*
X97085339Y-112961041D01*
X97137543Y-112915805D01*
X97171762Y-112899849D01*
X97171767Y-112899846D01*
X97176749Y-112897523D01*
X97319555Y-112797529D01*
X97359789Y-112769357D01*
X97359792Y-112769355D01*
X97364300Y-112766198D01*
X97526198Y-112604300D01*
X97548655Y-112572229D01*
X97604110Y-112527901D01*
X97651867Y-112518500D01*
X98992930Y-112518500D01*
X99011880Y-112519933D01*
X99026115Y-112522099D01*
X99026119Y-112522099D01*
X99033349Y-112523199D01*
X99040641Y-112522606D01*
X99040644Y-112522606D01*
X99086018Y-112518915D01*
X99096233Y-112518500D01*
X99104293Y-112518500D01*
X99117583Y-112516951D01*
X99132507Y-112515211D01*
X99136882Y-112514778D01*
X99202339Y-112509454D01*
X99202342Y-112509453D01*
X99209637Y-112508860D01*
X99216601Y-112506604D01*
X99222560Y-112505413D01*
X99228415Y-112504029D01*
X99235681Y-112503182D01*
X99304327Y-112478265D01*
X99308455Y-112476848D01*
X99370936Y-112456607D01*
X99370938Y-112456606D01*
X99377899Y-112454351D01*
X99384154Y-112450555D01*
X99389628Y-112448049D01*
X99395058Y-112445330D01*
X99401937Y-112442833D01*
X99434846Y-112421257D01*
X99462976Y-112402814D01*
X99466680Y-112400477D01*
X99529107Y-112362595D01*
X99537484Y-112355197D01*
X99537508Y-112355224D01*
X99540500Y-112352571D01*
X99543733Y-112349868D01*
X99549852Y-112345856D01*
X99603128Y-112289617D01*
X99605506Y-112287175D01*
X101291441Y-110601240D01*
X101353753Y-110567214D01*
X101405657Y-110566865D01*
X101438597Y-110573567D01*
X101443772Y-110573757D01*
X101443774Y-110573757D01*
X101656673Y-110581564D01*
X101656677Y-110581564D01*
X101661837Y-110581753D01*
X101666957Y-110581097D01*
X101666959Y-110581097D01*
X101878288Y-110554025D01*
X101878289Y-110554025D01*
X101883416Y-110553368D01*
X101894199Y-110550133D01*
X102092429Y-110490661D01*
X102092434Y-110490659D01*
X102097384Y-110489174D01*
X102297994Y-110390896D01*
X102479860Y-110261173D01*
X102511788Y-110229357D01*
X102618621Y-110122896D01*
X102638096Y-110103489D01*
X102651551Y-110084765D01*
X102765435Y-109926277D01*
X102768453Y-109922077D01*
X102788628Y-109881257D01*
X102865136Y-109726453D01*
X102865137Y-109726451D01*
X102867430Y-109721811D01*
X102932370Y-109508069D01*
X102961529Y-109286590D01*
X102963156Y-109220000D01*
X102944852Y-108997361D01*
X102890431Y-108780702D01*
X102801354Y-108575840D01*
X102680014Y-108388277D01*
X102529670Y-108223051D01*
X102525619Y-108219852D01*
X102525615Y-108219848D01*
X102358414Y-108087800D01*
X102358410Y-108087798D01*
X102354359Y-108084598D01*
X102313053Y-108061796D01*
X102263084Y-108011364D01*
X102248312Y-107941921D01*
X102273428Y-107875516D01*
X102300780Y-107848909D01*
X102344603Y-107817650D01*
X102479860Y-107721173D01*
X102638096Y-107563489D01*
X102697594Y-107480689D01*
X102765435Y-107386277D01*
X102768453Y-107382077D01*
X102778407Y-107361938D01*
X102865136Y-107186453D01*
X102865137Y-107186451D01*
X102867430Y-107181811D01*
X102932370Y-106968069D01*
X102961529Y-106746590D01*
X102961611Y-106743240D01*
X102963074Y-106683365D01*
X102963074Y-106683361D01*
X102963156Y-106680000D01*
X102944852Y-106457361D01*
X102890431Y-106240702D01*
X102801354Y-106035840D01*
X102680014Y-105848277D01*
X102529670Y-105683051D01*
X102525619Y-105679852D01*
X102525615Y-105679848D01*
X102358414Y-105547800D01*
X102358410Y-105547798D01*
X102354359Y-105544598D01*
X102313053Y-105521796D01*
X102263084Y-105471364D01*
X102248312Y-105401921D01*
X102273428Y-105335516D01*
X102300780Y-105308909D01*
X102349020Y-105274500D01*
X102479860Y-105181173D01*
X102492576Y-105168502D01*
X102634435Y-105027137D01*
X102638096Y-105023489D01*
X102697594Y-104940689D01*
X102765435Y-104846277D01*
X102768453Y-104842077D01*
X102788628Y-104801257D01*
X102865136Y-104646453D01*
X102865137Y-104646451D01*
X102867430Y-104641811D01*
X102899985Y-104534659D01*
X102930865Y-104433023D01*
X102930865Y-104433021D01*
X102932370Y-104428069D01*
X102961529Y-104206590D01*
X102963156Y-104140000D01*
X102944852Y-103917361D01*
X102890431Y-103700702D01*
X102801354Y-103495840D01*
X102730773Y-103386738D01*
X102682822Y-103312617D01*
X102682820Y-103312614D01*
X102680014Y-103308277D01*
X102529670Y-103143051D01*
X102525619Y-103139852D01*
X102525615Y-103139848D01*
X102358414Y-103007800D01*
X102358410Y-103007798D01*
X102354359Y-103004598D01*
X102313053Y-102981796D01*
X102263084Y-102931364D01*
X102248312Y-102861921D01*
X102273428Y-102795516D01*
X102300780Y-102768909D01*
X102364009Y-102723808D01*
X102479860Y-102641173D01*
X102638096Y-102483489D01*
X102697594Y-102400689D01*
X102765435Y-102306277D01*
X102768453Y-102302077D01*
X102799748Y-102238757D01*
X102865136Y-102106453D01*
X102865137Y-102106451D01*
X102867430Y-102101811D01*
X102914144Y-101948058D01*
X102930865Y-101893023D01*
X102930865Y-101893021D01*
X102932370Y-101888069D01*
X102961529Y-101666590D01*
X102963156Y-101600000D01*
X102944852Y-101377361D01*
X102890431Y-101160702D01*
X102801354Y-100955840D01*
X102680014Y-100768277D01*
X102529670Y-100603051D01*
X102525619Y-100599852D01*
X102525615Y-100599848D01*
X102358414Y-100467800D01*
X102358410Y-100467798D01*
X102354359Y-100464598D01*
X102313053Y-100441796D01*
X102263084Y-100391364D01*
X102248312Y-100321921D01*
X102273428Y-100255516D01*
X102300780Y-100228909D01*
X102407948Y-100152467D01*
X102479860Y-100101173D01*
X102511788Y-100069357D01*
X102596033Y-99985405D01*
X102638096Y-99943489D01*
X102669498Y-99899789D01*
X102765435Y-99766277D01*
X102768453Y-99762077D01*
X102788628Y-99721257D01*
X102865136Y-99566453D01*
X102865137Y-99566451D01*
X102867430Y-99561811D01*
X102932370Y-99348069D01*
X102961529Y-99126590D01*
X102962405Y-99090757D01*
X102963074Y-99063365D01*
X102963074Y-99063361D01*
X102963156Y-99060000D01*
X102944852Y-98837361D01*
X102890431Y-98620702D01*
X102801354Y-98415840D01*
X102680014Y-98228277D01*
X102529670Y-98063051D01*
X102525619Y-98059852D01*
X102525615Y-98059848D01*
X102358414Y-97927800D01*
X102358410Y-97927798D01*
X102354359Y-97924598D01*
X102313053Y-97901796D01*
X102263084Y-97851364D01*
X102248312Y-97781921D01*
X102273428Y-97715516D01*
X102300780Y-97688909D01*
X102349207Y-97654366D01*
X102479860Y-97561173D01*
X102511788Y-97529357D01*
X102634435Y-97407137D01*
X102638096Y-97403489D01*
X102669498Y-97359789D01*
X102765435Y-97226277D01*
X102768453Y-97222077D01*
X102788628Y-97181257D01*
X102865136Y-97026453D01*
X102865137Y-97026451D01*
X102867430Y-97021811D01*
X102932370Y-96808069D01*
X102961529Y-96586590D01*
X102963156Y-96520000D01*
X102944852Y-96297361D01*
X102890431Y-96080702D01*
X102801354Y-95875840D01*
X102680014Y-95688277D01*
X102529670Y-95523051D01*
X102525619Y-95519852D01*
X102525615Y-95519848D01*
X102358414Y-95387800D01*
X102358410Y-95387798D01*
X102354359Y-95384598D01*
X102313053Y-95361796D01*
X102263084Y-95311364D01*
X102248312Y-95241921D01*
X102273428Y-95175516D01*
X102300780Y-95148909D01*
X102352991Y-95111667D01*
X102479860Y-95021173D01*
X102511788Y-94989357D01*
X102634435Y-94867137D01*
X102638096Y-94863489D01*
X102669498Y-94819789D01*
X102765435Y-94686277D01*
X102768453Y-94682077D01*
X102788628Y-94641257D01*
X102865136Y-94486453D01*
X102865137Y-94486451D01*
X102867430Y-94481811D01*
X102932370Y-94268069D01*
X102961529Y-94046590D01*
X102963156Y-93980000D01*
X102944852Y-93757361D01*
X102890431Y-93540702D01*
X102801354Y-93335840D01*
X102680014Y-93148277D01*
X102529670Y-92983051D01*
X102525619Y-92979852D01*
X102525615Y-92979848D01*
X102358414Y-92847800D01*
X102358410Y-92847798D01*
X102354359Y-92844598D01*
X102313053Y-92821796D01*
X102263084Y-92771364D01*
X102248312Y-92701921D01*
X102273428Y-92635516D01*
X102300780Y-92608909D01*
X102349207Y-92574366D01*
X102479860Y-92481173D01*
X102511788Y-92449357D01*
X102634435Y-92327137D01*
X102638096Y-92323489D01*
X102669498Y-92279789D01*
X102765435Y-92146277D01*
X102768453Y-92142077D01*
X102788628Y-92101257D01*
X102865136Y-91946453D01*
X102865137Y-91946451D01*
X102867430Y-91941811D01*
X102932370Y-91728069D01*
X102961529Y-91506590D01*
X102963156Y-91440000D01*
X102944852Y-91217361D01*
X102890431Y-91000702D01*
X102801354Y-90795840D01*
X102680014Y-90608277D01*
X102529670Y-90443051D01*
X102525619Y-90439852D01*
X102525615Y-90439848D01*
X102358414Y-90307800D01*
X102358410Y-90307798D01*
X102354359Y-90304598D01*
X102313053Y-90281796D01*
X102263084Y-90231364D01*
X102248312Y-90161921D01*
X102273428Y-90095516D01*
X102300780Y-90068909D01*
X102349207Y-90034366D01*
X102479860Y-89941173D01*
X102511788Y-89909357D01*
X102634435Y-89787137D01*
X102638096Y-89783489D01*
X102669498Y-89739789D01*
X102765435Y-89606277D01*
X102768453Y-89602077D01*
X102788628Y-89561257D01*
X102865136Y-89406453D01*
X102865137Y-89406451D01*
X102867430Y-89401811D01*
X102932370Y-89188069D01*
X102961529Y-88966590D01*
X102963156Y-88900000D01*
X102944852Y-88677361D01*
X102890431Y-88460702D01*
X102801354Y-88255840D01*
X102713733Y-88120398D01*
X102682822Y-88072617D01*
X102682820Y-88072614D01*
X102680014Y-88068277D01*
X102529670Y-87903051D01*
X102525619Y-87899852D01*
X102525615Y-87899848D01*
X102358414Y-87767800D01*
X102358410Y-87767798D01*
X102354359Y-87764598D01*
X102313053Y-87741796D01*
X102263084Y-87691364D01*
X102248312Y-87621921D01*
X102273428Y-87555516D01*
X102300780Y-87528909D01*
X102349207Y-87494366D01*
X102479860Y-87401173D01*
X102511788Y-87369357D01*
X102634435Y-87247137D01*
X102638096Y-87243489D01*
X102669498Y-87199789D01*
X102765435Y-87066277D01*
X102768453Y-87062077D01*
X102788628Y-87021257D01*
X102865136Y-86866453D01*
X102865137Y-86866451D01*
X102867430Y-86861811D01*
X102932370Y-86648069D01*
X102961529Y-86426590D01*
X102963156Y-86360000D01*
X102944852Y-86137361D01*
X102890431Y-85920702D01*
X102801354Y-85715840D01*
X102680014Y-85528277D01*
X102529670Y-85363051D01*
X102525619Y-85359852D01*
X102525615Y-85359848D01*
X102358414Y-85227800D01*
X102358410Y-85227798D01*
X102354359Y-85224598D01*
X102313053Y-85201796D01*
X102263084Y-85151364D01*
X102248312Y-85081921D01*
X102273428Y-85015516D01*
X102300780Y-84988909D01*
X102349207Y-84954366D01*
X102479860Y-84861173D01*
X102511788Y-84829357D01*
X102634435Y-84707137D01*
X102638096Y-84703489D01*
X102669498Y-84659789D01*
X102765435Y-84526277D01*
X102768453Y-84522077D01*
X102788628Y-84481257D01*
X102865136Y-84326453D01*
X102865137Y-84326451D01*
X102867430Y-84321811D01*
X102932370Y-84108069D01*
X102961529Y-83886590D01*
X102963156Y-83820000D01*
X102944852Y-83597361D01*
X102890431Y-83380702D01*
X102801354Y-83175840D01*
X102680014Y-82988277D01*
X102529670Y-82823051D01*
X102525619Y-82819852D01*
X102525615Y-82819848D01*
X102358414Y-82687800D01*
X102358410Y-82687798D01*
X102354359Y-82684598D01*
X102313053Y-82661796D01*
X102263084Y-82611364D01*
X102248312Y-82541921D01*
X102273428Y-82475516D01*
X102300780Y-82448909D01*
X102349207Y-82414366D01*
X102479860Y-82321173D01*
X102511788Y-82289357D01*
X102588271Y-82213140D01*
X102638096Y-82163489D01*
X102669498Y-82119789D01*
X102765435Y-81986277D01*
X102768453Y-81982077D01*
X102788628Y-81941257D01*
X102865136Y-81786453D01*
X102865137Y-81786451D01*
X102867430Y-81781811D01*
X102911157Y-81637890D01*
X102930865Y-81573023D01*
X102930865Y-81573021D01*
X102932370Y-81568069D01*
X102961529Y-81346590D01*
X102963156Y-81280000D01*
X102944852Y-81057361D01*
X102937906Y-81029707D01*
X102904242Y-80895684D01*
X102907046Y-80824743D01*
X102947759Y-80766580D01*
X103013455Y-80739661D01*
X103026446Y-80738989D01*
X115174118Y-80738989D01*
X115242239Y-80758991D01*
X115263213Y-80775894D01*
X123664595Y-89177276D01*
X123698621Y-89239588D01*
X123701500Y-89266371D01*
X123701500Y-101532930D01*
X123700067Y-101551880D01*
X123696801Y-101573349D01*
X123697394Y-101580641D01*
X123697394Y-101580644D01*
X123701085Y-101626018D01*
X123701500Y-101636233D01*
X123701500Y-101644293D01*
X123701925Y-101647937D01*
X123704789Y-101672507D01*
X123705222Y-101676882D01*
X123711140Y-101749637D01*
X123713396Y-101756601D01*
X123714587Y-101762560D01*
X123715971Y-101768415D01*
X123716818Y-101775681D01*
X123741735Y-101844327D01*
X123743152Y-101848455D01*
X123765649Y-101917899D01*
X123769445Y-101924154D01*
X123771951Y-101929628D01*
X123774670Y-101935058D01*
X123777167Y-101941937D01*
X123781180Y-101948057D01*
X123781180Y-101948058D01*
X123817186Y-102002976D01*
X123819523Y-102006680D01*
X123857405Y-102069107D01*
X123861121Y-102073315D01*
X123861122Y-102073316D01*
X123864803Y-102077484D01*
X123864776Y-102077508D01*
X123867429Y-102080500D01*
X123870132Y-102083733D01*
X123874144Y-102089852D01*
X123879456Y-102094884D01*
X123930383Y-102143128D01*
X123932825Y-102145506D01*
X125619449Y-103832130D01*
X125653475Y-103894442D01*
X125655641Y-103934613D01*
X125637251Y-104106695D01*
X125637548Y-104111848D01*
X125637548Y-104111851D01*
X125649812Y-104324547D01*
X125650110Y-104329715D01*
X125651247Y-104334761D01*
X125651248Y-104334767D01*
X125661679Y-104381050D01*
X125699222Y-104547639D01*
X125783266Y-104754616D01*
X125899987Y-104945088D01*
X126046250Y-105113938D01*
X126218126Y-105256632D01*
X126248704Y-105274500D01*
X126291445Y-105299476D01*
X126340169Y-105351114D01*
X126353240Y-105420897D01*
X126326509Y-105486669D01*
X126286055Y-105520027D01*
X126273607Y-105526507D01*
X126269474Y-105529610D01*
X126269471Y-105529612D01*
X126245247Y-105547800D01*
X126094965Y-105660635D01*
X125940629Y-105822138D01*
X125814743Y-106006680D01*
X125720688Y-106209305D01*
X125660989Y-106424570D01*
X125637251Y-106646695D01*
X125637548Y-106651848D01*
X125637548Y-106651851D01*
X125643011Y-106746590D01*
X125650110Y-106869715D01*
X125651247Y-106874761D01*
X125651248Y-106874767D01*
X125671119Y-106962939D01*
X125699222Y-107087639D01*
X125737461Y-107181811D01*
X125762524Y-107243533D01*
X125783266Y-107294616D01*
X125899987Y-107485088D01*
X126046250Y-107653938D01*
X126218126Y-107796632D01*
X126288595Y-107837811D01*
X126291445Y-107839476D01*
X126340169Y-107891114D01*
X126353240Y-107960897D01*
X126326509Y-108026669D01*
X126286055Y-108060027D01*
X126273607Y-108066507D01*
X126269474Y-108069610D01*
X126269471Y-108069612D01*
X126248132Y-108085634D01*
X126094965Y-108200635D01*
X125940629Y-108362138D01*
X125937715Y-108366410D01*
X125937714Y-108366411D01*
X125928300Y-108380211D01*
X125814743Y-108546680D01*
X125720688Y-108749305D01*
X125660989Y-108964570D01*
X125637251Y-109186695D01*
X125637548Y-109191848D01*
X125637548Y-109191851D01*
X125643011Y-109286590D01*
X125650110Y-109409715D01*
X125651247Y-109414761D01*
X125651248Y-109414767D01*
X125666913Y-109484274D01*
X125699222Y-109627639D01*
X125783266Y-109834616D01*
X125785965Y-109839020D01*
X125890644Y-110009841D01*
X125899987Y-110025088D01*
X126046250Y-110193938D01*
X126218126Y-110336632D01*
X126278484Y-110371902D01*
X126291445Y-110379476D01*
X126340169Y-110431114D01*
X126353240Y-110500897D01*
X126326509Y-110566669D01*
X126286055Y-110600027D01*
X126273607Y-110606507D01*
X126269474Y-110609610D01*
X126269471Y-110609612D01*
X126107134Y-110731498D01*
X126094965Y-110740635D01*
X125940629Y-110902138D01*
X125937715Y-110906410D01*
X125937714Y-110906411D01*
X125928302Y-110920209D01*
X125814743Y-111086680D01*
X125720688Y-111289305D01*
X125660989Y-111504570D01*
X125637251Y-111726695D01*
X125637548Y-111731848D01*
X125637548Y-111731851D01*
X125643011Y-111826590D01*
X125650110Y-111949715D01*
X125651247Y-111954761D01*
X125651248Y-111954767D01*
X125659955Y-111993402D01*
X125699222Y-112167639D01*
X125748752Y-112289617D01*
X125776876Y-112358878D01*
X125783266Y-112374616D01*
X125799808Y-112401610D01*
X125865895Y-112509454D01*
X125899987Y-112565088D01*
X126046250Y-112733938D01*
X126218126Y-112876632D01*
X126285163Y-112915805D01*
X126291445Y-112919476D01*
X126340169Y-112971114D01*
X126353240Y-113040897D01*
X126326509Y-113106669D01*
X126286055Y-113140027D01*
X126273607Y-113146507D01*
X126269474Y-113149610D01*
X126269471Y-113149612D01*
X126107134Y-113271498D01*
X126094965Y-113280635D01*
X125940629Y-113442138D01*
X125937720Y-113446403D01*
X125937714Y-113446411D01*
X125909501Y-113487770D01*
X125814743Y-113626680D01*
X125720688Y-113829305D01*
X125660989Y-114044570D01*
X125637251Y-114266695D01*
X125637548Y-114271848D01*
X125637548Y-114271851D01*
X125643011Y-114366590D01*
X125650110Y-114489715D01*
X125651247Y-114494761D01*
X125651248Y-114494767D01*
X125659955Y-114533402D01*
X125699222Y-114707639D01*
X125783266Y-114914616D01*
X125899987Y-115105088D01*
X126046250Y-115273938D01*
X126218126Y-115416632D01*
X126277474Y-115451312D01*
X126291445Y-115459476D01*
X126340169Y-115511114D01*
X126353240Y-115580897D01*
X126326509Y-115646669D01*
X126286055Y-115680027D01*
X126273607Y-115686507D01*
X126269474Y-115689610D01*
X126269471Y-115689612D01*
X126107134Y-115811498D01*
X126094965Y-115820635D01*
X125940629Y-115982138D01*
X125937715Y-115986410D01*
X125937714Y-115986411D01*
X125928300Y-116000211D01*
X125814743Y-116166680D01*
X125720688Y-116369305D01*
X125660989Y-116584570D01*
X125637251Y-116806695D01*
X125637548Y-116811848D01*
X125637548Y-116811851D01*
X125643011Y-116906590D01*
X125650110Y-117029715D01*
X125651247Y-117034761D01*
X125651248Y-117034767D01*
X125659955Y-117073402D01*
X125699222Y-117247639D01*
X125783266Y-117454616D01*
X125899987Y-117645088D01*
X126046250Y-117813938D01*
X126218126Y-117956632D01*
X126285163Y-117995805D01*
X126291445Y-117999476D01*
X126340169Y-118051114D01*
X126353240Y-118120897D01*
X126326509Y-118186669D01*
X126286055Y-118220027D01*
X126273607Y-118226507D01*
X126269474Y-118229610D01*
X126269471Y-118229612D01*
X126107134Y-118351498D01*
X126094965Y-118360635D01*
X125940629Y-118522138D01*
X125937715Y-118526410D01*
X125937714Y-118526411D01*
X125928300Y-118540211D01*
X125814743Y-118706680D01*
X125720688Y-118909305D01*
X125660989Y-119124570D01*
X125637251Y-119346695D01*
X125637548Y-119351848D01*
X125637548Y-119351851D01*
X125643011Y-119446590D01*
X125650110Y-119569715D01*
X125651247Y-119574761D01*
X125651248Y-119574767D01*
X125659955Y-119613402D01*
X125699222Y-119787639D01*
X125783266Y-119994616D01*
X125811848Y-120041257D01*
X125896440Y-120179299D01*
X125899987Y-120185088D01*
X126046250Y-120353938D01*
X126218126Y-120496632D01*
X126285163Y-120535805D01*
X126291445Y-120539476D01*
X126340169Y-120591114D01*
X126353240Y-120660897D01*
X126326509Y-120726669D01*
X126286055Y-120760027D01*
X126273607Y-120766507D01*
X126269474Y-120769610D01*
X126269471Y-120769612D01*
X126180049Y-120836752D01*
X126094965Y-120900635D01*
X125940629Y-121062138D01*
X125937715Y-121066410D01*
X125937714Y-121066411D01*
X125928300Y-121080211D01*
X125814743Y-121246680D01*
X125720688Y-121449305D01*
X125660989Y-121664570D01*
X125637251Y-121886695D01*
X125637548Y-121891848D01*
X125637548Y-121891851D01*
X125643011Y-121986590D01*
X125650110Y-122109715D01*
X125651247Y-122114761D01*
X125651248Y-122114767D01*
X125659592Y-122151791D01*
X125699222Y-122327639D01*
X125737461Y-122421811D01*
X125762202Y-122482740D01*
X125783266Y-122534616D01*
X125899987Y-122725088D01*
X125903367Y-122728990D01*
X125910691Y-122737445D01*
X126046250Y-122893938D01*
X126218126Y-123036632D01*
X126282957Y-123074516D01*
X126291445Y-123079476D01*
X126340169Y-123131114D01*
X126353240Y-123200897D01*
X126326509Y-123266669D01*
X126286055Y-123300027D01*
X126273607Y-123306507D01*
X126269474Y-123309610D01*
X126269471Y-123309612D01*
X126248132Y-123325634D01*
X126094965Y-123440635D01*
X125940629Y-123602138D01*
X125937715Y-123606410D01*
X125937714Y-123606411D01*
X125928300Y-123620211D01*
X125814743Y-123786680D01*
X125720688Y-123989305D01*
X125660989Y-124204570D01*
X125637251Y-124426695D01*
X125637548Y-124431848D01*
X125637548Y-124431851D01*
X125643011Y-124526590D01*
X125650110Y-124649715D01*
X125651247Y-124654761D01*
X125651248Y-124654767D01*
X125659955Y-124693402D01*
X125699222Y-124867639D01*
X125783266Y-125074616D01*
X125899987Y-125265088D01*
X126046250Y-125433938D01*
X126050230Y-125437242D01*
X126054981Y-125441187D01*
X126094616Y-125500090D01*
X126096113Y-125571071D01*
X126058997Y-125631593D01*
X126018725Y-125656112D01*
X125937049Y-125686731D01*
X125903295Y-125699385D01*
X125786739Y-125786739D01*
X125699385Y-125903295D01*
X125648255Y-126039684D01*
X125641500Y-126101866D01*
X125641500Y-127898134D01*
X125648255Y-127960316D01*
X125699385Y-128096705D01*
X125786739Y-128213261D01*
X125903295Y-128300615D01*
X126039684Y-128351745D01*
X126101866Y-128358500D01*
X127898134Y-128358500D01*
X127960316Y-128351745D01*
X128096705Y-128300615D01*
X128213261Y-128213261D01*
X128300615Y-128096705D01*
X128351745Y-127960316D01*
X128358500Y-127898134D01*
X128358500Y-126101866D01*
X128351745Y-126039684D01*
X128300615Y-125903295D01*
X128213261Y-125786739D01*
X128096705Y-125699385D01*
X128062951Y-125686731D01*
X127978203Y-125654960D01*
X127921439Y-125612318D01*
X127896739Y-125545756D01*
X127911947Y-125476408D01*
X127933493Y-125447727D01*
X128034435Y-125347137D01*
X128038096Y-125343489D01*
X128069498Y-125299789D01*
X128165435Y-125166277D01*
X128168453Y-125162077D01*
X128188628Y-125121257D01*
X128265136Y-124966453D01*
X128265137Y-124966451D01*
X128267430Y-124961811D01*
X128332370Y-124748069D01*
X128361529Y-124526590D01*
X128363156Y-124460000D01*
X128344852Y-124237361D01*
X128290431Y-124020702D01*
X128201354Y-123815840D01*
X128080014Y-123628277D01*
X127929670Y-123463051D01*
X127925619Y-123459852D01*
X127925615Y-123459848D01*
X127758414Y-123327800D01*
X127758410Y-123327798D01*
X127754359Y-123324598D01*
X127713053Y-123301796D01*
X127663084Y-123251364D01*
X127648312Y-123181921D01*
X127673428Y-123115516D01*
X127700780Y-123088909D01*
X127764009Y-123043808D01*
X127879860Y-122961173D01*
X127911788Y-122929357D01*
X128034435Y-122807137D01*
X128038096Y-122803489D01*
X128069498Y-122759789D01*
X128165435Y-122626277D01*
X128168453Y-122622077D01*
X128188628Y-122581257D01*
X128265136Y-122426453D01*
X128265137Y-122426451D01*
X128267430Y-122421811D01*
X128312658Y-122272949D01*
X128330865Y-122213023D01*
X128330865Y-122213021D01*
X128332370Y-122208069D01*
X128361529Y-121986590D01*
X128363156Y-121920000D01*
X128344852Y-121697361D01*
X128290431Y-121480702D01*
X128201354Y-121275840D01*
X128080014Y-121088277D01*
X127929670Y-120923051D01*
X127925619Y-120919852D01*
X127925615Y-120919848D01*
X127758414Y-120787800D01*
X127758410Y-120787798D01*
X127754359Y-120784598D01*
X127713053Y-120761796D01*
X127663084Y-120711364D01*
X127648312Y-120641921D01*
X127673428Y-120575516D01*
X127700780Y-120548909D01*
X127764737Y-120503289D01*
X127879860Y-120421173D01*
X127911788Y-120389357D01*
X128013290Y-120288208D01*
X128038096Y-120263489D01*
X128069498Y-120219789D01*
X128165435Y-120086277D01*
X128168453Y-120082077D01*
X128188628Y-120041257D01*
X128265136Y-119886453D01*
X128265137Y-119886451D01*
X128267430Y-119881811D01*
X128332370Y-119668069D01*
X128361529Y-119446590D01*
X128363156Y-119380000D01*
X128344852Y-119157361D01*
X128290431Y-118940702D01*
X128201354Y-118735840D01*
X128080014Y-118548277D01*
X127929670Y-118383051D01*
X127925619Y-118379852D01*
X127925615Y-118379848D01*
X127758414Y-118247800D01*
X127758410Y-118247798D01*
X127754359Y-118244598D01*
X127713053Y-118221796D01*
X127663084Y-118171364D01*
X127648312Y-118101921D01*
X127673428Y-118035516D01*
X127700780Y-118008909D01*
X127749207Y-117974366D01*
X127879860Y-117881173D01*
X127911788Y-117849357D01*
X128034435Y-117727137D01*
X128038096Y-117723489D01*
X128069498Y-117679789D01*
X128165435Y-117546277D01*
X128168453Y-117542077D01*
X128188628Y-117501257D01*
X128265136Y-117346453D01*
X128265137Y-117346451D01*
X128267430Y-117341811D01*
X128332370Y-117128069D01*
X128361529Y-116906590D01*
X128363156Y-116840000D01*
X128344852Y-116617361D01*
X128290431Y-116400702D01*
X128201354Y-116195840D01*
X128080014Y-116008277D01*
X127929670Y-115843051D01*
X127925619Y-115839852D01*
X127925615Y-115839848D01*
X127758414Y-115707800D01*
X127758410Y-115707798D01*
X127754359Y-115704598D01*
X127713053Y-115681796D01*
X127663084Y-115631364D01*
X127648312Y-115561921D01*
X127673428Y-115495516D01*
X127700780Y-115468909D01*
X127752991Y-115431667D01*
X127879860Y-115341173D01*
X127911788Y-115309357D01*
X128034435Y-115187137D01*
X128038096Y-115183489D01*
X128069498Y-115139789D01*
X128165435Y-115006277D01*
X128168453Y-115002077D01*
X128188628Y-114961257D01*
X128265136Y-114806453D01*
X128265137Y-114806451D01*
X128267430Y-114801811D01*
X128332370Y-114588069D01*
X128361529Y-114366590D01*
X128363156Y-114300000D01*
X128344852Y-114077361D01*
X128290431Y-113860702D01*
X128201354Y-113655840D01*
X128127384Y-113541500D01*
X128082822Y-113472617D01*
X128082820Y-113472614D01*
X128080014Y-113468277D01*
X127929670Y-113303051D01*
X127925619Y-113299852D01*
X127925615Y-113299848D01*
X127758414Y-113167800D01*
X127758410Y-113167798D01*
X127754359Y-113164598D01*
X127713053Y-113141796D01*
X127663084Y-113091364D01*
X127648312Y-113021921D01*
X127673428Y-112955516D01*
X127700780Y-112928909D01*
X127749207Y-112894366D01*
X127879860Y-112801173D01*
X127911788Y-112769357D01*
X128034435Y-112647137D01*
X128038096Y-112643489D01*
X128069498Y-112599789D01*
X128165435Y-112466277D01*
X128168453Y-112462077D01*
X128171157Y-112456607D01*
X128265136Y-112266453D01*
X128265137Y-112266451D01*
X128267430Y-112261811D01*
X128332370Y-112048069D01*
X128361529Y-111826590D01*
X128363156Y-111760000D01*
X128345870Y-111549747D01*
X128360223Y-111480219D01*
X128382351Y-111450330D01*
X135108911Y-104723770D01*
X135123323Y-104711384D01*
X135134918Y-104702851D01*
X135134923Y-104702846D01*
X135140818Y-104698508D01*
X135145557Y-104692930D01*
X135145560Y-104692927D01*
X135175035Y-104658232D01*
X135181965Y-104650716D01*
X135187660Y-104645021D01*
X135205281Y-104622749D01*
X135208072Y-104619345D01*
X135250591Y-104569297D01*
X135250592Y-104569295D01*
X135255333Y-104563715D01*
X135258661Y-104557199D01*
X135262028Y-104552150D01*
X135265195Y-104547021D01*
X135269734Y-104541284D01*
X135300655Y-104475125D01*
X135302561Y-104471225D01*
X135322068Y-104433023D01*
X135335769Y-104406192D01*
X135337508Y-104399084D01*
X135339607Y-104393441D01*
X135341524Y-104387678D01*
X135344622Y-104381050D01*
X135359487Y-104309583D01*
X135360457Y-104305299D01*
X135376473Y-104239845D01*
X135377808Y-104234390D01*
X135378500Y-104223236D01*
X135378536Y-104223238D01*
X135378775Y-104219245D01*
X135379149Y-104215053D01*
X135380640Y-104207885D01*
X135378546Y-104130479D01*
X135378500Y-104127072D01*
X135378500Y-54532632D01*
X135398502Y-54464511D01*
X135431331Y-54430054D01*
X135499860Y-54381173D01*
X135658096Y-54223489D01*
X135788453Y-54042077D01*
X135809320Y-53999857D01*
X135885136Y-53846453D01*
X135885137Y-53846451D01*
X135887430Y-53841811D01*
X135952370Y-53628069D01*
X135981529Y-53406590D01*
X135983156Y-53340000D01*
X135964852Y-53117361D01*
X135910431Y-52900702D01*
X135821354Y-52695840D01*
X135705435Y-52516656D01*
X135702822Y-52512617D01*
X135702820Y-52512614D01*
X135700014Y-52508277D01*
X135549670Y-52343051D01*
X135545619Y-52339852D01*
X135545615Y-52339848D01*
X135378414Y-52207800D01*
X135378410Y-52207798D01*
X135374359Y-52204598D01*
X135178789Y-52096638D01*
X135173920Y-52094914D01*
X135173916Y-52094912D01*
X134973087Y-52023795D01*
X134973083Y-52023794D01*
X134968212Y-52022069D01*
X134963119Y-52021162D01*
X134963116Y-52021161D01*
X134753373Y-51983800D01*
X134753367Y-51983799D01*
X134748284Y-51982894D01*
X134674452Y-51981992D01*
X134530081Y-51980228D01*
X134530079Y-51980228D01*
X134524911Y-51980165D01*
X134304091Y-52013955D01*
X134091756Y-52083357D01*
X133893607Y-52186507D01*
X133889474Y-52189610D01*
X133889471Y-52189612D01*
X133719100Y-52317530D01*
X133714965Y-52320635D01*
X133560629Y-52482138D01*
X133453201Y-52639621D01*
X133398293Y-52684621D01*
X133327768Y-52692792D01*
X133264021Y-52661538D01*
X133243324Y-52637054D01*
X133162822Y-52512617D01*
X133162820Y-52512614D01*
X133160014Y-52508277D01*
X133009670Y-52343051D01*
X133005619Y-52339852D01*
X133005615Y-52339848D01*
X132838414Y-52207800D01*
X132838410Y-52207798D01*
X132834359Y-52204598D01*
X132638789Y-52096638D01*
X132633920Y-52094914D01*
X132633916Y-52094912D01*
X132433087Y-52023795D01*
X132433083Y-52023794D01*
X132428212Y-52022069D01*
X132423119Y-52021162D01*
X132423116Y-52021161D01*
X132213373Y-51983800D01*
X132213367Y-51983799D01*
X132208284Y-51982894D01*
X132134452Y-51981992D01*
X131990081Y-51980228D01*
X131990079Y-51980228D01*
X131984911Y-51980165D01*
X131764091Y-52013955D01*
X131551756Y-52083357D01*
X131353607Y-52186507D01*
X131349474Y-52189610D01*
X131349471Y-52189612D01*
X131179100Y-52317530D01*
X131174965Y-52320635D01*
X131020629Y-52482138D01*
X130894743Y-52666680D01*
X130800688Y-52869305D01*
X130740989Y-53084570D01*
X130717251Y-53306695D01*
X130717548Y-53311848D01*
X130717548Y-53311851D01*
X130723011Y-53406590D01*
X130730110Y-53529715D01*
X130731247Y-53534761D01*
X130731248Y-53534767D01*
X130738198Y-53565604D01*
X130779222Y-53747639D01*
X130863266Y-53954616D01*
X130914019Y-54037438D01*
X130954978Y-54104277D01*
X130973516Y-54172811D01*
X130952059Y-54240488D01*
X130936640Y-54259207D01*
X128870621Y-56325226D01*
X128860478Y-56334328D01*
X128830975Y-56358049D01*
X128827008Y-56362777D01*
X128798709Y-56396502D01*
X128795528Y-56400150D01*
X128793885Y-56401962D01*
X128791691Y-56404156D01*
X128764358Y-56437430D01*
X128763696Y-56438228D01*
X128703846Y-56509555D01*
X128701278Y-56514225D01*
X128697897Y-56518342D01*
X128666860Y-56576226D01*
X128654023Y-56600167D01*
X128653394Y-56601326D01*
X128611538Y-56677462D01*
X128611535Y-56677470D01*
X128608567Y-56682868D01*
X128606955Y-56687950D01*
X128604438Y-56692644D01*
X128577238Y-56781612D01*
X128576918Y-56782640D01*
X128548765Y-56871387D01*
X128548171Y-56876683D01*
X128546613Y-56881779D01*
X128545990Y-56887915D01*
X128537218Y-56974268D01*
X128537089Y-56975474D01*
X128531500Y-57025308D01*
X128531500Y-57028835D01*
X128531445Y-57029820D01*
X128530998Y-57035500D01*
X128526626Y-57078543D01*
X128527206Y-57084674D01*
X128530941Y-57124190D01*
X128531500Y-57136048D01*
X128531500Y-65500716D01*
X128511498Y-65568837D01*
X128494595Y-65589811D01*
X127167426Y-66916981D01*
X125971073Y-68113334D01*
X125908761Y-68147359D01*
X125837946Y-68142295D01*
X125781110Y-68099748D01*
X125756457Y-68035220D01*
X125754023Y-68007394D01*
X125754022Y-68007389D01*
X125753543Y-68001913D01*
X125694284Y-67780757D01*
X125691961Y-67775775D01*
X125599849Y-67578238D01*
X125599846Y-67578233D01*
X125597523Y-67573251D01*
X125490000Y-67419693D01*
X125469357Y-67390211D01*
X125469355Y-67390208D01*
X125466198Y-67385700D01*
X125304300Y-67223802D01*
X125299792Y-67220645D01*
X125299789Y-67220643D01*
X125212099Y-67159242D01*
X125116749Y-67092477D01*
X125111767Y-67090154D01*
X125111762Y-67090151D01*
X124914225Y-66998039D01*
X124914224Y-66998039D01*
X124909243Y-66995716D01*
X124903935Y-66994294D01*
X124903933Y-66994293D01*
X124693402Y-66937881D01*
X124693400Y-66937881D01*
X124688087Y-66936457D01*
X124460000Y-66916502D01*
X124231913Y-66936457D01*
X124226600Y-66937881D01*
X124226598Y-66937881D01*
X124016067Y-66994293D01*
X124016065Y-66994294D01*
X124010757Y-66995716D01*
X124005776Y-66998039D01*
X124005775Y-66998039D01*
X123808238Y-67090151D01*
X123808233Y-67090154D01*
X123803251Y-67092477D01*
X123707901Y-67159242D01*
X123620211Y-67220643D01*
X123620208Y-67220645D01*
X123615700Y-67223802D01*
X123453802Y-67385700D01*
X123450645Y-67390208D01*
X123450643Y-67390211D01*
X123430000Y-67419693D01*
X123322477Y-67573251D01*
X123320154Y-67578233D01*
X123320151Y-67578238D01*
X123228039Y-67775775D01*
X123225716Y-67780757D01*
X123166457Y-68001913D01*
X123151500Y-68172873D01*
X123151500Y-68987127D01*
X123166457Y-69158087D01*
X123225716Y-69379243D01*
X123228039Y-69384224D01*
X123228039Y-69384225D01*
X123320151Y-69581762D01*
X123320154Y-69581767D01*
X123322477Y-69586749D01*
X123453802Y-69774300D01*
X123575907Y-69896405D01*
X123609933Y-69958717D01*
X123604868Y-70029532D01*
X123562321Y-70086368D01*
X123495801Y-70111179D01*
X123486812Y-70111500D01*
X121977904Y-70111500D01*
X121965171Y-70110855D01*
X121929666Y-70107248D01*
X121929661Y-70107248D01*
X121923538Y-70106626D01*
X121881259Y-70110623D01*
X121877891Y-70110941D01*
X121866033Y-70111500D01*
X116897904Y-70111500D01*
X116885171Y-70110855D01*
X116849666Y-70107248D01*
X116849661Y-70107248D01*
X116843538Y-70106626D01*
X116801259Y-70110623D01*
X116797891Y-70110941D01*
X116786033Y-70111500D01*
X115273188Y-70111500D01*
X115205067Y-70091498D01*
X115158574Y-70037842D01*
X115148470Y-69967568D01*
X115177964Y-69902988D01*
X115184093Y-69896405D01*
X115306198Y-69774300D01*
X115437523Y-69586749D01*
X115439846Y-69581767D01*
X115439849Y-69581762D01*
X115531961Y-69384225D01*
X115531961Y-69384224D01*
X115534284Y-69379243D01*
X115593543Y-69158087D01*
X115608500Y-68987127D01*
X115608500Y-68172873D01*
X115593543Y-68001913D01*
X115534284Y-67780757D01*
X115531961Y-67775775D01*
X115439849Y-67578238D01*
X115439846Y-67578233D01*
X115437523Y-67573251D01*
X115330000Y-67419693D01*
X115309357Y-67390211D01*
X115309355Y-67390208D01*
X115306198Y-67385700D01*
X115144300Y-67223802D01*
X115139792Y-67220645D01*
X115139789Y-67220643D01*
X115052099Y-67159242D01*
X114956749Y-67092477D01*
X114951767Y-67090154D01*
X114951762Y-67090151D01*
X114754225Y-66998039D01*
X114754224Y-66998039D01*
X114749243Y-66995716D01*
X114743935Y-66994294D01*
X114743933Y-66994293D01*
X114533402Y-66937881D01*
X114533400Y-66937881D01*
X114528087Y-66936457D01*
X114300000Y-66916502D01*
X114071913Y-66936457D01*
X114066600Y-66937881D01*
X114066598Y-66937881D01*
X113856067Y-66994293D01*
X113856065Y-66994294D01*
X113850757Y-66995716D01*
X113845776Y-66998039D01*
X113845775Y-66998039D01*
X113648238Y-67090151D01*
X113648233Y-67090154D01*
X113643251Y-67092477D01*
X113547901Y-67159242D01*
X113460211Y-67220643D01*
X113460208Y-67220645D01*
X113455700Y-67223802D01*
X113293802Y-67385700D01*
X113290645Y-67390208D01*
X113290643Y-67390211D01*
X113270000Y-67419693D01*
X113162477Y-67573251D01*
X113160154Y-67578233D01*
X113160151Y-67578238D01*
X113144195Y-67612457D01*
X113097278Y-67665742D01*
X113029001Y-67685203D01*
X112961041Y-67664661D01*
X112915805Y-67612457D01*
X112899849Y-67578238D01*
X112899846Y-67578233D01*
X112897523Y-67573251D01*
X112790000Y-67419693D01*
X112769357Y-67390211D01*
X112769355Y-67390208D01*
X112766198Y-67385700D01*
X112604300Y-67223802D01*
X112599792Y-67220645D01*
X112599789Y-67220643D01*
X112512099Y-67159242D01*
X112416749Y-67092477D01*
X112411767Y-67090154D01*
X112411762Y-67090151D01*
X112214225Y-66998039D01*
X112214224Y-66998039D01*
X112209243Y-66995716D01*
X112203935Y-66994294D01*
X112203933Y-66994293D01*
X111993402Y-66937881D01*
X111993400Y-66937881D01*
X111988087Y-66936457D01*
X111760000Y-66916502D01*
X111531913Y-66936457D01*
X111526600Y-66937881D01*
X111526598Y-66937881D01*
X111316067Y-66994293D01*
X111316065Y-66994294D01*
X111310757Y-66995716D01*
X111305776Y-66998039D01*
X111305775Y-66998039D01*
X111108238Y-67090151D01*
X111108233Y-67090154D01*
X111103251Y-67092477D01*
X111007901Y-67159242D01*
X110920211Y-67220643D01*
X110920208Y-67220645D01*
X110915700Y-67223802D01*
X110753802Y-67385700D01*
X110750645Y-67390208D01*
X110750643Y-67390211D01*
X110730000Y-67419693D01*
X110622477Y-67573251D01*
X110620154Y-67578233D01*
X110620151Y-67578238D01*
X110528039Y-67775775D01*
X110525716Y-67780757D01*
X110466457Y-68001913D01*
X110451500Y-68172873D01*
X110451500Y-68987127D01*
X110466457Y-69158087D01*
X110525716Y-69379243D01*
X110528039Y-69384224D01*
X110528039Y-69384225D01*
X110620151Y-69581762D01*
X110620154Y-69581767D01*
X110622477Y-69586749D01*
X110753802Y-69774300D01*
X110875907Y-69896405D01*
X110909933Y-69958717D01*
X110904868Y-70029532D01*
X110862321Y-70086368D01*
X110795801Y-70111179D01*
X110786812Y-70111500D01*
X101729566Y-70111500D01*
X101661445Y-70091498D01*
X101614952Y-70037842D01*
X101604848Y-69967568D01*
X101634342Y-69902988D01*
X101640471Y-69896405D01*
X104809379Y-66727496D01*
X104819522Y-66718394D01*
X104844218Y-66698538D01*
X104849025Y-66694673D01*
X104881320Y-66656185D01*
X104884478Y-66652566D01*
X104886124Y-66650751D01*
X104888309Y-66648566D01*
X104890264Y-66646186D01*
X104890273Y-66646176D01*
X104915549Y-66615405D01*
X104916391Y-66614390D01*
X104954186Y-66569347D01*
X104976154Y-66543167D01*
X104978723Y-66538493D01*
X104982102Y-66534380D01*
X105025975Y-66452556D01*
X105026584Y-66451434D01*
X105028671Y-66447639D01*
X105071433Y-66369854D01*
X105073045Y-66364772D01*
X105075562Y-66360078D01*
X105102762Y-66271110D01*
X105103108Y-66269999D01*
X105107559Y-66255970D01*
X105131235Y-66181335D01*
X105131829Y-66176039D01*
X105133387Y-66170943D01*
X105142790Y-66078384D01*
X105142911Y-66077248D01*
X105147465Y-66036646D01*
X105148108Y-66030911D01*
X105148108Y-66030907D01*
X105148500Y-66027414D01*
X105148500Y-66023887D01*
X105148555Y-66022902D01*
X105149002Y-66017222D01*
X105153374Y-65974179D01*
X105149059Y-65928532D01*
X105148500Y-65916674D01*
X105148500Y-65234500D01*
X105168502Y-65166379D01*
X105222158Y-65119886D01*
X105274500Y-65108500D01*
X105288134Y-65108500D01*
X105350316Y-65101745D01*
X105486705Y-65050615D01*
X105603261Y-64963261D01*
X105690615Y-64846705D01*
X105741745Y-64710316D01*
X105748500Y-64648134D01*
X105748500Y-62351866D01*
X105741745Y-62289684D01*
X105690615Y-62153295D01*
X105603261Y-62036739D01*
X105486705Y-61949385D01*
X105350316Y-61898255D01*
X105288134Y-61891500D01*
X102991866Y-61891500D01*
X102929684Y-61898255D01*
X102793295Y-61949385D01*
X102676739Y-62036739D01*
X102589385Y-62153295D01*
X102538255Y-62289684D01*
X102531500Y-62351866D01*
X102531500Y-62365500D01*
X102511498Y-62433621D01*
X102457842Y-62480114D01*
X102405500Y-62491500D01*
X100033188Y-62491500D01*
X99965067Y-62471498D01*
X99918574Y-62417842D01*
X99908470Y-62347568D01*
X99937964Y-62282988D01*
X99944093Y-62276405D01*
X100066198Y-62154300D01*
X100071934Y-62146109D01*
X100194366Y-61971257D01*
X100197523Y-61966749D01*
X100199846Y-61961767D01*
X100199849Y-61961762D01*
X100291961Y-61764225D01*
X100291961Y-61764224D01*
X100294284Y-61759243D01*
X100353543Y-61538087D01*
X100368500Y-61367127D01*
X110451500Y-61367127D01*
X110466457Y-61538087D01*
X110525716Y-61759243D01*
X110528039Y-61764224D01*
X110528039Y-61764225D01*
X110620151Y-61961762D01*
X110620154Y-61961767D01*
X110622477Y-61966749D01*
X110625634Y-61971257D01*
X110748067Y-62146109D01*
X110753802Y-62154300D01*
X110915700Y-62316198D01*
X110920208Y-62319355D01*
X110920211Y-62319357D01*
X110963420Y-62349612D01*
X111103251Y-62447523D01*
X111108233Y-62449846D01*
X111108238Y-62449849D01*
X111305775Y-62541961D01*
X111310757Y-62544284D01*
X111316065Y-62545706D01*
X111316067Y-62545707D01*
X111526598Y-62602119D01*
X111526600Y-62602119D01*
X111531913Y-62603543D01*
X111760000Y-62623498D01*
X111988087Y-62603543D01*
X111993400Y-62602119D01*
X111993402Y-62602119D01*
X112203933Y-62545707D01*
X112203935Y-62545706D01*
X112209243Y-62544284D01*
X112214225Y-62541961D01*
X112411762Y-62449849D01*
X112411767Y-62449846D01*
X112416749Y-62447523D01*
X112556580Y-62349612D01*
X112599789Y-62319357D01*
X112599792Y-62319355D01*
X112604300Y-62316198D01*
X112766198Y-62154300D01*
X112771934Y-62146109D01*
X112894366Y-61971257D01*
X112897523Y-61966749D01*
X112899846Y-61961767D01*
X112899849Y-61961762D01*
X112915805Y-61927543D01*
X112962722Y-61874258D01*
X113030999Y-61854797D01*
X113098959Y-61875339D01*
X113144195Y-61927543D01*
X113160151Y-61961762D01*
X113160154Y-61961767D01*
X113162477Y-61966749D01*
X113165634Y-61971257D01*
X113288067Y-62146109D01*
X113293802Y-62154300D01*
X113455700Y-62316198D01*
X113460208Y-62319355D01*
X113460211Y-62319357D01*
X113503420Y-62349612D01*
X113643251Y-62447523D01*
X113648233Y-62449846D01*
X113648238Y-62449849D01*
X113845775Y-62541961D01*
X113850757Y-62544284D01*
X113856065Y-62545706D01*
X113856067Y-62545707D01*
X114066598Y-62602119D01*
X114066600Y-62602119D01*
X114071913Y-62603543D01*
X114300000Y-62623498D01*
X114528087Y-62603543D01*
X114533400Y-62602119D01*
X114533402Y-62602119D01*
X114743933Y-62545707D01*
X114743935Y-62545706D01*
X114749243Y-62544284D01*
X114754225Y-62541961D01*
X114951762Y-62449849D01*
X114951767Y-62449846D01*
X114956749Y-62447523D01*
X115096580Y-62349612D01*
X115139789Y-62319357D01*
X115139792Y-62319355D01*
X115144300Y-62316198D01*
X115306198Y-62154300D01*
X115311934Y-62146109D01*
X115434366Y-61971257D01*
X115437523Y-61966749D01*
X115439846Y-61961767D01*
X115439849Y-61961762D01*
X115531961Y-61764225D01*
X115531961Y-61764224D01*
X115534284Y-61759243D01*
X115593543Y-61538087D01*
X115608500Y-61367127D01*
X123151500Y-61367127D01*
X123166457Y-61538087D01*
X123225716Y-61759243D01*
X123228039Y-61764224D01*
X123228039Y-61764225D01*
X123320151Y-61961762D01*
X123320154Y-61961767D01*
X123322477Y-61966749D01*
X123325634Y-61971257D01*
X123448067Y-62146109D01*
X123453802Y-62154300D01*
X123615700Y-62316198D01*
X123620208Y-62319355D01*
X123620211Y-62319357D01*
X123663420Y-62349612D01*
X123803251Y-62447523D01*
X123808233Y-62449846D01*
X123808238Y-62449849D01*
X124005775Y-62541961D01*
X124010757Y-62544284D01*
X124016065Y-62545706D01*
X124016067Y-62545707D01*
X124226598Y-62602119D01*
X124226600Y-62602119D01*
X124231913Y-62603543D01*
X124460000Y-62623498D01*
X124688087Y-62603543D01*
X124693400Y-62602119D01*
X124693402Y-62602119D01*
X124903933Y-62545707D01*
X124903935Y-62545706D01*
X124909243Y-62544284D01*
X124914225Y-62541961D01*
X125111762Y-62449849D01*
X125111767Y-62449846D01*
X125116749Y-62447523D01*
X125256580Y-62349612D01*
X125299789Y-62319357D01*
X125299792Y-62319355D01*
X125304300Y-62316198D01*
X125466198Y-62154300D01*
X125471934Y-62146109D01*
X125594366Y-61971257D01*
X125597523Y-61966749D01*
X125599846Y-61961767D01*
X125599849Y-61961762D01*
X125691961Y-61764225D01*
X125691961Y-61764224D01*
X125694284Y-61759243D01*
X125753543Y-61538087D01*
X125768500Y-61367127D01*
X125768500Y-60552873D01*
X125753543Y-60381913D01*
X125694284Y-60160757D01*
X125615805Y-59992457D01*
X125599849Y-59958238D01*
X125599846Y-59958233D01*
X125597523Y-59953251D01*
X125466198Y-59765700D01*
X125304300Y-59603802D01*
X125299792Y-59600645D01*
X125299789Y-59600643D01*
X125221611Y-59545902D01*
X125116749Y-59472477D01*
X125111767Y-59470154D01*
X125111762Y-59470151D01*
X124914225Y-59378039D01*
X124914224Y-59378039D01*
X124909243Y-59375716D01*
X124903935Y-59374294D01*
X124903933Y-59374293D01*
X124693402Y-59317881D01*
X124693400Y-59317881D01*
X124688087Y-59316457D01*
X124460000Y-59296502D01*
X124231913Y-59316457D01*
X124226600Y-59317881D01*
X124226598Y-59317881D01*
X124016067Y-59374293D01*
X124016065Y-59374294D01*
X124010757Y-59375716D01*
X124005776Y-59378039D01*
X124005775Y-59378039D01*
X123808238Y-59470151D01*
X123808233Y-59470154D01*
X123803251Y-59472477D01*
X123698389Y-59545902D01*
X123620211Y-59600643D01*
X123620208Y-59600645D01*
X123615700Y-59603802D01*
X123453802Y-59765700D01*
X123322477Y-59953251D01*
X123320154Y-59958233D01*
X123320151Y-59958238D01*
X123304195Y-59992457D01*
X123225716Y-60160757D01*
X123166457Y-60381913D01*
X123151500Y-60552873D01*
X123151500Y-61367127D01*
X115608500Y-61367127D01*
X115608500Y-60552873D01*
X115593543Y-60381913D01*
X115534284Y-60160757D01*
X115455805Y-59992457D01*
X115439849Y-59958238D01*
X115439846Y-59958233D01*
X115437523Y-59953251D01*
X115306198Y-59765700D01*
X115144300Y-59603802D01*
X115139792Y-59600645D01*
X115139789Y-59600643D01*
X115061611Y-59545902D01*
X114956749Y-59472477D01*
X114951767Y-59470154D01*
X114951762Y-59470151D01*
X114754225Y-59378039D01*
X114754224Y-59378039D01*
X114749243Y-59375716D01*
X114743935Y-59374294D01*
X114743933Y-59374293D01*
X114533402Y-59317881D01*
X114533400Y-59317881D01*
X114528087Y-59316457D01*
X114300000Y-59296502D01*
X114071913Y-59316457D01*
X114066600Y-59317881D01*
X114066598Y-59317881D01*
X113856067Y-59374293D01*
X113856065Y-59374294D01*
X113850757Y-59375716D01*
X113845776Y-59378039D01*
X113845775Y-59378039D01*
X113648238Y-59470151D01*
X113648233Y-59470154D01*
X113643251Y-59472477D01*
X113538389Y-59545902D01*
X113460211Y-59600643D01*
X113460208Y-59600645D01*
X113455700Y-59603802D01*
X113293802Y-59765700D01*
X113162477Y-59953251D01*
X113160154Y-59958233D01*
X113160151Y-59958238D01*
X113144195Y-59992457D01*
X113097278Y-60045742D01*
X113029001Y-60065203D01*
X112961041Y-60044661D01*
X112915805Y-59992457D01*
X112899849Y-59958238D01*
X112899846Y-59958233D01*
X112897523Y-59953251D01*
X112766198Y-59765700D01*
X112604300Y-59603802D01*
X112599792Y-59600645D01*
X112599789Y-59600643D01*
X112521611Y-59545902D01*
X112416749Y-59472477D01*
X112411767Y-59470154D01*
X112411762Y-59470151D01*
X112214225Y-59378039D01*
X112214224Y-59378039D01*
X112209243Y-59375716D01*
X112203935Y-59374294D01*
X112203933Y-59374293D01*
X111993402Y-59317881D01*
X111993400Y-59317881D01*
X111988087Y-59316457D01*
X111760000Y-59296502D01*
X111531913Y-59316457D01*
X111526600Y-59317881D01*
X111526598Y-59317881D01*
X111316067Y-59374293D01*
X111316065Y-59374294D01*
X111310757Y-59375716D01*
X111305776Y-59378039D01*
X111305775Y-59378039D01*
X111108238Y-59470151D01*
X111108233Y-59470154D01*
X111103251Y-59472477D01*
X110998389Y-59545902D01*
X110920211Y-59600643D01*
X110920208Y-59600645D01*
X110915700Y-59603802D01*
X110753802Y-59765700D01*
X110622477Y-59953251D01*
X110620154Y-59958233D01*
X110620151Y-59958238D01*
X110604195Y-59992457D01*
X110525716Y-60160757D01*
X110466457Y-60381913D01*
X110451500Y-60552873D01*
X110451500Y-61367127D01*
X100368500Y-61367127D01*
X100368500Y-60552873D01*
X100353543Y-60381913D01*
X100294284Y-60160757D01*
X100215805Y-59992457D01*
X100199849Y-59958238D01*
X100199846Y-59958233D01*
X100197523Y-59953251D01*
X100066198Y-59765700D01*
X99904300Y-59603802D01*
X99899792Y-59600645D01*
X99899789Y-59600643D01*
X99821611Y-59545902D01*
X99716749Y-59472477D01*
X99711767Y-59470154D01*
X99711762Y-59470151D01*
X99514225Y-59378039D01*
X99514224Y-59378039D01*
X99509243Y-59375716D01*
X99503935Y-59374294D01*
X99503933Y-59374293D01*
X99293402Y-59317881D01*
X99293400Y-59317881D01*
X99288087Y-59316457D01*
X99060000Y-59296502D01*
X98831913Y-59316457D01*
X98826600Y-59317881D01*
X98826598Y-59317881D01*
X98616067Y-59374293D01*
X98616065Y-59374294D01*
X98610757Y-59375716D01*
X98605776Y-59378039D01*
X98605775Y-59378039D01*
X98408238Y-59470151D01*
X98408233Y-59470154D01*
X98403251Y-59472477D01*
X98298389Y-59545902D01*
X98220211Y-59600643D01*
X98220208Y-59600645D01*
X98215700Y-59603802D01*
X98053802Y-59765700D01*
X97922477Y-59953251D01*
X97920154Y-59958233D01*
X97920151Y-59958238D01*
X97904195Y-59992457D01*
X97825716Y-60160757D01*
X97766457Y-60381913D01*
X97751500Y-60552873D01*
X97751500Y-61367127D01*
X97766457Y-61538087D01*
X97825716Y-61759243D01*
X97828039Y-61764224D01*
X97828039Y-61764225D01*
X97920151Y-61961762D01*
X97920154Y-61961767D01*
X97922477Y-61966749D01*
X97925634Y-61971257D01*
X98048067Y-62146109D01*
X98053802Y-62154300D01*
X98175907Y-62276405D01*
X98209933Y-62338717D01*
X98204868Y-62409532D01*
X98162321Y-62466368D01*
X98095801Y-62491179D01*
X98086812Y-62491500D01*
X91909924Y-62491500D01*
X91841803Y-62471498D01*
X91820829Y-62454595D01*
X90245405Y-60879171D01*
X90211379Y-60816859D01*
X90208500Y-60790076D01*
X90208500Y-60552873D01*
X90193543Y-60381913D01*
X90134284Y-60160757D01*
X90055805Y-59992457D01*
X90039849Y-59958238D01*
X90039846Y-59958233D01*
X90037523Y-59953251D01*
X89906198Y-59765700D01*
X89744300Y-59603802D01*
X89739792Y-59600645D01*
X89739789Y-59600643D01*
X89661611Y-59545902D01*
X89556749Y-59472477D01*
X89551767Y-59470154D01*
X89551762Y-59470151D01*
X89354225Y-59378039D01*
X89354224Y-59378039D01*
X89349243Y-59375716D01*
X89343935Y-59374294D01*
X89343933Y-59374293D01*
X89133402Y-59317881D01*
X89133400Y-59317881D01*
X89128087Y-59316457D01*
X88900000Y-59296502D01*
X88671913Y-59316457D01*
X88666600Y-59317881D01*
X88666598Y-59317881D01*
X88456067Y-59374293D01*
X88456065Y-59374294D01*
X88450757Y-59375716D01*
X88445776Y-59378039D01*
X88445775Y-59378039D01*
X88248238Y-59470151D01*
X88248233Y-59470154D01*
X88243251Y-59472477D01*
X88138389Y-59545902D01*
X88060211Y-59600643D01*
X88060208Y-59600645D01*
X88055700Y-59603802D01*
X87893802Y-59765700D01*
X87762477Y-59953251D01*
X87760154Y-59958233D01*
X87760151Y-59958238D01*
X87744195Y-59992457D01*
X87697278Y-60045742D01*
X87629001Y-60065203D01*
X87561041Y-60044661D01*
X87515805Y-59992457D01*
X87499849Y-59958238D01*
X87499846Y-59958233D01*
X87497523Y-59953251D01*
X87366198Y-59765700D01*
X87204300Y-59603802D01*
X87199792Y-59600645D01*
X87199789Y-59600643D01*
X87121611Y-59545902D01*
X87016749Y-59472477D01*
X87011767Y-59470154D01*
X87011762Y-59470151D01*
X86814225Y-59378039D01*
X86814224Y-59378039D01*
X86809243Y-59375716D01*
X86803935Y-59374294D01*
X86803933Y-59374293D01*
X86593402Y-59317881D01*
X86593400Y-59317881D01*
X86588087Y-59316457D01*
X86360000Y-59296502D01*
X86131913Y-59316457D01*
X86126600Y-59317881D01*
X86126598Y-59317881D01*
X85916067Y-59374293D01*
X85916065Y-59374294D01*
X85910757Y-59375716D01*
X85905776Y-59378039D01*
X85905775Y-59378039D01*
X85708238Y-59470151D01*
X85708233Y-59470154D01*
X85703251Y-59472477D01*
X85598389Y-59545902D01*
X85520211Y-59600643D01*
X85520208Y-59600645D01*
X85515700Y-59603802D01*
X85353802Y-59765700D01*
X85222477Y-59953251D01*
X85220154Y-59958233D01*
X85220151Y-59958238D01*
X85204195Y-59992457D01*
X85125716Y-60160757D01*
X85066457Y-60381913D01*
X85051500Y-60552873D01*
X85051500Y-61367127D01*
X85066457Y-61538087D01*
X85125716Y-61759243D01*
X85128039Y-61764224D01*
X85128039Y-61764225D01*
X85220151Y-61961762D01*
X85220154Y-61961767D01*
X85222477Y-61966749D01*
X85225634Y-61971257D01*
X85348067Y-62146109D01*
X85353802Y-62154300D01*
X85515700Y-62316198D01*
X85520208Y-62319355D01*
X85520211Y-62319357D01*
X85563420Y-62349612D01*
X85703251Y-62447523D01*
X85708233Y-62449846D01*
X85708238Y-62449849D01*
X85905775Y-62541961D01*
X85910757Y-62544284D01*
X85916065Y-62545706D01*
X85916067Y-62545707D01*
X86126598Y-62602119D01*
X86126600Y-62602119D01*
X86131913Y-62603543D01*
X86360000Y-62623498D01*
X86588087Y-62603543D01*
X86593400Y-62602119D01*
X86593402Y-62602119D01*
X86803933Y-62545707D01*
X86803935Y-62545706D01*
X86809243Y-62544284D01*
X86814225Y-62541961D01*
X87011762Y-62449849D01*
X87011767Y-62449846D01*
X87016749Y-62447523D01*
X87156580Y-62349612D01*
X87199789Y-62319357D01*
X87199792Y-62319355D01*
X87204300Y-62316198D01*
X87366198Y-62154300D01*
X87371934Y-62146109D01*
X87494366Y-61971257D01*
X87497523Y-61966749D01*
X87499846Y-61961767D01*
X87499849Y-61961762D01*
X87515805Y-61927543D01*
X87562722Y-61874258D01*
X87630999Y-61854797D01*
X87698959Y-61875339D01*
X87744195Y-61927543D01*
X87760151Y-61961762D01*
X87760154Y-61961767D01*
X87762477Y-61966749D01*
X87765634Y-61971257D01*
X87888067Y-62146109D01*
X87893802Y-62154300D01*
X88055700Y-62316198D01*
X88060208Y-62319355D01*
X88060211Y-62319357D01*
X88103420Y-62349612D01*
X88243251Y-62447523D01*
X88248233Y-62449846D01*
X88248238Y-62449849D01*
X88445775Y-62541961D01*
X88450757Y-62544284D01*
X88456065Y-62545706D01*
X88456067Y-62545707D01*
X88666598Y-62602119D01*
X88666600Y-62602119D01*
X88671913Y-62603543D01*
X88900000Y-62623498D01*
X88905475Y-62623019D01*
X89059645Y-62609531D01*
X89129250Y-62623520D01*
X89159722Y-62645957D01*
X90683149Y-64169384D01*
X90692251Y-64179527D01*
X90715968Y-64209025D01*
X90754446Y-64241312D01*
X90758062Y-64244467D01*
X90759888Y-64246123D01*
X90762074Y-64248309D01*
X90764454Y-64250264D01*
X90764464Y-64250273D01*
X90795268Y-64275576D01*
X90796283Y-64276418D01*
X90867474Y-64336154D01*
X90872148Y-64338723D01*
X90876261Y-64342102D01*
X90881698Y-64345017D01*
X90881699Y-64345018D01*
X90958047Y-64385955D01*
X90959177Y-64386568D01*
X91040787Y-64431433D01*
X91045869Y-64433045D01*
X91050563Y-64435562D01*
X91139531Y-64462762D01*
X91140559Y-64463082D01*
X91229306Y-64491235D01*
X91234602Y-64491829D01*
X91239698Y-64493387D01*
X91332257Y-64502790D01*
X91333393Y-64502911D01*
X91367008Y-64506681D01*
X91379730Y-64508108D01*
X91379734Y-64508108D01*
X91383227Y-64508500D01*
X91386754Y-64508500D01*
X91387739Y-64508555D01*
X91393419Y-64509002D01*
X91422825Y-64511989D01*
X91430337Y-64512752D01*
X91430339Y-64512752D01*
X91436462Y-64513374D01*
X91482108Y-64509059D01*
X91493967Y-64508500D01*
X102405500Y-64508500D01*
X102473621Y-64528502D01*
X102520114Y-64582158D01*
X102531500Y-64634500D01*
X102531500Y-64648134D01*
X102538255Y-64710316D01*
X102589385Y-64846705D01*
X102676739Y-64963261D01*
X102793295Y-65050615D01*
X102929684Y-65101745D01*
X102991866Y-65108500D01*
X103005500Y-65108500D01*
X103073621Y-65128502D01*
X103120114Y-65182158D01*
X103131500Y-65234500D01*
X103131500Y-65500716D01*
X103111498Y-65568837D01*
X103094595Y-65589811D01*
X101767426Y-66916981D01*
X100571073Y-68113334D01*
X100508761Y-68147359D01*
X100437946Y-68142295D01*
X100381110Y-68099748D01*
X100356457Y-68035220D01*
X100354023Y-68007394D01*
X100354022Y-68007389D01*
X100353543Y-68001913D01*
X100294284Y-67780757D01*
X100291961Y-67775775D01*
X100199849Y-67578238D01*
X100199846Y-67578233D01*
X100197523Y-67573251D01*
X100090000Y-67419693D01*
X100069357Y-67390211D01*
X100069355Y-67390208D01*
X100066198Y-67385700D01*
X99904300Y-67223802D01*
X99899792Y-67220645D01*
X99899789Y-67220643D01*
X99812099Y-67159242D01*
X99716749Y-67092477D01*
X99711767Y-67090154D01*
X99711762Y-67090151D01*
X99514225Y-66998039D01*
X99514224Y-66998039D01*
X99509243Y-66995716D01*
X99503935Y-66994294D01*
X99503933Y-66994293D01*
X99293402Y-66937881D01*
X99293400Y-66937881D01*
X99288087Y-66936457D01*
X99060000Y-66916502D01*
X98831913Y-66936457D01*
X98826600Y-66937881D01*
X98826598Y-66937881D01*
X98616067Y-66994293D01*
X98616065Y-66994294D01*
X98610757Y-66995716D01*
X98605776Y-66998039D01*
X98605775Y-66998039D01*
X98408238Y-67090151D01*
X98408233Y-67090154D01*
X98403251Y-67092477D01*
X98307901Y-67159242D01*
X98220211Y-67220643D01*
X98220208Y-67220645D01*
X98215700Y-67223802D01*
X98053802Y-67385700D01*
X98050645Y-67390208D01*
X98050643Y-67390211D01*
X98030000Y-67419693D01*
X97922477Y-67573251D01*
X97920154Y-67578233D01*
X97920151Y-67578238D01*
X97828039Y-67775775D01*
X97825716Y-67780757D01*
X97766457Y-68001913D01*
X97751500Y-68172873D01*
X97751500Y-68987127D01*
X97766457Y-69158087D01*
X97825716Y-69379243D01*
X97828039Y-69384224D01*
X97828039Y-69384225D01*
X97920151Y-69581762D01*
X97920154Y-69581767D01*
X97922477Y-69586749D01*
X98053802Y-69774300D01*
X98175907Y-69896405D01*
X98209933Y-69958717D01*
X98204868Y-70029532D01*
X98162321Y-70086368D01*
X98095801Y-70111179D01*
X98086812Y-70111500D01*
X89873188Y-70111500D01*
X89805067Y-70091498D01*
X89758574Y-70037842D01*
X89748470Y-69967568D01*
X89777964Y-69902988D01*
X89784093Y-69896405D01*
X89906198Y-69774300D01*
X90037523Y-69586749D01*
X90039846Y-69581767D01*
X90039849Y-69581762D01*
X90131961Y-69384225D01*
X90131961Y-69384224D01*
X90134284Y-69379243D01*
X90193543Y-69158087D01*
X90208500Y-68987127D01*
X90208500Y-68172873D01*
X90193543Y-68001913D01*
X90134284Y-67780757D01*
X90131961Y-67775775D01*
X90039849Y-67578238D01*
X90039846Y-67578233D01*
X90037523Y-67573251D01*
X89930000Y-67419693D01*
X89909357Y-67390211D01*
X89909355Y-67390208D01*
X89906198Y-67385700D01*
X89744300Y-67223802D01*
X89739792Y-67220645D01*
X89739789Y-67220643D01*
X89652099Y-67159242D01*
X89556749Y-67092477D01*
X89551767Y-67090154D01*
X89551762Y-67090151D01*
X89354225Y-66998039D01*
X89354224Y-66998039D01*
X89349243Y-66995716D01*
X89343935Y-66994294D01*
X89343933Y-66994293D01*
X89133402Y-66937881D01*
X89133400Y-66937881D01*
X89128087Y-66936457D01*
X88900000Y-66916502D01*
X88671913Y-66936457D01*
X88666600Y-66937881D01*
X88666598Y-66937881D01*
X88456067Y-66994293D01*
X88456065Y-66994294D01*
X88450757Y-66995716D01*
X88445776Y-66998039D01*
X88445775Y-66998039D01*
X88248238Y-67090151D01*
X88248233Y-67090154D01*
X88243251Y-67092477D01*
X88147901Y-67159242D01*
X88060211Y-67220643D01*
X88060208Y-67220645D01*
X88055700Y-67223802D01*
X87893802Y-67385700D01*
X87890645Y-67390208D01*
X87890643Y-67390211D01*
X87870000Y-67419693D01*
X87762477Y-67573251D01*
X87760154Y-67578233D01*
X87760151Y-67578238D01*
X87744195Y-67612457D01*
X87697278Y-67665742D01*
X87629001Y-67685203D01*
X87561041Y-67664661D01*
X87515805Y-67612457D01*
X87499849Y-67578238D01*
X87499846Y-67578233D01*
X87497523Y-67573251D01*
X87390000Y-67419693D01*
X87369357Y-67390211D01*
X87369355Y-67390208D01*
X87366198Y-67385700D01*
X87204300Y-67223802D01*
X87199792Y-67220645D01*
X87199789Y-67220643D01*
X87112099Y-67159242D01*
X87016749Y-67092477D01*
X87011767Y-67090154D01*
X87011762Y-67090151D01*
X86814225Y-66998039D01*
X86814224Y-66998039D01*
X86809243Y-66995716D01*
X86803935Y-66994294D01*
X86803933Y-66994293D01*
X86593402Y-66937881D01*
X86593400Y-66937881D01*
X86588087Y-66936457D01*
X86360000Y-66916502D01*
X86131913Y-66936457D01*
X86126600Y-66937881D01*
X86126598Y-66937881D01*
X85916067Y-66994293D01*
X85916065Y-66994294D01*
X85910757Y-66995716D01*
X85905776Y-66998039D01*
X85905775Y-66998039D01*
X85708238Y-67090151D01*
X85708233Y-67090154D01*
X85703251Y-67092477D01*
X85607901Y-67159242D01*
X85520211Y-67220643D01*
X85520208Y-67220645D01*
X85515700Y-67223802D01*
X85353802Y-67385700D01*
X85350645Y-67390208D01*
X85350643Y-67390211D01*
X85330000Y-67419693D01*
X85222477Y-67573251D01*
X85220154Y-67578233D01*
X85220151Y-67578238D01*
X85128039Y-67775775D01*
X85125716Y-67780757D01*
X85066457Y-68001913D01*
X85051500Y-68172873D01*
X85051500Y-68987127D01*
X85066457Y-69158087D01*
X85125716Y-69379243D01*
X85128039Y-69384224D01*
X85128039Y-69384225D01*
X85220151Y-69581762D01*
X85220154Y-69581767D01*
X85222477Y-69586749D01*
X85353802Y-69774300D01*
X85515700Y-69936198D01*
X85520208Y-69939355D01*
X85520211Y-69939357D01*
X85547860Y-69958717D01*
X85703251Y-70067523D01*
X85708233Y-70069846D01*
X85708238Y-70069849D01*
X85895747Y-70157285D01*
X85910757Y-70164284D01*
X85916065Y-70165706D01*
X85916067Y-70165707D01*
X86126598Y-70222119D01*
X86126600Y-70222119D01*
X86131913Y-70223543D01*
X86360000Y-70243498D01*
X86588087Y-70223543D01*
X86593400Y-70222119D01*
X86593402Y-70222119D01*
X86803933Y-70165707D01*
X86803935Y-70165706D01*
X86809243Y-70164284D01*
X86824253Y-70157285D01*
X87011762Y-70069849D01*
X87011767Y-70069846D01*
X87016749Y-70067523D01*
X87172140Y-69958717D01*
X87199789Y-69939357D01*
X87199792Y-69939355D01*
X87204300Y-69936198D01*
X87366198Y-69774300D01*
X87497523Y-69586749D01*
X87499846Y-69581767D01*
X87499849Y-69581762D01*
X87515805Y-69547543D01*
X87562722Y-69494258D01*
X87630999Y-69474797D01*
X87698959Y-69495339D01*
X87744195Y-69547543D01*
X87760151Y-69581762D01*
X87760154Y-69581767D01*
X87762477Y-69586749D01*
X87893802Y-69774300D01*
X88055700Y-69936198D01*
X88060208Y-69939355D01*
X88060211Y-69939357D01*
X88087860Y-69958717D01*
X88243251Y-70067523D01*
X88248236Y-70069847D01*
X88248242Y-70069851D01*
X88284839Y-70086916D01*
X88338125Y-70133833D01*
X88357586Y-70202110D01*
X88337045Y-70270070D01*
X88311231Y-70298749D01*
X88267054Y-70334779D01*
X88266142Y-70335515D01*
X88227028Y-70366738D01*
X88224537Y-70369229D01*
X88223810Y-70369879D01*
X88219461Y-70373594D01*
X88185938Y-70400935D01*
X88182015Y-70405677D01*
X88182013Y-70405679D01*
X88156703Y-70436273D01*
X88148713Y-70445053D01*
X83654078Y-74939688D01*
X83591766Y-74973714D01*
X83564983Y-74976593D01*
X82964011Y-74976593D01*
X82895890Y-74956591D01*
X82849397Y-74902935D01*
X82838011Y-74850593D01*
X82838011Y-72341600D01*
X82839444Y-72322651D01*
X82839475Y-72322444D01*
X82842709Y-72301188D01*
X82838426Y-72248527D01*
X82838011Y-72238314D01*
X82838011Y-72230244D01*
X82837589Y-72226624D01*
X82837588Y-72226606D01*
X82834719Y-72201998D01*
X82834286Y-72197623D01*
X82828965Y-72132198D01*
X82828964Y-72132195D01*
X82828371Y-72124900D01*
X82826115Y-72117936D01*
X82824924Y-72111977D01*
X82823540Y-72106122D01*
X82822693Y-72098856D01*
X82797776Y-72030210D01*
X82796359Y-72026082D01*
X82776118Y-71963601D01*
X82776117Y-71963599D01*
X82773862Y-71956638D01*
X82770066Y-71950383D01*
X82767560Y-71944909D01*
X82764841Y-71939479D01*
X82762344Y-71932600D01*
X82722320Y-71871553D01*
X82719983Y-71867849D01*
X82685020Y-71810230D01*
X82685016Y-71810225D01*
X82682106Y-71805429D01*
X82674708Y-71797053D01*
X82674734Y-71797030D01*
X82672085Y-71794040D01*
X82669377Y-71790801D01*
X82665367Y-71784685D01*
X82660060Y-71779658D01*
X82660057Y-71779654D01*
X82609128Y-71731409D01*
X82606686Y-71729031D01*
X82358744Y-71481089D01*
X82346358Y-71466677D01*
X82337825Y-71455082D01*
X82337820Y-71455077D01*
X82333482Y-71449182D01*
X82327904Y-71444443D01*
X82327901Y-71444440D01*
X82293206Y-71414965D01*
X82285690Y-71408035D01*
X82279995Y-71402340D01*
X82273854Y-71397482D01*
X82257723Y-71384719D01*
X82254319Y-71381928D01*
X82204271Y-71339409D01*
X82204269Y-71339408D01*
X82198689Y-71334667D01*
X82192173Y-71331339D01*
X82187124Y-71327972D01*
X82181995Y-71324805D01*
X82176258Y-71320266D01*
X82110099Y-71289345D01*
X82106199Y-71287439D01*
X82041166Y-71254231D01*
X82034058Y-71252492D01*
X82028415Y-71250393D01*
X82022652Y-71248476D01*
X82016024Y-71245378D01*
X81944557Y-71230513D01*
X81940273Y-71229543D01*
X81927032Y-71226303D01*
X81869364Y-71212192D01*
X81863762Y-71211844D01*
X81863759Y-71211844D01*
X81858210Y-71211500D01*
X81858212Y-71211464D01*
X81854219Y-71211225D01*
X81850027Y-71210851D01*
X81842859Y-71209360D01*
X81776649Y-71211151D01*
X81765453Y-71211454D01*
X81762046Y-71211500D01*
X81713867Y-71211500D01*
X81662618Y-71200607D01*
X81552783Y-71151705D01*
X81552781Y-71151705D01*
X81546752Y-71149020D01*
X81458492Y-71130260D01*
X81376689Y-71112872D01*
X81376685Y-71112872D01*
X81370232Y-71111500D01*
X81189768Y-71111500D01*
X81183315Y-71112872D01*
X81183311Y-71112872D01*
X81101508Y-71130260D01*
X81013248Y-71149020D01*
X81007219Y-71151704D01*
X81007217Y-71151705D01*
X80897383Y-71200607D01*
X80846134Y-71211500D01*
X80363867Y-71211500D01*
X80312618Y-71200607D01*
X80202783Y-71151705D01*
X80202781Y-71151705D01*
X80196752Y-71149020D01*
X80108492Y-71130260D01*
X80026689Y-71112872D01*
X80026685Y-71112872D01*
X80020232Y-71111500D01*
X79839768Y-71111500D01*
X79833315Y-71112872D01*
X79833311Y-71112872D01*
X79751508Y-71130260D01*
X79663248Y-71149020D01*
X79657219Y-71151704D01*
X79657217Y-71151705D01*
X79504416Y-71219737D01*
X79504414Y-71219738D01*
X79498386Y-71222422D01*
X79493045Y-71226302D01*
X79493044Y-71226303D01*
X79357731Y-71324613D01*
X79357729Y-71324615D01*
X79352387Y-71328496D01*
X79347966Y-71333406D01*
X79347965Y-71333407D01*
X79238409Y-71455082D01*
X79231633Y-71462607D01*
X79141401Y-71618893D01*
X79085635Y-71790525D01*
X79066771Y-71970000D01*
X79067461Y-71976565D01*
X79084271Y-72136493D01*
X79085635Y-72149475D01*
X79087675Y-72155753D01*
X79087675Y-72155754D01*
X79105453Y-72210468D01*
X79141401Y-72321107D01*
X79147691Y-72332001D01*
X79164428Y-72400996D01*
X79147691Y-72457998D01*
X79141401Y-72468893D01*
X79085635Y-72640525D01*
X79066771Y-72820000D01*
X79067461Y-72826565D01*
X79078551Y-72932072D01*
X79085635Y-72999475D01*
X79141401Y-73171107D01*
X79147691Y-73182001D01*
X79164428Y-73250996D01*
X79147691Y-73307998D01*
X79141401Y-73318893D01*
X79139359Y-73325178D01*
X79110977Y-73412531D01*
X79085635Y-73490525D01*
X79066771Y-73670000D01*
X79085635Y-73849475D01*
X79141401Y-74021107D01*
X79147691Y-74032001D01*
X79164428Y-74100996D01*
X79147691Y-74157998D01*
X79141401Y-74168893D01*
X79085635Y-74340525D01*
X79084945Y-74347088D01*
X79084945Y-74347089D01*
X79075602Y-74435978D01*
X79066771Y-74520000D01*
X79085635Y-74699475D01*
X79141401Y-74871107D01*
X79147691Y-74882001D01*
X79164428Y-74950996D01*
X79147691Y-75007998D01*
X79141401Y-75018893D01*
X79085635Y-75190525D01*
X79084945Y-75197088D01*
X79084945Y-75197089D01*
X79070092Y-75338401D01*
X79066771Y-75370000D01*
X79067461Y-75376565D01*
X79083733Y-75531375D01*
X79085635Y-75549475D01*
X79141401Y-75721107D01*
X79147691Y-75732001D01*
X79164428Y-75800996D01*
X79147691Y-75857998D01*
X79141401Y-75868893D01*
X79139359Y-75875178D01*
X79088805Y-76030770D01*
X79085635Y-76040525D01*
X79084945Y-76047088D01*
X79084945Y-76047089D01*
X79079711Y-76096888D01*
X79066771Y-76220000D01*
X74168500Y-76220000D01*
X74168500Y-66040000D01*
X80066884Y-66040000D01*
X80085314Y-66250655D01*
X80086738Y-66255968D01*
X80086738Y-66255970D01*
X80115892Y-66364772D01*
X80140044Y-66454910D01*
X80142366Y-66459891D01*
X80142367Y-66459892D01*
X80181474Y-66543756D01*
X80229411Y-66646558D01*
X80350699Y-66819776D01*
X80500224Y-66969301D01*
X80673442Y-67090589D01*
X80678420Y-67092910D01*
X80678423Y-67092912D01*
X80860108Y-67177633D01*
X80865090Y-67179956D01*
X80870398Y-67181378D01*
X80870400Y-67181379D01*
X81064030Y-67233262D01*
X81064032Y-67233262D01*
X81069345Y-67234686D01*
X81280000Y-67253116D01*
X81490655Y-67234686D01*
X81495968Y-67233262D01*
X81495970Y-67233262D01*
X81689600Y-67181379D01*
X81689602Y-67181378D01*
X81694910Y-67179956D01*
X81699892Y-67177633D01*
X81881577Y-67092912D01*
X81881580Y-67092910D01*
X81886558Y-67090589D01*
X82059776Y-66969301D01*
X82209301Y-66819776D01*
X82330589Y-66646558D01*
X82378527Y-66543756D01*
X82417633Y-66459892D01*
X82417634Y-66459891D01*
X82419956Y-66454910D01*
X82444109Y-66364772D01*
X82473262Y-66255970D01*
X82473262Y-66255968D01*
X82474686Y-66250655D01*
X82493116Y-66040000D01*
X82474686Y-65829345D01*
X82419956Y-65625090D01*
X82386296Y-65552906D01*
X82332912Y-65438423D01*
X82332910Y-65438420D01*
X82330589Y-65433442D01*
X82209301Y-65260224D01*
X82059776Y-65110699D01*
X81886558Y-64989411D01*
X81881580Y-64987090D01*
X81881577Y-64987088D01*
X81699892Y-64902367D01*
X81699891Y-64902366D01*
X81694910Y-64900044D01*
X81689602Y-64898622D01*
X81689600Y-64898621D01*
X81495970Y-64846738D01*
X81495968Y-64846738D01*
X81490655Y-64845314D01*
X81280000Y-64826884D01*
X81069345Y-64845314D01*
X81064032Y-64846738D01*
X81064030Y-64846738D01*
X80870400Y-64898621D01*
X80870398Y-64898622D01*
X80865090Y-64900044D01*
X80860109Y-64902366D01*
X80860108Y-64902367D01*
X80678423Y-64987088D01*
X80678420Y-64987090D01*
X80673442Y-64989411D01*
X80500224Y-65110699D01*
X80350699Y-65260224D01*
X80229411Y-65433442D01*
X80227090Y-65438420D01*
X80227088Y-65438423D01*
X80173704Y-65552906D01*
X80140044Y-65625090D01*
X80085314Y-65829345D01*
X80066884Y-66040000D01*
X74168500Y-66040000D01*
X74168500Y-53292526D01*
X79467050Y-53292526D01*
X79467274Y-53297192D01*
X79467274Y-53297197D01*
X79467978Y-53311851D01*
X79479947Y-53561019D01*
X79532388Y-53824656D01*
X79623220Y-54077646D01*
X79750450Y-54314431D01*
X79753241Y-54318168D01*
X79753245Y-54318175D01*
X79802527Y-54384171D01*
X79911281Y-54529810D01*
X79914590Y-54533090D01*
X79914595Y-54533096D01*
X80098863Y-54715762D01*
X80102180Y-54719050D01*
X80105942Y-54721808D01*
X80105945Y-54721811D01*
X80154912Y-54757715D01*
X80318954Y-54877995D01*
X80323089Y-54880171D01*
X80323093Y-54880173D01*
X80552698Y-55000975D01*
X80556840Y-55003154D01*
X80810613Y-55091775D01*
X80815206Y-55092647D01*
X81070109Y-55141042D01*
X81070112Y-55141042D01*
X81074698Y-55141913D01*
X81202370Y-55146929D01*
X81338625Y-55152283D01*
X81338630Y-55152283D01*
X81343293Y-55152466D01*
X81447607Y-55141042D01*
X81605844Y-55123713D01*
X81605850Y-55123712D01*
X81610497Y-55123203D01*
X81676522Y-55105820D01*
X81865918Y-55055956D01*
X81865920Y-55055955D01*
X81870441Y-55054765D01*
X81874738Y-55052919D01*
X82113120Y-54950502D01*
X82113122Y-54950501D01*
X82117414Y-54948657D01*
X82236071Y-54875230D01*
X82342017Y-54809669D01*
X82342021Y-54809666D01*
X82345990Y-54807210D01*
X82486648Y-54688134D01*
X84551500Y-54688134D01*
X84558255Y-54750316D01*
X84609385Y-54886705D01*
X84696739Y-55003261D01*
X84813295Y-55090615D01*
X84949684Y-55141745D01*
X85011866Y-55148500D01*
X87708134Y-55148500D01*
X87770316Y-55141745D01*
X87906705Y-55090615D01*
X88023261Y-55003261D01*
X88110615Y-54886705D01*
X88161745Y-54750316D01*
X88168500Y-54688134D01*
X88168500Y-53292526D01*
X92167050Y-53292526D01*
X92167274Y-53297192D01*
X92167274Y-53297197D01*
X92167978Y-53311851D01*
X92179947Y-53561019D01*
X92232388Y-53824656D01*
X92323220Y-54077646D01*
X92450450Y-54314431D01*
X92453241Y-54318168D01*
X92453245Y-54318175D01*
X92502527Y-54384171D01*
X92611281Y-54529810D01*
X92614590Y-54533090D01*
X92614595Y-54533096D01*
X92798863Y-54715762D01*
X92802180Y-54719050D01*
X92805942Y-54721808D01*
X92805945Y-54721811D01*
X92854912Y-54757715D01*
X93018954Y-54877995D01*
X93023089Y-54880171D01*
X93023093Y-54880173D01*
X93252698Y-55000975D01*
X93256840Y-55003154D01*
X93510613Y-55091775D01*
X93515206Y-55092647D01*
X93770109Y-55141042D01*
X93770112Y-55141042D01*
X93774698Y-55141913D01*
X93902370Y-55146929D01*
X94038625Y-55152283D01*
X94038630Y-55152283D01*
X94043293Y-55152466D01*
X94147607Y-55141042D01*
X94305844Y-55123713D01*
X94305850Y-55123712D01*
X94310497Y-55123203D01*
X94376522Y-55105820D01*
X94565918Y-55055956D01*
X94565920Y-55055955D01*
X94570441Y-55054765D01*
X94574738Y-55052919D01*
X94813120Y-54950502D01*
X94813122Y-54950501D01*
X94817414Y-54948657D01*
X94936071Y-54875230D01*
X95042017Y-54809669D01*
X95042021Y-54809666D01*
X95045990Y-54807210D01*
X95186648Y-54688134D01*
X97251500Y-54688134D01*
X97258255Y-54750316D01*
X97309385Y-54886705D01*
X97396739Y-55003261D01*
X97513295Y-55090615D01*
X97649684Y-55141745D01*
X97711866Y-55148500D01*
X100408134Y-55148500D01*
X100470316Y-55141745D01*
X100606705Y-55090615D01*
X100723261Y-55003261D01*
X100810615Y-54886705D01*
X100861745Y-54750316D01*
X100868500Y-54688134D01*
X100868500Y-53292526D01*
X104867050Y-53292526D01*
X104867274Y-53297192D01*
X104867274Y-53297197D01*
X104867978Y-53311851D01*
X104879947Y-53561019D01*
X104932388Y-53824656D01*
X105023220Y-54077646D01*
X105150450Y-54314431D01*
X105153241Y-54318168D01*
X105153245Y-54318175D01*
X105202527Y-54384171D01*
X105311281Y-54529810D01*
X105314590Y-54533090D01*
X105314595Y-54533096D01*
X105498863Y-54715762D01*
X105502180Y-54719050D01*
X105505942Y-54721808D01*
X105505945Y-54721811D01*
X105554912Y-54757715D01*
X105718954Y-54877995D01*
X105723089Y-54880171D01*
X105723093Y-54880173D01*
X105952698Y-55000975D01*
X105956840Y-55003154D01*
X106210613Y-55091775D01*
X106215206Y-55092647D01*
X106470109Y-55141042D01*
X106470112Y-55141042D01*
X106474698Y-55141913D01*
X106602370Y-55146929D01*
X106738625Y-55152283D01*
X106738630Y-55152283D01*
X106743293Y-55152466D01*
X106847607Y-55141042D01*
X107005844Y-55123713D01*
X107005850Y-55123712D01*
X107010497Y-55123203D01*
X107076522Y-55105820D01*
X107265918Y-55055956D01*
X107265920Y-55055955D01*
X107270441Y-55054765D01*
X107274738Y-55052919D01*
X107513120Y-54950502D01*
X107513122Y-54950501D01*
X107517414Y-54948657D01*
X107636071Y-54875230D01*
X107742017Y-54809669D01*
X107742021Y-54809666D01*
X107745990Y-54807210D01*
X107886648Y-54688134D01*
X109951500Y-54688134D01*
X109958255Y-54750316D01*
X110009385Y-54886705D01*
X110096739Y-55003261D01*
X110213295Y-55090615D01*
X110349684Y-55141745D01*
X110411866Y-55148500D01*
X113108134Y-55148500D01*
X113170316Y-55141745D01*
X113306705Y-55090615D01*
X113423261Y-55003261D01*
X113510615Y-54886705D01*
X113561745Y-54750316D01*
X113568500Y-54688134D01*
X113568500Y-53292526D01*
X117567050Y-53292526D01*
X117567274Y-53297192D01*
X117567274Y-53297197D01*
X117567978Y-53311851D01*
X117579947Y-53561019D01*
X117632388Y-53824656D01*
X117723220Y-54077646D01*
X117850450Y-54314431D01*
X117853241Y-54318168D01*
X117853245Y-54318175D01*
X117902527Y-54384171D01*
X118011281Y-54529810D01*
X118014590Y-54533090D01*
X118014595Y-54533096D01*
X118198863Y-54715762D01*
X118202180Y-54719050D01*
X118205942Y-54721808D01*
X118205945Y-54721811D01*
X118254912Y-54757715D01*
X118418954Y-54877995D01*
X118423089Y-54880171D01*
X118423093Y-54880173D01*
X118652698Y-55000975D01*
X118656840Y-55003154D01*
X118910613Y-55091775D01*
X118915206Y-55092647D01*
X119170109Y-55141042D01*
X119170112Y-55141042D01*
X119174698Y-55141913D01*
X119302370Y-55146929D01*
X119438625Y-55152283D01*
X119438630Y-55152283D01*
X119443293Y-55152466D01*
X119547607Y-55141042D01*
X119705844Y-55123713D01*
X119705850Y-55123712D01*
X119710497Y-55123203D01*
X119776522Y-55105820D01*
X119965918Y-55055956D01*
X119965920Y-55055955D01*
X119970441Y-55054765D01*
X119974738Y-55052919D01*
X120213120Y-54950502D01*
X120213122Y-54950501D01*
X120217414Y-54948657D01*
X120336071Y-54875230D01*
X120442017Y-54809669D01*
X120442021Y-54809666D01*
X120445990Y-54807210D01*
X120586648Y-54688134D01*
X122651500Y-54688134D01*
X122658255Y-54750316D01*
X122709385Y-54886705D01*
X122796739Y-55003261D01*
X122913295Y-55090615D01*
X123049684Y-55141745D01*
X123111866Y-55148500D01*
X125808134Y-55148500D01*
X125870316Y-55141745D01*
X126006705Y-55090615D01*
X126123261Y-55003261D01*
X126210615Y-54886705D01*
X126261745Y-54750316D01*
X126268500Y-54688134D01*
X126268500Y-51991866D01*
X126261745Y-51929684D01*
X126210615Y-51793295D01*
X126123261Y-51676739D01*
X126006705Y-51589385D01*
X125870316Y-51538255D01*
X125808134Y-51531500D01*
X123111866Y-51531500D01*
X123049684Y-51538255D01*
X122913295Y-51589385D01*
X122796739Y-51676739D01*
X122709385Y-51793295D01*
X122658255Y-51929684D01*
X122651500Y-51991866D01*
X122651500Y-54688134D01*
X120586648Y-54688134D01*
X120651149Y-54633530D01*
X120828382Y-54431434D01*
X120973797Y-54205361D01*
X121084199Y-53960278D01*
X121117610Y-53841811D01*
X121155893Y-53706072D01*
X121155894Y-53706069D01*
X121157163Y-53701568D01*
X121175043Y-53561019D01*
X121190688Y-53438045D01*
X121190688Y-53438041D01*
X121191086Y-53434915D01*
X121193571Y-53340000D01*
X121191096Y-53306695D01*
X121173996Y-53076592D01*
X121173996Y-53076591D01*
X121173650Y-53071937D01*
X121133830Y-52895954D01*
X121115361Y-52814331D01*
X121115360Y-52814326D01*
X121114327Y-52809763D01*
X121016902Y-52559238D01*
X120883518Y-52325864D01*
X120717105Y-52114769D01*
X120521317Y-51930591D01*
X120323407Y-51793295D01*
X120304299Y-51780039D01*
X120304296Y-51780037D01*
X120300457Y-51777374D01*
X120296264Y-51775306D01*
X120063564Y-51660551D01*
X120063561Y-51660550D01*
X120059376Y-51658486D01*
X120011745Y-51643239D01*
X119833657Y-51586233D01*
X119803370Y-51576538D01*
X119798763Y-51575788D01*
X119798760Y-51575787D01*
X119585337Y-51541029D01*
X119538063Y-51533330D01*
X119407719Y-51531624D01*
X119273961Y-51529873D01*
X119273958Y-51529873D01*
X119269284Y-51529812D01*
X119002937Y-51566060D01*
X118744874Y-51641278D01*
X118500763Y-51753815D01*
X118496854Y-51756378D01*
X118279881Y-51898631D01*
X118279876Y-51898635D01*
X118275968Y-51901197D01*
X118075426Y-52080188D01*
X117903544Y-52286854D01*
X117901121Y-52290847D01*
X117769181Y-52508277D01*
X117764096Y-52516656D01*
X117762287Y-52520970D01*
X117762285Y-52520974D01*
X117690236Y-52692792D01*
X117660148Y-52764545D01*
X117593981Y-53025077D01*
X117567050Y-53292526D01*
X113568500Y-53292526D01*
X113568500Y-51991866D01*
X113561745Y-51929684D01*
X113510615Y-51793295D01*
X113423261Y-51676739D01*
X113306705Y-51589385D01*
X113170316Y-51538255D01*
X113108134Y-51531500D01*
X110411866Y-51531500D01*
X110349684Y-51538255D01*
X110213295Y-51589385D01*
X110096739Y-51676739D01*
X110009385Y-51793295D01*
X109958255Y-51929684D01*
X109951500Y-51991866D01*
X109951500Y-54688134D01*
X107886648Y-54688134D01*
X107951149Y-54633530D01*
X108128382Y-54431434D01*
X108273797Y-54205361D01*
X108384199Y-53960278D01*
X108417610Y-53841811D01*
X108455893Y-53706072D01*
X108455894Y-53706069D01*
X108457163Y-53701568D01*
X108475043Y-53561019D01*
X108490688Y-53438045D01*
X108490688Y-53438041D01*
X108491086Y-53434915D01*
X108493571Y-53340000D01*
X108491096Y-53306695D01*
X108473996Y-53076592D01*
X108473996Y-53076591D01*
X108473650Y-53071937D01*
X108433830Y-52895954D01*
X108415361Y-52814331D01*
X108415360Y-52814326D01*
X108414327Y-52809763D01*
X108316902Y-52559238D01*
X108183518Y-52325864D01*
X108017105Y-52114769D01*
X107821317Y-51930591D01*
X107623407Y-51793295D01*
X107604299Y-51780039D01*
X107604296Y-51780037D01*
X107600457Y-51777374D01*
X107596264Y-51775306D01*
X107363564Y-51660551D01*
X107363561Y-51660550D01*
X107359376Y-51658486D01*
X107311745Y-51643239D01*
X107133657Y-51586233D01*
X107103370Y-51576538D01*
X107098763Y-51575788D01*
X107098760Y-51575787D01*
X106885337Y-51541029D01*
X106838063Y-51533330D01*
X106707719Y-51531624D01*
X106573961Y-51529873D01*
X106573958Y-51529873D01*
X106569284Y-51529812D01*
X106302937Y-51566060D01*
X106044874Y-51641278D01*
X105800763Y-51753815D01*
X105796854Y-51756378D01*
X105579881Y-51898631D01*
X105579876Y-51898635D01*
X105575968Y-51901197D01*
X105375426Y-52080188D01*
X105203544Y-52286854D01*
X105201121Y-52290847D01*
X105069181Y-52508277D01*
X105064096Y-52516656D01*
X105062287Y-52520970D01*
X105062285Y-52520974D01*
X104990236Y-52692792D01*
X104960148Y-52764545D01*
X104893981Y-53025077D01*
X104867050Y-53292526D01*
X100868500Y-53292526D01*
X100868500Y-51991866D01*
X100861745Y-51929684D01*
X100810615Y-51793295D01*
X100723261Y-51676739D01*
X100606705Y-51589385D01*
X100470316Y-51538255D01*
X100408134Y-51531500D01*
X97711866Y-51531500D01*
X97649684Y-51538255D01*
X97513295Y-51589385D01*
X97396739Y-51676739D01*
X97309385Y-51793295D01*
X97258255Y-51929684D01*
X97251500Y-51991866D01*
X97251500Y-54688134D01*
X95186648Y-54688134D01*
X95251149Y-54633530D01*
X95428382Y-54431434D01*
X95573797Y-54205361D01*
X95684199Y-53960278D01*
X95717610Y-53841811D01*
X95755893Y-53706072D01*
X95755894Y-53706069D01*
X95757163Y-53701568D01*
X95775043Y-53561019D01*
X95790688Y-53438045D01*
X95790688Y-53438041D01*
X95791086Y-53434915D01*
X95793571Y-53340000D01*
X95791096Y-53306695D01*
X95773996Y-53076592D01*
X95773996Y-53076591D01*
X95773650Y-53071937D01*
X95733830Y-52895954D01*
X95715361Y-52814331D01*
X95715360Y-52814326D01*
X95714327Y-52809763D01*
X95616902Y-52559238D01*
X95483518Y-52325864D01*
X95317105Y-52114769D01*
X95121317Y-51930591D01*
X94923407Y-51793295D01*
X94904299Y-51780039D01*
X94904296Y-51780037D01*
X94900457Y-51777374D01*
X94896264Y-51775306D01*
X94663564Y-51660551D01*
X94663561Y-51660550D01*
X94659376Y-51658486D01*
X94611745Y-51643239D01*
X94433657Y-51586233D01*
X94403370Y-51576538D01*
X94398763Y-51575788D01*
X94398760Y-51575787D01*
X94185337Y-51541029D01*
X94138063Y-51533330D01*
X94007719Y-51531624D01*
X93873961Y-51529873D01*
X93873958Y-51529873D01*
X93869284Y-51529812D01*
X93602937Y-51566060D01*
X93344874Y-51641278D01*
X93100763Y-51753815D01*
X93096854Y-51756378D01*
X92879881Y-51898631D01*
X92879876Y-51898635D01*
X92875968Y-51901197D01*
X92675426Y-52080188D01*
X92503544Y-52286854D01*
X92501121Y-52290847D01*
X92369181Y-52508277D01*
X92364096Y-52516656D01*
X92362287Y-52520970D01*
X92362285Y-52520974D01*
X92290236Y-52692792D01*
X92260148Y-52764545D01*
X92193981Y-53025077D01*
X92167050Y-53292526D01*
X88168500Y-53292526D01*
X88168500Y-51991866D01*
X88161745Y-51929684D01*
X88110615Y-51793295D01*
X88023261Y-51676739D01*
X87906705Y-51589385D01*
X87770316Y-51538255D01*
X87708134Y-51531500D01*
X85011866Y-51531500D01*
X84949684Y-51538255D01*
X84813295Y-51589385D01*
X84696739Y-51676739D01*
X84609385Y-51793295D01*
X84558255Y-51929684D01*
X84551500Y-51991866D01*
X84551500Y-54688134D01*
X82486648Y-54688134D01*
X82551149Y-54633530D01*
X82728382Y-54431434D01*
X82873797Y-54205361D01*
X82984199Y-53960278D01*
X83017610Y-53841811D01*
X83055893Y-53706072D01*
X83055894Y-53706069D01*
X83057163Y-53701568D01*
X83075043Y-53561019D01*
X83090688Y-53438045D01*
X83090688Y-53438041D01*
X83091086Y-53434915D01*
X83093571Y-53340000D01*
X83091096Y-53306695D01*
X83073996Y-53076592D01*
X83073996Y-53076591D01*
X83073650Y-53071937D01*
X83033830Y-52895954D01*
X83015361Y-52814331D01*
X83015360Y-52814326D01*
X83014327Y-52809763D01*
X82916902Y-52559238D01*
X82783518Y-52325864D01*
X82617105Y-52114769D01*
X82421317Y-51930591D01*
X82223407Y-51793295D01*
X82204299Y-51780039D01*
X82204296Y-51780037D01*
X82200457Y-51777374D01*
X82196264Y-51775306D01*
X81963564Y-51660551D01*
X81963561Y-51660550D01*
X81959376Y-51658486D01*
X81911745Y-51643239D01*
X81733657Y-51586233D01*
X81703370Y-51576538D01*
X81698763Y-51575788D01*
X81698760Y-51575787D01*
X81485337Y-51541029D01*
X81438063Y-51533330D01*
X81307719Y-51531624D01*
X81173961Y-51529873D01*
X81173958Y-51529873D01*
X81169284Y-51529812D01*
X80902937Y-51566060D01*
X80644874Y-51641278D01*
X80400763Y-51753815D01*
X80396854Y-51756378D01*
X80179881Y-51898631D01*
X80179876Y-51898635D01*
X80175968Y-51901197D01*
X79975426Y-52080188D01*
X79803544Y-52286854D01*
X79801121Y-52290847D01*
X79669181Y-52508277D01*
X79664096Y-52516656D01*
X79662287Y-52520970D01*
X79662285Y-52520974D01*
X79590236Y-52692792D01*
X79560148Y-52764545D01*
X79493981Y-53025077D01*
X79467050Y-53292526D01*
X74168500Y-53292526D01*
X74168500Y-48894500D01*
X74188502Y-48826379D01*
X74242158Y-48779886D01*
X74294500Y-48768500D01*
X136525500Y-48768500D01*
X136593621Y-48788502D01*
G37*
%TD.AperFunction*%
%TA.AperFunction,Conductor*%
G36*
X130714280Y-66396120D02*
G01*
X130771116Y-66438667D01*
X130786991Y-66466772D01*
X130818012Y-66543167D01*
X130863266Y-66654616D01*
X130865965Y-66659020D01*
X130966863Y-66823671D01*
X130979987Y-66845088D01*
X131126250Y-67013938D01*
X131298126Y-67156632D01*
X131491000Y-67269338D01*
X131699692Y-67349030D01*
X131704760Y-67350061D01*
X131704763Y-67350062D01*
X131812379Y-67371957D01*
X131918597Y-67393567D01*
X131923772Y-67393757D01*
X131923774Y-67393757D01*
X132136673Y-67401564D01*
X132136677Y-67401564D01*
X132141837Y-67401753D01*
X132281908Y-67383809D01*
X132352017Y-67394993D01*
X132387012Y-67419693D01*
X132584106Y-67616787D01*
X132618132Y-67679099D01*
X132621011Y-67705882D01*
X132621011Y-72232057D01*
X132601009Y-72300178D01*
X132547353Y-72346671D01*
X132477079Y-72356775D01*
X132452956Y-72350831D01*
X132428212Y-72342069D01*
X132423123Y-72341162D01*
X132423121Y-72341162D01*
X132213373Y-72303800D01*
X132213367Y-72303799D01*
X132208284Y-72302894D01*
X132134452Y-72301992D01*
X131990081Y-72300228D01*
X131990079Y-72300228D01*
X131984911Y-72300165D01*
X131764091Y-72333955D01*
X131759172Y-72335563D01*
X131759171Y-72335563D01*
X131729908Y-72345127D01*
X131658944Y-72347278D01*
X131601669Y-72314457D01*
X129737833Y-70450621D01*
X129728731Y-70440478D01*
X129708875Y-70415782D01*
X129705010Y-70410975D01*
X129666556Y-70378708D01*
X129662909Y-70375528D01*
X129661097Y-70373885D01*
X129658903Y-70371691D01*
X129625629Y-70344358D01*
X129624831Y-70343696D01*
X129553504Y-70283846D01*
X129548834Y-70281278D01*
X129544717Y-70277897D01*
X129462892Y-70234023D01*
X129461733Y-70233394D01*
X129385597Y-70191538D01*
X129385589Y-70191535D01*
X129380191Y-70188567D01*
X129375109Y-70186955D01*
X129370415Y-70184438D01*
X129281447Y-70157238D01*
X129280419Y-70156918D01*
X129191672Y-70128765D01*
X129186376Y-70128171D01*
X129181280Y-70126613D01*
X129088721Y-70117210D01*
X129087585Y-70117089D01*
X129053970Y-70113319D01*
X129041248Y-70111892D01*
X129041244Y-70111892D01*
X129037751Y-70111500D01*
X129034224Y-70111500D01*
X129033239Y-70111445D01*
X129027559Y-70110998D01*
X128998153Y-70108011D01*
X128990641Y-70107248D01*
X128990639Y-70107248D01*
X128984516Y-70106626D01*
X128942237Y-70110623D01*
X128938869Y-70110941D01*
X128927011Y-70111500D01*
X127198925Y-70111500D01*
X127130804Y-70091498D01*
X127084311Y-70037842D01*
X127074207Y-69967568D01*
X127103701Y-69902988D01*
X127109830Y-69896405D01*
X130581153Y-66425081D01*
X130643465Y-66391055D01*
X130714280Y-66396120D01*
G37*
%TD.AperFunction*%
%TA.AperFunction,Conductor*%
G36*
X133432026Y-54015144D02*
G01*
X133459875Y-54046994D01*
X133519987Y-54145088D01*
X133666250Y-54313938D01*
X133815985Y-54438250D01*
X133855620Y-54497152D01*
X133861500Y-54535194D01*
X133861500Y-66444629D01*
X133841498Y-66512750D01*
X133787842Y-66559243D01*
X133717568Y-66569347D01*
X133652988Y-66539853D01*
X133646405Y-66533724D01*
X133459609Y-66346928D01*
X133425583Y-66284616D01*
X133423782Y-66241389D01*
X133441529Y-66106590D01*
X133441611Y-66103238D01*
X133443074Y-66043365D01*
X133443074Y-66043361D01*
X133443156Y-66040000D01*
X133424852Y-65817361D01*
X133370431Y-65600702D01*
X133281354Y-65395840D01*
X133191100Y-65256329D01*
X133162822Y-65212617D01*
X133162820Y-65212614D01*
X133160014Y-65208277D01*
X133009670Y-65043051D01*
X133005619Y-65039852D01*
X133005615Y-65039848D01*
X132838414Y-64907800D01*
X132838410Y-64907798D01*
X132834359Y-64904598D01*
X132793053Y-64881796D01*
X132743084Y-64831364D01*
X132728312Y-64761921D01*
X132753428Y-64695516D01*
X132780780Y-64668909D01*
X132829020Y-64634500D01*
X132959860Y-64541173D01*
X132972576Y-64528502D01*
X133068219Y-64433192D01*
X133118096Y-64383489D01*
X133147836Y-64342102D01*
X133245435Y-64206277D01*
X133248453Y-64202077D01*
X133347430Y-64001811D01*
X133412370Y-63788069D01*
X133441529Y-63566590D01*
X133443156Y-63500000D01*
X133424852Y-63277361D01*
X133370431Y-63060702D01*
X133281354Y-62855840D01*
X133160014Y-62668277D01*
X133009670Y-62503051D01*
X133005619Y-62499852D01*
X133005615Y-62499848D01*
X132838414Y-62367800D01*
X132838410Y-62367798D01*
X132834359Y-62364598D01*
X132638789Y-62256638D01*
X132633920Y-62254914D01*
X132633916Y-62254912D01*
X132433087Y-62183795D01*
X132433083Y-62183794D01*
X132428212Y-62182069D01*
X132423119Y-62181162D01*
X132423116Y-62181161D01*
X132213373Y-62143800D01*
X132213367Y-62143799D01*
X132208284Y-62142894D01*
X132134452Y-62141992D01*
X131990081Y-62140228D01*
X131990079Y-62140228D01*
X131984911Y-62140165D01*
X131764091Y-62173955D01*
X131551756Y-62243357D01*
X131476976Y-62282285D01*
X131405762Y-62319357D01*
X131353607Y-62346507D01*
X131349474Y-62349610D01*
X131349471Y-62349612D01*
X131187134Y-62471498D01*
X131174965Y-62480635D01*
X131171393Y-62484373D01*
X131038900Y-62623019D01*
X131020629Y-62642138D01*
X130894743Y-62826680D01*
X130879003Y-62860590D01*
X130808333Y-63012836D01*
X130800688Y-63029305D01*
X130795917Y-63046509D01*
X130758437Y-63106807D01*
X130694308Y-63137269D01*
X130623890Y-63128225D01*
X130569540Y-63082546D01*
X130548500Y-63012836D01*
X130548500Y-57552006D01*
X130568502Y-57483885D01*
X130585405Y-57462911D01*
X132749384Y-55298932D01*
X132759527Y-55289830D01*
X132784218Y-55269978D01*
X132789025Y-55266113D01*
X132821312Y-55227635D01*
X132824467Y-55224019D01*
X132826123Y-55222193D01*
X132828309Y-55220007D01*
X132830264Y-55217627D01*
X132830273Y-55217617D01*
X132855576Y-55186813D01*
X132856418Y-55185798D01*
X132893088Y-55142096D01*
X132916154Y-55114607D01*
X132918723Y-55109933D01*
X132922102Y-55105820D01*
X132965975Y-55023996D01*
X132966584Y-55022874D01*
X132977367Y-55003261D01*
X133011433Y-54941294D01*
X133013045Y-54936212D01*
X133015562Y-54931518D01*
X133042762Y-54842550D01*
X133043108Y-54841439D01*
X133053187Y-54809669D01*
X133071235Y-54752775D01*
X133071829Y-54747479D01*
X133073387Y-54742383D01*
X133082790Y-54649824D01*
X133082911Y-54648688D01*
X133088500Y-54598854D01*
X133088500Y-54595327D01*
X133088555Y-54594342D01*
X133089002Y-54588662D01*
X133093374Y-54545619D01*
X133089059Y-54499972D01*
X133088500Y-54488114D01*
X133088500Y-54303970D01*
X133108502Y-54235849D01*
X133116460Y-54225120D01*
X133118096Y-54223489D01*
X133248453Y-54042077D01*
X133249776Y-54043028D01*
X133296645Y-53999857D01*
X133366580Y-53987625D01*
X133432026Y-54015144D01*
G37*
%TD.AperFunction*%
%TD*%
M02*
