%TF.GenerationSoftware,KiCad,Pcbnew,(6.0.4)*%
%TF.CreationDate,2022-05-24T10:51:08+02:00*%
%TF.ProjectId,XRTL_PCB,5852544c-5f50-4434-922e-6b696361645f,1.0*%
%TF.SameCoordinates,Original*%
%TF.FileFunction,Soldermask,Top*%
%TF.FilePolarity,Negative*%
%FSLAX46Y46*%
G04 Gerber Fmt 4.6, Leading zero omitted, Abs format (unit mm)*
G04 Created by KiCad (PCBNEW (6.0.4)) date 2022-05-24 10:51:08*
%MOMM*%
%LPD*%
G01*
G04 APERTURE LIST*
G04 Aperture macros list*
%AMRoundRect*
0 Rectangle with rounded corners*
0 $1 Rounding radius*
0 $2 $3 $4 $5 $6 $7 $8 $9 X,Y pos of 4 corners*
0 Add a 4 corners polygon primitive as box body*
4,1,4,$2,$3,$4,$5,$6,$7,$8,$9,$2,$3,0*
0 Add four circle primitives for the rounded corners*
1,1,$1+$1,$2,$3*
1,1,$1+$1,$4,$5*
1,1,$1+$1,$6,$7*
1,1,$1+$1,$8,$9*
0 Add four rect primitives between the rounded corners*
20,1,$1+$1,$2,$3,$4,$5,0*
20,1,$1+$1,$4,$5,$6,$7,0*
20,1,$1+$1,$6,$7,$8,$9,0*
20,1,$1+$1,$8,$9,$2,$3,0*%
G04 Aperture macros list end*
%ADD10C,1.400000*%
%ADD11O,1.400000X1.400000*%
%ADD12C,1.600000*%
%ADD13O,1.600000X2.300000*%
%ADD14R,2.600000X2.600000*%
%ADD15C,2.600000*%
%ADD16R,1.600000X1.600000*%
%ADD17O,1.600000X1.600000*%
%ADD18R,1.700000X1.700000*%
%ADD19O,1.700000X1.700000*%
%ADD20RoundRect,0.250000X-0.725000X0.600000X-0.725000X-0.600000X0.725000X-0.600000X0.725000X0.600000X0*%
%ADD21O,1.950000X1.700000*%
%ADD22R,2.200000X2.200000*%
%ADD23O,2.200000X2.200000*%
%ADD24C,0.700000*%
%ADD25O,1.700000X0.900000*%
%ADD26O,2.400000X0.900000*%
G04 APERTURE END LIST*
D10*
%TO.C,R1*%
X81280000Y-81280000D03*
D11*
X76200000Y-81280000D03*
%TD*%
D12*
%TO.C,C3*%
X127000000Y-76200000D03*
X127000000Y-73700000D03*
%TD*%
D13*
%TO.C,K2*%
X99060000Y-60960000D03*
X88900000Y-60960000D03*
X86360000Y-60960000D03*
X86360000Y-68580000D03*
X88900000Y-68580000D03*
X99060000Y-68580000D03*
%TD*%
%TO.C,K1*%
X124460000Y-60960000D03*
X114300000Y-60960000D03*
X111760000Y-60960000D03*
X111760000Y-68580000D03*
X114300000Y-68580000D03*
X124460000Y-68580000D03*
%TD*%
D14*
%TO.C,J6*%
X99060000Y-53340000D03*
D15*
X93980000Y-53340000D03*
%TD*%
D14*
%TO.C,J7*%
X124460000Y-53340000D03*
D15*
X119380000Y-53340000D03*
%TD*%
D16*
%TO.C,U2*%
X96520000Y-99060000D03*
D17*
X96520000Y-96520000D03*
X96520000Y-93980000D03*
X96520000Y-91440000D03*
X96520000Y-88900000D03*
X96520000Y-86360000D03*
X96520000Y-83820000D03*
X96520000Y-81280000D03*
X88900000Y-81280000D03*
X88900000Y-83820000D03*
X88900000Y-86360000D03*
X88900000Y-88900000D03*
X88900000Y-91440000D03*
X88900000Y-93980000D03*
X88900000Y-96520000D03*
X88900000Y-99060000D03*
%TD*%
D18*
%TO.C,J4*%
X127000000Y-127000000D03*
D19*
X127000000Y-124460000D03*
X127000000Y-121920000D03*
X127000000Y-119380000D03*
X127000000Y-116840000D03*
X127000000Y-114300000D03*
X127000000Y-111760000D03*
X127000000Y-109220000D03*
X127000000Y-106680000D03*
X127000000Y-104140000D03*
X127000000Y-101600000D03*
X127000000Y-99060000D03*
X127000000Y-96520000D03*
X127000000Y-93980000D03*
X127000000Y-91440000D03*
X127000000Y-88900000D03*
X127000000Y-86360000D03*
X127000000Y-83820000D03*
X127000000Y-81280000D03*
%TD*%
D14*
%TO.C,J9*%
X111760000Y-53340000D03*
D15*
X106680000Y-53340000D03*
%TD*%
D12*
%TO.C,C2*%
X91440000Y-76200000D03*
X93940000Y-76200000D03*
%TD*%
D10*
%TO.C,R2*%
X81280000Y-66040000D03*
D11*
X76200000Y-66040000D03*
%TD*%
D16*
%TO.C,U1*%
X96520000Y-127000000D03*
D17*
X96520000Y-124460000D03*
X96520000Y-121920000D03*
X96520000Y-119380000D03*
X96520000Y-116840000D03*
X96520000Y-114300000D03*
X96520000Y-111760000D03*
X96520000Y-109220000D03*
X88900000Y-109220000D03*
X88900000Y-111760000D03*
X88900000Y-114300000D03*
X88900000Y-116840000D03*
X88900000Y-119380000D03*
X88900000Y-121920000D03*
X88900000Y-124460000D03*
X88900000Y-127000000D03*
%TD*%
D20*
%TO.C,J2*%
X81280000Y-111760000D03*
D21*
X81280000Y-114260000D03*
X81280000Y-116760000D03*
X81280000Y-119260000D03*
X81280000Y-121760000D03*
%TD*%
D18*
%TO.C,J5*%
X101600000Y-127000000D03*
D19*
X101600000Y-124460000D03*
X101600000Y-121920000D03*
X101600000Y-119380000D03*
X101600000Y-116840000D03*
X101600000Y-114300000D03*
X101600000Y-111760000D03*
X101600000Y-109220000D03*
X101600000Y-106680000D03*
X101600000Y-104140000D03*
X101600000Y-101600000D03*
X101600000Y-99060000D03*
X101600000Y-96520000D03*
X101600000Y-93980000D03*
X101600000Y-91440000D03*
X101600000Y-88900000D03*
X101600000Y-86360000D03*
X101600000Y-83820000D03*
X101600000Y-81280000D03*
%TD*%
D18*
%TO.C,J10*%
X132080000Y-60960000D03*
D19*
X132080000Y-63500000D03*
X132080000Y-66040000D03*
%TD*%
D22*
%TO.C,D2*%
X119380000Y-73660000D03*
D23*
X109220000Y-73660000D03*
%TD*%
D20*
%TO.C,J3*%
X81280000Y-91440000D03*
D21*
X81280000Y-93940000D03*
X81280000Y-96440000D03*
X81280000Y-98940000D03*
X81280000Y-101440000D03*
%TD*%
D12*
%TO.C,C1*%
X91440000Y-104140000D03*
X93940000Y-104140000D03*
%TD*%
D14*
%TO.C,J8*%
X86360000Y-53340000D03*
D15*
X81280000Y-53340000D03*
%TD*%
D22*
%TO.C,D1*%
X104140000Y-63500000D03*
D23*
X104140000Y-73660000D03*
%TD*%
D18*
%TO.C,J11*%
X132080000Y-71120000D03*
D19*
X132080000Y-73660000D03*
X132080000Y-76200000D03*
%TD*%
D18*
%TO.C,J12*%
X129540000Y-53340000D03*
D19*
X132080000Y-53340000D03*
X134620000Y-53340000D03*
%TD*%
D24*
%TO.C,J13*%
X81280000Y-71120000D03*
X81280000Y-71970000D03*
X81280000Y-72820000D03*
X81280000Y-73670000D03*
X81280000Y-74520000D03*
X81280000Y-75370000D03*
X81280000Y-76220000D03*
X81280000Y-77070000D03*
X79930000Y-77070000D03*
X79930000Y-76220000D03*
X79930000Y-75370000D03*
X79930000Y-74520000D03*
X79930000Y-73670000D03*
X79930000Y-72820000D03*
X79930000Y-71970000D03*
X79930000Y-71120000D03*
D25*
X76920000Y-78420000D03*
D26*
X80300000Y-78420000D03*
X80300000Y-69770000D03*
D25*
X76920000Y-69770000D03*
%TD*%
M02*
